/* XPM */
static char *result[] = {
/* columns rows colors chars-per-pixel */
"64 64 223 2 ",
"   c #061D24",
".  c #0A1D26",
"X  c #0C1E2A",
"o  c #121A26",
"O  c #171826",
"+  c #1B1B2A",
"@  c #111F35",
"#  c #3A0C29",
"$  c #26172A",
"%  c #33152C",
"&  c #291B31",
"*  c #391732",
"=  c #062027",
"-  c #092127",
";  c #04222A",
":  c #0C242C",
">  c #0C292F",
",  c #11242E",
"<  c #1A2A2E",
"1  c #0E2833",
"2  c #132C34",
"3  c #152B3A",
"4  c #173237",
"5  c #252538",
"6  c #243936",
"7  c #223B3C",
"8  c #3E3334",
"9  c #4C0827",
"0  c #4D062A",
"q  c #460B2D",
"w  c #4D0B2C",
"e  c #54052C",
"r  c #5C032C",
"t  c #540A2C",
"y  c #5C0D2E",
"u  c #46172E",
"i  c #52122F",
"p  c #490D31",
"a  c #5C0532",
"s  c #540C32",
"d  c #5C0933",
"f  c #5C0C3A",
"g  c #4D1433",
"h  c #4A1934",
"j  c #57153A",
"k  c #5E193B",
"l  c #62042D",
"z  c #69072F",
"x  c #640A2D",
"c  c #640533",
"v  c #6A0633",
"b  c #640B34",
"n  c #6B0A34",
"m  c #6C063A",
"M  c #640C3A",
"N  c #6C0C3B",
"B  c #740A3A",
"V  c #730D3C",
"C  c #631134",
"Z  c #6A1134",
"A  c #65153D",
"S  c #6C113C",
"D  c #73133C",
"F  c #77183C",
"G  c #4C263C",
"H  c #57263C",
"J  c #47383D",
"K  c #5B323F",
"L  c #2F4338",
"P  c #32483B",
"I  c #424D3E",
"U  c #193341",
"Y  c #2A3846",
"T  c #343545",
"R  c #4A1F47",
"E  c #591742",
"W  c #660E41",
"Q  c #6F0E43",
"!  c #750D41",
"~  c #7B0E42",
"^  c #631343",
"/  c #6B1342",
"(  c #641B45",
")  c #691B48",
"_  c #741243",
"`  c #7B1444",
"'  c #7D1B44",
"]  c #7B1649",
"[  c #76194A",
"{  c #7E184A",
"}  c #721D52",
"|  c #442641",
" . c #5B2949",
".. c #553443",
"X. c #4B2E57",
"o. c #5E2B5A",
"O. c #59395A",
"+. c #662C45",
"@. c #6D2A4A",
"#. c #75234D",
"$. c #742A4D",
"%. c #78284B",
"&. c #673649",
"*. c #70394E",
"=. c #672553",
"-. c #63335A",
";. c #793D52",
":. c #6F356A",
">. c #2D4345",
",. c #3B4F4C",
"<. c #3A5165",
"1. c #38626E",
"2. c #5B464D",
"3. c #485545",
"4. c #4C514F",
"5. c #66464D",
"6. c #6C4451",
"7. c #784653",
"8. c #745251",
"9. c #785957",
"0. c #5C6651",
"q. c #666E52",
"w. c #7B665B",
"e. c #777858",
"r. c #4D546D",
"t. c #495D6B",
"y. c #625472",
"u. c #486877",
"i. c #7C6466",
"p. c #7D7060",
"a. c #6D6375",
"s. c #7E6D78",
"d. c #820F48",
"f. c #831E45",
"g. c #84144C",
"h. c #86194A",
"j. c #831C4A",
"k. c #881C51",
"l. c #8C1C54",
"z. c #921856",
"x. c #921D5B",
"c. c #872046",
"v. c #84204C",
"b. c #89214D",
"n. c #862154",
"m. c #8A2355",
"M. c #88255B",
"N. c #95235B",
"B. c #9A235E",
"V. c #892D61",
"C. c #9D2562",
"Z. c #9C2964",
"A. c #9A3571",
"S. c #A12563",
"D. c #A22966",
"F. c #A52D6B",
"G. c #A92E6B",
"H. c #A6306D",
"J. c #AA3070",
"K. c #845957",
"L. c #8A6656",
"P. c #867D5C",
"I. c #97705E",
"U. c #94556A",
"Y. c #9E477B",
"T. c #A44C69",
"R. c #A95A76",
"E. c #897468",
"W. c #987462",
"Q. c #866C72",
"!. c #AE706E",
"~. c #7F815C",
"^. c #88865D",
"/. c #978965",
"(. c #999363",
"). c #A88868",
"_. c #A7986A",
"`. c #B6996A",
"'. c #B18F72",
"]. c #BA9B73",
"[. c #AFA468",
"{. c #B5A86D",
"}. c #B8A471",
"|. c #C9AA6D",
" X c #C2B06F",
".X c #C6AD74",
"XX c #CBAC73",
"oX c #C9B575",
"OX c #CCB974",
"+X c #D3B475",
"@X c #D3BB76",
"#X c #DBB977",
"$X c #DBBB7A",
"%X c #E4BF7A",
"&X c #DBC176",
"*X c #DCC37A",
"=X c #E3C36F",
"-X c #E4C474",
";X c #EACA76",
":X c #E4C57B",
">X c #E8C778",
",X c #E5CA7B",
"<X c #EDCD7B",
"1X c #F0CF7D",
"2X c #EED17D",
"3X c #F4D47E",
"4X c #F8D77F",
"5X c #F9D87F",
"6X c #567280",
"7X c #616D80",
"8X c #A67A82",
"9X c #999986",
"0X c #B3AC8A",
"qX c #CAAE86",
"wX c #CCB984",
"eX c #DAB683",
"rX c #D6C587",
"tX c #E9C682",
"yX c #EDD382",
"uX c #F6D680",
"iX c #F8D780",
"pX c #F7D881",
"aX c #F9D981",
/* pixels */
"5XiX5X5XuXiX5XuXiXiXuXuX4XiXuXiX3X3X3XiXiX5XuXuXuX3XiXpXiXiX5XuXiXiXiXiXiXpXiX5XiXiXiXiXiXiXiXiXiXiXiXiX5X5X5X5X4X4X5XuXiX5XiXiX",
"uXuXuXuXuXuXuXuXuXuXuXuXuX3X1X1X3X3XuXuXuXuXuXuXuXuXuXuXuXuXuXuXpXuXuXuXuXuXuXuXuXuXuXuXuXiXuXuXuXuXuXuXuXuXuXuXuXuXuXuXuXuXuXuX",
"uXuXuXuXuXuXuXuXuXuX3XuXuX3X<X;X<X3XuXuXuX3XuXuXuXuXuXuXiXuX3XuXuXuXuXuXuXuXuXuXuXuXuXuXuXuXuXuXuXuXuXuXuXuXiXiXuXuXuXuXuX3XuXuX",
"3XuXuXuXuXuXuXuXiXuX3X3X1X1X1X<X<X2X3XuXuXuXuXuXuXuXuX5XuXuXpXuXuXuXuXuX3XuXuXuXuXuXuXuXuXuXuXuXuXuXuXuXuXuXuX3XuXuXiXuXuXuXuXuX",
"iXuXuXuX3XuXiXuX3X3X3X<X;X<X1X3XuXuX3XuXuXuXuXuX3XuXuXuXuXuXuXuXiXuX3XuXiXuXuXuXuXuXuXuXuXuXiXiXuXuXuXuXuXuX3X3XuXuX3XuXiXiXuXuX",
"iXiXuXuXuXuXuXuXuX3X3X<X;X;X3XuXuX3X<X3XuXuXuXuXuXuXuXuX3XuXiXpXuXuXuXuXuXuX4XuXuXuXuXuXuXuXuXiXuXuXuXuX1X1X3X3XuXuXuXuXuX3XuX5X",
"uXuX5XuXuX3XuXuXuX3X2X<X<X<XuXuX3X<X-X;XtXuXuXuXuXuX3XuXuXiXuX3XuXuXpXpXuXuXuXpXuXuXuXuXuXuXiXiXuXuXuXuX1X;X3X3X3XuXuXuXuXuXuXuX",
"uXuXuXuXuXuXuXuXuX3XuXuXuXuXuXuX<X;X=X-X:X<XuXuXuXuXpXiXuXuXuXuXuXuXuXuXuX3XuXuXuXuXuXuXuXuXaXtXtXeXeXeX#X%X,X3X3XuXuX3XuX3XuXuX",
"uXuXuXuXuXuXiXpXuXuXuXuXuXuX3X3X<X<X-X-X-X<XyXaXuXuXuXuXiXuXiX3X3XuXpXuXuXuXuXuXuX3XiXuXaXiXrX0X8XU.T.T.T.R.!.'.$XuXiXiXiXuXuXuX",
"uX4XpXuXuXpXiX3XuXuXuXuXuXuX3X3X2X<X<X<X<XuXuXuXiXuX3XpXuXuXuXpXpX5X3XuXuXuXuXuXuXuXuXuXaXyX9X7X:.n.k.z.N.x.C.A.Y.'.:XyXuXuXuXuX",
"uX3XuXuX3XiXuX3X3XiXuXuXuXuXpX3XuXuXuXuXuXuXuXuXuXuXpXuXuXuXuXpXuX5XuXuX3XiXuXuXuXuXiXuXyX9Xy.X.=.V.N.B.S.S.C.D.D.A.R.8XqXyXuXuX",
"uXpXuXuXuXuXuXiXpXuXuXuXuXpXuXuXuXuXuXuXuXuXuXuXuXuX3XuXuXuXuXuXuXpXiXuXuXuXuXuXuXiXuXiX0X7Xr.T o.V.D.G.D.G.F.H.J.F.G.H.R.tXuXuX",
"3XuXuXiXiXuXuXuXuXuXuXuXuXuXpXuXuXuXuXuXpXuXiX3XuXuX3XpXuX3XuXuXuX3XuXiXuX3X3XuXuXuXiXwXa.<.6Xt.O.V.D.G.H.J.H.H.J.F.G.G.J.!.iXiX",
"uXuXuX5XiXpX3XpXuXuXuXuXuXuXpXuXuXuXuXuXpXpXuXuXuXuXuXuXuXuXuXuXuXuXpX3XuXuXuX3XuXiXtX7XX.T t.u.O.M.D.D.F.H.H.H.F.J.G.G.G.A.eXiX",
"iXuX3X3XuX3X3XuXuXuXuXuXuXuXuXuXuXuXuXuX3XiXuXuXuXuXuXuXiXuXuXuXuXuXuXpXuXpXuX3X3XwXs.o.R @ 1.6XO.V.C.C.Z.F.F.F.F.F.J.F.J.A.eXiX",
"uXiXuXpXuXuXuXuXuXuXuXuXuXuXuXuXuXiXuXuXuXuXuX3XuXuXuXuXuXuXuXuXuXuX3X3XuXuXuX3XoXs.o.) R U 1.u.O.M.N.C.C.C.C.F.F.F.F.F.J.8XqXyX",
"uXuXuX3XuXuXuXuXuXuX3XuXuXiXuXuXuXuXuXuXiXuXuXuXuXiXuXuXuX3X3XiXuXiXiX3XuXyXuX<X].;.^ ^ T U 6Xr.O.l.V.x.N.B.N.B.S.S.S.S.D.A.a.rX",
"uXuXuXuXuXuXpXuXuXiXuXuXuXuXiXiXuX3XuXuX3XuXuXuX3XuXuXuXiXuXuXuXuXuXuX1X<X<X<X_.-.E c A | <.6X4. .g.l.l.z.c.c.h.h.z.z.z.x.V.y.:X",
"uXuXuXuXuXpXuXuXuXuXuXuX5XuXiX3XuXiXuXiXuXiXuXuXuXuXuXuXuX3XuXuXuXuX3X3X<X#X`.*.j a c a  .t.1.7 E ` g.d.f.~ f.~ d.d.d.g.} -.E.<X",
"uX3XuXiXuXuXiX3X3XiXuXuXuXuX5XuXuXiXuX3X3XuXuXuXuXuXiXiXuXpXpXuXuXuX5X1X+XI.@./ N c m c p & 2 5 h Z V D B B B F B ~ d.` =.i.:X3X",
"uXuXuXuXuXuXuXuXuXpXiXuXuX5X3XuXuXuX3XuXiXuXuXuXiXuXiX3XiXpXiXpXiX1X#X).;.W ! ! ! m v v s * 5 & g b x z z z z B B B D ( 8.*XuXuX",
"uXuXuXuXuXuXiXuX3XuXuXuXuX3XuXuXuXuXuXuXuXiXiX3XuXuXuX3X5XpXpX3X+X).7.) ! ~ m ! V m v c c s u u i x x l z z Z Z Z D S  .}.pXuXuX",
"uX3XuXuXuXuXuXuXuXuXuX3XuXuXuX3XuXuXuX3XuX5XiXuX3XuXiX5XuXuX+XW.7.( / ! ! B V ~ ~ V m c c a y t y r l x x x Z Z F F ) 2.:XuX3X5X",
"3X5XuXuXuXuXuXuXuXuXuX3X3X3X3X3XpXuXuXuXuXuXuXuXuXuXuXiXpXXX7.E W Q ! ~ ! ! ! ] ~ V M c n c x l x x x r x x Z F F ' } 8.<XuXuXuX",
"pXuXuXuXuXuXuXuXuXuXuXuX<X-X;X1XuXuXuXuXuXuXuXuXuXuXpXuXXX7.M ! ! ! ! ~ ! ! / / / f d b c v x x x Z z x x Z Z F ' f.%.).uXiX3XuX",
"pXuXuXuXuX3XpXuX2XuXuXuX<X;X;X3XuX3X3X3XuXuXuXuXuXpXyX`.6.^ N m N m V D Q S S ) / M N n b v n x Z Z F Z Z F F f.f.f.$.#XuXpXuXuX",
"uXuXuXiXuXuXuXuX3X<X,X<X<X<X2X3X3X3XuXuXuXuXuXuX<X.XW.*.E N m m m n m m m b M / N V B V v v x x Z F F F F F %.f.f.' $.#X3XuXuXuX",
"uXuXuXiXuXuXuXuX3X-X=X-X<XuX3X3X3X3XuXuXuXuX+XW.K.;.) / N m M m c m M b b b M m m m V V B v v v V F %.F ' F c.c.f.j.$..X3X3XpXuX",
"uXuXuXuXuXuXuXuX3X>X-X;X3XuXuX3X<X<X1X3X+XW.@.) W m W m m m c M M M N M b b M m m v V ~ B n v n D ` ' d.' v.v.c.h.h.#.XXuXuXuXuX",
"uXuXuXuXuXuXuXuX3X3X2X3XuXuX3X;X=X#X|.I.&.A f m m m m c c c b M M M b M b c b c c c V ~ B n v V F ` ' j.v.m.b.b.b.h.#.#XuXiXuX3X",
"uXiXuX:X@X:X3X3X3X3X3XuXuX3X<X&X`.5.+.E f a c m c m c c a c M M b b d d d a a c l l n ` V n v V ` ` ] k.m.m.b.k.h.' #.%XuXuXiXiX",
"uXuX&X3.7 ,.^.&X2X3XpXuXyX:X].K. .d a a a a a a a a a c c a a d d d d d c c r a l l c n n z v V V _ { m.m.m.h.f.` V %.:XuXuXuXuX",
"4X2X(.2 > 2 2 >.e.oX:X<X+Xi. .( f a e a a a e a r r r r r r r d s d d a a a c l l l l l l l x v m V { n.k.h.{ ' B V V.;X3X5X3X5X",
"3XOX6 - - : : , X 4 2.9.&.E ^ M c a e e e e d e r t r r e e y e y t s e r a r a r l r r l l v n m V ` { ' ` ` ' D ( Q.tX5X3XpX5X",
"2X(.> ; = - : , + $ * j f f M / W a e e e e e e t e t 9 t t 0 w w q w e r r r r r l r r r v N N N _ _ _ _ D Z #.7.i.oXuX3XpX3XpX",
"2X{.2 - = - : : , $ * s d c d M W a a e e e e w g h H K &.K  .| ....G p e e r r r r r r x B Z _ N S N Z Z Z +.E.%XuXuXuX3XpXpX3X",
"3X*X0.2 ; ; - : o $ % u t s d d f d f d p g  .9.L.w./.+X*X{._._.}._.p.K 0 e e r c r l r M N S Z N M b n Z &.W.yXpXpX3XpXpXuXpXuX",
"pX3X&X~.3.7 ; ; X o O % # q q p k &. .&.6.9.`.yXpXuXaXuXpXpXuXiXaXpX<XL.q e r c c M m n n M b b b x b Z +.).<XuXuX3XuXuXpXuXuXuX",
"uXpX3XpX:X(.q.3.2 . o o $ J L.L.)..X}.}..XOXyXaXuXuXuXuXaXaXiXuXaXpXeXK.s n m S S S N b b n b x C C C +./.<XiXiXuXuXuXuX3XuXuXuX",
"uXpXpXpXiXaXyXOX^.0.6 2 3._.2XpXpXaXaXaXaXaXuXuXuXuXuXuXoX/._.}.'.'.L.$./ ! V _ _ Z M b n y y b x C H W.<XuXiX3XuXuXuXuXuXuXuXpX",
"uX3XuX3XpXuX4XpXpX*X_._.OX4XuXuXpXuXuXuXiXuXuXuXiXuXiX@Xq.U Y 4.O.=.[ [ [ ! ! ! / N S M C b x x y k K.#XuXuXuXuXuXuXuXuXuX3XuXuX",
"uXuXuXuXpXuXuXuXuXiXaXaX4X4XuXuXuXuXiX3XuXuXuXuXuXuXaX_.U 1 3 5 R ! ~ ] [ _ _ Q N A M Z C C C y k 6..X3X1X3XuXuXuXuXpX3XuXiXuXuX",
"pXuXuXuXiXuXuXuX3XiXuXuX3XpX3XuXuXiXuXuXuXuXuX3XuX5XpX*Xq.> ; < h A Q ! _ [ / N M Z Z b Z C y k &._.-X;X;X<X3XuXuXuXuXuX3XuXpXuX",
"pX3XuXuXuXuX3XpXuXuXuX3X4XpXpXpXuXuXuXuXiXuXuXpXuXiXiXpX&X~.P 6 J &.A f M / N M M C Z f y y y j ).%X=X%X-X;X<XuXuXuXuXuX5XuXuX3X",
"uXuXuXuXuXuXuXuXuX3X3X1X3XuXuXuXuXuXuXuX3XpXuXuXuXuX3XuXpX,XOXoXOX+XK.t e d a d s d C y t t i 9.+X<X-X-X-X>X1XuXuX3XuXiXiXuXuXuX",
"uXuXuXiXiXuXuXuXuX3X;X;X2XuXuXuX3X3X3XiXiX3XuXiXuXuX3XpXuX5XpXiX5X5X).R q 0 0 0 t t t t t u 8..X2X3X<X<X,X<X3XuXuXiXuXuXiXuXuX3X",
"uXuXuXuXuXuXuXuXuX1X<X<X2X3X3XuXpXuXpXuXiX3XuXiXuXuXuXuXuXuXyX*X{.p.3.& p 0 0 0 9 9 9 g ..).:X3X3X3XuXuX3XuXuXiXuXuXuXuXuXuXuXiX",
"uXuXuXuXuX3X<X<X<X<X<X2XuX3XuX3XpX3X3XuXuXuXuXuXuXuXuXuX3X@X^.Y 3 3 @ $ # q 0 0 9 9 u 5. X3X4X4XuX3XuXuXuXuXuXuXuXuX3XpXuXuXuXuX",
"uXiXuXuXuXuX<X-X;X<XuXuXuX3X3X3X3X4XiXuX1XiXuXiXuX3XiX<X(.>.4 1 : X X O $ # # # u G 5.].uXuXuXuXuXuXuXuXpXpXuX4XuXuXiX3XuX5XuXuX",
"uXuXuXiXuXuX1X<X;X3XuXuXyX<X>X<X1XiXiXiXiXiXuXiXuXuXaX{.>.2 2 : X . . o O O $ 8 P..X:XuXyXuXuXuXuXuXuXuXuXpXpXuXpX3XuXiXiXuXuX3X",
"uXuXuXiXuXuX1XuX3XpXiXuX<X-X&X=X>X1XuXuXuXuXuXuXuXpXaX_.4 > , - . .     < I e. X3X5XuXuXiXuXuXuXuXuXuXuXpXuXuXiXuXpXiXuX3XuXiXuX",
"uXuXuXuXuXuXuXuX3X3X3X3X<X-X-X-X>X1XyXuX3XuXuX3XuXpXaX X,.= - -     < I (.-XiXuX5X5XuXuXuXuXuXuXuX3XuXuX3XuXuXuX3X3XuXuXpXuXiXuX",
"iXuXuXuXuXiXuXuXuX3X3X3X1X<X<X;X1XyXiXiXuXuXuXuXuXuXiXpX[.3.P 6 6 L ^.&XuXiXuXuX3X3XiXuXuXuXuXuXuXiXiX3XuX5XuXuXpXpXuXuX5XuXuXuX",
"uXuXuXuXiXuXuXuXuXuXuXuX3X3X3X3XyXuXiXiXuXuXuXuXuXiXpX3X3X<X{._._. X2X4XuXuXuXpXuXuX3XuXuXuXuXuXuX5X3XuXuXuXuXuXiX3X3XuXuXuXuXuX",
"uXuXuXuXuXiXuXuXuXuXuXuXuXuXuXuXuXuXuXuXuXuXuXuXuXuXuX3X3X3X4XpXuXaX3XpXuXuXuXuXuXuXuXuXuXuXuXuXuXuXuXuXuXuXuXuXiXuXuXuXpXuXuXuX",
"uXiXuXiXuXuXuXuXuXuXuXuXuXuXuXuXuXuXuXuXuXuXuXuXuXuXuXuX4X4X3X2XuXuXpX3XiXuXuXiX3XuXuXuXuXuXuXuXuXuXuXuXuXuX3XuXiXuXuXuXuXuXuXuX",
"uXuXuXiXuXuXuXuXuXuXpXuXuX3X3XpXiXuXiXuXuXuXuXuXuXuXuXiXuXuXyX<XtXuXuXuXuXuXuXuXuXuXuXuXuXuXuXuXuXuXuXuXuXuXuXuX3XiXuX5X3XuXuXiX",
"uXuXuXuXuXuXaXuXuXuX4X3XuXuXuXpXuXuXuXuXuXuXuXuXuXuXuXuXuXuX<X%X:XyXuXuXuXuXuXuXuXuXuXuXuXuXuXuXuXuXuXuXuXaXuXuXuXuXuXuXuXuXuXuX",
"uXuXuXuXuXuXuXuXuXuXuX3XuXuXuX3XuXuXuXuXuXuXuXuXuXuXuXuXuXyXyX<X>X1XuXiXuXuXuXuXiXuXuXuXuXuXuXuXuXuXuXuXuXuXuXuXiXiXuX3XuXuXuXpX",
"uXuXuXuXuXiXuXuXuXuXuXuX3XuXpX4XuXuXuXuXuXuXuXuXuXuXuXuXuXuXuXuXuXuXiXuX3XuXuXuXuXuXuXuXuXuXuXuXuXuXuXuXuXuXuXuX3XuXuX5XuXuXuXuX",
"uXuXuXuXuXuXaXuXuXuXuXuXuXuX3XpXuXuXuXuXuXuXuXuXuXuXuXuXuXuXuXiXuXiXuXuXuXuXuXiXuXuXuXuXuXuXuXuXuXuXuXuXuXuXuXuXuXuXuXuXuXuXuXuX",
"uXuXuXuXuXuXuXuXuXuXuXuXuXuXpXuXuXuXuXiXuXuXuXuXuXuXuXuXuXuXuXuXiXiXuXuXuXuXuXuXpXuXuXuXuXuXuXuXuXuXuXuXuXiXuXuXuXuXuXaXuXuXiXuX",
"uXuXuXiXuXuXuXuXuXuXuXuXuXuXuXuXuXiXuXuXuXuXiXuXuXuXuXuXuXuXuXuXuXuXuXuXuXuXuXuXpXpXuXuXuXpXuXuXaXuXuXuXuXuXuXuXuXuXuXuXuXuXuXuX",
"uXuXuXiXuXuXuXuXuXuXuXuXiXuXuXiXiXuXuXuXuXuXiXiXiXuXuXiXuXiXuXuXuXuXuXuXuXuXuXuXpXpXuXuXuXuXuXuXuXuXuXuXuXuXuXuXuXuXuXuXuXuXuXuX"
};
