/* XPM */
static char *result[] = {
/* columns rows colors chars-per-pixel */
"64 64 216 2 ",
"   c #17121F",
".  c #26081F",
"X  c #061624",
"o  c #071B26",
"O  c #0A1B26",
"+  c #031B2B",
"@  c #091D2B",
"#  c #131323",
"$  c #141B25",
"%  c #1A192A",
"&  c #031F31",
"*  c #2C0B24",
"=  c #270F28",
"-  c #3B0927",
";  c #340E28",
":  c #3B0B2A",
">  c #2A152A",
",  c #271D2F",
"<  c #38132C",
"1  c #3C0F34",
"2  c #281A36",
"3  c #3C1A36",
"4  c #341A3B",
"5  c #0B222D",
"6  c #142B2E",
"7  c #052032",
"8  c #0A2232",
"9  c #0F2B3B",
"0  c #142A37",
"q  c #1C333C",
"w  c #2D2B33",
"e  c #353B33",
"r  c #430526",
"t  c #4D0527",
"y  c #480927",
"u  c #450629",
"i  c #4C0629",
"p  c #440A2B",
"a  c #4C0A2B",
"s  c #540327",
"d  c #510827",
"f  c #54062A",
"g  c #59062D",
"h  c #530A2D",
"j  c #5A092E",
"k  c #46152F",
"l  c #48112E",
"z  c #470E31",
"x  c #4D0D33",
"c  c #5E0631",
"v  c #550C32",
"b  c #5C0C32",
"n  c #4C1533",
"m  c #441933",
"M  c #4D1238",
"N  c #541233",
"B  c #5D1136",
"V  c #561438",
"C  c #5D1439",
"Z  c #531B3C",
"A  c #5C1C3D",
"S  c #640631",
"D  c #630C34",
"F  c #6B0B35",
"G  c #660D38",
"H  c #6A0E39",
"J  c #710B36",
"K  c #740E3B",
"L  c #641036",
"P  c #65123A",
"I  c #67173B",
"U  c #6C113B",
"Y  c #74123D",
"T  c #78123F",
"R  c #492C3A",
"E  c #55273C",
"W  c #53393E",
"Q  c #37443A",
"!  c #57413D",
"~  c #371D44",
"^  c #0F2F44",
"/  c #252943",
"(  c #352F49",
")  c #3B344B",
"_  c #2B3B54",
"`  c #5A1E43",
"'  c #6C1541",
"]  c #6D1A48",
"[  c #741442",
"{  c #7A1543",
"}  c #741844",
"|  c #7A1946",
" . c #751C4C",
".. c #7C1B4A",
"X. c #552742",
"o. c #483743",
"O. c #5B3343",
"+. c #5E334B",
"@. c #5C3A48",
"#. c #5C2E57",
"$. c #622442",
"%. c #632B44",
"&. c #7B204C",
"*. c #663D4C",
"=. c #782758",
"-. c #7A3061",
";. c #384541",
":. c #304552",
">. c #324C61",
",. c #39556A",
"<. c #494544",
"1. c #4D584A",
"2. c #54564B",
"3. c #555A48",
"4. c #424F52",
"5. c #415751",
"6. c #694444",
"7. c #605044",
"8. c #755548",
"9. c #7C544D",
"0. c #725455",
"q. c #775855",
"w. c #7F5C52",
"e. c #5B644A",
"r. c #596552",
"t. c #67674C",
"y. c #656D58",
"u. c #7C7655",
"i. c #73705B",
"p. c #4B556B",
"a. c #495C74",
"s. c #62496C",
"d. c #6C4D6E",
"f. c #6E4F73",
"g. c #5E797E",
"h. c #6D6461",
"j. c #831B4B",
"k. c #861E51",
"l. c #862255",
"z. c #8C2658",
"x. c #8C255C",
"c. c #902555",
"v. c #91245B",
"b. c #92295E",
"n. c #843756",
"m. c #862D61",
"M. c #952C63",
"N. c #952A64",
"B. c #982F66",
"V. c #992F68",
"C. c #983866",
"Z. c #9A3069",
"A. c #874953",
"S. c #845354",
"D. c #896457",
"F. c #956A57",
"G. c #847B53",
"H. c #88775B",
"J. c #93725A",
"K. c #9F7D5F",
"L. c #A4456A",
"P. c #A95669",
"I. c #AF5C70",
"U. c #9F626E",
"Y. c #AF6E6B",
"T. c #A17760",
"R. c #BD7A70",
"E. c #7F805F",
"W. c #8F895B",
"Q. c #8F876A",
"!. c #998A63",
"~. c #9C9465",
"^. c #AA8C65",
"/. c #B58068",
"(. c #A79867",
"). c #B59768",
"_. c #AFA168",
"`. c #B6A66C",
"'. c #B9A56C",
"]. c #BBAE72",
"[. c #B7A879",
"{. c #C39B6E",
"}. c #C99875",
"|. c #D39A76",
" X c #C5A56D",
".X c #C6AA6E",
"XX c #C6B06E",
"oX c #C3AB70",
"OX c #CCA971",
"+X c #D7AC77",
"@X c #CAB570",
"#X c #D5B775",
"$X c #DBB677",
"%X c #D5B975",
"&X c #DBBC76",
"*X c #E3BC7C",
"=X c #DDC479",
"-X c #E3C36F",
";X c #E4C473",
":X c #E8C776",
">X c #EACA76",
",X c #E4C479",
"<X c #E7C779",
"1X c #E5CA7B",
"2X c #ECCC7B",
"3X c #F1CF7E",
"4X c #EED07D",
"5X c #F4D47E",
"6X c #F9D77F",
"7X c #F9D87F",
"8X c #ACAE80",
"9X c #F1CF80",
"0X c #F6D680",
"qX c #F8D780",
"wX c #F7D881",
"eX c #FAD981",
/* pixels */
"7XqX7X7XqXqXqXqXqXqX0X0X6X0X5XqX5X7X5XqXqX7X0X0X0X5XqXqXqXqX7X0XqXqXqXqXqXwXqXqX0X0XqXqXqXqXqXwXqXqXqXqX7X7X7X7X7X5X7X0XqX7XqXqX",
"0X0X0X0X0X0X0X0X0XwX0X0X0X0X3X3X4X5XwX0X0X0X0X0X0X0X0X0X0X0X0X0XwX0X0X0X0X0X0X0X0X0X0X0X0X0X0XwX0X0X0XwX0X0X0X0X0X0X0X0X0X0X0X0X",
"0X0X0X0X0X0X0X0X0X0X5X0X5X5X2X>X2X5X0X0X0X5X0X0X0X0X0X0X0X5X0X7X0X0X0X0X0XqX0X0X0X0X0X0X0X0X0X0XwX0X0X0X0X0XqX5X0X0XqX0X0X5X0X0X",
"5X0X0X0X5X0X0X0X0X0X5X5X5X3X3X2X4X4X5X5X0X0X0X0X0X0XwX5X0X0X0X0X0X0X0X0X0X0X0X0X0X0X0X0X0X0X0X0X0X0X0X0X0XwXwX7X0XqX0XqX0X0X0X0X",
"0XqX0X0X5X0X0X0X0X5X5X>X>X>X5X5X0X0X4X5X0X0X0X0X0X5X0X0X0X0X0X0X0X0X7X0X0X0X0X0X0X0X0X0XwXeXwXwXwXwXwXwXwX0X5X5X5X0X5X0X0XqXqX0X",
"qXqXqX0X0X0X0X0X0X5X5X2X:X>X5X5X0X5X5X5X9X0X0X0XwXwX0X0X7X0X0X0X0X0X0X0X0X0XwX5X0XwX0X9X*X+X|.|.|.|.|.$X2X5X5X5XwX0X0X0X0X5XqX0X",
"0X0XqX5X0X0X0X0X0X5X4X2X2X2X0X0X5X2X;X>X9X9X0X0X0X0X0X0X0X0X0X0X0X0X0XwX0X0X0XwX0XeX*XR.I.L.M.N.N.b.N.P.+X2X2X5X0X0X0X0X0X0X0X0X",
"0X0X0X0X0X0X0X0XwX5X0X0X0X0X0X0X4X;X-X;X,X9X0X0X0X5X0X0X0X0X5X0X0X0X0X0X0XwX5X0X9X[.U.C.V.Z.V.V.M.B.M.M.P.R.|.>X5X0XqX5X0X0X0X5X",
"0X0X5X0X5X0X0XwX0X0X0X0X0X0X5X5X4X2X;X;X;X2X0X0X0X0X0X5X0X0X0X0X5X0X0X0X0X0X0X0X8Xs.-.M.V.Z.Z.V.B.b.B.b.b.b.C.}.2X0X0X5X5X0X0X0X",
"5XwXwX0XqXqX0X5X0X0X0X0X0X0X5X5X2X2X2X2X2X0X0X0X0X0X0XwX0X0X0XwX0X7X5X0X0X0XqX[.g.s.-.N.M.V.V.V.B.B.B.B.V.B.v.C.$X5X5X5XwX0X0X0X",
"0X0X0X0XwX0X0X0X5XqX0X0X0X0XwX5X0X0X0X0X0X0X0X0X0X0X0X0X0X0X0X0XwXqXqXqXqX0X(.,.a.f.m.N.N.M.Z.Z.V.B.Z.B.B.b.b.c.Y.;X2X5X0X0X0X0X",
"0X0X0X0X0X0X0XqXqX0X0X0X0X0XwX0X0X0X0X0X0X0X0X0X0X0X0X0X0X0X0X0XwXqX1XQ.h.h.) _ a.d.m.x.N.M.V.M.B.Z.Z.Z.B.B.b.c.z./.;X3X0X0X0X0X",
"5XqX0X0X0X0X0X5X0X0X0X0X0X0XwX0X0X0X0XwXwXwXwX5X0X0X0X0X0X0X0X0X].y.4.( ~ ~ 2 _ s.d.x.m.k.N.N.N.B.V.V.V.B.M.b.c.j.n.$X5X0X0X0X0X",
"qX0X0X7XqX5X0XwX0X0X0X0X0X0XwX0X0X0X0X0X0X0X0X0X5X0X0X0X0X0XqX].5.^ 0 2 1 1 / ,.f.m.x.x.x.x.k.N.b.B.B.V.B.B.v.j.{ &.$X5X0X0X0X0X",
"0X0X0X5X0X0X5X0X0X0X0X0X0X0X0X0X0X0X0X5X0X0X5X0X5X0X0X0XwX0XeX`.;.& 6 , 4 ( >.a.s.=.=.l.k.k.x.x.N.B.Z.Z.V.b.k.j.T { {.5X0X0X0X0X",
"0X7X0X0X0X0X0X0X0X0X0X0X0X0X0X0X0X0X0X0X0X0XwX0X0X0X0X0XwXwXqX%X3.6 2.u.2.>.,.p.#.=...........k.k.z.b.B.M.b.k.{ T K -.OX9X0X0X0X",
"0X0X0X5X0X0X0X0X0X5X0X0X0XqX7X0X0X0X0XqXqX0X0X5X0X0X0X0X0X0X5X5X`.`.2X4X~.:.^ / ` ] ] [ [ } } { [ [ ..k.k.j.j.{ K J ' q.9X0X0X0X",
"0X0X0X0X0X0X0X0X0XqX0X0X5X0X0XqX5X0X0X5X0X0X0X0X0XwX0X5XqX0X0X0X0X0X0X5X%Xr.9 2 ` ' ' U U U Y Y [ [ [ K [ K T K J J H #.+X0X0X0X",
"0X5X0X0X0XwX0X0X0X0X0X0XqXqX0X0X0X0XqX0X0X0X0X0X0X5X0X0X0X5X0X0X0X0X5X5X4X~.o.4 M C P P P H U U Y H F F F K K T K J H X.&X0X0X0X",
"0X0X0XqX0X5X0X0XwX5X0X0XqX0X7X0X0X0X0X0X5X0X0X0X0XqX0XqX0XwX0X0X0X0X5X5X5X>X9.z v v D D D D F L G H H J Y T T K J F G *.,X0X0X0X",
"0X0X0X0XqX0X0X0X0XqX0X0XqX5X5X0X0X0X0X0XqX0X0X0X0X5XqX5X0XwX0XwX0X0X0X0X0XK.E x v b b j b D S F D G U Y } T T J F F U J.9X0X0X0X",
"0X0X0X0X0X0XqX0X0X0X0X0X0X5X0X0X0X0X0XqXqX0X0XqX0X0X0X0XwX5X0XwX0X0X0X5X^.%.h g b f s g j j j j D P I Y { { T K J H ' OX9X0X0X0X",
"0X0X0X0X0X0X0X0X0X0X5X0X0X0X5X5X0X0X0X5X0X0X0X0X0X0X0X0X0X0X0X5X0X0XwXoX*.v c s s g s g D D D c L U } | | { T K J F %.*X0X0X0X5X",
"7X5X0X0X0X0X0X0X0X0X0X5X5X5X5X5X0X0X0X5X0X0X7X0X0X0XqX7X5X5X0X0X0X0XeXK.Z v c g g s s D L D D D P Y | j.| { T Y J P F.2X0X0X0X0X",
"0X0X0X0X0X0X0X0X0X0X0X0X2X;X>X5X0X0X0X0X5X0X0X0X0X0X0X0X5XqX0X0X0XqX3XD.v D b c g g j D L D G G U } ..| | T T J J I +X0X5X0X0X0X",
"wX0X0X0X0X0X0X0X5X5X0X9X2X>X>X5X5X5X5X0X0X0X0X0X5X5X5X0X0X0X0X0XwXqX#X0.v D B b c g D D D D G G Y | | j.T T T J J $.,X0X7XwXwX5X",
"5X0X0X0X0X0X0X0X5X2X2X2X2X2X2X5X5X5X0X0X0X0X0X0X0XwX0X0X5X7X0X0XwXeX).O.v b b B b D D D S b G H } | | T { T J J F I ,X0X0X0X0X0X",
"0X0X0XqXqX0X0X0X5X;X-X;X2X0X0X0X5X5X0X0X0X0X0X0X0X5X0X0X0XwX0X0X0XeX!.M v v c G b D b c c S H [ | ..j.| T T J J D X.,X0X5X5XwX0X",
"0XqX0X0X0X0X0X0X4X>X;X>X4XwX0X2X2X2X3X5X5X7X0X0X0X0X0X0X0X0X0X5X9X9XD.M v c c v b D D c c D U } ....| { Y Y F F L +.,X0XqX0X0X0X",
"0X0X0X0X0X0XqX0X5X5X5X4X0X0X5X2X;X;X:X2X0X0X0X0X5X0XwXqXqX7X0XwXwX^.X.x v ` v c D b b c c H [ | &...| } Y J F D A ).5X0X0XqX0X0X",
"0XqX0X0X0X0X0X5X5X5XwX0X0X4X4X;X=X-X;X>X0X0X0X0X0X0X0X5X0X0X5X4X(.@.M v v C ` c b b c c S '  .&.&...| { Y Y F B S.1X0X0X0X0X0XqX",
"0X0XqX0X0X0X5X0X5XwX0X0X0X5X5X2X;X:X:X2X3X0X0X0X0X0X0X0X0X3XoXq.X.` v c v v C G b b b b H ' } | ..&.| { Y U D $.OX5X0X0X0X0XqX0X",
"0X0XwX5X0X0X0X0X0X0X0X0X0X5X5X0X0X9X2X0X0X0X0X0X0X0X0X0X2XQ.X.Z M b b c v v b B B B b b L I P Y [ } { } Y U C T.2X0X0X0X0X0X0X5X",
"5X0XqX0X0XwX0X0X0X0X0X0X0X0X5X0X0X0X0X0X0X0X0X0X0X0X0X1XJ.X.V b b c c g j b b j v b j b b D D D L U U U H P $.OX0X0X5X0X0X0X0X0X",
"wX0X0X0X0X0X0X0XwX0X0X0X0X0X0X5X0X0X0X0X0X0X0X0X0X0X#XD.M b b D c g s f h b B b j d j j b j D D D F L H D G ` {.0X0X0X0X0X0X0X0X",
"0X0X0X0X7X0XqX0X0X0X0X0X0X0X0X0X5X0X0X0X0X0X0X0X1X X9.x b b b b c b g s s j B C N j j j b b b D D L L F F H ` '.9X0X0X0X5X0X0X0X",
"0X0X0X0X0X0X7X0X0X0X0X0X0X0XwX0X0X0X0X0X0X0X0X#XJ.X.z f h b b c g g g g s j b C V j j b b b D j F L H F S F B /.2XwX5X0XwX0XqXwX",
"wX5X0X0X0X0X0X0X0X0X0X0X0XqX0X0X5X0X0X0XqXqX#Xw.1 p i i h j g f j g g j j j b b j j j N b b b D L L H F F S D S.<XqX0XwX0X0X0X0X",
"0X0X0X0X0X0X0X0X0X0X0X0X5XqX5X5X0XwX0XwX<X).w.A u t t i d j h h g g f g j j h h d d d b b L B L L U U H b S S S.<XqX5XqX0X0X0X0X",
"qX0XwX5X0X5X0X0X0X5X0X0XqXqX7X7XeXeX0XoXi.E : x h s t i t d h h h j j f h h d d t l h b h b b D P U P D j S D A.<XeX0X0X0X0X0X0X",
"0X0X0X0X0X0X0X0XwXeXeXeX4X=X=X].~.~.H.<.2 z x v j h a t t a N h h h h d d d d a l l l j v b b B P P G v v c B %.*X0X0X0X0X0X0X0X",
"0X0X0X0X5X0X0X0X=X!.E.y.r.1.1.;.q 0 % % : u t x N N N y t d d d h h d d d d a n m n N N b B B B B B v u r i x 3 #X0X0X0X0X0X0X0X",
"0X0X0X7X0X0XwX1Xy.q 9 7 8 7 + + o X # = - r r i a N N h t t d d d a a y y y < m m N h j v b b B B z - * * * > , '.0X0X0X5X0X0X0X",
"0X0X0X0X0X0X1Xy.9 7 7 5 5 5 @ o o X # * - - r r y a l a t y d a n k 6.F.J.8.R 3 n B N N b b C C M ; .   # # # $ t.1X0X0X5X0X0X0X",
"0X0X0X0X0X4X(.9 6 5 5 5 o O o o o o # = - : - - u y y p m X.O.O.0.^.#X2X2X@X7.< N B B B B C Z Z E , $ $ $ O o @ 3.,X0XqX0X0X0X0X",
"0X0X0X0X0X9X_.8 O O 5 5 o o o o O o 5 $ > ; : : - p k 9..X%X&X&X;X5X0X0XqX(.e > k N V C C E X.0. X!.G.G.G.u.Q Q `.5XqX0X0X0X0X5X",
"0X0X0X0XwX4XXX6 O O O O o O 5 5 6 Q W.(.^.W 3 O.6.6.).2X5XqXqXqX0X0X0X0XeXW.w 6 ! 6.@.@.@.J.OX1X0X2X2X2X1X1X=X=X0X0X0X5X0X0X0XqX",
"0X0X0X0XwX4X-XW.u.W.G.e.e Q Q 3._.>X4X4X4X,X&X1X2X<X5XqX0XqX0XwX0X0X0X0XqX@Xe.t.XX>X;X,X<X2XwXwX0X0X0XqX0X0X5X0X0X0X0X0X0X0X0X0X",
"0X0X0X0X0X0X2X-X-X,X9X1X=X1X1X4X5X5X0X0X5XqX0X0X0XwX5XqXqX0XqX0X0X0X0X0X0X0X2X2X0X0X0X0X0X0X0X0X0X0X0XwXwXqXwX5XwX0X0X5XqX5XqX0X",
"0X0X0XqX0X5X5X2X2X4X0X0X9X4X>X>X3X5X0X0X0X0X0XqX0X0XwX0X5X0X0X0X0X0X0X0X0X0XqX0X0XwXwX0X0X0X0XeXqX0XwX0XwXqX0XwX0X0X0XqX0XqX0X0X",
"0X0X0X0X0X0X0X0X5XwX0X0X2X-X-X;X<X3X0X0X5X0X0X0X0X0X0X0XqX0XwX5X0X0X0X0X0X0X0X0X0X0X0X0X0X0X0X0X0X0X0X0X0X0X0XqX0XwX0X0X5X0X7X0X",
"0X0XqX0X0X0X0X0X5X5X5X5X>X;X=X;X<X9X0X0X5XqX0X5X0X0X0X0X0XqX0X0X0X0X0X0X0X0X0X0X0X0X0X0X0X0X0X0X0XqX0X0X5X0X0X0X5X5X0X0XqX0X0X0X",
"0X0X0X0X0X0X0X0X0X0X5X4X5X2X>X2X2X9X0X0X0X0X0X0X0X0X0X5X7X5X0XqX0X0X0X0X0X0X0X0X0X0X0X0X0X0X0X0X0XqX0X5X0X5X0X0XwXqX0X0X7XwX0X0X",
"0XqX0XqX0XqX0X0X0X0X0X0X5X0X5X5X0X0X0X0X0X0X0X0X5X0X7X5X5X5X5XwX0X0X0X0X0XqX0X0X0X0X0X0X0X0X0X0X0XqXqX0X0XqX0XwXwX5X5X0X0X0X0X0X",
"0X0XqX5XqX0X0X0X0X0X0X0X0X0X0X0X0X0X0X0X0X0X0X0X0X0X0X5X5X5X5X5X0X0X0X0X0X0X0X0X0X0X0X0X0X0X9X0X0X0XqX5X0X0X0X5X0XqX0X0X0X0X0X0X",
"0X0X0XqX0X0X0X0X0X0X0X0X0X0X0X0X0X0X0X0X0X0X0X0X0X0X0XwX5X7X5X5X9X0X0X0X0X0X0X0X0X0X0X0X0X0X0X0X0X0X0X0X0X0X0X0X0X0X0X0X0X0X0X0X",
"0X0X0X0X0X0X0X0X0X0XwXwX0X5X5XwX0X0XwXwX0X0X0X0X0X0X0X0X0X0X9X2X9X9X0X0X0X0X0X0X0X0X0X0X0X0X0X0X0X0X0X0X0X0X0X0X0XqX0X5XqX0X0XqX",
"0X0X0X0X0X0X0X0X0XwX5X5X0X0X0XwX0X0X0X0X0X0X0X0X0X0X0X0X0X0X2X*X,X9X0X0X0X0X0X0X0X0X0X0X0X0X0X0X0X0X0X0X0X0X0X0X0X5X0X0X0X0X0X0X",
"0X0X0X0X0X0X0X0X0X0X5X5X0X0X0X5X0X0X0X0X0X0X0X0X0X0X0X0X0X9X9X9X1X9X0X0X0X0X0X0X0X0X0X0X0X0X0X0X0X0X0X0X0X0X0X0XqXqX0X7X0X0X0XwX",
"0X0X0X0XeX0X0X0X0X0XwX0X5XwXwX5X0X0X0X0X0XwX0X0X0X0X0X0X0X0X0X0X0X0X0X0X0X0X0X0XeX0X0X0X0X0X0X0X0X0XqXqX0X0XwX0X5XwX0X5X0X0X0X0X",
"0X0X0X0X0X0X0X0X0X0X0X0XqX0X0X0X0X0X0X0X0X0X0X0X0X0X0X0X0X0X0XwX0X0X0X0X0X0X0X0X0X0X0X0X0X0X0X0XqX0X0X0X0X0X0X0X0X0X0X0X0X0X0X0X",
"0X0X0X0X0X0X0X0X0X0X0X0X0X0XwX5X0X0X0X0X0X0X0X0X0X0X0X0X0X0X0X0X0X0X0X0X0X0X0X0X0X0X0X0X0X0X0X0X0X0X0X0X0X0X0X0X0X0X0X0X0X0X0X0X",
"0X0X0XqX0X0X0X0X0X0X0X0X0X0XqX0X0XeX0X0X0X0X0X0X0X0X0X0X0X0X0X0X0X0X0X0X0X0X0X0X0X0X0X0X0X0X0X0X0X0X0X0X0X0X0X0X0X0X0X0X0X0X0X0X",
"0X0X0XqX0X0X0X0X0X0X0X0XwXwX0XqX0X0X0X0X0X0X0X0X0X0X0X0X0X0XwX0X0X0X0X0X0X0X0X0X0XeX0X0X0X0X0X0X0X0X0X0XwX0XwXwXwX0X0X0X0X0X0X0X"
};
