/* XPM */
static char *result[] = {
/* columns rows colors chars-per-pixel */
"64 64 223 2 ",
"   c #051D24",
".  c #0A1D25",
"X  c #0B1C2A",
"o  c #161B28",
"O  c #131B32",
"+  c #370E29",
"@  c #360E2B",
"#  c #26172B",
"$  c #38152C",
"%  c #351932",
"&  c #062126",
"*  c #052229",
"=  c #0A2529",
"-  c #0C242B",
";  c #11252C",
":  c #172C2D",
">  c #0B2535",
",  c #0E2A33",
"<  c #132B36",
"1  c #132A37",
"2  c #1E3539",
"3  c #29292D",
"4  c #282434",
"5  c #35233D",
"6  c #263D3C",
"7  c #4C0627",
"8  c #4E0927",
"9  c #4D052A",
"0  c #450C2D",
"q  c #4C0B2C",
"w  c #5F0427",
"e  c #55042C",
"r  c #5C032C",
"t  c #520A2C",
"y  c #5A0B2D",
"u  c #48122F",
"i  c #4A0C31",
"p  c #540731",
"a  c #5C0532",
"s  c #560B32",
"d  c #5C0A33",
"f  c #5D0B39",
"g  c #431432",
"h  c #4C1534",
"j  c #591437",
"k  c #5D1B3D",
"l  c #62042C",
"z  c #69072E",
"x  c #640A2D",
"c  c #630532",
"v  c #6B0634",
"b  c #640B34",
"n  c #6B0B35",
"m  c #650538",
"M  c #6C0639",
"N  c #650C3A",
"B  c #6B0C3A",
"V  c #720D36",
"C  c #76083D",
"Z  c #730C3C",
"A  c #621033",
"S  c #6C1235",
"D  c #64123D",
"F  c #6C113D",
"G  c #611B3C",
"H  c #76173B",
"J  c #74133D",
"K  c #7A123E",
"L  c #75183B",
"P  c #4D283A",
"I  c #56263C",
"U  c #394A3D",
"Y  c #44513F",
"T  c #1A2C42",
"R  c #1B3945",
"E  c #382947",
"W  c #233846",
"Q  c #571544",
"!  c #5C1C45",
"~  c #5E1E51",
"^  c #6B0E41",
"/  c #750E41",
"(  c #7B0E42",
")  c #651647",
"_  c #6C1342",
"`  c #641C44",
"'  c #6B1B45",
"]  c #741243",
"[  c #761647",
"{  c #7A1443",
"}  c #7C1A43",
"|  c #7C1649",
" . c #7E1B4A",
".. c #4A2A45",
"X. c #5B2847",
"o. c #4A314B",
"O. c #433956",
"+. c #672748",
"@. c #693749",
"#. c #6B2755",
"$. c #693458",
"%. c #753255",
"&. c #5E3D6A",
"*. c #6A3A67",
"=. c #264148",
"-. c #384846",
";. c #334B5A",
":. c #5D464B",
">. c #475647",
",. c #66454B",
"<. c #73434A",
"1. c #68514F",
"2. c #76524E",
"3. c #684653",
"4. c #784553",
"5. c #7C5757",
"6. c #59634E",
"7. c #61684C",
"8. c #646B54",
"9. c #796A51",
"0. c #6C7153",
"q. c #777B59",
"w. c #4A4463",
"e. c #49566A",
"r. c #6D4F64",
"t. c #456774",
"y. c #556379",
"u. c #6C6D78",
"i. c #810F47",
"p. c #821D45",
"a. c #84134A",
"s. c #88134D",
"d. c #831C4C",
"f. c #891D4C",
"g. c #8B1A53",
"h. c #951D58",
"j. c #882149",
"k. c #8A2354",
"l. c #8B255A",
"z. c #96235B",
"x. c #95245B",
"c. c #95375E",
"v. c #9A1F60",
"b. c #9D2562",
"n. c #962A65",
"m. c #9B2A63",
"M. c #87386C",
"N. c #A22764",
"B. c #A22A66",
"V. c #A52D6B",
"C. c #A92E6B",
"Z. c #A5316D",
"A. c #AC326D",
"S. c #A83271",
"D. c #824256",
"F. c #875853",
"G. c #845C59",
"H. c #90545B",
"J. c #83645A",
"K. c #8E705A",
"L. c #8D516B",
"P. c #A75E6E",
"I. c #A34B73",
"U. c #886460",
"Y. c #897764",
"T. c #987663",
"R. c #A27D65",
"E. c #AF6E72",
"W. c #86855C",
"Q. c #97845E",
"!. c #8C8962",
"~. c #918C62",
"^. c #9B896A",
"/. c #9C9565",
"(. c #999168",
"). c #A98A67",
"_. c #A8946A",
"`. c #B2956B",
"'. c #B19074",
"]. c #B6A76C",
"[. c #BEA171",
"{. c #CA9976",
"}. c #C8AB75",
"|. c #D1AF76",
" X c #C7B475",
".X c #CAB373",
"XX c #D6B776",
"oX c #D5BA76",
"OX c #D4BB79",
"+X c #DBBD79",
"@X c #D8C177",
"#X c #DDC37A",
"$X c #E4C473",
"%X c #E8C777",
"&X c #EACA76",
"*X c #E4C57B",
"=X c #E6CA7C",
"-X c #EDCD7B",
";X c #F0CF7C",
":X c #EED07D",
">X c #F4D47E",
",X c #F9D77F",
"<X c #FAD97F",
"1X c #4A7180",
"2X c #547783",
"3X c #9A5781",
"4X c #9E6286",
"5X c #AE6F81",
"6X c #918684",
"7X c #9D9285",
"8X c #ADA987",
"9X c #B5AC84",
"0X c #C79C80",
"qX c #CFAB85",
"wX c #D0B483",
"eX c #DAC484",
"rX c #EBCB81",
"tX c #F1CF81",
"yX c #ECD182",
"uX c #F6D680",
"iX c #F8D780",
"pX c #F7D881",
"aX c #F9D981",
/* pixels */
"<XiX,X,XuXuXiXuXiXiXuXuX,XuX>XiXuX,X>XuXuX,XuXuXuX,XuX,X,XiX,XiXiXuXpXiX,XiX<X,XuXiXiX,X,X,XpXpX<XiXiX,X,X,X<X,X,X,X,XuXpX<XiXiX",
"uXuXuXuXuXuXuXuXuXuXuX>XuXuX;X;X>XuXuXuXuXuXuXuXuXuXuXuX,XpXuXuXuXuXuXuXuXuXuXuXuXuX,XuXuXuXuXuXuXuXuXuXuXuXuXuXuXuXuXuXuXuXuXuX",
"uXuXuXuXuX,X,XuXuXuX,XuXuX>X-X&X-X>XuXuXuX>XuXuXuXuXuXuXpXpX>XpXuXuXuXpXuXiXuXuXuXuXuX>XuXuXuXuX>XuXuXuXuXuXuXuXuXuXuX,XuX,XuXuX",
",X,XuXuXuXuXuXuXuXuX>X>X>X;X;X-X-X-X>XuXuXuXuXuX>XuXuX,X>XuXpX>XuXuXuXuX,XuXuXuXuXuXuXuXuXuXuXuXuXuXuXuXuXuXuX>XuXuXuXuXuXuXuX,X",
"uXuXuXuX>XuXuXuXuX>X>X-X&X-X;XuXuXuXuXuXuXuXuXuXuXuXuXuX>XuXuXuXuXuXuX>XuXuX,XuXuXuX,XuXuXuXuXuX<XuXuXuXuXuX,X>X>XuX>XuX,XuXuXuX",
"uXuXuXuXuXuXuXuXuX>X>X&X%X&X;XuXuXuX:X>XuXuXuXpXuXuXuXuXuXuXuXuXuXuXuXuXuXuXuXuXuXuXuXuXuXuXuXuXuXuXuXuX>X-X>X,XuXuXuXuXuX>XuXuX",
"uXuXuXuXuX>XuXuXuX,XuX,X:XuXpXaXuX&X&X%X=XtXuXuXuX,XuXuXuXuX>XuXuXuXuXuXuXuXuX>XuXuXuXuXuXuXuXuXuXuXuXuX-X%X:X>XuXuXuXuX,XuXuX,X",
"uXuXuX,XuXuXuXpXuX#X|.{.{.{.0XqX#X$X$X$X%X-XpXuXuXuXuXuXuXuXuXuXuXuXuXuXuXuXuXuXuX>XuXuXuXuXuXuX>XuXuX:X-X-X-X>X>XuXuX>XuXuXuXuX",
"uXuXuXuXpXaXuXqXE.P.I.c.x.l.M.L.4X8X=X$X=X:XpXpXuXuXuXuXuXuXuXuX>XuX>XuXuXuXuXuXuXuXuXuXuXuX>XuX>X>X-X-XrXuXyXuX>XuX,X>X>XuXuX>X",
"uXiXuXuXeXwXE.I.n.m.z.h.h.h.g.%.*.2X9X:X-XuXpXuXuXuX,XuXuXuXuXuXpX<X>XuXuXuXuXuXuX,XuXuXuXuXuXuX-X%X%X-XuXuXuXuX:X:X>X>X>X>XuXuX",
"uXuXuXwX4XI.Z.m.V.B.B.N.N.N.n.#.X.O.u.wXuXuXuXuXuXuXuXuXuXuXuXuXiX<XpXpX>XuXuX,XuXuXuXuXuXuXuXuX>X-X=XtXuXuXuX&X&X$X&X>XuXuXaX>X",
"uXuXrXP.S.C.C.C.S.Z.Z.V.V.Z.n.#.o.y.2X2XeXuXuXuXuXuX,XuXuXuX>XuXuXpX>X<XuXuXuXuXuXuXuXuXuXuXuX>X>X,XuXuXuXuX:X&X$X$X&X>XuXuXuXaX",
"uXtX5XA.C.C.C.Z.Z.S.S.V.V.V.n.$.e.2X;.&.6XrXuXuX,XuXuX>XuXuX,XuXuXuXuXuXuXuXuXuXuXuXuXuX>XiXuXuX,X>XuX,X>X>X-X%X$X*X&X;XuXuXuXpX",
"uXtX3XA.C.Z.C.Z.Z.V.V.V.V.N.n.$.e.1XW E w.7XyXuXuXuXuXuXuXuXuXuXuX,XuX>XuXuXuX,XuXuXuXuXuXuXiXuX>X,XuXuX>X>X:X-X-X-X-XyXuXuXuXuX",
"uXrX4XA.C.C.V.Z.V.V.m.m.b.b.l.*.e.1XW 5 ~ *.7XuXuXuXuXuXuX,XuXuXuX,XuX>XuXuXuX>X>X>X>XuXuX,XuX>XuXuXuXuXuX>X>XuX>X>XuXuXuX,XuXpX",
"uX8X3XS.V.V.V.V.V.m.m.b.n.z.l.#.e.1XR 5 ~ ~ r. XuXuXuXuXuXuXuXuXuXuXuX>XuXuXuX:X%X-X;X,XuXuXuXuXuXuXpXuXuXuXuXuXuXuXuX>XuXuXuXuX",
"rXu.M.m.b.v.v.v.h.h.h.z.z.h.k.#.w.1X=.E X.N ! U.*XiXuXuXuXuX,XuXtXuXuXuXuXuX>X>X&X:X>X>X>XuXuXuXuXuXuXpXpXpXpXuXuXuXuXuX>XuXuX,X",
"rXY.*.l.h.g.g.s.s.s.p.f.f.f.a.' O.t.t.w.k b f Q J.*XuXuXuXuXuXuXuXuXuXuX-X&X&X:X,X>X>X>X,X,XuXuX>XuXuXuXpX>XuX,XuXuX,XuX<XuX,XuX",
"uX Xr.#.| i.i.( K K K p.K { { G 5 =.;.o.a l c f ! G.|.rXiXiXuXuXuXuXuX-X-X&X%X:XuXuX>X:X>X:X>XiXuXuXuXuXuXuXuXuXuX>XpXuXuX>XuXuX",
"uX:X`.3.) / ( ( V V V V V V V j % < 4 g c v v M _ ' @.R.+X;XpXiXuXuXuXuXuX-X:XuXuXuX>X%X%X&X-XuXuX>XuXuXuXuXuX>XuXpX<XuXuXuXuXuX",
"uXuX:X_.X._ Z Z V z S S z z z h $ 4 $ s c v v C / / / _ 4.'.oXuXiXuXuXuXuXuXuXuXuXuX=X$X$X%X-XuXuXuXuXuXuX>XuXuXuXuXuXuXuXuXuXuX",
"uX,XpX*X3.' J S S z z z x l x y h h s b c v v C C C C / _ ` 4.).XX-XuXuXuXuXuX>XyXuX-X&X%X&X>XuXuXpXuX>XuXuXuXuXuXuXuXuXuXuXuXuX",
"uX>XpX:XT.+.} L S S x x l w l w y x c c m N Z ( ( / C / / ] ^ ! <.R.*XuXuXuXuX,X>XyX:X-X=X-XuXuXuX,XuXuXuXuXuX<X,XuXuX,XuXuX,X,X",
">X,XpX>X`.+. .} L S S x w x x x l x x m c b N / { / / / ( ( / _ N +.T.*XuXuXuXuXuXuXuXuXuXuXuXuXuXuXuXuXuXuXuXuXuXuXuXuXuXuXuXuX",
"uXuXuXuX+Xc.} } } L L A x x S b x z z c v b f D _ _ _ ] ( / / C / N +.K.+XiXiXiXiXuXuXuXuXuXuXuXuXuXuXuXuXuXuXuXuXuXuXuXpXuXuX,X",
"uXuXuXuX*XF.} } j.L L S S L L S x z x n n B B _ _ D N B B Z M M M M ^ ` G.|.pXpXpXiXuXuXuXuXuXiXuXuXuXuX>XuX>XuX>X,XuXuX<X,XuXuX",
"uXuXuXuX*X4.p.p.p.} L L { } H S n x v v Z Z M Z B N N b b N n n M N M B ! 4.T.`.+XiX,X,XuXuXuXuXuXuXuXuXuX>XuX>XpXuXuXuX,XpXuXuX",
"uXuXuXuX*X$.d.p.j.j.j.} } } { J n n v n Z C M M B N m b v N b n N M N N B ^ ' %.4.R.oX,XuXuXpXiXuX>XuXuXuX<X,XuX>X>XpXuX>X>XuXuX",
"uXuXuXuX*X%.d.f.j.j.j. . . .{ { Z z v C J Z v v v N b b N N N N N N m N M M M ^ ^ ) @.T.XX;XuXuXuX<X>XuXuXuXuXuXuXuX,X,XuXuXuX,X",
"uXuX,XuX=XD.| f.j.j.j.k.d. .| { Z n v V K { v c c m c b b b N N b c m c c m M M M m f ! @.T.}.-XuXpXuXuX,XuXuXuXuXuX>X,XuXuXuXuX",
"uXpXuXuX-XH.H p.j.j.j.l.k. .{ ] K v v n J Z l r l c a a a d d d b b c c c c m c a c m f f ) X.G.}.yXuXuXuXuXuXuX>X:X@X~./.-XuXuX",
"uXuXiXuXtXP.B K p.j.j.l.l.d./ / Z v z v v c r c c a a c a d f d a a a c r a c a a a a a a a a k +.5.[.-XuXuX>X=X X0.=.2 2 ~.:XuX",
"uXuX,XuX>X'._ Z | } a.d.d.d.Z n v v r l l r l c c c a r r d s s y d r r r w y r a e a p a a e a ^ ! X.T.oX$X`.6.6 > ; ; ; Y #X>X",
",XuXuXuXuX}.$.' { H H { | { ] B v v x l w r a l r r r r p s t t t e t e e e e e e s p r e e a f N ^ Q ! ....4 ; ; > = & * = q.:X",
">XuXuXuXuXrX'.Y.4.L S J ] ] ] J B J B z w r r r r r r e e q u u 0 0 q q q t q t 9 p e e 9 e a N N N N b j g # # O ; - & * , >.=X",
"uXuX,XuXiX,XuXuX}.5.G S B A n B B F B n r r l r r r r e h ..:.1.,.:.,.2.2.@...I k s 9 p e a c N N f a f y u 4 o ; & & . * , W.:X",
"uXuXuXuXuXuXuXuXpXOX5.+.A b b b B S B N z l c a r r e 7 I Y..X:XOX X#XuX>XOX(._.`.F.I h s f s s s s p i 0 $ # . * * * , U 6.@XyX",
"uXuXuXuXuX,X>XuXpXuX#XG.G b S x b b b b b N n B b a r 9 <.|.aX<XaXpXpXuXaX<XaXpXpX=X^.9.5.5.5.<.I h $ @ @ o . . = = -.8./.=XpXpX",
"uXuXuXuXuXuXuXuX,XuX,XXXG.G A A b x z b N n F F _ Z B N @.).OXrXaXaXuXpXpXuXiXiXuXuX:XyXeX#X-XoX).R.9.3 X . X 2 6.q.].>XpXuXpX>X",
"uXuXuX,XuXuX,XuXuXuXuXuX.X<.j d d y b b b B B F ] / / ] ' %.L.Y._.(.q./.*XiXuXiXuXiXuXuXuXuX:X-X>X>X&XQ.>.>.8./.@X>XaXuXuX>XpXuX",
"uXuXuXuX>XpX>XuXuX,XuXuX-X`.@.d A A A A N S F F _ / / [ | [ [ ~ E T T R /.,XuXuXuXuXuX>X-X-X:X>X:X>X>X,X XOX=XiXaX>X>XuXuXuXuXuX",
"uXuXuXuXuXuXuXuXuXuXuXuXpXrX).X.A A A A S b n D F / ] [ | | ] ! 5 1 > > ~.uXuXuXuXuXuX-X&X$X-X:XuX>X>X>X,XiXiXuX>XpXuXuXuXuXuX>X",
"uXuXuX,XuXuXuXuX>XuX,X,XiXuX+XU.k A A A A N A N B _ _ / ^ B N g : * = 8.@XiXuXuXuXuXuX:X-X-XuXpXpX:X&X&X%X&X>XuXpXpX>XuX>XuXaXuX",
"uX,XuXuXuXuX>XuXuXuXuX,XiXuXuX}.,.y y y d A A b f N ^ f f k F.K.7.q./.@XuXuXuX>XuXuXuXuXuXuXuXuXpX-X$X$X$X&X-XuXpX>XuXuX<XuX>XuX",
"uXuXuXuXuXuXuXuXuX>X>X>XuXuXpX-X`.I 8 8 y A y y p p p p i 2.XXrX+X&X>XuXuXuXuXuXuXuXuXuX>XuXuX>XuX-X%X$X%X%X;XuXuXuXiX,XuXpX<XuX",
"uXuXuXiXuXuXuXuXuX;X%X%X-XuXuXuX&X_.,.h q 8 t 8 9 7 9 i 0 J.=XuX>X,XuX>XuXuXuXuXuXuXuXuXuX>XuX>X>X:X-X&X&X-X>XuXuX,XiXpXpX>XuXuX",
"uXuXuXuXuXuX>XuXuX;X-X=X>X>X>XuX,X:XXXY.P u 8 8 7 7 9 i % 4 -.8.(.oX>X,XuXuXuXuXuXuXuXuXuXuXuXuXtXuXuXuXyX>XuXuXuXuXpX>X>XuXuXuX",
"uXuXuXuXuX>X:X-X-X-X>X-XuXuXuX>XuXuX,X=X).P 0 8 9 9 0 @ # O ; > 1 =.!.#X,XuX,XuXuXuXuXuXuXuX>XaXuXuXuXuXuXuX,XuXuXuXuXuXuXuXuXuX",
"uXiXuXuXuXuX-X$X&X&XuXuXuX>XuX>X>X,XuXuX*X).,.P $ $ + # o o . X > 1 T >. XiXuXuXuXiXuXuXuXuXuXiXuXuXuX>XaXuXuX>XaX>XuX>XuX>XpX<X",
"iXuXuXiXuX>X>X-X-X>XuXuXrX-X-X&X;X,XuXuX,XyX=X.X9.3 o . .   . . = , , , W.uXuXuXiXiX>XuXuXuXuXuXuXuXuXuXuXuXaXuXuXuXuXuXpX<X>XuX",
"uXuXuXiXuXuX>XuX>XuXuXuX&X$X@X$X%XtXpXuXuXuX>XuX-X.XW.Y :     & - - - > W.uXuX,XuXiXuXiXuXuXuXuXuXuXuXuXuXuXuXuXuXuXuXuX>XuXpX,X",
"uXuXuXuXuXuXuXuX,X,X>X:X-X$X$X$X%XrXpXuX,XuXuX>X>X>X>X$XW.U ; &     * U ].pXuXuXuXuXuXuXuXuXuXuXuX,XuXuX>XuXuXuX>X<XuXuXpXuXuXuX",
"uX>XuXuXuXuXuXuXuXuX>XuX>X&X&X&X=X;XuXuXuXuXuXuX>X<XuX>X<X X0.Y U >.6.].uXuXuXuXuX,XuXuXuX>XuXuXuX,XuX,X>X,XuXuXpXpXuXuX<XuXuXuX",
"iXiXuX,XiXiXuXuXuXuXuXtX,X>XuXuXuXuXuXiX>XuXuXuX>X>X<X>X>X<X>X=X#X=X>X>XuXuXuX,XuX>XuXuXuXuXiXuXuXuXuXuXuXuXuXuX<X>X>XuXuX,XuXuX",
"uXuXuXuXuXuXuXuXuXuXuXuXuXpXpXuXuXuXuXuXuXuX,XuX<XaX>X>X>X>X>X>XpXpX>XaXuXuXuXuXuXuXuXuXuXuXuXuXuXuXiXuXuXuXuXuXuXuXuXuXuXuXuXuX",
"uXiXuXuXuXuXuXuXuXuXuXuXuXuXuXuX,X,X,XuXuXuXuXuX>X>XaXaX<X>X>X>XuXuXpX>XuXuXuX,XuXuX,XuXuXuXuXiXuXuXuX,XuXuX>XuXuX,XuXuXuXuXuXuX",
"uXuXiXuXuXuXuXuXuXuXuXuXuX>X>XaXuXiXuXuXuXiXuXuXuXuXuXuXuXuX;X;XrXuXuXuXuXuXuXuXuXuXuXuXuXuX>XuXuXuXuXuXiXuXuXuXuXiXuX,XuXuXuXuX",
"uXuXuXiXiXiXuXuXuXuX>X>XuXuXuXuXuXuXuXuXuXuXiXiXuXuXuXuXuXtX-X*X*X-XuXuXuXuXuXuXuXuXuXuXuXuXuXuXuXuXuXuXuXpXuXuX,XuXuXuXuXuXuXuX",
"uXuXuXuXuXuXuXuXuXuX>X,XuX>XuXuXuXuXuXuXuXuXuXuXuXuXuXpXpXtXtX=X=X;XuXiXuXuXuXuXuXuXuXuXuXuXuX,XuXuXuXuXuXiXuXuXuXuXuX>XuXuXuXuX",
"uXuXuXuXuXuXuXiXuXuXpX>X>XuXaX>XuXuXuXuXuXuXuXuXuXuXuXuXpXiXuXuXuX>XiXiXuXuXuXuXuXuXuXuXuXuXuXuXuXuXuXuXuXuXuXuX,XuX,X,XuXuXuXuX",
"uXuXuXuXuXuXuXuXuXuXuXuXpX>XpX<XuXuXuXuXuXuXuXuXuXuXuXuXuXuXuXiXiXuXuXuXuXuXiXuXtXuXuXpXuXuXuXuXuXiXuXuXuXuXuXuXuXuXuXuXuXuXuX,X",
"uXuXuXuXuXuXuXuXuXuXuXuXuXuXuXuXuXuXuXuXuXuXuXuXuXuXuXuXtXpXuXiXuXiXuXuXuXuXuXuXpXpXiXpXuXuXuXuXuXuXuXuXuXuXuXuXuXuXuXpXuXuXuXuX",
"uXuXuX,XuXuXuXuXuXuXuXuXuXuXuXuXuXuXpXpXiXiXuXuXuXuXuXuXpXpXuXuXuXuXuXuXuXuXuXuXpXpXuXuXuXpXuXuXuXuXuXuXuXuXuXuXuXuXuXuXuXuXuXuX",
"uXiXuXuXpXpXpXuXuXuXuXiXpXuXiXiXuXuXuXuXuXiXuXuXuXuXuXuXuXpXiXiXuXuXuXuXuXiXuXuXpXpXuXuXpXuXuXuXpXuXuXuXuXuXpXuXuXuXuXuXuXuXuXuX"
};
