/* XPM */
static char *result[] = {
/* columns rows colors chars-per-pixel */
"64 64 209 2 ",
"   c #17121F",
".  c #25081F",
"X  c #0A1525",
"o  c #071B26",
"O  c #091B25",
"+  c #041C2C",
"@  c #0A1D2A",
"#  c #141423",
"$  c #151B26",
"%  c #16182D",
"&  c #191D29",
"*  c #031F31",
"=  c #250F27",
"-  c #2B0B24",
";  c #3A0927",
":  c #350E2A",
">  c #25172A",
",  c #2A152A",
"<  c #37132C",
"1  c #281B36",
"2  c #3C1437",
"3  c #3C1C33",
"4  c #351A3B",
"5  c #0B212D",
"6  c #15202E",
"7  c #152A2E",
"8  c #0A2332",
"9  c #0B2839",
"0  c #142A39",
"q  c #1A333C",
"w  c #333E31",
"e  c #430526",
"r  c #4D0527",
"t  c #4C0827",
"y  c #450629",
"u  c #4C0629",
"i  c #440A2C",
"p  c #4D0A2C",
"a  c #540327",
"s  c #510827",
"d  c #54052A",
"f  c #5A062D",
"g  c #540A2D",
"h  c #5A092E",
"j  c #44142E",
"k  c #48112E",
"l  c #4B0E33",
"z  c #5E0630",
"x  c #540C32",
"c  c #5C0C32",
"v  c #4C1433",
"b  c #4A1837",
"n  c #541234",
"m  c #5D1136",
"M  c #551539",
"N  c #5D1439",
"B  c #541D3D",
"V  c #5C1B3D",
"C  c #630731",
"Z  c #6A0730",
"A  c #630C34",
"S  c #6B0B35",
"D  c #660E39",
"F  c #6B0E3A",
"G  c #710B36",
"H  c #740E3B",
"J  c #641036",
"K  c #65123A",
"L  c #67153B",
"P  c #6C123B",
"I  c #74123D",
"U  c #78123F",
"Y  c #4E283E",
"T  c #57273D",
"R  c #4A3238",
"E  c #543A3C",
"W  c #34413B",
"Q  c #394339",
"!  c #371D44",
"~  c #0D2E44",
"^  c #232843",
"/  c #30344E",
"(  c #571F45",
")  c #6D1340",
"_  c #671B44",
"`  c #741442",
"'  c #7A1543",
"]  c #741944",
"[  c #7A1946",
"{  c #741C4C",
"}  c #7C1B4A",
"|  c #552746",
" . c #5F2342",
".. c #543244",
"X. c #5B3344",
"o. c #5A3E47",
"O. c #4E3553",
"+. c #602140",
"@. c #623A44",
"#. c #633449",
"$. c #7D3B4F",
"%. c #772858",
"&. c #7D3150",
"*. c #773162",
"=. c #394A47",
"-. c #3B4757",
";. c #344D61",
":. c #38576D",
">. c #474844",
",. c #4D5848",
"<. c #555947",
"1. c #465753",
"2. c #694647",
"3. c #774A4D",
"4. c #75564D",
"5. c #7A4856",
"6. c #695C57",
"7. c #7E5851",
"8. c #5E6652",
"9. c #64674C",
"0. c #666E57",
"q. c #7A6357",
"w. c #6A745D",
"e. c #767757",
"r. c #5E4E6E",
"t. c #465566",
"y. c #465B73",
"u. c #575974",
"i. c #724B71",
"p. c #665574",
"a. c #6C6461",
"s. c #627D7E",
"d. c #831B4C",
"f. c #851E51",
"g. c #892756",
"h. c #8C255B",
"j. c #8C285F",
"k. c #902556",
"l. c #91235B",
"z. c #92295E",
"x. c #952C63",
"c. c #942A64",
"v. c #982F66",
"b. c #992F68",
"n. c #863162",
"m. c #993067",
"M. c #973965",
"N. c #9A3069",
"B. c #875953",
"V. c #8C6757",
"C. c #8C6C5A",
"Z. c #976D5B",
"A. c #857D55",
"S. c #837758",
"D. c #97765B",
"F. c #A34A68",
"G. c #AD586C",
"H. c #A8686D",
"J. c #A17760",
"K. c #BE7A6F",
"L. c #888156",
"P. c #928758",
"I. c #818160",
"U. c #948A6C",
"Y. c #979165",
"T. c #A58763",
"R. c #BC856D",
"E. c #A49662",
"W. c #AC9866",
"Q. c #B69169",
"!. c #B79869",
"~. c #AD9C70",
"^. c #AEA36C",
"/. c #B1A369",
"(. c #BBA76C",
"). c #BCAC77",
"_. c #BDB074",
"`. c #C39F6E",
"'. c #C18576",
"]. c #CC9774",
"[. c #D39A77",
"{. c #C1A66C",
"}. c #C5AB73",
"|. c #CAAC72",
" X c #D6A975",
".X c #C8B573",
"XX c #CFB472",
"oX c #D1B473",
"OX c #D6BA75",
"+X c #DBBC77",
"@X c #E3BC79",
"#X c #DDC379",
"$X c #E4C473",
"%X c #E8C877",
"&X c #EACA76",
"*X c #E4C37A",
"=X c #E5C97B",
"-X c #EDCD7B",
";X c #F0CF7D",
":X c #EED07D",
">X c #F4D47E",
",X c #F9D77F",
"<X c #F9D87F",
"1X c #B5B481",
"2X c #EDD280",
"3X c #F6D680",
"4X c #F8D780",
"5X c #F6D881",
"6X c #FAD981",
/* pixels */
"<X4X<X<X4X3X<X4X4X4X3X3X<X3X>X4X3X>X>X3X4X4X3X3X3X,X3X,X4X4X<X3X4X4X4X4X4X3X4X<X3X4X4X<X<X<X4X3X4X4X4X4X<X<X<X<X<X>X<X3X4X4X4X4X",
"3X3X3X3X3X3X3X3X3X3X3X3X3X3X;X;X>X3X3X3X3X3X3X3X3X3X3X3X3X3X3X3X5X3X3X3X5X3X3X3X3X3X3X3X3X4X3X3X3X3X5X3X3X3X3X3X3X3X3X3X3X3X3X3X",
"3X3X3X3X3X3X3X3X3X3X>X3X3X>X-X&X-X:X3X3X3X>X3X3X3X3X3X3X4X3X5X4X3X3X3X3X3X4X3X3X3X3X3X3X3X3X3X3X3X3X3X>X3X3X4X3X3X3X4X4X5X>X5X3X",
">X3X3X3X3X3X3X3X3X3X>X>X;X;X;X-X-X3X3X5X3X3X3X3X3X3X5X>X>X3X3X3X3X3X3X3X3X3X3X3X3X>X3X3X3X3X3X3X3X3X3X5X3X3X3X>X3X4X3X3X4X3X3X>X",
"3X4X3X3X>X3X3X3X<X>X>X-X&X;X>X>X3X3X3X6X5X3X3X5X>X3X3X3X3X3X3X>X4X3X3X4X3X>X3X3X3X3X>X3X3X3X3X3X>X5X3X3X3X3X>X3X3X3X>X3X3X4X4X3X",
"4X4X4X3X3X3X3X3X,X>X;X&X$X X].[.[.[.[. X@X-X3X5X5X3X3X3X4X>X4X3X3X>X3X3X3X3X5X5X3X3X3X3X3X3X3X3X3X3X3X3X>X-X>X>X3X3X3X3X3X>X4X>X",
"3X3X4X3X3X3X3X3X,X>X>X-X XF.c.j.c.c.b.F.G.'.*X6X4X>X5X3X3X3X3X5X3X3X5X3X3X>X>X5X3X3X3X3X3X3X3X3X>X3X3X3X-X%X-X>X3X>X3X3X>X3X3X4X",
"3X3X>X3X3X3X>X4X>X:X XK.G.x.z.m.c.b.b.b.b.N.H.).2X3X3X4X3X3X3X>X3X3X4X3X3X3X3X3X3X>X3X3X3X3X3X3X>X3X3X>X-X-X-X>X>X3X3X>X3X3X3X3X",
"3X3X3X3X3X3X3X3X>XR.M.z.v.v.v.z.b.b.b.N.b.c.*.r.1X5X5X5X3X3X3X3X>X3X4X,X3X3X3X3X3X4X4X3X3X3X3X3X;X;X-X;X-X3X3X>X>X3X>X>X>X,X>X>X",
"3X3X>X3X3X3X3X3X XM.l.v.v.z.v.m.c.b.b.b.x.c.n.r.s.).5X5X3X3X4X5X4X5X>X3X3X3X3X3X3X>X3X3X>X3X3X3X;X&X%X*X3X3X2X>X:X>X>X>X,X,X,X5X",
"3X3X3X3X<X3X3X;XH.k.z.z.v.v.v.m.b.N.b.b.c.j.n.p.y.t.~.5X6X4X3X3X5X3X5X3X3X3X3X3X3X3X3X3X3X3X3X3X>X-X2X2X3X3X>X-X%X$X&X>X3X3X5X5X",
"3X3X3X3X3X3X2XR.z.k.v.m.v.N.N.N.b.c.c.c.j.j.j.i.y./ O.6.a.U.=X4X3X,X3X3X>X3X3X3X3X4X3X3X3X3X3X3X>X>X3X3X3X3X:X%X$X$X&X>X3X3X3X3X",
">X3X3X4X>X<X@Xg.d.k.z.x.v.v.N.v.c.c.c.c.h.h.c.i.u.-.1 ! ! / 1.w._.>X4X5X5X3X3X3X3X3X4X3X3X4X3X3X4X3X3X>X>X>X-X%X$X$X=X-X3X3X3X3X",
">X4X3X<X<X>X@X} ' d.z.x.v.v.v.x.c.h.c.f.c.c.f.*.u.;.^ 1 4 1 6 ~ 1..X4X>X>X3X3X>X3X3X3X3X<X3X4X3X>X<X3X3X>X>X>X-X-X-X;X3X3X3X3X3X",
"3X3X3X>X>X>X'.H U d.k.x.v.b.N.v.c.h.h.f.f.f.h.%.r.y.;./ 4 > 6 + =._.4X,X5X4X3X>X>X;X3X4X3X>X3X>X3X3X3X4X4X3X;X3X3X2X2X3X3X3X3X3X",
"3X4X3X3X-X|.&.U U ' f.z.x.x.z.h.f.} } } } { } } O.t.:./ 6.S.,.7 9.#X5X>X3X3X3X;X-X&X;X>X3X3X3X3X3X3X3X3X3X3X3X3X3X3X3X>X3X3X3X3X",
"3X3X3X>X*X5.) ` H ' d.d.f.f.} ' ` ' ] ` ` ] ] _ | ^ ~ =.~.2X-X/.(.3X3X3X3X3X>X>X-X-X>X>X>X3X<X3X3X3X3X3X5X5X3X3X3X5X4X3X>X3X>X>X",
">X3X3X3X|.X.) G G U H H ` H H ` ` ` I ) ) P ) _ Y 1 9 0.=X5X3X3X3X3X3X;X-X%X-X-X>X>X>X>X>X>X3X3X3X3X3X3X3X3X3X3X3X5X3X3X,X3X3X5X",
"3X3X3X>X+X( D Z G U I I G G D ) ) P F D D D ) m n 4 >.~.4X3X3X3X3X3X3X>X-X%X-X:X>X3X>X:X>X>X>X4X3X3X3X3X4X3X3X3X4X3X4X3X>X3X3X3X",
"3X3X3X3X@X#.D Z G H U U H F S S S D D A A A m x x l B.-X6X5X3X3X3X3X>X>X>X-X-X3X3X3X>X%X%X&X;X3X3X3X3X5X>X3X3X3X3X3X3X3X5X3X3X3X",
"3X3X3X4X2XZ.) D G H U U ] P P D A A A A z z c c x x  .T.3X5X3X3X3X3X3X3X3X3X>X3X3X3X-X$X$X%X-X3X3X3X3X4X3X>X4X3X3X3X>X3X4X3X3X3X",
"3X3X3X3X2XQ._ G G H U U [ I P J A h h h z f d d f f x X.!.3X3X3X3X3X>X3X3X3X3X>X3X2X-X$X%X-X-X3X3X3X3X5X3X4X>X5X5X3X4X4X3X3X3X4X",
"3X3X3X3X3X@X( Z G H U [ [ [ ] L A A A A C f a a d f c x 2.oX6X3X3X3X3X3X3X3X3X3X>X2X2X:X=X-X3X3X3X3X3X>X5X3X3X3X3X3X3X3X3X3X>X<X",
"<X>X3X3X3X-XB.D G H U U [ d.[ I L A A J J C a f d z x x  .T.6X3X3X3X3X3X3X3X3X3X3X>X3X3X3X3X3X3X3X3X3X3X>X3X3X4X3X3X3X4X3X4X3X3X",
"3X3X3X3X5X>X|.L G G U ' d.' } ] L J A A D A c f f c A c x Z.2X3X3X3X5X3X3X3X3X3X3X3X3X3X3X3X3X3X3X3X3X5X>X3X4X3X>X3X3X3X3X3X3X3X",
"3X3X3X3X>X,X@XL G I I U ' ' [ [ I S A A A D c f f A c D x B.#X4X3X>X>X>X3X3X5X,X5X3X3X3X5X3X3X3X3X3X3X3X3X5X,X4X>X3X3X5X<X3X3X3X",
"3X3X3X4X>X>X@XV S G I U ' [ } [ ` F A C z A A c c c c c x o.).6X3X3X3X3X3X3X3X>X5X3X3X3X3X5X3X4X3X3X3X3X3X>X3X>X5X3X4X3X3X5X3X3X",
"3X3X3X4X<X>X#X( S Z G U U [ [ [ [ ` D C z z A c D A c x x B T.6X3X3X3X3X3X3X5X3X3X3X3X4X3X3X3X3X3X>X3X3X3X<X>X3X3X<X4X>X>X>X3X3X",
"3X3X>X4X3X3X@XX.J Z G G U [ [ } } ] F A z z c D m c c c x ( C.2X3X5X3X3X3X3X>X5X3X4X3X>X3X3X3X3X3X4X3X3X4X4X3X3X3X3X3X3X4X3X>X4X",
"3X3X3X3X3X3X;XQ.V C S I I U [ &.} } ` D z z z c c c x x l l | Q.4X3X3X3X3X3X3X3X4X>X3X3X5X3X3X5X>X4X3X3X>X3X3X3X3X3X3X3X4X3X3X3X",
"3X4X3X3X3X3X3X*X3.A S G U ] [ d.} } { ) C z f c c m N m x x l X.~.>X3X5X3X5X5X3X3X3X3X3X3X3X3X3X3X4X3X>X3X3X3X3X3X<X3X3X3X3X3X4X",
"3X4X3X3X3X3X3X;X{.+.A F I [ [ [ } { ] P D c c c D N m c z x x ( | q.}.:X3X>X3X3X3X3X3X3X<X3X3X3X3X3X4X4X3X3X3X4X3X3X3X3X3X3X4X3X",
"3X3X3X3X3X3X3X3X=XZ.K P I ] [ ] ` P P L J J c m m m c c c h h c n B ..U.-X3X3X3X4X3X3X3X3X3X3X3X4X4X>X3X4X3X3X3X3X3X3X>X3X3X3X3X",
">X3X3X3X3X3X3X3X4X`.+.D L P P P L J A J h c h c h g c c h h h C c c n | D.-X3X3X4X>X<X3X3X4X3X>X3X3X3X3X3X3X>X3X3X<X3X3X3X4X3X5X",
"5X3X3X3X3X3X3X3X;XQ.( L S S D S S A c h c h g g g c m c f d a h c c A c B V.+X3X3X5X3X3X3X3X3X3X4X>X3X3X>X3X3X5X>X>X<X3X>X3X3X3X",
"3X5X3X4X3X4X3X3X3XQ.V A A S D A A h h m c h h g m N m h a a f h h c z A x l 7.}.-X3X3X3X3X3X3X3X3X>X3X3X3X<X3X3X3X3X3X3X,X3X3X3X",
"3X3X3X3X3X3X4X4X-XJ.c A C S S D A A A h c h h c m m h d s h h f d z c c f d i X.D.+X3X3X3X3X4X>X3X3X>X4X4X3X3X3X3X3X>X,X3X3X5X5X",
"3X3X3X3X3X3X4X3X@X5.C Z S S F K J A J c c c h x g m m h h h f f f g f f d r u i 2 V.+X3X4X3X>X;X>X>X>X<X3X3X3X3X3X3X5X3X3X3X3X3X",
"3X3X3X3X4X3X3X4X*X$.D C A A L F J J c c c x g u g g h h h f f h g g g g a u u u i T 7.!.-X4X>X&X%X-X>X>X>X3X>X>X>X5X3X3X4X>X3X3X",
"3X4X5X>X3X3X3X4X*X$.A z z m F P J J c c c g g u t u s g d d h h g g x u u u r a g l i | S..X;X;X>X>X>X>X3X3X>X<X3X3X4X3X3X3X3X3X",
"3X3X3X3X3X>X5X5X+X .c c x m K P L m c c n g k k j p s s s d g x x g g t t t t g n x p i 1 >.S.E.Y.}.+X#X2X6X6X6X3X3X3X3X3X3X3X3X",
"3X3X>X3X5X4X>X3XXX2 l u e u x m J c c c h n n v b j k g s s t g g g s t t g x n n p i y ; % 6 0 q =.,.,.8.0.I.Y.-X3X3X3X3X3X3X3X",
"3X3X3X3X>X3X3X>XW.> , - - - ; i n m m c c g n v j j j t u e t t g g s t t g p n t y y y ; = X o o o * * * * 9 q w.-X3X3X>X3X3X3X",
">X4X3X4X3X3X5X*X<.$         . : n M m m m c c n v 3 R 4.Z.V.2.j k t t t t s k p u e e e ; - # X o o @ @ @ 8 8 8 q w.=X3X,X3X3X3X",
"3X3X3X3X3X3X3X#X>.o o O $ & $ 1 Y ( N N m m c m v < 9.OX-X=XoXT.4...X.Y j i t i e e ; ; : =   o o X o @ O 5 5 8 8 q ^.>X3X3X3X3X",
"3X3X3X4X3X3X3X3X/.W W e.A.A.L.E.{.2.| B T J N n j , Q /.6X4X4X2X*XOX+XOX{.4.k e e : : , , $ O 5 o o o o o o 5 5 5 8 (.>X3X3X3X3X",
"3X3X3X3X3X3X>X3X:XOXOX$X$X-X:X:X>X*X}.C.o.o.@.2.E 6 w Y.6X4X3X3X>X4X4X4X>X=XQ.2.2.E 3 o.W.E.A.Q 7 5 @ O o 5 O 5 5 7 XX>X5X>X3X3X",
"3X3X3X3X3X>X-X-X:X:X:X>X2X>X>X>X,X,X>X-X%X#X$X&X(.8.9.OX4X4X4X5X>X>X5X3X,X,X>X%X=X$X#X*X>X>X:X=XW.,.W w w 9.L.L.L.P.-X5X3X3X3X3X",
"3X4X3X3X4X3X-X$X$X-X2X3X3X>X3X>X;X4X4X3X>X3X>X4X;X-X-X3X4X5X3X3X3X3X3X3X3X3X3X4X3X3X3X3X3X3X3X5X>X:X&X=X*X:X:X:X:X>X3X>X3X,X3X3X",
"3X3X3X4X4X>X;X;X&X>X3X3X2X-X-X%X;X4X4X3X3X3X4X4X4X4X3X3X>X3X3X>X>X3X3X3X3X3X3X3X3X3X3X3X3X3X3X3X<X>X<X<X3X5X,X>X>X5X3X3X3X3X3X3X",
"3X3X3X4X3X2X3X3X<X3X3X3X%X$X$X$X-X;X3X3X3X3X3X4X3X3X3X3X3X3X,X3X3X3X3X3X3X3X3X3X3X3X3X3X3X3X3X3X5X5X<X<X3X3X4X>X5X5X3X3X3X5X3X3X",
"3X3X3X3X3X3X3X3X<X>X>X>X-X$X$X$X@X2X3X3X>X4X3X>X3X3X3X3X3X3X3X3X3X3X3X3X3X3X3X3X3X3X3X3X3X3X3X3X,X:X5X5X,X3X3X3X>X,X3X>X5X4X>X3X",
"4X3X3X3X3X4X3X3X3X3X>X;X;X-X-X%X;X2X4X3X3X3X3X3X3X3X4X3X>X<X3X3X3X3X3X3X3X3X3X3X3X3X3X3X3X3X3X3X3X3X>X,X5X>X3X3X5X4X3X3X<X3X3X4X",
"3X3X3X3X4X3X3X3X3X3X3X3X>X3X>X>X2X3X3X4X3X3X3X3X3X3X4X>X>X>X>X3X3X3X3X3X3X4X3X3X3X3X3X3X3X3X3X3X5X3X3X3X3X3X3X5X5X>X>X3X>X3X5X3X",
"3X3X3X3X3X3X3X3X3X3X3X3X3X3X3X3X3X3X3X3X3X3X3X3X3X3X3X>X>X>X>X>X3X3X3X3X3X3X4X3X3X3X3X3X3X3X3X3X>X3X3X3X3X3X3X3X4X3X3X3X3X3X3X3X",
"3X4X3X4X3X3X3X3X3X3X3X3X3X3X3X3X3X3X3X3X3X3X3X3X3X3X3X3X,X,X>X>X2X3X3X3X3X3X3X3X3X3X3X3X3X3X3X3X3X3X3X3X3X3X>X5X<X3X3X3X3X3X3X3X",
"3X3X3X3X3X3X3X3X3X3X5X3X3X>X,X5X4X3X4X3X3X3X3X3X3X3X3X3X3X3X2X2X2X2X3X3X3X3X3X3X5X3X3X3X3X3X3X3X3X3X3X3X3X3X3X3X3X3X3X>X3X3X4X3X",
"3X3X3X3X4X3X4X3X3X3X,X>X3X3X3X3X3X3X3X3X3X3X3X3X3X3X3X3X3X3X;X@X@X2X3X3X3X3X3X3X3X3X3X3X3X3X3X3X3X3X3X3X4X3X3X3X3X3X3X4X3X3X3X5X",
"3X3X3X3X3X3X3X3X3X3X>X>X3X3X>X5X3X3X3X3X3X3X3X3X3X3X3X3X3X3X2X*X;X;X3X3X3X3X3X3X3X4X3X3X3X3X3X3X3X3X3X3X3X4X3X3X3X3X>X>X3X3X3X3X",
"3X3X3X3X4X3X3X3X3X3X5X3X>X3X5X>X3X3X3X3X4X4X3X3X3X3X3X3X3X3X3X3X3X3X3X3X3X3X3X3X4X4X3X3X3X3X3X3X3X3X3X3X3X3X3X3X>X4X4X<X3X3X3X3X",
"3X3X3X3X3X5X3X3X3X3X3X3X4X3X3X3X3X3X3X3X3X3X3X3X3X3X3X3X3X4X3X3X3X3X3X3X3X3X3X3X3X3X3X3X3X3X3X3X3X3X3X3X3X3X3X3X3X3X3X3X3X3X3X3X",
"3X3X3X3X3X3X4X3X3X3X3X3X3X>X5X3X3X3X3X4X3X3X3X3X3X3X3X3X3X3X3X3X3X3X3X3X3X3X3X3X3X3X3X3X5X3X3X3X3X3X3X3X3X4X3X3X3X3X3X5X4X3X3X3X",
"3X3X3X4X3X3X3X5X3X3X3X3X3X3X<X3X4X3X3X3X3X3X3X3X3X3X3X3X3X3X3X3X3X3X4X3X3X3X3X3X3X3X3X3X3X3X5X3X3X3X3X3X4X3X3X3X3X3X3X3X3X3X3X3X",
"3X3X3X3X3X3X5X3X3X3X3X3X4X3X3X4X3X3X3X3X3X3X3X3X3X4X3X3X3X3X4X4X4X4X4X4X3X3X3X3X3X3X3X3X3X5X5X5X5X3X3X3X3X3X3X4X3X3X3X3X3X3X3X3X"
};
