/* XPM */
static char *result[] = {
/* columns rows colors chars-per-pixel */
"64 64 220 2 ",
"   c #0C1116",
".  c #0E141B",
"X  c #121517",
"o  c #11161A",
"O  c #14191D",
"+  c #1B1D1C",
"@  c #1F211C",
"#  c #22231C",
"$  c #2A2818",
"%  c #322C12",
"&  c #362D10",
"*  c #0F1821",
"=  c #131B25",
"-  c #151D26",
";  c #192227",
":  c #1A232B",
">  c #1F2A35",
",  c #242926",
"<  c #262B28",
"1  c #2E342E",
"2  c #343323",
"3  c #36392A",
"4  c #2D353B",
"5  c #363B36",
"6  c #433B13",
"7  c #48383B",
"8  c #3C4037",
"9  c #484419",
"0  c #4A492B",
"q  c #55512A",
"w  c #5B572B",
"e  c #494B36",
"r  c #504F30",
"t  c #595836",
"y  c #645E28",
"u  c #6F662A",
"i  c #7C712C",
"p  c #696538",
"a  c #746D3A",
"s  c #79723C",
"d  c #283541",
"f  c #4C3D41",
"g  c #3D4645",
"h  c #34424A",
"j  c #3C454C",
"k  c #3D4C4C",
"l  c #374956",
"z  c #3B4D54",
"x  c #3E525A",
"c  c #3E5361",
"v  c #4A4245",
"b  c #474348",
"n  c #404E4B",
"m  c #514B49",
"M  c #58574D",
"N  c #4A5559",
"B  c #565B59",
"V  c #615851",
"C  c #797548",
"Z  c #6D6C50",
"A  c #696857",
"S  c #76775D",
"D  c #425964",
"F  c #465A69",
"G  c #515B65",
"H  c #5A6668",
"J  c #4B6476",
"K  c #566775",
"L  c #5B7176",
"P  c #787964",
"I  c #6C7476",
"U  c #687778",
"Y  c #8E7C1E",
"T  c #8D7D23",
"R  c #8C7D2B",
"E  c #927929",
"W  c #867B35",
"Q  c #957C34",
"!  c #826F4D",
"~  c #847D47",
"^  c #897657",
"/  c #967D5B",
"(  c #867D6B",
")  c #92842F",
"_  c #938334",
"`  c #9A8336",
"'  c #998B35",
"]  c #958738",
"[  c #9B853B",
"{  c #9C8A3C",
"}  c #9E903E",
"|  c #8F8649",
" . c #928644",
".. c #988744",
"X. c #9C8B43",
"o. c #968D4E",
"O. c #9E8C4A",
"+. c #9B9148",
"@. c #9E934D",
"#. c #8D8754",
"$. c #978F54",
"%. c #95855B",
"&. c #9D9453",
"*. c #98935C",
"=. c #9B945C",
"-. c #A08746",
";. c #A18D45",
":. c #A28D4C",
">. c #A49448",
",. c #A3934C",
"<. c #A49554",
"1. c #A69954",
"2. c #A99956",
"3. c #A59659",
"4. c #A8965A",
"5. c #A59A5B",
"6. c #A99B5C",
"7. c #ACA05F",
"8. c #868863",
"9. c #938E67",
"0. c #9F9564",
"q. c #9E9864",
"w. c #9E9B6B",
"e. c #828777",
"r. c #9B9C78",
"t. c #A39264",
"y. c #A59C63",
"u. c #A99E62",
"i. c #A2946E",
"p. c #A49E6C",
"a. c #AA9E6A",
"s. c #B49B62",
"d. c #A29E72",
"f. c #9EA07E",
"g. c #ABA265",
"h. c #A6A16C",
"j. c #A8A368",
"k. c #ABA36C",
"l. c #B8A46B",
"z. c #A5A273",
"x. c #ACA672",
"c. c #ADA874",
"v. c #A5A47B",
"b. c #A9A77B",
"n. c #ADA97C",
"m. c #B5A772",
"M. c #C4A96B",
"N. c #D0B36F",
"B. c #CBB574",
"V. c #C9B477",
"C. c #D6BD77",
"Z. c #DDC276",
"A. c #DCC37B",
"S. c #E4C473",
"D. c #E7C873",
"F. c #EACA76",
"G. c #E4C579",
"H. c #E5C97C",
"J. c #EDCD7B",
"K. c #F0CF7C",
"L. c #EED07D",
"P. c #F4D47E",
"I. c #F9D77F",
"U. c #F9D87F",
"Y. c #5A7586",
"T. c #5A758B",
"R. c #647985",
"E. c #7C7C81",
"W. c #637D93",
"Q. c #6F7E92",
"!. c #6C8286",
"~. c #748788",
"^. c #78908E",
"/. c #6A8598",
"(. c #7C8F92",
"). c #728C9D",
"_. c #79929A",
"`. c #6C8CA5",
"'. c #6E90AA",
"]. c #7697AC",
"[. c #769BB4",
"{. c #87948C",
"}. c #929C86",
"|. c #879D9A",
" X c #AA9B80",
".X c #99A58C",
"XX c #9DA48C",
"oX c #8BA09D",
"OX c #94A394",
"+X c #A3A685",
"@X c #ACAB83",
"#X c #ACAD8B",
"$X c #ADB083",
"%X c #ACAE94",
"&X c #A7AD98",
"*X c #AEB193",
"=X c #ACB29A",
"-X c #BAB794",
";X c #859AAA",
":X c #8AA2A5",
">X c #8BA6AD",
",X c #97ABAB",
"<X c #87A6B5",
"1X c #A0AFAA",
"2X c #CBBB87",
"3X c #C5BC92",
"4X c #B9C3A7",
"5X c #D9C588",
"6X c #CCC596",
"7X c #DED297",
"8X c #E4CC84",
"9X c #E9CE83",
"0X c #E2CD8B",
"qX c #EDD284",
"wX c #E9D28A",
"eX c #F6D680",
"rX c #F8D780",
"tX c #F7D881",
"yX c #F9D981",
"uX c #E3D292",
/* pixels */
"U.rXU.U.yXyXU.rXeXrXeXrXI.eXP.rXeXP.rXrXrXU.yXP.yXU.eXeXqXL.H.8XH.qXP.tXU.U.U.U.tXyXrXU.U.U.tXeXtXeXrXyXU.U.U.U.P.U.U.eXrXU.eXrX",
"eXeXeXeXeXeXeXeXeXeXeXeXeXeXK.K.K.P.eXeXeXeXU.U.H.G.B.x.9.A S A S 9.k.B.Z.A.9XtXtXqXeXeXeXeXeXeXeXeXeXeXeXrXeXeXeXeXeXeXeXeXeXeX",
"eXrXeXeXtXP.P.eXrXeXP.P.eXP.J.F.J.P.eXrXeXqX5Xm.P e 2 % % % $ % & 6 6 9 q Z e.n.=X4X7XtXeXeXeXeXtXeXeXtXeXeXyXP.eXrXeXrXyXP.eXeX",
"P.P.eXeXeXeXeXeXeXeXP.P.K.K.K.J.K.K.eX9X2XXXI 8 , # + + + # # $ $ @ @ @ @ $ 2 8 N /.<X4XuXeXeXeXP.eXP.eXeXeXeXeXeXeXrXeXeXeXeXP.",
"eXrXeXeXP.eXeXeXeXP.P.J.J.J.K.eXeXeX2Xr.H 5 , + X X .             o . .   o . . o + h T.>X4XuXtXU.eXP.tXeXP.P.P.P.eXP.eXU.eXrXeX",
"rXrXeXeXeXeXeXeXeXP.P.F.D.F.P.9X5Xc.A 5 # O         X O @ 2 3 3 < ; ; ; = = * o * .   - l /.1X6XeXeXtXP.P.P.P.P.eXeXeXeXeXP.eXeX",
"eXeXrXeXP.eXeXeXeXP.K.K.K.9X0X%XI 5 # X     . # 2 0 r q y i R i y w 9 q r 8 1 : - = * .   > J [.4XwXyXP.J.J.J.P.eXeXeXeXeXeXP.rX",
"eXeXeXeXrXeXeXeXeXP.eXP.eX5X{.N , X     # 3 q u W ] { ) ' ] ] _ T Y Y ) ) T i t e 1 : = = . * c '.-XqXP.J.F.J.P.P.eXeXU.P.eXeXeX",
"eXeXeXeXeXeXeXeXeXeXtXeX3X~.g + X   # 0 u _ ' ' X.+.<.&.&.q.7.7.,.X.] _ T Y Y Y R a t 3 : = * * l ).3XH.J.eX9XeXP.eXP.P.P.P.eXeX",
"eXeXeXeXeXeXeXeXeXP.qX3XR.4 X   X 2 a ) ' ..&.&.y.a.h.k.j.j.j.k.h.g.j.6.3.3.&. .) R _ C t < = = * l ;X2XeXeXeXeXP.L.P.P.tXeXeXeX",
"eXeXeXeXeXrXeXeXP.eX3XQ.4 X   # t W ' ' @.q.x.k.g.a.p.a.j.j.j.k.x.h.h.k.x.h.h.h.q.$.o.) ~ C 5 - = * Y.,XwXtXeXF.D.D.F.P.eXeXtXP.",
"eXeXeXeXeXeXeXeXeX5X_.4 .   # C +.' ;.d.v.c.x.h.a.p.g.k.k.j.j.x.k.k.c.k.h.h.x.k.h.p.t.*.] ] C 3 - * : `.6XeXP.D.S.S.D.P.eXeXeXeX",
"P.eXeXeXeXeXK.eX0X:Xh o   < C &.} 5.b.@Xb.x.x.a.a.a.h.k.j.k.m.x.k.c.k.k.k.k.z.k.k.k.j.h.q.|  .a 1 - = l ,X0XP.H.S.S.H.J.eXeXeXeX",
"P.rXeXU.eXrXrXeX=XF = o < C &.X.<. X#Xc.c.x.c.a.a.a.a.a.k.j.k.c.k.c.c.c.c.c.k.c.j.$Xz.j.p.w.o. .a < - : '.3XJ.J.J.J.K.eXeXeXeXeX",
"rXeXeXP.eXeXJ.2X`.: . ; C =.{ +.@X#X@Xx.a.c.a.x.a.a.k.x.c.k.k.c.c.c.k.k.x.h.c.k.k.=X@Xh.h.h.d.$.] t > = J ,XwXK.qXP.eXeXeXeXeXeX",
"eXeXeXrXeXeX8X1Xl o ; p q.{ +.b.#X@Xn.x.c.c.m.k.k.m.x.x.k.c.c.c.c.c.c.c.x.j.k.k.j.=Xb.j.h.h.p.q. .| 7 - d [.0XeXeXrXeXP.eXeXeXeX",
"eXP.eXP.eXeX5X'.; O e w.@.+.b.*X#Xb.c.x.c.x.a.a.l.k.j.g.j.j.j.k.x.x.x.x.x.k.k.k.g.&Xv.a.h.h.h.a.q.o.s < : [.6XeXeXeXtXeXP.eXeXP.",
"eXrXeXeXeXeX-XF = 5 #.=.+.b.#X@X@Xn.c.x.x.x.s.a.7.7.7.>.>.>.>.1.1.j.x.m.c.x.k.k.g.XXf.x.k.h.h.p.p.$.$.0 - `.-XwXeXtXeXeXeXeXP.tX",
"eXeXP.eXtXwX,X> ; p h.} j.*X#X#X@Xn.x.k.g.6.6.6.>.1.7.7.g.j.j.k.j.1.6.k.x.x.k.x.k.XXd.x.k.k.p.p.p.w.$.s , W.=XqXeXeXeXeXeXeXtXP.",
"eXeXeXrXtX5X[.- 3 $.=.&.*X*X$X@X@Xc.x.l.u.6.6.6.7.l.g.g.j.l.k.k.k.j.2.,.6.x.x.k.k.r.d.h.x.x.x.a.p.p.o.#.2 Y._.8XeXeXeXeXeXeXeXeX",
"rXeXeXeXeX3XT.- t z.<.v.*X#X$X@Xn.m.k.j.g.g.k.x.k.j.g.g.g.g.g.g.g.a.s.6.<.4.x.x.x.v.z.z.x.h.x.z.p.p.*.$.r R.).H.yXP.P.tXrXeXeXrX",
"eXtXeXeXqX=XF 1 ~ z.5.*X*X#X$Xn.x.x.x.6.6.c.c.k.l.g.g.u.j.j.l.k.g.g.a.6.2.,.u.c.l.v.z.j.k.j.h.z.d.p.0.$.u )./.5XeXtXrXrXeXeXeXeX",
"eXeXtXeXwX=Xh 4 *.v.z.*X*X#X@Xn.x.x.7.1.g.k.k.k.g.g.u.u.g.g.u.a.a.a.6.2.2.<.6.k.k.z.d.h.k.k.h.z.z.p.w.o.s [.R.C.P.eXeXeXeXeXP.U.",
"eXeXtXtXtX=Xh r z.v.#X%X-X@Xn.c.m.j.6.1.6.6.g.g.u.u.g.g.g.u.u.a.a.u.4.2.2.6.,.u.k.h.w.h.j.z.x.z.z.p.w.o.~ <XE.G.P.tXeXrXrXP.rXeX",
"eXeXeXeXeX&Xl t +Xz.%X*X#Xn.n.c.k.k.k.j.k.u.2.<.[ ` -.2.4.5.y.y.u.u.<.<.<.6.:.5.j.y.z.h.x.z.x.z.z.d.i.o.8.[. XJ.tXP.eXrXeXP.eXeX",
"eXeXrXeX9X%XG C #Xh.*X#X@Xn.n.c.c.k.c.n.k.6.,.{ ` [ ` X.<.<.u.y.u.u.6.<.6.2.:.3.y.j.b.v.x.k.z.z.z.w.y.$.|.W.V.eXeXtXeXP.U.tXeXeX",
"eXeXeXeXeXXXQ.s @Xh.*X#Xn.n.c.x.c.c.x.x.a.u.<.;.<.6.X.X.6.:.[ Q &.g.g.2.2.2.:.<.6.5.#Xb.h.z.h.h.h.w.=.*.<XE.Z.P.I.tXP.tXyXP.eXeX",
"eXeXeXrXP.2X[.C v.a.*X#Xn.n.c.x.c.n.c.k.6.2.2.6.6.1.;.<.<.X.O.X.[ O.X.E Q X.[ <.j.h.*X@Xk.x.x.z.z.w.*.}.`.( H.eXeXP.yXeXP.P.tXeX",
"eXrXI.eXeX8X<XC z.y.#X@Xb.c.m.l.x.c.h.u.2.2.6.6.2.,.O.y.,.O.u.3.[ E Q { X.Q E 3.x.h.#X@Xx.k.h.h.p.q.*.<XL V.P.eXeXeXeXeXyXeXrXeX",
"eXeXeXeXrX9X{.{.z.y.@X@Xn.x.x.g.j.c.u.<.6.6.6.u.>.X.2.,.O.y.6.<.:.-.-.<.6.2.3.a.k.h.+Xb.j.h.z.h.p.q.OX/.H A.P.P.P.eXtXeXP.rXeXP.",
"eXrXeXeXeXH.P <Xw.h.b.@Xn.c.x.x.x.c.g.2.4.4.6.6.,.;.2.{ O.6.<.<.:.:.-.:.1.5.6.j.k.j.f.z.j.h.j.y.q.r.[.K ( G.eXeXrXU.eXeXeXeXrXeX",
"eXeXeXeXeXK.s.W.OXh.x.@Xn.x.x.c.c.n.x.u.u.u.u.:.,.6.;.&.u.;.<.<.:.O.O.:.>.1.6.g.j.g.v.z.j.j.j.q.r.<XU B V.eXeXrXeXeXeXeXeXeXrXeX",
"eXeXeXeXeXrXZ.V [.f.g.n.c.x.x.c.c.n.c.c.j.h.h.7.5.x.2.u.6.>.;.} :.:.-.-.<.2.u.a.j.j.v.z.k.j.j.w.>X/.B i.J.yXeXeXeXeXeXeXeXP.eXeX",
"eXeXeXeXeXrXK./ F >Xh.b.n.x.x.x.c.n.c.c.k.g.j.5.j.,.@.k.2.>.[ E Q :.:.-.-.2.u.a.g.g.n.x.h.j.w.:X/.U ( 8XeXeXeXeXeXP.eXP.eXyXeXtX",
"eXeXeXeXrXeXK.N.e Y.oXx.$Xn.c.c.k.c.c.c.c.j.7.&.k.&.O.1.>.{ X.<.[ O.t.:.<.2.6.u.j.g.h.j.q.f.:X).I I 2XqXtXP.P.tXP.P.U.rXP.tXeXeX",
"eXeXrXeXrXeXrXG.Z b Y.oX+X@Xn.x.x.h.k.j.c.k.g.&.j.5.[ Q O.3.5.,.O.=.:.-.2.a.u.u.j.q.7.=.f.<X/.L U *XwXrXeXU.rXeXtXeXeXeXU.eXeXP.",
"eXeXeXeXeXrXP.eXN.7 m Y.;X&Xb.c.j.j.h.x.k.k.j.&.3.k.g.g.j.j.5.+.t.a.;.-.4.y.y.y.5.q.f.OX[.W.G H }.9XrXeXeXP.eXeXeXP.P.tXeXeXU.eX",
"eXeXeXeXeXeXrXrXD./ f f J ).OX@Xx.j.j.j.k.c.c.7.X.+.<.<.&.5.&.j.c.u.2.<.5.y.4.y.f..X:X'.Y.H H e.A.U.eXP.eXeXeXeXeXyXP.tXeXeXeXeX",
"eXeXeXeXrXrXeXeXP.Z.m f f D T.]..Xn.k.j.j.k.k.k.g.+.X.+.&.5.j.x.k.g.u.u.u.u.d.}.:X].W.H G L r.C.J.K.P.P.eXeXP.P.eXrXeXP.rXeXeXeX",
"rXeXeXP.P.eXeXrXrXJ.M.^ m f n c !.^.OXf.j.j.c.k.j.j.x.k.c.c.j.j.g.g.a.d.+XOX;X'.T.H G N B w.H.J.J.K.P.P.P.eXU.P.eXeXeXeXeXP.eXtX",
"eXeXeXeXP.P.eXeXeXeXyXG./ V f f h D Y.Y.^.OXOX+Xf.b.x.x.x.f.v..XXXOX|.(.E.R.K G G N N ^ s.S.P.K.eXP.P.P.eXeXeXeXeXeXeXrXrXeXP.tX",
"eXeXeXeXeXtXeXrXeXeXrXP.Z.M.t.M h k j z D J L Y.!.!.~.~.~.~.!.!.Y.Y.G G m 7 7 f S i.m.Z.F.F.F.eXeXP.P.P.P.P.eXeXeXeXP.eXeXeXeXP.",
"eXeXeXU.rXtXeXeXP.rXeXeXrXrXeXB.0.A g n k k x x x c c c D D x z k g b b 7 7 ! s.C.eXtXeXJ.J.qXtXeX9XF.D.D.J.K.rXeXeXeXtXP.eXtXP.",
"P.rXeXeXeXP.P.tXeXeXP.P.eXeXeXrXP.N.t.S N x x x z k k k k k k k g g n v ^ M.G.eXtXeXeXeXP.P.eXeXeXJ.S.S.S.D.K.eXeXeXeXP.U.yXP.tX",
"eXeXeXeXeXeXP.eXP.P.P.P.P.tXtXP.tXP.P.A.Z.B.c.P B k k k n n n k M Z %.l.H.yXyXeXtXeXeXeXeXeXeXP.P.J.D.G.G.H.K.eXeXeXrXeXeXP.rXeX",
"eXeXeXrXrXeXeXeXeXL.F.F.L.P.tXtXP.P.U.tXP.P.P.H.A.B.m.t.t.l.l.l.Z.G.J.P.yXtXeXeXeXeXeXeXeXeXP.eXP.J.J.J.J.F.P.P.eXrXP.eXrXeXeXeX",
"eXeXeXeXeXeXeXeXeXL.J.J.L.P.P.tXtXP.tXP.tXU.P.U.tXeXP.L.L.P.P.P.P.tXI.eXP.tXP.eXeXeXeXeXeXeXeXeXK.eXeXeXeXP.eXeXeXeXrXeXP.eXeXrX",
"eXeXeXeXeXeXK.F.J.J.P.L.P.P.P.P.tXP.P.P.tXtXP.P.eXeXeXeXeXP.rXtXtXP.P.tXyXP.U.eXeXeXeXeXeXeXP.eXeXP.P.eXeXeXP.eXeXeXP.tXeXeXeXeX",
"eXrXeXrXrXeXJ.D.F.J.eXeXeXeXeXP.P.P.rXrXP.rXeXeXeXeXeXeXrXeXrXeXyXP.P.yXeXeXP.eXrXeXP.eXeXeXeXeXrXeXeXeXtXyXP.I.eXeXeXP.tXU.P.tX",
"eXeXeXeXeXP.K.J.F.P.eXtX9XF.F.F.K.P.eXeXeXrXrXrXeXeXrXP.P.eXP.eXeXeXtXP.eXeXrXeXeXrXrXeXeXeXrXeXeXeXeXeXeXyXtXI.P.eXeXeXeXeXP.eX",
"eXeXeXrXeXeXK.eXP.eXeXeXJ.S.S.S.F.qXeXeXeXeXeXrXeXeXeXeXrXeXtXeXP.eXP.yXeXP.eXeXeXrXeXeXeXeXeXeXeXeXeXrXeXeXrXrXtXeXeXeXrXP.rXeX",
"eXeXeXeXeXeXeXeXeXP.P.P.J.S.Z.S.F.9XeXeXI.eXeXK.eXeXeXeXeXeXU.P.eXeXtXeXeXeXeXrXeXeXeXeXeXeXeXeXeXU.eXeXP.eXeXP.P.I.eXP.tXtXeXrX",
"rXeXeXeXrXeXeXeXrXP.P.P.J.F.F.J.J.K.eXeXeXeXeXeXeXeXeXU.P.P.P.yXeXeXeXeXeXeXeXP.eXP.rXeXeXeXeXeXeXrXeXP.eXU.eXeXtXtXP.eXP.I.eXeX",
"eXeXeXeXeXrXeXeXeXeXeXqXeXeXeXeXeXeXrXrXeXeXeXeXeXeXU.P.P.P.P.eXeXeXeXeXeXeXrXeXP.eXeXeXeXeXeXeXeXU.rXeXeXeXeXeXP.P.I.eXP.yXtXeX",
"eXeXeXeXeXeXeXeXeXeXeXeXeXeXeXeXeXeXeXeXeXP.P.rXeXeXeXP.P.P.P.eXeXeXeXeXeXeXU.eXeXeXeXeXeXeXeXeXeXeXeXP.eXeXeXeXyXP.eXeXeXeXeXeX",
"eXrXrXeXrXeXeXeXeXeXeXeXeXeXeXeXeXU.P.eXeXeXeXeXP.eXeXrXU.P.P.P.eXtXeXeXeXeXeXeXeXeXP.eXeXeXeXeXeXeXeXeXeXP.eXeXrXeXeXeXeXeXeXeX",
"eXeXeXrXeXeXeXeXeXeXtXeXeXI.I.tXeXrXeXeXeXeXeXeXeXeXeXeXeXeXqXJ.9XqXeXeXeXeXeXeXeXeXeXeXeXeXeXeXeXP.eXeXrXeXeXeXeXrXeXU.eXtXrXeX",
"eXeXeXeXrXeXrXeXeXeXP.U.eXP.P.eXeXeXeXeXeXeXeXeXeXrXeXeXeXeXJ.G.G.J.eXeXeXeXeXeXeXeXeXeXeXeXeXeXeXeXeXeXeXeXeXeXP.tXeXrXeXP.eXtX",
"eXeXeXeXeXeXeXeXeXeXP.P.rXP.tXP.rXeXeXeXeXeXeXP.eXeXrXeXeXqX9XJ.J.K.eXeXeXeXeXeXrXeXeXeXeXeXeXeXrXeXP.eXeXrXeXeXrXP.rXP.eXP.eXeX",
"eXeXeXeXrXeXeXeXeXeXtXP.P.tXtXP.eXeXeXeXeXrXeXeXeXeXeXeXeXrXeXeXeXeXeXeXeXrXeXeXeXtXeXeXeXeXeXeXrXeXeXeXeXeXeXeXP.tXrXP.eXtXeXeX",
"eXeXeXeXeXeXrXeXeXeXeXeXrXeXeXP.rXrXrXrXeXeXeXeXeXeXeXeXeXeXrXeXrXeXeXeXeXeXeXP.eXeXeXeXeXeXeXeXeXeXeXeXeXeXeXeXeXeXeXeXeXrXeXeX",
"eXeXeXeXeXeXeXrXeXeXeXeXeXeXI.tXrXrXrXrXrXeXeXeXeXeXeXeXeXeXeXeXeXrXeXeXeXeXeXrXeXeXtXeXeXeXtXeXeXeXeXeXeXrXeXeXeXeXeXeXrXP.tXeX",
"eXeXeXI.eXeXeXeXeXeXeXeXeXeXeXeXrXqXeXeXrXrXeXeXeXeXeXeXeXeXeXeXeXrXeXeXeXeXeXeXrXeXeXeXeXtXeXeXeXeXeXP.eXeXeXeXeXeXeXeXeXeXeXP.",
"eXeXeXrXeXeXeXtXeXeXeXtXtXtXeXrXrXqXeXeXeXeXeXrXeXeXeXrXeXeXrXeXeXeXeXeXeXrXrXeXeXeXeXeXeXeXeXtXtXtXeXrXrXtXeXeXtXeXtXtXtXtXeXeX"
};
