/* XPM */
static char *result[] = {
/* columns rows colors chars-per-pixel */
"64 64 215 2 ",
"   c #0D1217",
".  c #0E141B",
"X  c #141717",
"o  c #11161A",
"O  c #15191C",
"+  c #191D1D",
"@  c #25261C",
"#  c #2A2B1D",
"$  c #30301D",
"%  c #0F1721",
"&  c #131B24",
"*  c #191E22",
"=  c #161F29",
"-  c #1D2323",
";  c #162029",
":  c #1B242B",
">  c #1B2631",
",  c #262A26",
"<  c #222A2D",
"1  c #2D322B",
"2  c #383A28",
"3  c #222C37",
"4  c #29353C",
"5  c #353932",
"6  c #323B3E",
"7  c #4A3C3C",
"8  c #523E39",
"9  c #3B4034",
"0  c #44442B",
"q  c #5B562C",
"w  c #484939",
"e  c #5A5836",
"r  c #635C2E",
"t  c #635C3A",
"y  c #696434",
"u  c #756D39",
"i  c #7B743B",
"p  c #343D44",
"a  c #493F43",
"s  c #3B4447",
"d  c #3D4B4B",
"f  c #3C4D52",
"g  c #3A4C59",
"h  c #3C515C",
"j  c #3E5464",
"k  c #45444B",
"l  c #494948",
"z  c #534649",
"x  c #4B524B",
"c  c #545549",
"v  c #454E56",
"b  c #534C56",
"n  c #495459",
"m  c #575B56",
"M  c #525C5C",
"N  c #695A4B",
"B  c #605B50",
"V  c #5D645A",
"C  c #646342",
"Z  c #686449",
"A  c #726E40",
"S  c #7C7744",
"D  c #656558",
"F  c #746A53",
"G  c #78775C",
"H  c #455A68",
"J  c #525D67",
"K  c #4F626B",
"L  c #56646A",
"P  c #4B6779",
"I  c #576775",
"U  c #797B69",
"Y  c #677777",
"T  c #6C7070",
"R  c #87761B",
"E  c #8B7B24",
"W  c #8B7C2A",
"Q  c #92752B",
"!  c #937B2C",
"~  c #857938",
"^  c #937732",
"/  c #957C31",
"(  c #856E4C",
")  c #877B44",
"_  c #847D45",
"`  c #877656",
"'  c #967D56",
"]  c #887A6B",
"[  c #6F8376",
"{  c #8F812A",
"}  c #92832C",
"|  c #8E8138",
" . c #948534",
".. c #998734",
"X. c #92853D",
"o. c #9A853B",
"O. c #9A8D3C",
"+. c #9E903F",
"@. c #8B8348",
"#. c #9C8643",
"$. c #938847",
"%. c #9D8C44",
"&. c #9E8C49",
"*. c #9D9042",
"=. c #9E934C",
"-. c #868254",
";. c #958D52",
":. c #988957",
">. c #9B9253",
",. c #999459",
"<. c #9B945B",
"1. c #A18A46",
"2. c #A28D4B",
"3. c #A3954B",
"4. c #A3924C",
"5. c #A58D54",
"6. c #A49553",
"7. c #A89656",
"8. c #A69955",
"9. c #A4955A",
"0. c #A59A5C",
"q. c #AA9858",
"w. c #A99B5C",
"e. c #848563",
"r. c #9C9566",
"t. c #9E9966",
"y. c #9E9C6B",
"u. c #9F9F75",
"i. c #9B9D7A",
"p. c #A59664",
"a. c #A59C63",
"s. c #AA9E63",
"d. c #A49E6C",
"f. c #AA9F69",
"g. c #A49F70",
"h. c #B29B73",
"j. c #9EA17B",
"k. c #A6A166",
"l. c #AAA165",
"z. c #A6A16C",
"x. c #ABA36C",
"c. c #BCA369",
"v. c #A5A273",
"b. c #ACA672",
"n. c #ADA876",
"m. c #A4A47A",
"M. c #A9A779",
"N. c #ACA97B",
"B. c #B3A677",
"V. c #BDB37D",
"C. c #C5A96C",
"Z. c #D2B36C",
"A. c #C3AF72",
"S. c #CCB575",
"D. c #D9BB73",
"F. c #DEC076",
"G. c #E4C473",
"H. c #E7C873",
"J. c #E9C976",
"K. c #E3C67A",
"L. c #E6C97B",
"P. c #EDCD7A",
"I. c #F0CF7E",
"U. c #EFD17D",
"Y. c #F4D47E",
"T. c #F9D77F",
"R. c #F9D87F",
"E. c #5B7588",
"W. c #637989",
"Q. c #677890",
"!. c #5E8093",
"~. c #7C8987",
"^. c #688799",
"/. c #738999",
"(. c #7E989E",
"). c #6C8BA3",
"_. c #738EA2",
"`. c #7897A7",
"'. c #7A9DB6",
"]. c #8C9A8B",
"[. c #949D86",
"{. c #889997",
"}. c #919C97",
"|. c #9BA387",
" X c #99A697",
".X c #A6A786",
"XX c #ACAB84",
"oX c #ACAD8C",
"OX c #B1AE82",
"+X c #B9B08D",
"@X c #A3AD93",
"#X c #ACAE93",
"$X c #ADB193",
"%X c #ADB198",
"&X c #B6B699",
"*X c #8AA4A8",
"=X c #8BA5AB",
"-X c #92A6A3",
";X c #9BA9A4",
":X c #83A5B8",
">X c #CDBD88",
",X c #C2BB96",
"<X c #DAC78B",
"1X c #DCCA8D",
"2X c #CAC394",
"3X c #D7C991",
"4X c #E5CC84",
"5X c #E5CC85",
"6X c #EDD285",
"7X c #EAD28A",
"8X c #F6D680",
"9X c #F8D780",
"0X c #F7D882",
"qX c #FAD982",
"wX c #C5C4A2",
/* pixels */
"R.9XT.T.8X8XT.8X8X9XY.8XY.9XY.9X8XY.Y.8X9XT.8X8X8XT.8X8X8X8XR.8X9XR.9X9X9XR.T.T.0XR.R.R.T.T.9X0XR.8X9XT.T.T.R.T.T.T.R.8X9XT.8XR.",
"8X8X8X8X8X8X8X8X8X8X8X8X9X8XI.I.Y.T.8X8X8X8X8X8XT.8XT.8X8X8X8X0X8X8X8X8X0X8X8X8XR.0X8X8X8X8X8X0X8X8X0X8X8X8X8X8X8X8X8X8X0XT.8X8X",
"8X8X8X9XT.8X8X8X8X8XT.8X8XY.P.J.J.T.9XY.8XY.8X8X8X8X8X8X8X8XT.0X8X8X8X8X8X8X8X8X0XY.Y.8X8X8X8X8X8X8XT.T.8X8X8XY.8X8X8X9X8XT.8X8X",
"T.T.8X8X8X8X8X8X8X8XY.Y.I.Y.I.P.I.I.Y.Y.8X8X8X8X8XT.8X8X8X8XY.8X8X8X8X8X8X8X8X8X8X8X8X8X8X8X8X8X8X8XT.8X8X8X8X8X8X8X8X8XT.8X8X8X",
"8X8X8X8XT.8X8X8X8XY.Y.P.J.I.I.Y.Y.9XY.Y.8X8X8X8X8XY.8X8X8X8X8X8X8X8X8XT.T.8X8XT.8XY.8X8X8X8X8X8XY.8X8X8XY.8XY.8X8X8XT.8X8X8X8X8X",
"8X8X8X8X8XT.8X8X8X8XY.J.H.J.Y.8XY.Y.Y.Y.6X8X8X8X8X8X8X8XT.8XY.8X8X8X8X8X8X8X8X8X8X8X8X8X8X8X8X8XY.8X8XY.Y.U.Y.T.8X8X8XY.8XY.T.8X",
"8X8XT.8X8XY.8X8X8XY.U.U.P.P.8X8XI.P.J.J.J.8X8X8X8X8XY.8X8X8XT.8X8X8X8X8XT.0X8X8X8X8X8X8X8X8X8X8X8X8X8XY.P.J.U.Y.Y.8X8X8X8X8X8X8X",
"8X8X8X8X8X8X8X8X8X8X8X8X8X8X8X8XI.G.G.F.G.I.8X8X8X8X8X8X8X8X8X8X8X8X8X8X8XY.0XY.8XY.8X8XY.8X8X8XY.8X6XY.P.P.P.Y.Y.8X8XY.8XT.8X8X",
"0XY.8X8XT.T.8XY.8X8X8X8X8X8XY.U.I.J.G.G.H.I.8X8X8X8X8X8X8X8XT.9XR.R.8X6X0X0XR.T.8X8XT.8X8X8X8X8XI.I.P.I.I.6XY.6XY.8XY.Y.Y.T.Y.8X",
"Y.8X8X8X8X0X8XT.T.8X8X8X8X8X8XY.I.I.P.P.I.8X8X8X8X8X0X9XqXqX8X7X3X1X4X8XqXqX0XR.T.8X8X8X8XR.8X8XY.J.H.J.8X8X8X8XU.U.Y.Y.0X0X8X8X",
"0XR.8X8X8X8XY.0XY.8X8X8X8X8X8XY.I.9XY.Y.8X8X8X8X9X9X1XOXr._ ) u A u ~ ) $.<.n.2X3X0X0X8XR.Y.8X8XY.P.P.6X8X8X8XJ.H.H.J.Y.8X8X0XT.",
"6X8X8X8X8XY.8X8X8X8X8X8X8X8X8X8X8X8X9XT.8X8X5X,Xi.` Z l 5 1 # @ @ # # # 1 2 w x D F ]  XwX7XY.Y.Y.Y.8X8X8X8XY.H.G.G.J.Y.8X8XY.8X",
"Y.8X8XT.8X8X8X8X8X8X8X8X8X8X8X8X8X8X8XY.5X.XU c 5 , O O X X       . o o o o   o ; + : 6 J {.wX7X8X8X9X8XY.Y.Y.J.G.K.J.P.8X8X8X8X",
"T.Y.8XT.8XT.T.8XT.Y.8XT.8X8X0X8X9X9X6X>XU w < + O X       X o + + & & & & & & & o .   o - 4 I =X1X9X8X8XY.Y.P.P.P.P.P.Y.8X8X8X8X",
"8X8X8XR.8X8XY.8X8X8X0XT.Y.0X8X8X5X+X[ l , *       O + # 2 0 q u ~ u e 0 7 5 , , : ; ; O . . ; s _.2X8X8XY.Y.Y.6X8X8X6XT.8X8X8X8X",
"8XY.8X8X8X8X8XT.8X8X8X8X0XR.Y.<X@XL 5 O o   X @ 2 r i X.| W { { W E R R R E W i y 9 < : ; & . . 3 W.&X6X9XY.Y.8X8X8X8X8X8X8X8X8X",
"8X8X8XY.8X0XT.8X8X8X8X8X8X8X5X{.k ,     X $ q ~ | }  .O.%.*.>.0.<.=...} { R R R i W | t 5 : ; O o : E.2X6X9XqX8X8X8X9X0XT.8X8XT.",
"8X8X8XY.8X8X8X8X8X8X8X8X0X>X/.p O   X # r  .....%.&.a.a.k.z.f.z.x.z.z.k.0.=.=.*.} E E { @.t 5 : = . ; W.wX6X8X8X8X8X8X8X8X8XY.8X",
"8XT.8X8X0XY.8X8X8X8X8X8X3X/.p o   X 0 i ....%.0.b.d.f.f.d.x.s.l.x.x.x.x.x.z.z.x.k.0.<.X.{ $.) w < = % > ).2X8X8X8X8X9X8XY.8X8X8X",
"8X8X8X8XT.8X8X8X8X8X8X3X{.p o   + e $...O.0.v.m.b.f.f.f.d.x.x.f.x.b.x.b.x.b.x.x.x.z.k.y.t.| | $.e < ; . s '.1XqX9X8X8X8X8X8X8X8X",
"8XT.Y.8X8X8X8X8X8X8X5X}.h o o - C <.%.6.M.XXM.n.b.l.l.x.x.x.l.x.b.x.b.b.b.b.x.z.x.x.z.k.x.d.;.@.$.e , ; & E.&X6X8X8X8X8X8X8X8X8X",
"8X0X8X8X8X8X8X8X8X8X&XP O o - C <.+.3..XXXn.b.b.b.x.f.f.l.l.x.x.x.b.b.b.b.b.b.x.x.b.z.N.x.d.d.<.@.@.w : & 4 :X1X8X8X8X8X8X8X8X8X",
"Y.8X8X8X8X8X8X8X6X>X/.> . - C <.O.3.v.oXXXb.b.b.b.x.l.l.x.b.x.x.b.b.b.b.b.b.b.b.b.x.x.$XM.d.f.g.r.$.) 2 = ; ^.&X6XT.8XT.8X8XT.T.",
"T.T.8X8X8X8X8X8X5X-Xh . - e ,.*.*.z.#XXXN.b.x.b.n.x.l.b.b.b.b.b.b.b.b.b.b.b.b.x.x.x.z.%XM.x.g.x.f.,.$.i < ; j =X7XR.8X8X8X8X8X8X",
"8X8X8X8X8X8X8X8X>X_.= & 0 r.=.+.v.#XoXN.n.n.b.B.x.l.b.b.c.b.b.n.n.b.n.n.n.n.x.x.x.x.x.@Xm.x.d.v.z.d.>.;.e : 3 '.1XT.8X8X8X8X8X8X",
"8X8X8X8X8XY.8X6X%Xj O 1 -.a.*.v.oXoXXXN.n.b.b.x.f.f.c.w.w.3.3.8.8.8.w.n.n.x.x.n.x.x.x..Xm.x.x.z.d.d.y.$.-.1 > '.2XY.8X8XT.8X8X8X",
"T.8X8X8X8XT.9X7X=X> - C y.+.k.oXoXXXXXn.b.b.l.l.w.q.3.8.q.q.w.w.w.l.w.8.8.n.n.x.x.b.l.|.i.x.v.f.x.d.d.<.,.q - '.2X8X8X8X8X8XY.8X",
"8X8X8X8X8X8X8X<X).& 5 ;.0.=.$X$XoXXXXXn.B.l.l.w.q.w.w.l.l.l.l.x.x.b.l.w.8.8.l.n.b.x.b.|.m.x.b.x.x.d.g.d.;._ < ).|.6X8XT.T.R.8X8X",
"8X8X8X8X8X8X8X&XE.O e z.>.M.%X$XXXOXB.n.x.x.l.w.l.b.x.x.l.l.c.l.x.l.f.f.l.8.3.l.n.x.b..Xm.x.v.f.v.g.g.f.;.-.2 ).{.P.8X8X8X8X8XT.",
"8X0X8X8X8XT.6X;Xg < @.z.0.$XoXoXXXB.B.b.x.l.w.b.n.b.c.l.l.l.l.l.l.c.f.l.l.l.8.8.l.b.b.XXb.x.x.x.f.g.g.d.r.;.q `.~.4X8X8X8X8X8X8X",
"Y.8X8X8X8XT.7X;X4 9 y.v.m.%X$XoXXXN.b.b.l.q.x.n.b.l.l.l.l.l.l.l.l.l.l.l.w.q.q.3.s.b.x..Xg.f.b.x.v.g.g.d.r.;.y :XW.K.8X8X8X8X8X8X",
"8X8X8X8X8X8X6X;X3 e j.m.oX$XoXXXXXn.b.l.8.3.8.q.l.l.l.l.l.l.l.l.f.x.l.l.q.q.q.w.8.l.x.g.d.z.l.x.v.v.g.g.y.,.S :XU K.8X8X8X8X8X8X",
"8X8X8X8X8X8X6X;X4 A oXv.%X$XoXXXN.b.x.x.l.x.l.w.q.w.4.6.q.a.0.p.w.f.x.0.9.9.6.s.&.0.x.g.g.x.v.z.b.m.v.k.t.;.e.`.] 5X8XY.9X8X8XT.",
"8X8X8X8X8X8X6X Xs S oXg.%XoXOXN.n.n.n.x.b.b.x.0.4.o.Q Q / 4.8.8.p.s.s.0.q.6.q.q.%.q.l.a.m.v.b.z.v.v.v.d.t.;.{.Q.h.I.9X9X8X9X8X8X",
"8X8X8X8X8X8X6X}.K @.oXv.$XXXN.N.b.n.N.x.b.b.x.w.4.2.4.4.%.%.0.6.4.6.0.l.w.8.q.8.%.8.s.a.m.n.b.b.v.z.g.y.<.r.:XI C.6XY.9X8X8X8X8X",
"8X0XqX8X8X8X6X|.^.S XXv.#XOXN.n.n.b.N.N.b.x.s.q.7.q.w.6.=.q.q.#.o./ X.8.3.#.&.4.o.6.l.a.oXM.x.z.v.d.v.y.<.[._.b c.8XY.Y.T.8X8X8X",
"8X8X8X8XY.0XY.<X:X@.m.k.$XXXN.N.b.B.b.B.x.f.7.7.q.w.w.4.=.0.%.&.q.9.o.^ / Q ! / } 9.b.z..XN.b.z.z.v.v.y.<.:XI l c.U.Y.8X8X8X8X8X",
"8X8X8X8X8X8X0X4X(.e.v.s.XXXXn.x.b.l.x.n.s.7.q.w.q.w.3.1.q.4.2.p.p.9.#.^ #.8.w.&.%.k.b.x.|.n.x.z.z.z.y.<. X^.J l C.Y.8XT.8XT.8X8X",
"8X8X8X8XR.R.Y.L.Y =Xv.k.XXXXn.b.b.x.x.n.s.6.w.w.w.w.3.%.7.#.2.w.6.6.5.2.2.6.w.w.l.x.z.x.j.n.x.x.z.k.t.i.'.I M c S.Y.8X8X8X8X8X8X",
"8X8X8XT.0XY.qXH.] `.j.k.N.XXN.n.b.n.n.n.f.0.w.0.w.4.3.w.4.2.0.4.3.7.2.&.1.4.3.q.l.l.l.k.j.v.x.k.k.a.y.=XE.M m :.G.T.8X8XT.8X8X8X",
"8X8X8X8X8XT.Y.Y.A.K =Xv.z.XXn.b.b.n.n.N.n.x.x.x.l.8.0.x.8.s.w.4.4.3.7.1.#.1.5.q.s.x.x.l..Xv.z.k.p.p.;XQ.J D r.5X8X8X8X8X8X8X8X8X",
"T.8XY.8X8X0X8X8XG.N Q. Xk..Xn.n.b.b.n.n.N.n.x.l.k.0.x.<.>.l.8.4.o.Q o.4.1.1.2.9.s.l.l.l.oXM.z.k.d.-X_.W.T h.6X8X8X8X8X8X8X8XT.8X",
"8X8XT.8XT.8X8XT.P.p.k ^.|.b.N.N.n.b.c.n.n.b.x.l.8.>.x.=.=.l.3.o.o.#./ 2.9.2.4.q.w.l.l.l.z.k.a.u.-X_.T T [.J.Y.8X8X8X8X8XT.8X8X8X",
"8X8X8X8X8X0XY.8X8XD.7 b ^. XN.OXn.b.x.x.x.x.n.x.8.>.x.8.O...1.4.6.9.#.5.5.2.w.p.l.l.l.l.t.0.j.*X).I Y ].S.J.P.8X8X8X8X8XY.T.8X8X",
"8X8X8X8X8X8X8X8XT.P.' 7 n ^.-XXXXXn.k.x.x.x.x.x.k.>.l.k.0.8.0.k.s.1.9.f.1.1.w.s.a.a.a.a.t.|.*X^.J V Y V.G.L.I.8X8X8X8X8X8X8X8XT.",
"8X8X8X8X8X8X8X8XT.I.Z.N k x !.*X@Xn.n.k.x.x.n.x.x.8.*.w.k.k.k.8.&.p.v.s.4.5.9.0.a.a.d.j.=X`.E.L L Y XXL.P.J.Y.8X8X8X8X8X8X8X8X8X",
"8X8X8X8X8X8XY.8XY.I.J.c.7 w d K (. Xn.v.x.x.l.n.b.l.<.O.{  .*.t.x.b.x.k.w.0.a.s.a.i.-X'.^.I J Y [ i.4XY.Y.8X8X8X8X8X8XY.T.8X8X8X",
"8X8X8X8X8X8XP.J.P.I.I.K.` z x d h P (. Xv.k.k.l.x.x.x.x.l.z.b.b.b.x.x.s.x.f.g.|.*X`.^.I K H L [ OXP.Y.8X8X8X8X8X8XY.8X8X8X8X8X8X",
"8X9X8X8X9XY.I.H.H.I.6X8X6XZ.N z a g g P ^.{.[.j.v.v.b.b.b.b.v.v.v.x.v.j.[.{.*X/.W.L H V M l N V.8X8X8XR.0XT.Y.Y.8X0X8XT.8XR.8XT.",
"8X9X8X9XY.Y.Y.J.J.Y.8X8XI.H.C.' F z a d g j P !._.(.(.].].].[.].{.`.`.^.Q.J b b J v v n m ( Z.8X0X0X8X8X0X8X0XR.0XY.8X8X8X8X8X8X",
"8X8X8X8X8X6X8X8XY.8X8X8XP.G.D.G.D.' B l d d d f h h h H H H H H j h f k a b a p 6 x m D c.6X8X8X8X8X8X0X8X8X8X8XT.0XT.8X8XT.8XY.",
"8X8X9X8X8X8X8X8XT.T.Y.Y.P.K.G.G.K.8XL.p.D V n v f f f d f d f d d l s s s a 8 t ( C.D.K.T.T.8X8X8XY.T.T.R.8X8X8XY.Y.Y.8XT.0X8X8X",
"9X8X8X8X9X8X8X8X9XY.Y.6XP.P.J.J.P.6XY.9XP.C.r.] [ V n f d d d d d d s w c Z ' D.qXT.8XT.8X8XT.8X8X8X8XT.8XT.8X8XY.0X8X8XT.8X8X8X",
"8X8X8X8X9X8X8X8X8X9XY.8X8X8X8X8X8X8X9X9X8X9X9X9XU.A.y.e.[ G G C w w Z :.c.F.Y.T.T.T.8X8X8X8X8X8XT.8X8XT.Y.8X8X8X0XY.T.8X8X8X8X8X",
"8X8X8X8X8X8X8X8X8X8X8X8X8X8X8X8X8X8X8X8X8X8X8X8XR.R.R.R.H.J.U.C.5.5.F.qX0X8XT.0X8X8X8X8X8X8X8X8X8X8X8X8X8X8X8X8XT.T.8X8X8X8X8X8X",
"8X9X8X9X9X8X8X8X8X8X8X8X8X8X8X8X8X8X8X8X8X8X8X8XR.Y.R.R.R.R.R.R.0XqX9XR.T.8X8X8XY.8X8XT.8X8X8X8X8X8X8X8X8X8X8XY.8X8X8X8X8X8X8X8X",
"8X8X9X8X8X8X8X8X8X8X0XT.8XY.Y.0X9X8X9X8X8X8X8X8X8X8X8X8X9X8X6XP.5X8X8X8X8X8X8X8X8X8X8X8X8X8X8X8X8XT.8X8X8X8X8X8X8X8X8XT.8X8X8X8X",
"8X8X8X8X8X8XqX8X8X8XY.Y.8X8X8XR.8X8X8X8X8X8X8X8X8X8X8X8X8X8XP.G.K.I.8X8X8X8X8X8X8X8X8X8X8X8X8X8X8X8X8X8X9X0X8X8X8XY.Y.8X8X8XY.0X",
"Y.8X8X8X8X8X8X8X8X8XT.T.8X8XY.8X8X8X8X8X8X8X8X8X8X8X8X8X8X8X5XP.J.I.8X9X8X8X8X8XqX8X8X8X8X8X8X8X8X8X8X8X8X9X8X8X0X8X8XT.8X8X8X8X",
"8X8X8X8X8XqX8X8X9X8X8X8XT.8X8XT.8X8X8X8X8X8X8X8X8X8X8X8X8X8X8X8X8X8X8X8X8X8X8X8X8X8X8X8X8X8X8X8X8X8X8X8X8X8X8X0XT.Y.8XT.T.0X8X8X",
"8X8X8X9X8X8X8X8X8X8X8X8X8X8X8X8X8X8X9X8X8X8X8X8X8X8X8X8X8X9X8X8X8X8X8X8X8X8X9X8X8X8X8X8X8X8X8X8X8X8X8X8X8X8X8X8X8X8X8X8X8X8XT.8X",
"8X8XT.8X8X8X8X8X8X8X8X8XY.8X8X8X8X8X8X9X8X8X8X8X8X8X8X8X9X9X8X8X8X8X8X8X8XY.8X8X8X8X8X8X8X8X0X8X8X8X8X8X8X8X8X8X8X8X8X8X8X8X8X8X",
"8X8X8XY.8X8X8X8X8X8X8X8X8X8XR.8X8X8X8X8X8X8X8X8X8X8X8X8X9X9X8X8X8X8X9X8X8X8X8X8X8X0X8X8X8X8X8X8X8X8X8XT.8X8X0X8X8X8X8X8X8X8X8X8X",
"8XqX8X9X0X0X0X8X8X8X8X8X8X8X8X8X9X8X8X8X8X8X8X9X8X8X8X9X6X9X9X9X9X9X9X9X8X9X8X8X0X0X8X8X8X0X8X8X8X8X8X8X8X8X8X8X8X8X8X8X8X8X8X8X"
};
