/* XPM */
static char *result[] = {
/* columns rows colors chars-per-pixel */
"64 64 212 2 ",
"   c #0B0F17",
".  c #0D1217",
"X  c #0E141B",
"o  c #131617",
"O  c #11161C",
"+  c #15191D",
"@  c #1A1C1C",
"#  c #282A1B",
"$  c #36341A",
"%  c #0F1521",
"&  c #121922",
"*  c #121B24",
"=  c #151E29",
"-  c #1D2223",
";  c #17212A",
":  c #1C242A",
">  c #1D2834",
",  c #252B29",
"<  c #2C322C",
"1  c #383A27",
"2  c #35392E",
"3  c #222A32",
"4  c #27333B",
"5  c #393D38",
"6  c #4A3D3B",
"7  c #3C4333",
"8  c #464529",
"9  c #58542D",
"0  c #474932",
"q  c #554C38",
"w  c #545333",
"e  c #5C5A38",
"r  c #615B2D",
"t  c #73692B",
"y  c #666338",
"u  c #7A7136",
"i  c #273540",
"p  c #353F45",
"a  c #463D44",
"s  c #374348",
"d  c #3C454B",
"f  c #3D4B4C",
"g  c #3A4B56",
"h  c #3E535C",
"j  c #3F5462",
"k  c #424645",
"l  c #454847",
"z  c #5C4C48",
"x  c #45514F",
"c  c #5C5A4C",
"v  c #484C54",
"b  c #445255",
"n  c #495152",
"m  c #535D5A",
"M  c #655943",
"N  c #5C6155",
"B  c #666543",
"V  c #7B7743",
"C  c #656455",
"Z  c #475866",
"A  c #445C6A",
"S  c #555B64",
"D  c #4A616D",
"F  c #576569",
"G  c #4E6B77",
"H  c #576B79",
"J  c #5B707C",
"K  c #666C6F",
"L  c #64736C",
"P  c #7B7C62",
"I  c #687678",
"U  c #787A78",
"Y  c #8B791A",
"T  c #897A26",
"R  c #957A2E",
"E  c #8B7D36",
"W  c #957B33",
"Q  c #967E3E",
"!  c #847D44",
"~  c #847D48",
"^  c #8B7553",
"/  c #887854",
"(  c #817E61",
")  c #75827C",
"_  c #92842E",
"`  c #96882E",
"'  c #8F823A",
"]  c #968935",
"[  c #9A843A",
"{  c #9B8C3C",
"}  c #A0893B",
"|  c #8B8347",
" . c #988746",
".. c #9D8C44",
"X. c #9E8B4A",
"o. c #9E9144",
"O. c #9D914B",
"+. c #958D54",
"@. c #9D8A58",
"#. c #979157",
"$. c #9C9353",
"%. c #9B945D",
"&. c #A18C45",
"*. c #A18D4A",
"=. c #A39348",
"-. c #A4934C",
";. c #A28A54",
":. c #A49554",
">. c #A99655",
",. c #A59855",
"<. c #A89B56",
"1. c #A4965A",
"2. c #A9955A",
"3. c #A59A5B",
"4. c #A99B5C",
"5. c #AAA05D",
"6. c #888569",
"7. c #9C9563",
"8. c #9E9965",
"9. c #9C976A",
"0. c #83907B",
"q. c #9A9A74",
"w. c #A59465",
"e. c #A59C63",
"r. c #A99E63",
"t. c #A39D6C",
"y. c #A99E69",
"u. c #B69B67",
"i. c #A39F71",
"p. c #9DA07E",
"a. c #A7A166",
"s. c #ABA165",
"d. c #A6A16C",
"f. c #ABA36C",
"g. c #B9A666",
"h. c #A6A273",
"j. c #ACA672",
"k. c #ADA875",
"l. c #A4A47A",
"z. c #A9A67B",
"x. c #ACA97B",
"c. c #B9AC77",
"v. c #C4AB6F",
"b. c #C8B36D",
"n. c #CCB778",
"m. c #D5BA75",
"M. c #DDC37A",
"N. c #E3C36F",
"B. c #E4C473",
"V. c #E9C976",
"C. c #E5C779",
"Z. c #E6CA7C",
"A. c #EDCD7A",
"S. c #F0CF7D",
"D. c #EFD07C",
"F. c #F4D47E",
"G. c #F9D77F",
"H. c #F9D87F",
"J. c #506981",
"K. c #5B7584",
"L. c #667888",
"P. c #657C93",
"I. c #698387",
"U. c #75868B",
"Y. c #698695",
"T. c #728A99",
"R. c #799295",
"E. c #6788A3",
"W. c #6C8BA3",
"Q. c #738FA6",
"!. c #7896A7",
"~. c #7294B1",
"^. c #7AA0BF",
"/. c #8F9789",
"(. c #939E8A",
"). c #869997",
"_. c #919C9B",
"`. c #9CA284",
"'. c #9CA68C",
"]. c #8DA39D",
"[. c #99A794",
"{. c #93A59C",
"}. c #A2A684",
"|. c #ACAB83",
" X c #A7A889",
".X c #ACAD8B",
"XX c #B7B287",
"oX c #A3AB95",
"OX c #ADAF91",
"+X c #ADB094",
"@X c #ADB299",
"#X c #B7B696",
"$X c #879FA8",
"%X c #8BA4A5",
"&X c #9AA8A4",
"*X c #86A5B6",
"=X c #CCBC84",
"-X c #CBBD8C",
";X c #C5BF92",
":X c #D9C688",
">X c #CCC596",
",X c #D2C691",
"<X c #E4CB84",
"1X c #EACF85",
"2X c #E3CF8C",
"3X c #EDD285",
"4X c #E6D18D",
"5X c #EBD389",
"6X c #F6D680",
"7X c #F8D780",
"8X c #F7D882",
"9X c #F9D881",
/* pixels */
"H.7XH.H.6X6XG.6X6X7X6X6XG.6XG.6X6XG.G.6X6XH.6X6X6XG.6XG.6X6XF.H.H.6X6X9X7X9XH.H.6X7X7XH.H.H.7X6X9X6X7X7XG.G.G.G.G.G.H.6X7XH.6X9X",
"6X6X6X6X6X6X6X6X6X6X6X6X6X6XS.S.S.F.6X6X6X6X6X6X6X6X6X6X6X6X8X8X6X6X6X6X6X6X6X6X6X6X6X6X6X7X6X6X6X6X8X6X6X6X6X6X6X6X6X6X6X6X6X6X",
"6X6X6X6XG.6X6X6X6X6XF.6X6XF.A.V.A.F.6X6X6XF.6X6X6X6X6X6X6X6X6X6X6X6X6X7X6X6X6X6X6X6X6X6X6X6X6X6X8XF.G.G.6X6X6X6X6X6X6X6X6XG.G.6X",
"G.6X6X6X6X6X6X6X6X6XF.F.S.S.S.A.S.S.F.F.6X6X6X6XG.6X6XG.6X6XF.6X6X6X6X6X6X6X6X6X6X6XF.6X6X6X6X6XG.6X6X6X6X6X6XG.6X6X6X6XG.6X6X6X",
"6X6X6X6XG.6X6X6X6X6XF.A.A.A.S.6X6X6XF.6X6X6X6X7X6X6X6X6X6XF.G.6X6X6XF.G.G.6X6XG.6X6X6X6X6X6X6X6XF.6XG.6X6X6X6X6XF.6XF.6X6X6X6X6X",
"6X7X6X6X6X6X6X6X6XF.D.A.V.V.S.6X6XF.S.F.6X6X7X8X6X6X6X6X6X6X6X6X6X6X6X8X6X6X6X6X6X6X6XG.6X6X6X6X6X6X6XF.F.A.F.F.6X6X6X6X6XF.6X6X",
"6X6X6XG.6X6X6X6X6XG.S.D.A.A.6X8X6XZ.V.V.Z.F.7X7XF.6X6X6X6X6X6X6X6X6X6X6X6X6X6X6XF.6X6X6X6X6X6X6X6X6X6XF.A.V.A.F.6X6X6X6X6XG.G.6X",
"6XG.6X6X6XF.6X6X6XF.6X6X6X6X6X6XA.B.N.B.B.S.3X6X6X6X6X6X6X6XG.6X6X6X6X6X6X6X6XF.6X6X6X6XF.6X6X6XF.6X3XF.A.A.D.F.F.6X6XF.6X6X6X6X",
"6X6X6X6XG.6X6X6X6X6X6X6X6X6XD.F.D.A.B.B.B.A.6X8X6XF.F.8XG.6X6XG.G.8XF.8X6X6X6X6X6X6X6X6X6X6X6X6XF.S.V.S.S.3X3X6XF.6XF.F.F.F.6X6X",
"6XF.6X6X6X6X6XG.6X6X6X6X6X6X6XF.D.A.A.A.A.6X3X6X6XG.8XF.6X6X6X8X6XF.F.F.F.6X6X6X6X6X6X6X6X6X6X6XS.V.V.A.F.8X6XA.D.D.F.F.8XG.F.6X",
"6X6X6XG.6X6X6X6XG.6X6X6X6X6X6XF.F.6X6X6X6X6X6X6X6X6X6X6X6X6X6X6XH.9X8XF.6X6X6X6X6X6X6X6X6X6X6XF.F.A.A.1X8X6X6XA.V.B.A.F.G.6X8XF.",
"6X6X6X8XF.6XF.6XG.6X6X6X6X6X6X6XG.3X6X6X6X6X8X6X6X6X6X6X6X6XF.6X8XF.H.8X6XG.6X6X6X6X6X6X6X6X6X6XF.F.6X6X6X6XF.V.B.N.V.F.6X8XF.8X",
"F.F.8XF.6X6XF.G.8X6X6X6X6X6X6X6X6X6X6X6X8X8XF.G.6X6XF.6X6X6XG.6XG.G.G.6X6X6X6X6X6X6X6X6X6X6X6X6X6X7X7XG.F.F.A.B.B.B.A.A.6X6X6X6X",
"F.8X8XH.G.8X6X8XG.F.6X6X6X6X6X6X6X6X6X6XG.6X6X6X6X6XF.8X6X6X6X6X6X6X6XG.F.6X6X6X6X6X6X6X6X6X7X6X6XF.G.6XF.F.F.A.Z.A.A.F.6X6X6X6X",
"6X6XG.F.6XF.F.6XG.6X8X8X6X6X6X6X6X6X6X6XF.6XF.8X6XF.8X6X6X6X6X6XF.6X6X8X6X6X6XF.F.S.6X6XF.7X6XF.6X6X6X6X6X6XF.F.6X3X3XG.6X6X6X6X",
"6XG.G.8X6XG.8X6XF.6X6X6X6X6X6X6X6X6X6XG.8XF.6X6X6X6X6XG.6X6X6X6X6X6X6XD.6X6X6XD.V.A.S.G.6X6X7X6X6X6X6X6X6XF.6X6X6XG.6X6X6X6X6X6X",
"6X6X6XF.6X6X6X6XG.6X6XF.6X6X6X6X6X6X6X6X6XG.6X6X8XF.F.F.8XF.6XF.6X6X6XF.D.F.F.F.A.A.F.F.F.6XH.6X6X6X6X6X8X6X6X6X6X8X8XG.F.6X6XF.",
"G.6X6X6X6X6X6X6X6X6X6X6X6X6XG.6XG.6XG.6X6X6X6X6X9XF.9X8X9XF.6XG.6X6X6XF.D.A.A.D.6XF.F.F.G.F.6X6X6X6X6X6X6X6X6X6XF.8X6X6XG.F.F.8X",
"6X6XF.6X6X6X6X6X6X6X6X6X6XG.6X6X6X6XG.6X6X6XF.6X8XF.F.F.8X8XG.G.6X6X6XF.A.V.A.D.6X6XG.D.S.F.F.H.6X6X6X6X6X6X6X6X6X6X6X6X6X6X8XG.",
"6X6X6X6X6XF.G.8XG.6X6X6X6X6XG.6X6X6X6X6X6X6X6X6XF.H.F.F.H.9X6X5X1X3X3XF.G.D.F.8X6X6XD.V.V.V.S.6X6X6X6X6X6XF.6X6XG.6X6XG.6X6X6XF.",
"6XF.6X6X6X6X6X6X6XH.6X6X6XF.G.6X6X6X6X7X6X6X6XG.H.H.<XM.b.g.g.9.9.g.g.b.b.M.:X5X8X6XA.V.B.V.A.6X6X6X6XG.6XG.6XG.6X6X6XG.6X6X6X6X",
"6XG.8X6X6X6X6X6X6X6X6X6X6XG.G.6X6X6X6X6XG.6X<X=Xc.w.P m 7 1 $ $ $ $ $ $ w M L 6.9.9.w.c.-X<XS.6X6X6X6X6X6X6X6X6X8X6X6X6X6X6X6X6X",
"3XF.6X6X6X6X6X6X6X6X6X6X6X6X7XG.6X6X6X7X1XXX( S 5 , @ + + + o o O O @ + % O   o O + = d J (.>X4X6X6X6X6X6X6X6X6XF.6X6X6X6X6XG.G.",
"F.H.6X6X6X6X6X6X6X6X6XF.F.S.S.G.G.G.6X=X( n < = + . .   . . . o @ + % % % % % % % %   o * p J &X2XH.6X6X6XG.6X6X6XG.6X6X6XG.6X6X",
"F.F.F.9X6X6X6X6X6X6X8X6XA.B.V.G.1X;Xq.z , @ .     . @ # 7 8 9 9 t e w 0 0 8 2 , ; & * % X X = h /.2X6X6X6X6X6X6X6X6XG.6X6X8XF.6X",
"9X8XG.8X6XF.6X6XD.6X6X6XA.C.V.=XoXF 4 &     . # 8 9 t u E T _ _ _ _ T Y T t t r y 0 < = * * X . i U ,X8X6X6XG.6XF.6X8XF.G.F.6X6X",
"G.6XG.6X6XG.6X8XF.A.C.A.A.A.-X/.v , o   o 1 e u T ` { o.O...O.:.$.X.] _ Y _ Y Y Y t u y 2 ; = * X > I ,X6X6X6X6X6X8XF.8XF.8X6X6X",
"6X6X6X6X6X6X6X6XF.B.B.B.A.:X).d @ . . # 9 E ] ] ..O.%.3.a.a.e.d.f.t.a.3.$.-.O.{ { T T T ~ B < ; = X > I.>X6X6X6X6XF.9XG.F.F.6X6X",
"6X6X6X6X6X6X6X6XF.B.B.A.:X).p @ . o 7 u ` ] { 3.d.d.y.y.y.y.y.y.f.f.j.f.f.f.d.a.e.7.$. .E ' ~ 0 : ; X > Q.,X6X6XG.6X6X6X8X6X6X6X",
"6X6X6X6X6X6X6X6XF.F.S.:X).p @ . @ w | ` { 5.h.h.j.d.y.y.t.f.f.f.f.f.f.f.f.f.f.f.f.d.d.8.%. .' ~ w 3 = * g *X2X6X6X6X8X6XG.G.G.6X",
"6X6X6X6XG.6X6XF.G.G.2X].h &   = M %.{ O.l.z.z.j.j.y.y.y.f.y.f.f.j.f.j.j.f.f.f.f.f.j.d.s.d.e.+.E | w : ; * K.@X3X6XG.6X6X6X6X6X6X",
"6X6X6X6X6X6XG.6XF.3X#XH = X , e %.o.,.x.|.z.k.j.h.f.y.y.y.y.y.f.f.j.j.j.k.j.j.j.j.f.d.x.j.e.t.7.' | 0 : = i *X2X6X6X6X6X6X6X6X6X",
"6X6XG.6X6X6X6X6X8X,XR.> X - e 8...&.y..X|.k.j.j.j.f.s.s.f.f.f.f.j.j.j.j.j.j.j.j.f.j.d.+Xz.a.d.h.7. .! 2 = : E.@X3X6X6X6X6X6X6X6X",
"G.6X6X6X6X6X6X6X<X].j * @ w 8.{ &.y.OX|.x.j.f.j.j.s.f.j.f.k.k.j.j.j.j.k.j.j.j.f.j.f.d.@Xz.d.d.d.i.%.' u < = Z $X5X6X6XG.F.6X6X6X",
"F.6X6X6X6X6X6X3X,XW.- o 7 %.$.{ h..X.X|.x.k.k.j.j.u.f.j.j.f.f.f.k.k.j.k.k.j.f.f.f.f.d.oXz.d.f.d.d.e.$.+.w : i ^.2XF.G.6X6X6X6X6X",
"6X6XH.6X7X6X8X6X@XA o $ ) 8.{ a..X.X|.x.j.j.k.f.y.y.f.5.5.5.5.s.5.5.5.j.k.k.j.j.f.f.d. Xl.f.d.f.d.d.t. .| < ; ^.,X6X6X6XG.6X6X6X",
"6X6X6X6X6X6X6X5X*X3 - y a.o.e.+X.X|.|.x.j.j.f.u.4.4.<.>.-.-.<.5.<.5.s.5.5.f.k.f.f.j.f.`.l.f.f.d.d.t.t.%.%.w - ~.>XD.F.G.6XF.8X8X",
"6X6X6X6XG.6X6X:XW.& 2 +.%.O..XOX.X|.|.k.j.j.s.<.2.<.5.5.g.s.f.g.f.f.d.>.O.5.f.j.j.j.f.}.p.f.j.f.h.t.i.9. .! , W.[.3X6X6X6X6X6XF.",
"6X6X6X6X6X6X6X#XJ.- c t.,.j.@XOX|.|.c.k.f.s.s.5.5.j.g.a.f.s.g.f.f.s.y.y.s.,.,.a.j.f.f.}.h.f.j.f.h.y.i.t.+.+.1 E.).Z.6X6X6X6X6X6X",
"6X6X6XG.6XG.5X&Xg , | t.%.+XOX.X|.x.k.j.f.s.5.j.k.j.f.s.s.s.s.s.f.f.s.s.r.5.,.,.f.k.f. Xl.f.f.a.f.h.t.t.%.+.9 Q.U.Z.6X6XG.G.8XF.",
"6X6X6X6X6XF.5X&Xi 5 %.d.l.@X.XXX|.x.j.f.s.5.f.k.k.f.s.s.r.r.s.s.s.f.s.s.r.2.>.*.y.j.f.|.h.a.d.d.h.h.h.d.8.#.y *XL.C.6X6X6X6X6X6X",
"6X6X6XF.8XF.5X&X4 e p.l. X+X+X|.|.k.j.f.<.&.4.5.s.s.r.s.s.r.y.r.5.s.y.r.3.>.>.4.,.s.f.l.i.a.d.j.d.h.h.9.8.+.V ^.U Z.6X6X6X6X6X6X",
"6XG.6X6XH.F.5X&X4 V  Xh.@X+XXX|.x.j.j.s.a.r.s.<.4.s.:.-.<.r.1.e.e.y.y.4.1.>.>.r.*.4.s.t.i.a.j.h.d.l.h.t.8.$./ ~.`.1X6X6XG.6X6X6X",
"6X6X6X6X8XH.5X&Xs V .Xh.@X.X|.x.k.k.k.f.j.k.f.4.} [ [ [ [ *.>.1.3.y.y.4.>.>.3.4.X.4.s.t.h.h.j.d.h.h.h.t.8.+._.P.m.6X6X6XG.6XG.6X",
"6X6X6X6X6X6X3X_.D |  Xh.+X.Xx.x.k.j.z.j.j.k.d.r.:.*.*.-.....3.-.*.-.e.d.4.>.<.>...>.s.%.z.z.j.f.j.h.d.9.w.#.*XI M.G.6X6X6X6X6X6X",
"6X6X6X6X7X6X3X}.I.| }.f.+X|.x.k.k.k.x.k.j.f.r.<.>.>.4.>.=.:.2.X.&.[ [ 2.<.&.-.:.[ :.s.e.|.x.f.j.d.h.d.t.$./.~.6.A.6X6XG.6XG.6X6X",
"6X6X6X6XH.F.S.=X%X! j.d.OX|.x.k.k.f.k.c.f.y.>.>.<.r.4.o. .r.X.X.1.:.W R R R _ R R 2.f.d..Xx.f.h.d.h.h.8.#.*XH n.6X6X6X6X6X6X6X6X",
"6X6X6XG.G.G.S.:X!.6.l.4.|.|.c.j.f.f.f.k.4.>.>.<.4.<.-...3.:.=.w.e.1. .W &.>.<.X.X.d.j.d.`.x.f.f.d.d.t.7.(.Q.S m.6X6X6X6X6XF.6X6X",
"6X6X6X6X6X6XS.m.I _.h.s..X|.z.f.f.f.k.k.5.,.5.3.5.s.O.{ 3.{ X.3.>.>.;.Q &.:.<.4.a.f.f.f.p.h.f.j.d.d.8.q.*XH ( Z.G.G.6XG.6XG.6X6X",
"6X6X6X6X6XF.S.B.6.!.q.a.z.|.x.k.f.k.k.k.a.5.a.5.3.O.-.<.=.X.2.:.-.>.>.*.*.*.,.,.5.s.f.5.l.h.a.a.d.e.8.*XL.S n.G.6XF.6X6X6X6XG.6X",
"6X6X6X6X6X6XF.F.v.F %Xh.j.|.k.j.k.k.k.x.k.d.a.a.f.O.:.f.,.r.s.&.*.-.-.*.&.&.*.3.5.a.f.s.}.k.a.a.3.8.{.T.S 9.A.6X6X6X6X6X6XG.6X6X",
"6X6X6XG.6X6X6X6XM.C Y.{.a.z.k.j.k.k.k.x.z.k.f.f.a.s.f.3.,.s.<.-.} } &.2.Q  .-.2.a.a.f.a.|.z.a.a.8.{.Q.I U M.6X6XG.F.F.6X6X6X6X6X",
"6X6X6X6X7X6X6X6XF.^ v Q.`.j.|.k.k.j.j.k.k.f.f.s.,.$.f.-.X.s.=.{ W Q R *.2.&.*.2.s.s.s.s.h.f.a.h.{.!.K U =XD.6X6XF.8X6X6XG.G.6X6X",
"6X6X6X6X7X6X6X6XG.m.6 v !.`.|.x.k.k.a.f.k.f.k.f.3.$.f.O.[ o.*.X.<.>. .@.2.*.2.r.5.r.r.a.8.3.q.%XW.I I. X1X6X6X6X8XF.G.6X6X6X6X6X",
"G.6X6X6X6X6X6X6X9XA.^ 6 Z W.[..Xx.k.f.f.f.f.f.f.4.$.s.d.3.:.3.s.3.*.1.w.&.*.>.e.r.e.e.e.e.`.%XE.D F (.<X6X6X6X6XG.6X6X6X6X6X6X6X",
"6X6X7X6X7X6X6X6X7XF.m.M k b Y.]..Xk.f.f.f.f.f.k.f.3.o.3.s.d.r.$.:.1.y.y.-.-.1.e.e.e.e.p.].~.P.F F U.=XF.6X6X6X6XG.6X6X6X6X6X6X6X",
"6X6X6X6X7X6X6X6X6X6XF.u.6 l v H T.&Xz.f.f.f.a.f.f.a.$.o.o.O.,.%.e.h.f.a.4.3.e.r.e.p.{.$XE.J F J ) #X6X7X6X6X6X6X6X6X6XG.6XF.8X6X",
"6X6X6X6X6X6X6X6X6X6XG.Z./ z l a Z K.R.{.z.a.a.f.f.j.f.a.%.3.a.j.j.f.f.f.s.r.h.'.%X!.Y.K.D S F 0.c.A.6X6X6X6X6X6X6X6X6X6X6X6XG.8X",
"6X6X6X6X6X6X6X6X7X6XG.F.C.u.z a a p A H I.R.[.p.k.f.f.f.f.f.j.f.d.f.h.l.oX_.R.T.L.J F m m v 6.n.D.8X6X6X6X7X6X6XG.6X6XF.6X6X6X6X",
"6X6X6X6X6X7X6X7X6X6X6X6X7X6Xv.u./ k s f h D G I.R.R.].{.{.[.{.]._.R.R.I.K.F S S S v v n c / m.6XH.F.6X6X6XF.6X6XF.6X6XG.6X6X6X6X",
"6X6X6X6X6X7X6X6X6X6X6X6X6X6X7XS.M.w.c k f f f h h A A D D D D D D A b v v v l d s d C f.m.Z.6X6X8XF.8XF.6X6X6X6X6X6X6X6XF.6X6X6X",
"6X6X6X6X7X7X7X6X6X6X6X7X6X6X6X6X8XD.M.w.C x x f h h f f f d f f f d d k k a 6 6 ^ v.:XF.6X6X6X6XF.8XF.8X6X6X6X6X6X6X6X6X6X6X8X6X",
"6X6X6XG.7X7X7X7X6X6X7X7X7X7X7X6XF.F.8XD.M.m.a.) C m h f x f f x f k l k l 6 ;.m.Z.6X8X6X6X6X6X6XF.G.8XF.6X6X6X6X6X6X6X6X6X6XG.6X",
"7X6X6X6X7X3X7X7X3X6X7X3X7X7X7X7X8X8X6X6XH.F.D.3XZ.b.5.) N x x k 7 7 q ^ 2.m.6X7X8X8X6X6X6X6X8X6X8X8X8X8X8X8X6X6X8X6X8X6X6X6X6X6X"
};
