/* XPM */
static char *result[] = {
/* columns rows colors chars-per-pixel */
"64 64 212 2 ",
"   c #03122E",
".  c #0E213B",
"X  c #162942",
"o  c #1E3A50",
"O  c #2E495C",
"+  c #245D76",
"@  c #426071",
"#  c #CD2525",
"$  c #CD2A2A",
"%  c #CE3535",
"&  c #CD3B3B",
"*  c #D03636",
"=  c #D13C3C",
"-  c #CE4848",
";  c #D44C4C",
":  c #CF5151",
">  c #CF5F5F",
",  c #D65858",
"<  c #CF6565",
"1  c #D66363",
"2  c #D46A6A",
"3  c #D96D6D",
"4  c #D67373",
"5  c #E4C473",
"6  c #E8C875",
"7  c #EACA76",
"8  c #EDCD7A",
"9  c #F0CF7B",
"0  c #EFD07D",
"q  c #F5D57E",
"w  c #F8D67F",
"e  c #F9D87F",
"r  c #3D7389",
"t  c #577D8A",
"y  c #7E9A9E",
"u  c #5E93A5",
"i  c #7398A3",
"p  c #7BA5AC",
"a  c #6CA1B4",
"s  c #7FA9B1",
"d  c #76AABD",
"f  c #819EA3",
"g  c #83A1A5",
"h  c #84A4A9",
"j  c #83A9AD",
"k  c #88AAAE",
"l  c #85AEB3",
"z  c #8AAEB3",
"x  c #86B0B5",
"c  c #89B2B6",
"v  c #8BB5B9",
"b  c #8EBABD",
"n  c #91B6BD",
"m  c #92BBBD",
"M  c #A4B6A2",
"N  c #CD8282",
"B  c #D78989",
"V  c #CF9292",
"C  c #D49999",
"Z  c #E08888",
"A  c #D3A4A4",
"S  c #D8A6A6",
"D  c #CFBEBE",
"F  c #D4B4B4",
"G  c #E5ABAB",
"H  c #E7B9B9",
"J  c #BDC39E",
"K  c #A8C0B0",
"L  c #BBD0BC",
"P  c #CFC68F",
"I  c #DFCE8F",
"U  c #CCC693",
"Y  c #D2CA94",
"T  c #D6CE98",
"R  c #DBD49A",
"E  c #E2CD87",
"W  c #E7D186",
"Q  c #EED384",
"!  c #E4D28D",
"~  c #EDD68B",
"^  c #EFD98D",
"/  c #F6D680",
"(  c #F8D780",
")  c #F5D884",
"_  c #F2DA8B",
"`  c #E5D694",
"'  c #E5D796",
"]  c #EDDB94",
"[  c #E6DB9D",
"{  c #EBDE9A",
"}  c #F1DC92",
"|  c #EDE09F",
" . c #CED5AC",
".. c #D6D6A3",
"X. c #D8D7A5",
"o. c #DEDBA6",
"O. c #DCDDAA",
"+. c #C4D4B9",
"@. c #E4DEA4",
"#. c #E0DEA8",
"$. c #DEE4B4",
"%. c #D9E3BB",
"&. c #E5E1A7",
"*. c #E9E2A5",
"=. c #E2E2AC",
"-. c #E9E4AB",
";. c #E2E7B5",
":. c #E4E7B9",
">. c #8DBCC4",
",. c #8ABCC9",
"<. c #92BEC2",
"1. c #91BEC8",
"2. c #95C2C5",
"3. c #99C2C7",
"4. c #95C4CB",
"5. c #9BC6CB",
"6. c #96CACB",
"7. c #9BCBCD",
"8. c #96C5D1",
"9. c #97CAD5",
"0. c #9DCCD2",
"q. c #9CCEDA",
"w. c #9ED2D3",
"e. c #9ED2DC",
"r. c #9FD9DA",
"t. c #A0C9CE",
"y. c #B8D6C8",
"u. c #A2CDD4",
"i. c #A2D3D6",
"p. c #AAD2D4",
"a. c #A1D9D7",
"s. c #ACD8D6",
"d. c #A3D3DC",
"f. c #A8D5DC",
"g. c #A4DBDC",
"h. c #AADDDD",
"j. c #B6DCD8",
"k. c #A8E1DF",
"l. c #BDE5DD",
"z. c #A3D6E3",
"x. c #A6DBE3",
"c. c #A9DCE5",
"v. c #A7DCEC",
"b. c #A8DDEA",
"n. c #B1DDE3",
"m. c #A8DFF0",
"M. c #A6E1E2",
"N. c #AAE3E4",
"B. c #ADE9E7",
"V. c #ACE4EA",
"C. c #AEEAEC",
"Z. c #B2E2E4",
"A. c #B9E3E3",
"S. c #BCEAE2",
"D. c #B2E5EA",
"F. c #B2EDED",
"G. c #BBEBEC",
"H. c #B4F0ED",
"J. c #BEF1ED",
"K. c #ACE4F2",
"L. c #AEE9F4",
"P. c #B2EDF3",
"I. c #B8EAF1",
"U. c #B4EEFA",
"Y. c #B5F3F4",
"T. c #B9F5F5",
"R. c #BAF9F7",
"E. c #B6F3FC",
"W. c #B9F6FB",
"Q. c #B7F8F8",
"!. c #BCFBFD",
"~. c #D7C6C6",
"^. c #C3DAC3",
"/. c #D6D6D6",
"(. c #D3DADA",
"). c #EBC5C5",
"_. c #E0CCCC",
"`. c #E9D7D7",
"'. c #CEE6CA",
"]. c #D7E8C5",
"[. c #DCEBC4",
"{. c #D5EBCB",
"}. c #C7E9D9",
"|. c #D2EED7",
" X c #D9F4DC",
".X c #E2EDC6",
"XX c #E1F2D4",
"oX c #C4EBEA",
"OX c #D9E7E7",
"+X c #C8F7EB",
"@X c #D5F6E3",
"#X c #D5F6EA",
"$X c #D6F8EB",
"%X c #C1F4F2",
"&X c #CCF5F4",
"*X c #C5FCF6",
"=X c #CCFDF5",
"-X c #C4FEFE",
";X c #CCFFFF",
":X c #D4F4F4",
">X c #D3FCF4",
",X c #D9F8F3",
"<X c #D3FFFF",
"1X c #DBFFFF",
"2X c #E7E8E8",
"3X c #F2ECEC",
"4X c #E1F2F2",
"5X c #E3FFFF",
"6X c #ECFFFF",
"7X c #F3F4F4",
"8X c #F2FFFF",
"9X c #F9FFFF",
/* pixels */
"e ( e e ( ( ( ( ( ( / / e / q ( / / q ( ( e / q / q ( ( ( ( e ( ( ( ( ( ( ( e e e ( ( e e q q ( ( q e e ( e e e e q e / ( e / ( ",
"/ / / / / ( ( ( ) ( q / / / q 9 0 / / / / / / / / / q / / / / / / / / / / / / / q ) ( ( ( / e ) ( ) ( q / ( / / / / / / ( / / / ",
"/ ( / / / q q / q / q / / Q 7 7 8 / / / / q / / ( q / / ( / / / / / / / q / / / / q q ) ( / / / ) / ( ) / q / / / ( / / ( q ( q ",
"q q / / / / / / ( / q 0 9 / 9 7 8 8 q q / / / / / / / ( q / / q / / / / / / / / / e q ( / / / / q q e q / / / / q ( / ( ( / / ( ",
"/ ( / / q / ( / / / q 7 7 7 9 q / / / / / / / / / / / / / / q / ( ( q / / / / / / q / q / ) / / q e / / / / / q ~ / q / / / / q ",
"/ ( ( / / / / / / / ' ....o.@.@._ / 8 q 9 / ( / e / / q q q q q ) _ _ ) e q / / ) q / / / ) ~ ) / / / / Q Q W / { ) ) / / q / ( ",
"( / / / q / / / Q O.s.L.!.!.-X=X{.=.! 5 7 / / / q q w / | =.$.$.].{.{.].$.;.$.=.{ ( q q / q _ ) / / / q 7 7 W / q q / q / ( / / ",
"/ / q / / / q ( ~ y.9.b.*X;X<X<X<X<X|.X.6 9 ( w _ &.%.].oXT.E.E.W.W.-X;X;X-X;X+X|.[.;.} e q / / Q q / 0 8 8 8 q q q / q / ( ( q ",
"q / / q ( / q ( ^ y.8.q.c.;X<X1X1X1X<X>X].[ _ $.}.oXU.U.U.U.W.!.;X;X<X=X=X=X*X*X*X-X;X X[.} / q / 9 7 8 8 q / q q q q q q ) e q ",
"/ / / / / / ( q ~  .8.8.9.n.<X1X1X5X5X1X<X@X|.T.U.E.E.E.W.-X;X<X;X=X+X*X=X-X-X<X;X;X;X;X;X@X:._ 9 7 6 7 / / Q Q 0 0 q q e q ) q ",
"/ / / / q ( / / / ` 4.4.8.8.c.1X5X6X6X5X1X<X-XE.E.E.W.-X-X<X<X+XS.oX=X;X;X<X<X<X;X<X;X;X;X;X=X X[ 9 7 Q ) ) / 7 7 6 7 q ) q e q ",
"/ / / / / / / ( / ` 0.8.8.1.4.A.6X6X8X8X5X<XW.I.E.W.W.-X-X;X%XG.T.*X;X;X<X<X<X<X<X<X<X<X<X;X<X;X$X@.) / ) / 0 7 5 5 7 0 q e q ) ",
"q / / / / / / / ) ~ ^.8.8.8.1.u.:X9X9X6X1X*XU.Y.W.W.-X-X-X-X*X*X;X;X;X<X<X<X<X<X<X<X<X<X<X<X<X<X<X>X-./ q 0 0 7 5 5 6 8 / / / / ",
"e / q e ( ( / / ( ) R 8.3.<.v >.u.6X6X1X;XT.Y.E.%X-X-X-X-X;X;X;X;X;X;X<X<X<X<X<X1X1X1X<X1X1X1X<X<X<X>X-.) / 0 8 8 8 Q / / / q / ",
"/ / / e / / 9 / ( ( ` t.1.>.<.<.5.&X1X<XW.Y.W.!.!.-X-X-X-X;X;X;X;X;X;X<X;X<X<X<X<X<X1X1X1X1X1X1X<X<X;X>X-./ q / Q 9 / / / / / / ",
"/ / / / / ( ( ( ( w ] A.q.u.1.1.1.p.<X*XY.W.!.!.-X-X-X-X-X-X-X-X;X;X<X;X<X<X<X<X<X1X1X1X1X1X5X1X1X1X<X;X:X{ / / / ( / q / q / / ",
"q / / q / / / / ( / [ K.z.d.q.0.0.V.R.Y.W.!.-X!.-XY.I.P.W.W.!.-X-X;X;X<X<X<X<X1X1X1X1X1X1X5X5X5X5X1X1X<X;X X_ / / ( ( ( q / q q ",
"/ ( / q / / / / ( ] oXz.z.d.q.g.g.V.P.Y.!.!.!.Y.f.3.<.5.c.W.;X<X<X;X;X;X<X1X1X1X1X1X5X5X5X5X5X5X5X1X1X<X<X;X-.( ( ) / ( e / / ( ",
"/ / / / / / / q ~ '.m.z.z.d.z.x.N.V.P.W.!.W.F.0.z k k k c p.:X1X5X1X<X;X;X<X1X1X5X1X5X5X5X6X6X5X5X5X5X1X<X<X$X_ ( / / / ) ( / / ",
"/ q / ( / / ( / #.m.z.d.d.z.g.x.V.C.Y.Y.Q.P.w.z g h h g h k t.:X8X8X5X<X;X<X1X1X5X5X5X5X5X6X6X6X6X5X5X1X1X<X<X-.) ( / q q q / / ",
"( / q / / / / } l.z.d.e.e.g.g.c.N.C.C.Y.!.-XB.2.v x h g f f j p.6X8X5X<X<X;X<X5X5X5X5X6X6X6X6X6X6X6X5X5X1X<X<X X_ / q ) / ( / / ",
"/ ( / / / / ) O.v.z.d.d.e.e.g.g.M.C.C.R.-X;X<X;XJ.p.2.c f f f c }.6X5X1X;X;X<X5X6X6X6X6X8X6X8X8X6X6X5X1X1X1X<X<X} q e ( q ( / / ",
"q / / / / / ^ l.z.d.d.w.d.d.d.a.r.N.C.R.-X<X<X1X1X5X=Xl.m k y g t.:X5X<X;X;X;X5X6X6X8X8X9X8X8X6X6X6X5X5X1X<X<X<X*.( ( ( / / q q ",
"e q / q / / [ K.q.d.d.e.i.e.d.u.r.r.M.Y.!.;X1X1X5X5X1X1X%Xt.g y z n.1X<X;X;X-X1X8X8X9X3X`.7X9X8X6X6X5X5X1X1X<X<X X_ q / / ( ( ( ",
"/ / / / / ^ '.q.u q.d.d.d.d.u.8.6.7.r.N.R.-X<X1X1X1X1X1X;XT.2.y f u.<X<X;X-X-X1X8X9X9X).Z `.9X8X6X6X5X5X1X1X<X;X,X_ / / / / / / ",
"/ / / / / ~ G.d + d.d.d.d.u.8.5.2.4.6.w.B.R.;X<X1X<X<X<X-XR.s.j f 5.*X<X;X-X-X1X9X9X9XG 1 ).7X9X6X5X5X5X1X<X<X<X>X_ / ( e / ( q ",
"q / / / / ] K.a r f.z.f.u.u.3.3.<.>.2.6.r.B.R.*X;X<X<X;X*XR.k.m y n %X<X;X-X;X1X9XH 3 ; * , 1 B 2X6X1X1X1X<X<X<X1X} e ( e q / / ",
"/ ( / ( ( @.K.9.,.f.f.p.u.t.5.<.b v b 2.6.r.B.Q.-X-X-X!.R.H.k.2.f k A.;X-X-X;X6XG = , 3 ; Z 3 = _.5X5X1X1X<X<X<X<X_ e q q q ) / ",
"/ / ( / ) #.K.v.z.z.f.u.u.u.3.<.b v x c b 6.w.k.C.Y.Y.H.B.k.a.2.h z Z.;X;X;X1X8X3 * ).G 2 _.3X~.4X5X1X1X<X<X<X<X<X_ / / ( / / / ",
"/ ( q / / #.m.z.c.z.f.u.u.t.t.1.b b x l c b 6.w.r.k.k.k.a.w.6.b j c Z.;X;X1X6X6X3 $ H H 3 `.5X5X1X1X1X1X<X<X<X<X,X] ( ( / q q / ",
"/ e / / ) o.v.c.c.f.d.f.f.u.t.1.2.v x l x v >.6.w.a.k.k.k.r.7.2.x <.J.<X<X5X6X6XC * * = = S OX1X1X1X<X<X<X<X<X<X,X_ q ( / ( ( / ",
"/ / / / / O.m.v.c.f.d.d.u.u.u.t.2.b j p s x c b 6.7.w.w.r.a.a.w.6.7.H.;X<X5X5X5X4X_.4 % # % % B OX1X1X<X<X<X<X<XXX_ / / / ( / / ",
"q / / ( / #.K.K.x.d.i.i.i.u.u.u.0.p O X t l l v b 2.7.7.7.7.i.a.s.N.R.;X1X1X1X5X5X5X,XS < C : # D <X<X1X<X<X<X<X-._ / / / / / / ",
"q / / q / { L.V.c.N.f.0.t.u.i.u.0.i     O l l l v b 2.4.7.7.7.i.M.H.!.;X<X<X1X1X:X>X1XF 2 /.V $ F 1X1X<X<X<X;X<X} ( / q q ( / / ",
"( / ( / ^ '.x.c.V.D.I.B.u.5.7.i.u.s o . @ l l l x v <.2.6.3.7.i.k.C.!.;X;X<X<X:XV A (.C > F < % ~.<X<X1X<X<X<X,X} / e / / / / / ",
"/ / w ( ` z.d.x.F.R.R.*XT.h.t.7.0.0.p t l c l l c v <.<.2.2.7.w.g.B.R.-X;X;X;X&XN & % % $ % - A :X1X<X<X<X<X<X.X) ( / / e q / / ",
"/ / / / ` z.e.z.N.T.;X;X;X<XoX7.7.u.0.4.>.v v c c c v >.m 2.6.7.s.k.H.!.-X;X;X;X:XD V > & B OX<X1X1X<X<X<X;X>X{ / / q / / q ( / ",
"/ / / / ~ d.z.z.x.B.=X<X1X5X1XA.2.0.0.0.4.<.b v v v b b 2.6.7.7.r.k.C.!.-X;X;X;X;X<X<XF 2 /.1X1X1X<X<X<X;X<X.X_ q / / e / / ( / ",
"/ / / / ~ f.z.z.x.x.D.&X5X1X<X+X7.2.i.d.w.6.2.>.b b b <.2.6.i.i.a.k.F.R.-X;X;X;X;X<X<XF 4 (.1X1X<X<X<X<X<X>X} w ( ( / / / / / / ",
"/ ( q / } +.z.e.z.v.b.Z.&X<X;XT.w.b d.g.g.i.r.7.6.2.2.7.7.w.s.a.k.B.H.!.-X-X;X;X<X1X<X(.~.:X<X<X<X<X;X;X;X.X_ ( / / ( / q / / / ",
"/ / / q ( ` e.q.z.v.x.V.c.H.R.T.a.m i.x.N.x.g.e.r.w.7.w.r.a.k.N.D.F.T.!.-X;X;X<X<X<X<X1X1X1X<X<X;X<X;X<X,X{ q / / / / / q / / e ",
"q / / / ( ) +.e.z.v.b.b.b.h.F.H.k.7.w.c.N.M.M.g.g.g.g.g.h.N.B.F.H.T.!.*X-X;X;X<X<X<X<X1X<X<X<X<X<X;X;X;X$X^ / ( / / / ( / / / / ",
"/ / / / / / ` i.z.x.b.V.V.V.N.H.H.B.k.N.V.C.V.V.V.B.N.N.B.D.H.H.R.!.!.-X-X;X;X<X<X<X<X<X<X<X<X;X;X;X;X;X#X~ 9 ( / / / ( q / / q ",
"/ ( q ( / / / X.z.z.c.d.x.V.I.!.*X!.H.F.C.C.L.C.C.C.F.F.Y.Y.T.R.!.!.-X-X;X;X<X;X<X<X<X<X<X<X;X;X;X;X;X;X#X! 9 / / / / q e / / / ",
"/ / / ( / / / ) X.f.b.b.c.V.E.-X-X-XT.P.Y.L.Y.L.C.C.Q.Y.R.R.!.!.*X-X-X;X;X;X<X<X<X<X<X;X<X;X;X;X;X-X;X;X#XW 9 Q / / q / / ( / / ",
"/ / / ( / / / / ) R j.b.K.V.U.-X;X-XW.Y.Y.Y.Q.Y.Y.Y.Q.Y.R.!.!.!.!.-X-X-X;X;X;X;X;X<X<X;X;X;X;X-X-X-X<X;X:.W / / / / / / / q / / ",
"/ / / / / / Q 9 / 8 I ^.D.L.E.-X-XW.W.Y.Y.E.Y.Q.Q.Q.Q.Q.Q.!.!.!.-X-X-X-X-X;X;X;X;X;X;X;X;X;X*XP.E.-X;X>X{ q / / / / q e q q / / ",
"/ / / ( / / 9 9 8 9 9 Q #.}.}.l.c.V.U.E.E.E.!.Q.E.E.!.Q.Q.!.!.!.!.-X-X-X;X-X;X;X;X;X;X-X-Xx.2.e.F.-X*X-./ / / / q / q ) e ) ( q ",
"/ ( / / ( / 7 6 6 7 Q / / ) Q ` L f.m.U.E.E.W.W.W.W.!.!.!.!.!.!.!.-X-X-X-X;X-X;X;X-X-X=XF.>.s m y.|.{ / ( ( ( q q e ) q e e / / ",
"/ ( q / ( 9 / 8 7 Q / ) 9 8 7 6 W T p.n.U.E.W.W.W.W.W.W.E.!.!.!.!.-X-X-X-X-X-X-X-X*X+X&._ / Q ) ) ) ( q ( ( ( ) ) q ( q q q / / ",
"/ / ( ( / / / ( ( / / / 7 5 5 5 7 W U y.f.K.U.W.W.W.!.W.!.!.!.!.!.-X!.-X-X-X!.*X+X$._ w e q / / / / / ( / / / ( q q ) ( q ) q ( ",
"/ / / / / / / 9 / q / q 8 5 5 5 6 8 q Q T y.n.K.E.E.W.W.!.!.!.!.!.!.!.!.!.!.-X[.^ ( / ( q / / / ( q ( / q / / ( e q e q e ( / ( ",
"w / / / ( / / / / / 9 / 8 7 8 8 8 / / / q / Y +.j.l.K.L.U.U.U.U.E.U.U.E.W.!.+X{ e q / / / q ) q e / / q / e / / ) ( / / q ) q ( ",
"/ / / / ( / / / / / ( 9 / ) / Q q / / / / q q q / I J 1.d.z.x.x.b.V.I.T.;X;X@X{ e / ( q / / q e / / q / / / / / q e q q q ( ) e ",
"/ / / / / / / / / / / / / / ( / ) q q / / / ) q / / E M >.0.e.x.C.Y.!.;X<X;X.X^ q ) ( / q / / q q ( / / / / / q q q / / q ) q q ",
"/ ( w / ( / / / / / / / / / / / ( e q / / e ( / / / q U n 8.e.g.N.P.Q.-X<X;X%.( q q / / / / / e / ( / / / q / / ( ( / / e ( q / ",
"/ ( ( q ( q / / / / ( ( ( q e ) ( / q e / / ( / / / ) W J 2.9.r.M.V.Y.!.-X X| / e ( / q ( / q ) / ( / q / / / ( ( / / q / ( ( / ",
"q q / ( ( / / ( / / q / / / q q / ( / q / / q ( / / / / E K >.2.7.a.y.].;.{ q q / / / / / / / / / ( / / / ( / q q ( / / ( / q ) ",
"q / / / / / / / ( / q q q q e / q / / / / q / / / / / / ) I P P Y T ` ) ( q ( ( / / / / q e q ( / / / / / ( / / ( e q e / q / ) ",
"/ / / q ( / / / / / / / e q ) q / / / q q ( / / / / / / / / e q q q e e / ( / ( / ( / / ) q / q / / / q / / / / q ) q q / e e q ",
"/ / ( / ( ( / / / / / / / / / / / / ( / / / / / / / / / / ( q ( / / / / / ( ( / / / / / / / / / / ( / / / / / / / / / / / / / / ",
"/ / / q / / / ( / / / / / q e / / / / e / / / / / / / / / / / / e / / / q ( / / / / ( / / q ) / q ( / / / ( / / / / / / / q ( / ",
"/ / / e / / / / / / / / / / / / / / / ( / / / / / / q / ( / / / / / / / ) q / / / / / / / ( / / ) / / q / / / / / / / / / / / / ",
"/ ) / ( ) ( / / ) / / ) ( / / / ( / ( ) ) / / / ) ( / / ) ) ( / / / / / q ( ) / / / / / ) ( / / ( ) ( ( / / ( / / / / / ) / / / "
};
