/* XPM */
static char *result[] = {
/* columns rows colors chars-per-pixel */
"64 64 229 2 ",
"   c #0F312A",
".  c #063635",
"X  c #083535",
"o  c #063837",
"O  c #093738",
"+  c #053A3D",
"@  c #0A3B3B",
"#  c #02403F",
"$  c #0C413D",
"%  c #1A483D",
"&  c #234C3D",
"*  c #29533E",
"=  c #38573B",
"-  c #43533C",
";  c #053C42",
":  c #083F43",
">  c #003F4A",
",  c #054244",
"<  c #0A4344",
"1  c #074945",
"2  c #0B4B46",
"3  c #03444B",
"4  c #0B4648",
"5  c #054B4C",
"6  c #0C4C4B",
"7  c #134543",
"8  c #154A46",
"9  c #134D4C",
"0  c #0F524D",
"q  c #14514A",
"w  c #014653",
"e  c #034C54",
"r  c #0B4E53",
"t  c #024C59",
"y  c #0D5155",
"u  c #02545C",
"i  c #08545A",
"p  c #045A5E",
"a  c #125656",
"s  c #264F47",
"d  c #23524D",
"f  c #2A554A",
"g  c #385B48",
"h  c #255653",
"j  c #355E55",
"k  c #10605E",
"l  c #36655B",
"z  c #015863",
"x  c #035C64",
"c  c #086366",
"v  c #04646D",
"b  c #0B626C",
"n  c #186567",
"m  c #086B76",
"M  c #156A73",
"N  c #09777C",
"B  c #187377",
"V  c #256D6C",
"C  c #356C64",
"Z  c #2A7469",
"A  c #367669",
"S  c #256F72",
"D  c #297C7B",
"F  c #307E7F",
"G  c #485F47",
"H  c #5C5944",
"J  c #675E49",
"K  c #4A674A",
"L  c #506A4C",
"P  c #4A6954",
"I  c #45675B",
"U  c #546C57",
"Y  c #587359",
"T  c #68695D",
"R  c #756B56",
"E  c #647A5C",
"W  c #6A7C5A",
"Q  c #797A53",
"!  c #4D7067",
"~  c #477969",
"^  c #48787A",
"/  c #5B7672",
"(  c #7A6B63",
")  c #7B7767",
"_  c #637E7D",
"`  c #7B7E78",
"'  c #885E39",
"]  c #966B3F",
"[  c #99714B",
"{  c #886B57",
"}  c #906F51",
"|  c #9B745A",
" . c #A67A51",
".. c #A87B57",
"X. c #8D6D60",
"o. c #847968",
"O. c #997865",
"+. c #847A75",
"@. c #A27D62",
"#. c #6D815B",
"$. c #7A855A",
"%. c #568979",
"&. c #698364",
"*. c #778664",
"=. c #74887A",
"-. c #769874",
";. c #A3825B",
":. c #B48D56",
">. c #828D64",
",. c #858569",
"<. c #988A6F",
"1. c #8B9466",
"2. c #969968",
"3. c #88867B",
"4. c #85957B",
"5. c #989775",
"6. c #A58768",
"7. c #BA9E6C",
"8. c #AF9C70",
"9. c #85A073",
"0. c #9CA579",
"q. c #A4A26B",
"w. c #ABA66C",
"e. c #AEA96E",
"r. c #B7AA6C",
"t. c #A6A877",
"y. c #B5AB75",
"u. c #A2B47F",
"i. c #B5B67A",
"p. c #C5A467",
"a. c #CBAB6C",
"s. c #CCB16F",
"d. c #C8A973",
"f. c #C7B677",
"g. c #CBBA75",
"h. c #D5BD77",
"j. c #D6BF79",
"k. c #C3C17F",
"l. c #D8C57B",
"z. c #DDC47B",
"x. c #E3C36F",
"c. c #E4C473",
"v. c #E6C677",
"b. c #EACA76",
"n. c #E4CA7C",
"m. c #EDCD7B",
"M. c #F0CF7C",
"N. c #EED07D",
"B. c #F4D47E",
"V. c #F9D77F",
"C. c #F9D87F",
"Z. c #1A7B83",
"A. c #158387",
"S. c #128B8F",
"D. c #138C94",
"F. c #26868A",
"G. c #34908F",
"H. c #2B8C94",
"J. c #35A79D",
"K. c #35ADB2",
"L. c #37ADB2",
"P. c #548A88",
"I. c #509488",
"U. c #5D9D96",
"Y. c #6D8885",
"T. c #6C978D",
"R. c #7B9884",
"E. c #6A9793",
"W. c #779897",
"Q. c #46A19B",
"!. c #55A599",
"~. c #62A99B",
"^. c #49ADAF",
"/. c #44B3B7",
"(. c #74B6AF",
"). c #51C1C6",
"_. c #59C7D0",
"`. c #8E938D",
"'. c #889988",
"]. c #9B9D8A",
"[. c #959891",
"{. c #87AB84",
"}. c #8CAC90",
"|. c #9EBD96",
" X c #A8A887",
".X c #B3AA8A",
"XX c #A9B883",
"oX c #B4BF8B",
"OX c #A2A797",
"+X c #ABAB9C",
"@X c #B5AE92",
"#X c #BDB596",
"$X c #88B9A7",
"%X c #87BABE",
"&X c #A8ACA6",
"*X c #B1B6AB",
"=X c #B9BEBC",
"-X c #CBBA85",
";X c #C3BC9D",
":X c #BAC58E",
">X c #B7C390",
",X c #8ACABE",
"<X c #B5CEAE",
"1X c #BDC4B8",
"2X c #CCC989",
"3X c #D7C886",
"4X c #C5CD95",
"5X c #DCCD9A",
"6X c #D5D196",
"7X c #E4CC86",
"8X c #E8CE86",
"9X c #EDD183",
"0X c #ECD38B",
"qX c #F6D680",
"wX c #F8D780",
"eX c #F7D985",
"rX c #FBD982",
"tX c #F2D789",
"yX c #F2DA94",
"uX c #CDCBB2",
"iX c #ECDBA8",
"pX c #90CDC6",
"aX c #CBD2CA",
"sX c #CDD3C8",
"dX c #D4DBD1",
"fX c #E1DFC5",
"gX c #DFE1D8",
"hX c #E4E7D7",
"jX c #E9EFEF",
/* pixels */
"C.wXC.C.wXwXwXwXwXwXqXwXC.wXqXqXwXwXwXwXwXwXeXwXwXwXwXwXwXwXC.wXwXqXwXwXwXqXwXC.wXwXwXC.C.C.wXwXqXwXwXwXwXC.C.C.C.B.C.qXwXC.wXwX",
"qXqXqXqXqXqXqXqXqXqXqXqXqXB.B.M.M.wXwXqX0X8X0X0X0XwXwXwXqXqXqXqXqXqXqXqXqXqXqXqXqXqXC.qXqXqXqXqXqXqXqXqXqXwXqXqXqXqXqXqXqXqXqXqX",
"qXwXqXqXqXB.qXqXqXqXB.qXqX9Xb.b.m.9X0X5X=X=X=XaXuXtXqXqXqXqXB.qXqXqXqXwXqXwXqXqXqXqXqXB.qXqXqXqXC.qXqXqXwXB.qXqXqXwXqXqXqXB.qXqX",
"B.B.qXqXqXqXqXqXqXqXB.B.M.qXM.b.8X7X;X&X`.+.[.aXjXgX0XM.qXqXwXqXqXqXqXqXqXqXqXqXqXqXqXqXqXqXqXqXqXqXqXqXqXqXqXwXqXwXqXwXqXC.qXqX",
"wXwXqXqXB.qXwXqXqXqXB.m.b.M.M.qXqX8X.X+.( ( +.[.=XjXfXtXrXrXqXqXqXqXqXqXB.qXqXqXB.qXqXqXqXqXqXqXC.qXqXqXqXqXB.B.qXqXB.qXqXqXqXqX",
"qXwXqXqXqXqXqXqXqXB.B.b.b.b.m.qXqX8Xd.O.X.X.( X.`.=XdX5XqXqXC.B.qXqXC.qXqXqXqXqXqXqXqXqXqXqXqXqXqXqXqXqXB.N.B.B.qXqXqXqXqXC.wXB.",
"qXwXqXqXqXB.wXqXqXB.B.m.m.m.qXeXqXv.8.| X.{ } } | +.&X5XwXB.B.C.qXqXqXqXqXC.C.qXqXqXqXqXqXqXqXqXB.qXqXB.m.m.m.B.qXC.qXqXB.qXqXqX",
"qXqXqXqXqXqXqXqXqXB.qXqXqXqXqXqX9Xv.7.| |  .[  .[ R Y.*X5X9XC.C.qXqXqXqXqXqXqXqXqXqXqXqXB.qXqXqXB.qX9XB.m.b.m.B.B.qXwXB.qXqXqXqX",
"qXB.qXqXqXqXqXqXqXqXqXqXqXqXB.B.m.b.d.O..... . .[ J ^ %XpXpX1X5X9XC.C.qXqXqXqXqXqXqXqXqXqXqXqXqXB.M.m.M.N.9XB.B.B.qXB.C.B.B.qXqX",
"qXqXqXC.C.qXqXB.qXqXqXqXqXqXB.B.B.m.h.@...:. .[ ' H / %X/./._.pX6XC.B.qXqXqXqXqXC.qXqXqXB.qXqXqXM.b.b.b.qXqXqXN.B.N.B.B.C.B.qXqX",
"qXqXqXqXqXqXC.qXB.wXqXqXqXqXqXB.qXqXM.d.[ ]  .] ' J Y.(.H.D.L.).,X3XB.qXqXqXqXqXqXqXqXqXqXqXqXqXB.m.b.M.eXeXB.m.c.c.m.B.qXqXqXqX",
"qXqXqXqXqXqXqXqXqXqXqXqXqXqXqXqXqXqXwX9Xp.[ [ ' [ R / W.M A.D.L.).,X7XC.B.qXqXqXqXqXqXqXqXqXqXqXqXB.9XqXqXqXB.c.x.c.b.B.qXqXqXqX",
"B.qXqXqXqXqXC.qXqXqXqXqXqXqXqXqXqXqXqXwXb.r...p.a.>.Y.E.z m H./.K.L.>X7XeXB.qXC.qXqXqXqXqXqXqXqXqXqXqXB.qXB.N.v.c.v.b.N.qXqXqXqX",
"C.qXqXC.qXqXqXqXqXqXqXqXqXqXqXqXqXqXqXqXwXm.v.M.d.) W.^ b Z.Z.D.N S.^.4XC.qXC.B.qXqXqXqXqXqXwXqXqXB.qXwXB.B.B.m.b.m.m.9XqXqXqXqX",
"qXqXqXB.qXC.C.qXwXqXqXqXqXqXqXqXqXqXqXqXqXwXwXwX7X XP.M v v v x v m D.!.2XrXC.B.B.B.qXqXqXB.wXB.qXqXqXwXqXB.B.9XqXqXqXqXqXqXqXqX",
"qXqXqXqXqXqXqXqXqXqXqXqXqXqXqXqXqXqXqXqXqXqXqXM.8.l i t z x x z e v m F.|.9XB.N.b.b.M.qXqXqXwXqXqXqXqXqXqXqXB.qXqXqXqXqXqXqXqXqX",
"qXqXqXB.qXqXqXqXwXqXqXqXB.qXqXqXB.qXB.wXwXqXf.W d w w t u x u t t x v x I.:XB.B.N.N.N.B.B.wXC.qXqXqXqXqXqXqXqXqXqXeXqXqXC.qXqXB.",
"C.qXqXqXqXqXqXqXqXwXqXqXqXqXwXqXqXqXqXwXB.y.I t t t t t p x 3 > 3 x v u m R.j.M.B.B.B.B.B.B.qXB.qXqXqXqXqXqXqXqXC.qXqXqXC.B.qXqX",
"qXqXB.qXqXC.qXqXqXqXqXqXwXqXC.wXqXwXwX9Xt.I z t t t t u p e , 3 w x v x t F }.-XB.qXB.B.B.B.B.B.qXqXqXqXB.qXqXC.qXqXC.qXqXqXqXqX",
"qXqXqXqXqXqXqXqXqXqXqXqXqXwXB.wXwXm.g.>.a e t t e e t u e , + , 5 e v v u x B u.qXqXm.b.b.b.B.qXqXqXqXqXqXqXqXqXqXqXqXqXqXqXC.qX",
"qXqXqXqXqXqXqXqXqXwXqXqXqXqXqXqXn.1.a 5 e e r r e r q 0 5 : + ; 3 3 p v x u v %.oXM.b.c.c.b.N.qXqXqXC.qXqXB.qXqXqXqXqXqXqXqXqXqX",
"qXqXqXqXqXqXqXqXqXqXqXqXqXwXwXN.2.e y r y y y 9 l &.*.P 6 : ; ; , 3 3 x v x x A.!.oXv.b.v.v.N.B.qXqXqXqXqXqXqXqXqXqXqXqXqXqXqXqX",
"C.qXqXqXqXqXqXqXqXqXqXwXB.c.f.8.l 5 0 0 0 6 j *.e.qXrX2.3 < : ; : , 3 t b v v H.^.(.>Xn.m.N.N.qXqXqXqXqXqXqXqXC.C.qXC.qXqXqXC.B.",
"C.C.qXqXqXqXqXqXqXqXqXqXn.6.O.o.P d 2 # q U q.B.rXwXM.*.> 6 4 : ; , e r M B N N N L.(.2XqXqXqXqXqXqXqXqXqXqXqXqXqXqXqXqXqXqXqXqX",
"qXqXqXqXqXqXqXqXqXqXeXN.a.@.@.;.7.e.*.#.2.h.rXqXB.wXn.E > r < < 3 , 5 i k M F.H.Z.N L.}.n.eXqXqXqXqXqXqXqXqXqXB.qXC.qXqXqXqXC.qX",
"qXqXqXqXqXqXqXqXB.B.qXm.a.O...p.b.wXB.m.rXqXB.qXqXC.B.>.> 9 8 : < 3 5 5 e u M H.B p A.G.k.C.qXC.C.qXqXqXqXqXC.qXB.qXqXqXC.qXqXqX",
"B.qXqXqXqXB.qXeXB.m.m.m.v.d.a.m.B.B.C.C.qXB.qXqXwXwXC.2.> 9 9 2 < 1 6 5 5 e r c p e c N u.B.C.C.qXqXqXqXqXC.qXC.qXqXqXqXqXqXqXqX",
"qXqXqXqXB.B.qXqXB.c.x.b.m.qXm.qXB.B.B.B.qXqXqXqXqXwXrX2.4 6 q q 2 1 1 5 5 5 5 n S i c A.A k.C.C.qXB.qXqXqXB.C.qXqXC.qXqXC.B.qXqX",
"qXqXqXwXqXqXqXqXB.c.c.b.N.eXqXB.N.N.M.B.qXqXqXqXqXqXwXg.P 3 0 0 2 2 2 2 6 5 5 B ~.! a A.D 5.n.qXqXqXC.qXwXwXqXqXqXqXqXqXqXB.qXqX",
"qXqXqXqXqXqXqXqXB.B.B.N.qXqXB.b.c.x.v.M.qXqXqXqXwXqXwXwX>.1 2 0 2 1 2 1 1 1 6 c G.:X&.b D o.s.B.qXqXqXqXB.qXqXqXqXqXqXqXqXqXqXqX",
"qXqXqXqXC.qXqXC.B.qXqXqXqXN.N.v.z.x.c.b.9XqXqXqXB.qXqXrXq.q 9 q 0 2 1 # , 7 Y.^ H.:Xm.~ V T d.9XqXqXqXB.qXqXqXqXwXB.qXqXqXqXqXqX",
"qXqXqXqXqXqXqXB.C.qXqXB.qXB.B.b.x.b.b.b.qXqXqXqXqXqXqXwXg.U 8 8 2 $ < # # @ _ =.S -.n.z.-.q.m.qXqXqXqXqXwXqXqXqXwXwXqXqXqXqXqXqX",
"qXqXqXqXqXqXqXqXqXqXqXqXqXB.B.qXB.N.B.9XqXqXqXqXqXqXqXwXg.K @ : $ 1 < , ; , ! [.C C g.wXN.qXqXqXqXqXqXqXqXqXqXqXqXB.B.qXqXqXqXqX",
"B.C.qXqXqXqXqXqXqXqXqXqXqXqXB.qXqXqXB.qXqXqXC.qXqXqXqXqX1.@ : @ $ $ 1 < , , j ].%.k i.wXqXqXqXqXqXC.qXqXqXC.B.qXqXqXqXqXqXqXqXqX",
"qXqXC.qXqXC.qXqXqXqXqXqXqXqXqXB.qXqXqXqXqXqXqXqXqXqXwXg.P + + O @ $ 2 < , , 9 '.R.A i.C.qXqXqXB.qXC.B.qXqXqXqXC.C.B.C.qXqXqXqXqX",
"qXqXwXqXqXqXwXqXqXqXqXqXqXqXqXqXB.qXqXqXB.qXC.qXqXwXn.T ; ; + O @ $ 2 2 3 , : Y.OX%.i.C.qXqXqXqXqXqXqXqXqXC.qXqXqXqXqXqXC.qXqXqX",
"qXqXqXqXqXqXqXqXqXqXqXqXqXqXqXqXqXqXqXwXqXqXqXqXwXN.>.< ; ; O O O @ < 4 1 4 3 / +XT.4.b.eXB.B.B.qXqXC.qXqXqXqXqXqXqXC.qXC.qXqXqX",
"qXqXqXqXB.qXqXwXqXqXqXqXqXwXqXB.B.qXqXqXqXqXqXqXwXe.q ; ; @ O O X @ < < 4 < , j OXI.Z i.C.B.B.B.B.N.qXB.qXB.qXqXqXqXqXqXqXqXqXqX",
"qXqXqXqXqXqXqXqXC.qXqXqXqXqXqXqXqXqXqXqXqXqXqXwXz.E ; ; @ @ O O X O P P < 4 < 8 '.$XF.0.N.eXB.b.b.N.B.B.qXqXC.qXB.qXqXB.qXC.qXqX",
"qXqXqXC.qXC.qXqXqXqXqXqXC.qXqXqXqXqXqXqXwXqXqXwXq.4 : : : @ O O X g g.w.h < < < =.1XU.&.l.C.N.m.m.N.B.B.B.qXB.B.qXqXqXqXqXqXqXqX",
"qXqXqXqXB.qXqXqXqXqXqXwXB.wXqXC.qXqXqXwXqXqXwXl.P ; ; ; @ @ O O g r.C.m.E 4 2 : U OXT.C q.b.b.N.N.B.B.B.qXqXqXqXqXqXqXqXqXqXqXqX",
"B.qXqXqXqXqXqXqXqXqXqXqXB.qXwXqXqXqXB.qXwXwXn.$.; ; + + ; + O @ 2.C.wXrX2.h < < d `.W.V %.9.l.eXqXB.B.B.B.qXqXqXqXqXqXqXC.qXqXB.",
"qXqXqXC.C.eXC.qXB.wXqXB.qXqXqXqXqXqXqXqXwXeXy.q ; ; ; + + + . E v.wXwXC.n.Y < < $ _ T.D p Z.!.{.3XB.b.v.v.m.B.qXqXqXqXqXB.qXqXqX",
"qXqXqXqXB.qXB.qXB.qXqXB.qXqXqXqXC.qXqXqXwXrXw.; : ; @ + + O P g.rXqXwXB.wX2.d , @ / }.A p v m B I.k.c.x.x.b.m.qXqXqXqXqXC.qXqXqX",
"qXqXqXqXqXqXC.qXqXB.B.B.B.qXqXqXqXqXqXqXwXrXq.; ; ; ; + @ 7 1.rXqXqXqXqXqXn.E $ < I ].R.A p c N N G.u.l.c.b.m.qXqXB.qXqXqXqXqXqX",
"qXqXqXwXqXqXqXqXB.B.b.b.N.qXqXqXB.B.C.qXqXrXq.; : : : + @ W N.rXqXwXC.qXqXrXl.P ; % U ].OX'.A n x N J.|.z.B.B.qXqXqXqXC.qXC.qXqX",
"qXqXqXqXqXqXN.qXqXN.m.m.N.B.B.qXqXqXqXqXqXwXq.+ : @ @ @ 7 1.rXwXeXqXqXqXqXwXrX2.s @ % g -. X X4.I k c F.!.2XqXqXqXqXqXqXqXqXqXqX",
"qXqXqXqXqXB.N.m.m.m.N.N.qXB.qXB.qXB.B.qXqXqX5.+ , + + # h t.rXqXqXqXqXqXqXqXqXN.q.G & % % = #.t.XX9.l k A.!.2XqXqXqXqXqXqXB.qXqX",
"qXwXqXqXqXqXm.b.c.m.qXqXqXqXqXqXB.qXqXqXV.wXw.@ : + + + h 0.C.qXqXB.qXqXqXC.qXqXB.c.k.e.K & % g *.t. X'.C B Q.2XeXeXqXqXqXC.qXB.",
"qXwXqXqXqXB.B.b.m.B.qXeXm.b.m.v.M.qXqXqXqXrXr.8 + + + + 0 2.C.C.qXqXqXC.qXqXqXqXC.V.V.B.N.x.$.- * = #.2.t.%.S T.<XiXyXeXqXqXqXqX",
"qXwXwXqXqXB.qXqXB.qXqXqXb.c.z.x.b.M.qXqXqXwXg.P . o O + 8 2.rXqXqXqXqXqXqXqXqXqXC.B.C.C.B.B.qXN.s.$.K = )  X-.%.[.dXhXtXwXqXwXqX",
"qXqXqXqXqXqXqXqXB.B.B.B.m.c.c.c.b.8XqXqXC.qX9X>.o o o o 8 2.rXwXqXqXqXqXqXC.qXqXB.C.eXB.B.C.qXqXB.B.B.>.= Y K J o.sXgXqXqXB.wXqX",
"qXqXqXqXqXqXqXqXqXqXqXM.B.b.b.n.m.B.qXqXqXqXeXy.d X X X $ >.eXeXqXqXqXqXqXqXqXqXB.C.B.qXB.qXqXqXB.V.qXl.1.Q - } <.1XdXtXC.qXqXqX",
"qXqXqXV.qXwXqXqXqXqXqXqXB.B.qXqXqXqXqXqXB.qXqXn.$.@ O X @ *.eXqXqXqXqXqXqXqXqXqXqXqXqXqXqXqXwXqXB.V.qXC.C.C.d..X+X*XsXtXqXqXqXqX",
"wXqXwXqXqXqXqXqXqXqXqXqXqXqXqXqXqXqXqXqXqXqXqXrXy.f O X X L l.qXqXqXqXqXqXqXqXqXqXqXqXqXqXqXqXqXC.B.wXqXC.B.qX#X+X*XsXeXqXqXqXqX",
"qXqXqXqXqXqXqXqXqXqXqXqXqXqXqXqXqXC.B.qXqXqXqXwXn.*.% X X l i.qXqXtXqXqXqXqXqXqXqXB.qXqXqXqXqXqXB.C.qXqXV.V.qX@X+X+X1X0XqXqXqXqX",
"qXwXqXwXqXqXqXqXqXqXqXqXqXC.C.qXwXqXB.B.wXqXqXB.qXj.U     G y.8Xn.qXqXqXqXqXqXqXwXB.qXqXqXqXB.qXqXqXqXqXqXqXwX.XOX&X*X8XqXqXqXeX",
"B.B.qXqXqXqXqXwXqXqXB.C.qXqXqXqXqXqXwXqXqXqXwXB.qX3Xo.- H R y.7Xv.m.qXqXqXqXqXqXqXqXqXwXB.qXwXqXqXqXqXqXqXrXqX.XOX+X#X9XqXqXqXqX",
"C.qXqXqXwXqXqXqXqXqXB.B.qXqXqXqXB.qXqXqXC.C.qX9X-X].3.( X.<.-X7X8Xm.qXwXqXqXqXqXqXqXqXqXqXwXqXqXqXqXqXqXqXwXqX-X X@X7XqXqXqXqXqX",
"qXqXwXB.wXqXqXqXqXqXqXqXC.qXqXB.qX9XqXqXz..X X].`.` ` o.,.`..X5XqXqXqXqXqXqXqXqXqXwXqXqXqXB.qXqXqXqXqXqXqXqXB.9X-X3XM.qXqXqXqXqX",
"qXqXqXqXqXqXqXqXqXqXqXqXB.qXqXqXqXqXqXqXB.-Xf.<.) T T T ) +. X7XwXqXqXqXqXqXqXqXqXqXqXqXqXqXqXqXwXqXqXqXqXqXqXqX9XqXqXqXqXqXqXqX",
"qXqXB.qXqXqXqXqXqXqXqXqXqXqXqXqXqXqXqXB.wXqXqX7Xc.j.h.h.j.z.n.qXqXwXqXqXqXqXqXqXeXqXqXqXqXqXqXqXqXqXqXqXqXqXqXB.qXqXqXqXqXqXqXqX",
"qXqXqXC.qXqXqXqXqXqXqXqXqXqXC.qXqXqXqXqXqXqXqXqXqXwXqXqXqXwXqXqXqXwXqXqXqXqXqXqXqXqXqXqXqXqXqXqXqXqXqXqXqXqXqXqXqXqXqXqXqXqXqXqX",
"qXeXqXwXqXqXeXqXqXeXqXqXqXeXqXqXeXqXqXqXeXqXeXqXqXqXqXrXqXwXqXqXeXqXqXqXeXwXqXqXqXqXqXqXeXqXeXqXqXeXqXqXqXeXwXqXqXqXqXqXqXqXqXqX"
};
