/* XPM */
static char *result[] = {
/* columns rows colors chars-per-pixel */
"64 64 219 2 ",
"   c #162F29",
".  c #052F36",
"X  c #0B3836",
"o  c #05343C",
"O  c #053A3E",
"+  c #0B3C3D",
"@  c #163935",
"#  c #0C413E",
"$  c #12423D",
"%  c #26473D",
"&  c #384C3B",
"*  c #424C3D",
"=  c #053C43",
"-  c #033C47",
";  c #093B42",
":  c #054245",
">  c #0B4244",
",  c #04454B",
"<  c #09444A",
"1  c #05494E",
"2  c #094A4D",
"3  c #124443",
"4  c #134449",
"5  c #134A4C",
"6  c #1C4C49",
"7  c #19524E",
"8  c #024752",
"9  c #044B53",
"0  c #0B4C52",
"q  c #014B5A",
"w  c #045254",
"e  c #0D5153",
"r  c #0B5155",
"t  c #02545C",
"y  c #0B545B",
"u  c #0A595D",
"i  c #145353",
"p  c #165759",
"a  c #234944",
"s  c #2E5A4F",
"d  c #335444",
"f  c #36584F",
"g  c #3B5B4B",
"h  c #265857",
"j  c #2B5B53",
"k  c #325757",
"l  c #345A52",
"z  c #1D615E",
"x  c #2C645A",
"c  c #38645B",
"v  c #085B68",
"b  c #165C63",
"n  c #0B6166",
"m  c #16696B",
"M  c #0C6C75",
"N  c #196C75",
"B  c #0F7074",
"V  c #1A7273",
"C  c #246967",
"Z  c #396767",
"A  c #256C74",
"S  c #297A7E",
"D  c #4B5247",
"F  c #515448",
"G  c #49624D",
"H  c #5A6A4E",
"J  c #46685A",
"K  c #566C55",
"L  c #63684C",
"P  c #766343",
"I  c #626D53",
"U  c #67765A",
"Y  c #797D5B",
"T  c #466964",
"R  c #566E63",
"E  c #4A7365",
"W  c #597866",
"Q  c #4B6C73",
"!  c #487579",
"~  c #587777",
"^  c #677A66",
"/  c #7B736D",
"(  c #747D69",
")  c #677870",
"_  c #876C4D",
"`  c #8B7857",
"'  c #957159",
"]  c #9C735D",
"[  c #A77747",
"{  c #A87A57",
"}  c #B07F58",
"|  c #856D63",
" . c #867264",
".. c #957565",
"X. c #867D78",
"o. c #A37961",
"O. c #1B837D",
"+. c #39837D",
"@. c #77825D",
"#. c #568473",
"$. c #528675",
"%. c #6C8464",
"&. c #74866A",
"*. c #78906A",
"=. c #698978",
"-. c #768978",
";. c #78977A",
":. c #8E8B5F",
">. c #9C925D",
",. c #B2844E",
"<. c #AB825A",
"1. c #B8875A",
"2. c #868A64",
"3. c #988866",
"4. c #8B9569",
"5. c #989668",
"6. c #898C76",
"7. c #928D73",
"8. c #9B867B",
"9. c #85987C",
"0. c #92987F",
"q. c #A59668",
"w. c #A29E6A",
"e. c #BA9769",
"r. c #A49B7B",
"t. c #B99572",
"y. c #92A87C",
"u. c #AAA46B",
"i. c #B3A96D",
"p. c #BAA96A",
"a. c #AAA577",
"s. c #B8AC77",
"d. c #AEB57D",
"f. c #BBB378",
"g. c #C7A86A",
"h. c #CAB16D",
"j. c #D3B16D",
"k. c #C3AA78",
"l. c #C3B475",
"z. c #C8B779",
"x. c #CCBC7B",
"c. c #D4BE76",
"v. c #D8B976",
"b. c #CFC17E",
"n. c #D7C57D",
"m. c #DCC47B",
"M. c #E3C36F",
"N. c #E4C473",
"B. c #E8C875",
"V. c #EACA76",
"C. c #E4C67B",
"Z. c #E5CB7E",
"A. c #EDCD7A",
"S. c #F0CF7C",
"D. c #EFD07C",
"F. c #F4D47E",
"G. c #F9D77F",
"H. c #F9D87F",
"J. c #278385",
"K. c #398683",
"L. c #2A8690",
"P. c #3396A1",
"I. c #448985",
"U. c #479091",
"Y. c #759494",
"T. c #5FA89F",
"R. c #6CA094",
"E. c #7CA996",
"W. c #4CABB0",
"Q. c #75B3AC",
"!. c #948B85",
"~. c #879689",
"^. c #9A9B88",
"/. c #8A999D",
"(. c #979993",
"). c #A29F8C",
"_. c #8DAB8A",
"`. c #9AA196",
"'. c #A7A589",
"]. c #B6AC88",
"[. c #A7B585",
"{. c #B5B386",
"}. c #A8A797",
"|. c #BAB291",
" X c #97A9A9",
".X c #91BBA4",
"XX c #97A8B2",
"oX c #A5AAA6",
"OX c #ADB8B3",
"+X c #C6A982",
"@X c #C9B886",
"#X c #D3BC81",
"$X c #CAB69A",
"%X c #B3C18E",
"&X c #BBC698",
"*X c #B2CAB1",
"=X c #CFCC8F",
"-X c #DAC786",
";X c #D8C698",
":X c #E3CB81",
">X c #E9CD83",
",X c #E7CE8B",
"<X c #EDD284",
"1X c #E7D28B",
"2X c #ECD289",
"3X c #F6D680",
"4X c #F8D780",
"5X c #F7D882",
"6X c #FAD981",
"7X c #F1D589",
"8X c #C5C4A8",
"9X c #CFD1A9",
"0X c #E7DAAD",
"qX c #D8E1B8",
"wX c #99C4CA",
"eX c #BAD9DF",
"rX c #C4C8C5",
"tX c #E5E0C3",
"yX c #E2E7E4",
/* pixels */
"H.4XH.H.5X5XH.H.4X4X3X4XH.3X3X3X3X3X3X3X4XH.3X3X3XH.4X4X3X3XH.5X5XH.5X4XH.3X3X2X,X7X7X4X4X4X4X4X4X3X4X4XG.G.G.G.F.G.4X3X4XH.4XH.",
"3X3X3X3X3X3X4X3X3X3X3X3X3XF.S.S.D.3X3X3X3X3X3X3XF.3X3X3X3X3X3X3X3X3X3X3X2X9XrXOXOXrX;X7X4X4X3X3X3X3X4X3X3X4X4X3X4X4X3X4X4X3X3X3X",
"3X4X3X3X3XF.3X3X3X3XF.F.3XF.S.B.A.F.3X3X3XF.3X3X3X4XF.3XF.3X3XH.3X3XH.<XtXyXrX`.X.!.oX;X7X4X4X3X3X3X3X3X3X3X3X3X3X4X4XF.3XF.3X3X",
"F.F.3X3X3X3X3X3X4X3XF.F.S.S.S.S.A.A.F.3X3X3X3X3XF.3X3X3X3X3X3X3X3X3XF.0XyXrX(.X.| X.o.:X4X4X3X3X3X3X3X3X3X3X3X3X3X3X4X4X3X3X3X3X",
"4X4X3X3XF.3X4X4X3X3XF.A.V.A.F.3X3X3X3X3X3X3X3X3X3X3X3XH.3X3X3X3X3XH.>XtXrX!. .| | ....+X3X3X3X3X3X3XF.3X3X3XF.G.3X3XF.F.3X4X4XF.",
"3X4X4X3X3X3XF.3X3X3XA.A.B.V.A.3X3XF.A.F.3X3X3X5X3X3X3X3X3X3X3X3XF.H.,X*X(...] ' ] ] ] k.>X3X3X3X3X3X3XF.F.S.F.F.3X3X3X3X3XF.3X4X",
"3X4X3XF.3X3X3X3X3XF.F.A.A.A.3X5XF.A.B.B.V.<X3X3X3X3X3X3XF.3X3X3XG.G.>X}./ ' { { o.{ ] j.3X3X3X3X3X3X3X<XS.A.S.F.3X3X3X3X3X3X3X4X",
"3X3X3X3X3X3XF.5X3X3X3X3X3X3X3X3XS.N.M.M.B.S.3X5X3XH.3X3X3X3XH.<X=X9XqX_.R ' [ { 1.1.o.v.4X3X3X3XS.3X3X3XA.V.A.S.F.3X4XF.3X3XF.3X",
"F.5X3XH.3X3X3XF.3X3X3X3X3X3XF.F.D.Z.M.m.B.F.5X3X3X3X3X3XG.<X&XE.T.wXeXR.G _ [ [ [ 1.e.C.F.3X3X3XF.A.A.A.A.F.3XD.F.3XF.F.F.F.F.3X",
"H.F.5X3X3X3X3XH.F.3X3XF.3X3XF.F.D.D.D.A.V.F.5X3X3X3X5X3X=X.XU.U.XXOX/.Z a P [ [ [ e.m.3X3X3X3X3XS.A.B.A.3X7X3XF.D.F.F.F.H.H.3X3X",
"3X3X3X3X3XH.3X3XF.4X3X3X3X3X3XF.F.F.F.F.F.3X3X3XH.1X&X/.I.A I. X`.~ h < @ P [ [ { v.3X3X3X3X3X3XF.A.A.S.3X5X3XA.B.B.A.F.F.F.3X3X",
"3X3X3X3X3X3X3XH.5X3X3X3X3X3X3X3XF.5X5X5X3XF.5X<X&XR.S v u Q }.(.T 2 8 0 + D 3.j.v.<X3X3X3X3X3X4XF.F.F.7X3X3XD.B.M.N.B.F.5X5X5X3X",
"F.3X3X3X3X3X3X3XF.5X3X3X3X3X5X3X5XF.F.5XH.F.=X.XU.v q q ! oX`.T < , 0 r > 4 2.:X6X6X3X3X3X3X3XF.F.4X4XF.3XF.D.B.N.C.A.A.3X3X3X3X",
"F.3X3XH.3XF.3X3XH.F.3X3X3X3X5X3X5XF.5XF.H.0XQ.L.v 8 8 8 Q Y.c > , , 0 y 0 4 J l.6X4X3X3X3X3X3X4X3XF.3X3XF.F.F.A.A.A.A.3X3X3XF.3X",
"3X3X3XH.3X3XH.3X3X3X3XH.H.3X3X3XH.5XF.F.2X*XP.v q 8 8 8 i i < : , 1 r y r 0 5 q.3XS.3X3X3X3X3XF.3X3X3X4X3XF.F.<XD.3X3X3X3X3X3X3X",
"3X3XF.3X3X3X3XF.3X3X3X3X5X3X3X3XF.5XH.D.*XW.v q 8 8 1 8 1 , , , , 9 r y r 2 , 4.V.S.S.3X3X3X3X3X3X3X3X3X3XF.F.3X3X3X3XF.3X3X3X3X",
"3X3X3XH.3X3X3X3X3X3X3X3X3X4X4XF.3X4X7X%XW.M q 8 8 8 , , < , , , - 0 A Q i - - K h.D.F.F.F.3XH.F.3X3X3X3X4X3X3X3X3X3X4X4XF.3X3XF.",
"3X3X3X3X3XF.3X3X4X4XF.3XF.3X3X3X4XF.=XT.M v 8 8 8 8 , , , < , , 0 - Q ~ h ; - ; I c.F.F.H.F.3XH.3X3X3X3X3X3X3X3X3X3X4X3XH.3X3X3X",
"3X3X3X3XH.3X3X3XF.3X3X4X4X4X3XH.4X<X[.V q q 8 8 8 8 2 = ; - , 2 0 0 Z Z ; - ; ; + ( n.D.F.D.F.F.3XH.3X3X3XF.4XF.4X3X4X3X3X4X3X3X",
"3XF.3X3X3X3X3X3X3X3X3X3X4X3XH.3X3X>X;.v 8 8 , , 8 y p : o O = < 0 0 y i ; ; ; ; O - E l.V.A.F.H.3X3X3X3X3X4X3X3X3X3X3X3X3X4XF.3X",
"3XH.3X3X3X3X3X3X3X4XF.3X3XF.3X3XH.Z.=.t 9 9 < 9 0 u b : O O = - 8 r r 0 ; ; ; ; o - , %.f.n.A.5X3XH.4X4X3X3X3X3XF.3X3X4X4X3X3X3X",
"3X3X3X3X3X3X3X3X3X3X3X3X3XF.3X3X5X<Xa.w 9 , < b b v m - = = = = - r y - ; ; . . o ; - N K.;.u.m.:X,X>XG.3X4X3X3X4X3X4X4X3X3X3X3X",
"3X3X3X3X3X3X3X3X3X3X3XF.3X3X3X3XH.H.b.#.k l J A m u u , : : = ; - 0 0 - ; ; . . . ; - b A V C {.$X$X+X>X4X3X3X3X3X3X4X4X3X3XF.H.",
"F.H.3X3X3X3X3X3X3X3X3XF.F.F.F.F.5XF.D.e. ...5.K.J.O.m 9 : : : ; - 0 5 ; a @ @ @ @ ; - < : : s a.t.e.o.A.3XF.4X4X3X3XF.3X3X3X3X3X",
"3X3X3X3X3X3X3X3X3X3X5X3XA.B.B.F.F.H.m.t.{ ] 3.=.V O.A 2 : : < ; = 0 < g :.>.>.>.5.U % X X O @ P ,.{ <.C.5X3X5XF.3XF.3X3X3X3XF.3X",
"3X3X3X3X4XF.3X3XF.F.3X3XA.B.B.F.<XH.Z.e.} { e.i.j r r , : : > ; < e 5 2.D.6X6X6X6Xm.w.Y & % H p.M.v.v.F.F.F.H.3XF.3X3X3XH.3X3X3X",
"F.3X3X3X3XF.5X3XF.A.A.A.A.A.D.F.F.3XA.g.[ 1.j.m.U e 2 > > > > ; 4 i 6 w.6XF.5X5X3X5XF.C.f.p.n.F.4X4X5X3X3XH.3XH.5X4X4X3X3X3X3X3X",
"3XH.3X5X4XF.3X3XD.N.M.N.A.3X3X3XF.F.F.C.g.v.A.b.=.w , # + # > 4 6 i j u.6XH.H.5X3X3X3X4XH.H.G.F.4XF.F.H.5XF.F.3XH.F.4X3XF.H.3X3X",
"3X3X3X4X3X3X3X3XF.B.N.B.F.5X3XD.A.A.S.S.S.4XG.=X$.t p J % X O > 5 i G p.6X5XH.F.3X3X3XH.3X3X3X3X3X3X3X3X3X4X3X4X3X4X3X3X3XF.5XF.",
"3X3X3X3X3XF.4X5XF.F.F.D.3X3XF.B.N.N.N.S.3X4XF.[.O.w i %.7.f O + 4 7 @.N.5X5X4X4X4XF.3X3X3X3X3X3X4X3X3X3XF.3X3X3X3XF.5X3X3X4X3X4X",
"3XH.3X3X3X3X3XF.F.3X3X3X3X<XD.B.M.M.N.V.<X3X3X{.A w , J ).( > : > J l.3X3X3X3X3X3X3XF.3X3X4X3X3X4XF.H.3X4X3X3X3XH.F.3X3X3X3X4X3X",
"3X5XF.4X3X3XF.3X3X3X3XF.3XD.F.A.B.B.C.S.3X3X3Xs.x u 1 7 &.^.l , 5 2.D.3X3XH.3X3X3X4X4X3X4X3X3X3X4X3X3X3X3X3X3X3X4X4X3X3X3X3X3X4X",
"F.5X3XF.F.3XH.5X3X3X3X3X3XF.F.F.F.D.F.<XF.F.H.b.E u r 2 E }.-.6 : K h.5X4X3X3X3X4X3X3X3X3X3X4X3X3XF.4X4X3XF.5X3X3X3X3XF.3X3X3X3X",
"H.F.5X3X5X3X3XF.3X3X3X3X3X3XF.3X3XH.F.F.F.F.H.b.$.u r r 7 -.'.R < 3 H h.3X3X3X3X4XF.3X3X4XF.3XF.3X3X3X3X3X3XF.H.F.4X3X3X3X4X3X3X",
"3X3X3X3XH.3XF.5X5XF.3X5X3X3X3XH.3X3X5XF.H.F.H.%XK.n n w 1 x 9.y.c , 4 H h.4X3X3X3X3X3X3X4X3X3X3X4XF.3XF.3X3X3X3XF.H.F.H.H.3X3X3X",
"3X3X4X4XF.4X4XF.3XF.3X3X3X3X3X3XF.3XH.H.F.H.Z.y.B t w w w : l y.6.h - 4 Y C.4X3X3X3X3X3X3X3X3X3X3X3X3X4X3XH.F.3X3X3X3X5XF.3X3X3X",
"H.3X3X3X3XF.3X5X3X3X5XF.3X3X3X3X3X5X5XF.F.H.b.$.n t 9 1 w w : c ~.^ < , 4 4.S.H.3X3X3X3XF.3XF.F.3X3XF.3X3X3X3X3X3X3XH.3X3X3X3X3X",
"3X3X3X3X3X3X3X5X3X3X3X3X3XH.3X3XH.3X3X3XH.H.d.V t w 1 , h c e 1 J Y.T < - f i.F.3X3X3X3X3X3XF.F.S.F.3X3X3X3X3X3X3XF.3X3X3X3X3X3X",
"3X3X3X3XH.3X3X3X3X3X3X3X3X3X3X3X3X3X3X3XH.m.;.B n 1 > 6 :.l.%.5 , c -.) 7 - K c.4X3X3XF.3X3XD.A.V.F.F.F.F.3XF.F.3X3XH.3X3X3X3X3X",
"3X3X3XH.3X3X3X3XF.3X3XH.3XH.3X3X3X3X3X3XH.=XU.V p > # H b.6Xm.4.j - W '.T - 4 w.3X3X3XF.3X3XF.A.A.S.F.F.F.3X4XH.3X3X3X3X3XF.H.5X",
"3X3XF.3X3X3X3XH.5XF.3X3XF.3X3X3X3X3X3X4X:X_.J.r # 3 3 @.H.H.5XF.4.i h ~.=.5 - 5.3X3X3XF.A.A.A.F.D.F.F.3X3X3X3X3X3X3X3X3XF.3X3X3X",
"3XF.3X3X3X3X3X3XF.3X3X3XH.3X3XF.3X3X3X3Xf.! p > 3 3 g i.H.H.3X6Xl.c , Y.~.j - 5.5X3XF.A.B.B.A.F.3X3XF.F.F.F.3X3X3X3X3X3X3X3XF.3X",
"3X3X3X3X3X3X3X3XF.H.H.F.5X3X3X3XF.3XD.l.#.z 2 $ $ $ I Z.3X3X3X3Xn.E , Q (.Z 4 u.5X3XF.F.A.A.<X5X5X<XB.B.B.A.F.3X3X3X3XH.H.3X3X3X",
"3X3XH.3X3X3XH.3X5XH.F.H.F.3X3X3XH.F.l.W z e 3 $ $ $ 4.H.H.3XH.3XA.%., E ^.T f p.6X3XF.3XF.F.3X3X3XA.N.M.N.B.A.3X3X3X3X3XH.3X3X3X",
"3X3X3X3X3X3XF.3XH.F.D.F.F.H.H.F.H.n.*.x 2 # # # $ H n.H.3X3X5X3X5X5.i T ^.E f s.6X4X3X3XF.5X3X3XF.A.B.N.N.C.A.3X3X3X3XF.F.3X3X3X",
"3X3X3X3X3X3X3X3XH.D.V.V.D.F.F.F.H.f.+.m # # $ $ $ @.H.H.H.3XF.3X6Xf.x x 0.^ J l.6X4XF.3X5XF.F.F.F.D.A.A.A.A.F.3X3X3X3X3X3X3X3X3X",
"3X3X3X3X3X3X3X3XF.D.D.Z.D.F.F.H.V.y.O.w # $ $ $ g f.5X3X3X3X3X3X3Xb.E h 0.( ^ x.5X3X3X3XH.3X3X3XF.<X3X3X3XF.3X3X3X3X3X3X3X3X3X3X",
"3X3X3X3X3X3XA.A.D.D.D.D.F.F.H.H.%X+.u 2 # $ $ s 5.3X3X3XF.3XF.5X3X5X%.x 6.( 3.:X4X4X3X3XF.3XH.4XF.F.3X3X3X3X3XF.3X3X3XH.3X3XH.3X",
"3X3X3X4X3X3XA.N.B.A.3X7XF.F.F.m.=.u $ # $ $ d 4.F.H.F.H.3X3X3X3X5X6X*.h 6.2.5.:X4X4X3X3X3X3X3X4X4X3XF.3X3X5XH.H.3XF.3XF.3XH.F.H.",
"3X3X3X3X3XF.F.A.V.F.3X5XA.A.D.{.C # # # $ 6 @.D.H.F.F.5XH.F.3X3X3X6X4.j &.3.].7XS.3X3X3X3X3X3X3X4X3X3X3X3X5XH.3X3X3X3X3X3X5X3X3X",
"3X4X4X3X3X3XF.3XF.3X3X3XA.N.n.;.# # # # $ K f.H.5XF.5XF.F.H.F.5X3X6X5.l ( q.z.5X4X4X3X4X3X3X3X3X3X3X4X3X3X3X4X4X3X5XF.3XF.3X3X3X",
"3X4XF.3X3X3X3X3XH.F.F.F.A.C.f.$.# # # # g u.D.H.F.5XF.5X5X5XH.H.5X6Xw.f ( r.c.4X4X4X3X3X3X3X3X3X3XH.4XF.F.3X3XF.H.F.3X3X3XH.5XF.",
"3X3X3X3X4X3X3X3X3XF.F.3XD.Z.d.x O X X & w.3X3X3XF.3X3XH.F.H.F.5X3X6X@XE ^ 5.p.A.4XS.4X4X3X3X3X3X4XH.3XF.3XH.3X3XH.5X3X3XH.3X3X3X",
"3X3X4X4X3X4X3X3X3X3X3X3X3X:X;.# X X % w.5X4X3X3X3X3XF.H.F.F.F.F.3X3Xn.U F L Y m.4X3X3X4X3X3X3X3X3X3X4X3X3X3X3X3XF.F.H.3X3X3X3X3X",
"3X3X3X4X3X3X3X3X3X3X3X3X5Xb.g X @ & 2.<X4X3X3X3X3XH.5XF.F.F.F.5X5X5X2X@.    ( :XG.3X3X3X3X3X3X3X3X3X4X3X3X3X3X3X3X4X3X3X3X3X3X3X",
"3X3X3XF.3X3X3X3X3X3X3X3X2Xs.F * & 3.Z.5X3X3X3XF.3X3XF.3XH.F.F.F.3X5X6X5.D D / ].,XF.G.G.3X3X3X3X3X3X3XF.F.3X3X3X3X3X3X3X3X3X3X3X",
"3X3X3X3X4X3X3X3X3X3XF.2X$X'.3.P ` #X6XH.F.4X3X3X3X3X3X3X3X3X>XS.>X<X2Xr. .X./.XXOX8X8X$X7X4X3X3X4XF.3X3X4X3X3X3X3X4XF.H.3X3X3X3X",
"3X3X3X3X3X3X4X3X3X3XH.>X{.'.a.8.q.2X4X4X3X3X3X3X3X3X3X3X3X3XS.N.B.S.-X|.).}.oXXXXXXX X}.;X3X3X3X3X3X3X3X3X4X3XF.3XH.3X4X3X3X3X3X",
"F.3X3X3X3X3X3X3X3X3XH.<X-X{.'.r.r.:X5X4X3X3X3X3X3X4X4X3X3X<X<XA.A.S.,X|.).).).).).|.@X#X7X4X4X3X3X3XF.3X3X4X3X3X3X3X3XF.3X3X3X3X",
"3X3X3X3X3X3X3X3X3X3X5XF.F.:Xk.r.r.@X5XF.F.4XF.4X3X3X3X3X3X4X3X<X3XF.3X-X#X@X#X#X#X>X6X4X4X4X3X3X4X3X3X3X3X3X3X3XF.3X3XH.3X3X3X3X",
"3X3X4X3X3X3X4X3X3X3X3X3XG.F.Z.a.7.).+X<X3X3X3X3X3X3X3X3X3X3X3X4X4X3X3X<X3X3X<X3X3X3X3X3X3X3X3X3X3X3X3X3X3X3X3X3X3X3X3X3X3XF.3X3X",
"3X3X3X3X3X3X3X4X3X3X3X3X4X4X3X>Xs.8.7.k.4X3X<X3X3X3X3X3X3X3X3X3X3X4X3X3X3X3X3X3X3X3X3X5X3X3X3X3X3X3X3X3X3X4X3X3X3X3X3X3X5XH.5X3X",
"3X3XF.H.3X3X3X4X3X3X4X3X4X<X3X3X<XA.S.>X3X3X3X3X3X3X3X3X3X3X4X4X3X3X3X3X3X3X3X3X3X3X3X3X3X3X3X3X3X3X3XF.4X3X3X3X3X3X3X3X3X3XF.5X",
"5X4X3X3X4X4X3X3X7X3X3X3X4X4X3X4X3X4X3X7X3X3X3X4X3X3X4X3X3X4X4X4X4X3X3X3X3X4X3X3X5X5X4X3X5X5X5X5X3X3X5X5X5X3X3X3X4X3X5X5X3X3X3X3X"
};
