/* XPM */
static char *result[] = {
/* columns rows colors chars-per-pixel */
"64 64 219 2 ",
"   c #013633",
".  c #033B35",
"X  c #043D3C",
"o  c #0C3F38",
"O  c #223C35",
"+  c #04423B",
"@  c #0B443D",
"#  c #1C463A",
"$  c #4A523E",
"%  c #093E41",
"&  c #044543",
"*  c #094443",
"=  c #054A46",
"-  c #0B4B44",
";  c #05464A",
":  c #054C4B",
">  c #094C4B",
",  c #154943",
"<  c #144C4B",
"1  c #06524D",
"2  c #0C524D",
"3  c #11524B",
"4  c #1B5348",
"5  c #054E52",
"6  c #074F53",
"7  c #045353",
"8  c #0B5453",
"9  c #055955",
"0  c #0B5956",
"q  c #03555B",
"w  c #045C5C",
"e  c #0A5C5A",
"r  c #175754",
"t  c #204B48",
"y  c #275A4B",
"u  c #325F4C",
"i  c #265D55",
"p  c #04615E",
"a  c #09665E",
"s  c #1E6556",
"d  c #3A624A",
"f  c #27655C",
"g  c #336757",
"h  c #035B62",
"j  c #075B64",
"k  c #046463",
"l  c #096664",
"z  c #056966",
"x  c #0B6A65",
"c  c #036569",
"v  c #046C6A",
"b  c #0C6B69",
"n  c #176E66",
"m  c #04726D",
"M  c #0D7068",
"N  c #047572",
"B  c #0A7673",
"V  c #037B75",
"C  c #087975",
"Z  c #047D7A",
"A  c #167C79",
"S  c #396E68",
"D  c #27786B",
"F  c #377666",
"G  c #277B76",
"H  c #475749",
"J  c #685D47",
"K  c #50694C",
"L  c #496A56",
"P  c #576657",
"I  c #4A7358",
"U  c #587554",
"Y  c #6E6E4C",
"T  c #657C57",
"R  c #7C7552",
"E  c #46756B",
"W  c #557C66",
"Q  c #AF764D",
"!  c #AC7B58",
"~  c #B87E59",
"^  c #817B65",
"/  c #B57F62",
"(  c #05837D",
")  c #08847A",
"_  c #17857B",
"`  c #2A8676",
"'  c #66825B",
"]  c #77875B",
"[  c #478268",
"{  c #578D74",
"}  c #4D997B",
"|  c #599175",
" . c #658A66",
".. c #758962",
"X. c #66946D",
"o. c #779469",
"O. c #668576",
"+. c #669D77",
"@. c #6BA67E",
"#. c #78A57A",
"$. c #918E5D",
"%. c #BC8157",
"&. c #8D8466",
"*. c #89846C",
"=. c #889767",
"-. c #999767",
";. c #8C8A79",
":. c #869D71",
">. c #919173",
",. c #B48667",
"<. c #B08F71",
"1. c #86A879",
"2. c #9AA975",
"3. c #99B179",
"4. c #AAA76B",
"5. c #B6AD6E",
"6. c #A6AB73",
"7. c #B6A978",
"8. c #AAB479",
"9. c #B4B273",
"0. c #BBB473",
"q. c #BABA7A",
"w. c #C48455",
"e. c #C5976F",
"r. c #CB9976",
"t. c #D0AB6F",
"y. c #C8A57A",
"u. c #C7B778",
"i. c #D7B979",
"p. c #CEC076",
"a. c #CCC27B",
"s. c #D5C277",
"d. c #DAC57B",
"f. c #DDCA7D",
"g. c #E3C36F",
"h. c #E4C473",
"j. c #E8C775",
"k. c #EACA76",
"l. c #E5C579",
"z. c #E3CB7C",
"x. c #EDCD7A",
"c. c #F0CF7C",
"v. c #E6D07E",
"b. c #EED17D",
"n. c #F4D47E",
"m. c #F9D77F",
"M. c #F9D87F",
"N. c #047E83",
"B. c #078883",
"V. c #068A83",
"C. c #128684",
"Z. c #07928B",
"A. c #1C938A",
"S. c #059A94",
"D. c #0AA49D",
"F. c #17A79A",
"G. c #10ABA1",
"H. c #4B9788",
"J. c #509A90",
"K. c #6A9D88",
"L. c #44AA95",
"P. c #50A890",
"I. c #58BD9B",
"U. c #64B193",
"Y. c #32C3B5",
"T. c #8D9183",
"R. c #A8988C",
"E. c #A19E93",
"W. c #90AE91",
"Q. c #B9AC89",
"!. c #A8BA87",
"~. c #A5A499",
"^. c #B1A691",
"/. c #A8B79B",
"(. c #ACB0A1",
"). c #C39D87",
"_. c #CCA58D",
"`. c #D9A885",
"'. c #C8B78A",
"]. c #D7BC89",
"[. c #C7BB95",
"{. c #DEBA97",
"}. c #E4B797",
"|. c #CEB9AD",
" X c #8FC48E",
".X c #93C590",
"XX c #A6C68C",
"oX c #AAD09A",
"OX c #9AC8AD",
"+X c #B8C4AB",
"@X c #C9CA86",
"#X c #D4CA87",
"$X c #DDC981",
"%X c #D6D28A",
"&X c #CCD19B",
"*X c #E4CE81",
"=X c #E8CE8A",
"-X c #E3D282",
";X c #EDD283",
":X c #F6D680",
">X c #F8D780",
",X c #F7D881",
"<X c #FAD981",
"1X c #F3D589",
"2X c #F1D18E",
"3X c #F8D98F",
"4X c #E7C597",
"5X c #E9D391",
"6X c #DECDA4",
"7X c #DAD2B3",
"8X c #E2C7A8",
"9X c #F5D4A8",
"0X c #EAD2BC",
"qX c #E8E0B0",
"wX c #BFDCC3",
"eX c #D3DEC2",
"rX c #E5D7C8",
"tX c #CEE5C7",
"yX c #E9F4D5",
/* pixels */
"M.>Xm.m.:X,Xm.:X,X>X:X:Xn.>Xn.>X:Xm.m.:X:Xm.:X:X:Xm.:X:X>X>Xn.>X>X>X>X>X>X:X>X>X:X>X>Xm.m.m.,Xm.,X>Xm.m.m.m.m.m.m.m.M.:X,XM.m.:X",
":X:X:X:X:X:X:X:X:X:X:X:X:X:Xc.c.b.:X:X:X:X:X:X:X:X:X:Xm.:X>X>X:X:X:X:X:X:X:X:X>X:X:X:X:X:X>X:X,X:X:X:X:X:X:X:X:X:X:X:X:X:X:X:X:X",
":X:X:X:X:Xn.:X:X:X:Xm.n.:Xn.x.k.k.n.:X:X:Xn.:X:X:X:X:X:X>X>X>X>X:X:X>X:Xn.:X:X:X:X:X:X:X:X:X:X:X:X:X:XM.:X:X:X:X:X:X:X:Xn.m.,Xm.",
"m.m.:X:X:X:X:X:X>X:Xn.n.:Xc.c.x.x.n.n.n.:X:X:X:X:X:Xm.:X>Xn.n.n.:X:X:X:X:X:X:X:X:X:Xn.:X:X:X:X:Xn.:X:X:X:X:X:X:X:X:X:Xm.:X:X:X:X",
":X:X:X:Xm.:X:X:X:X:Xn.x.j.x.c.:X:X:Xn.:X:X:X:X:Xn.:X:X:X,X1X2X2X>X:X:X:X:X:X:X:Xm.:X:X:X:X:X:X:XM.:X:X:X:X:Xn.n.:X:Xn.:X:X:X:X:X",
":X:X:X:Xm.:X:X:X:Xn.n.k.j.k.;X:X:Xn.b.n.:X:X:X:X:X:X:X;X5X6X7X8X2X,X:X:X:X:X>Xn.:X:X:Xm.:X:X:X:X:X:X:X:Xn.x.n.n.:X:X:Xn.:Xm.m.:X",
":X>X:X:X:X:Xn.:X:Xn.n.x.x.x.:X:Xn.x.j.j.x.c.:X:X:Xm.;X'.^.|.rXrX7X5X:X:X:Xm.:X:X:X:X:X:X:X:X:X:X:X:X,Xn.x.j.x.n.:X:X:X:X:X:X:X:X",
":X:Xm.:X:X:X:X:X:X:X:X:X:X:X:X:Xx.h.h.g.l.c.1X:X:X,X].R.)._.8XrX0X6X;Xm.:X:X:X:X:X:X:X:Xn.:X:X:Xn.;Xn.n.x.x.n.n.n.:X:Xn.:Xm.:X:X",
":X:Xn.:X:Xn.:X:X:X:X:X:X:X:Xn.b.x.j.h.h.j.;X:X:X:X,XQ.<.`.`.}.9X6X[.2X>X:X:X:X:Xn.:X:X:X:Xn.:X:X:Xc.x.x.x.;X:Xb.n.:Xn.n.n.n.,Xn.",
":X:X:X:X,X,X:Xm.:Xm.:X:X:X:Xm.n.n.x.x.x.c.;X:X:Xn.1X'.<.e.r.r.`.).Q.=X>X:X:X:X:X:X:X:X:X:X:X:X:Xx.k.j.x.:X,X:X:Xb.b.n.n.,XM.m.,X",
":Xn.:X:Xm.m.n.:Xn.:X:X:X:X:X:Xn.n.:X:X:Xn.:X:X:X:X:Xi.,.! ! ~ ! r.].;Xm.:Xm.m.:X:X>X:X:X:X:X:X:Xn.x.x.x.:X1X:Xx.j.j.k.n.:X:X:X:X",
":X:X:X:X:X:X:X:X:X:X:X:X:X:X:X:X:X;X:X:X:X:X:X:X:X>X`./ ~ / / ~ r.;Xm.:X:X:X:X:X:X:X:X:X:X:X:Xn.:X:X:X:X>X:Xb.h.g.h.k.n.:X:X:X:X",
":XM.:X:X:X:X:X:X:X:X:X:X:X:X:X:X:X:X:X:X:Xm.1X1X%XW.W R w.~ %.w.{.qX1XM.m.m.:X:X:X:X>X:X:X>X:X:X:X:X:Xm.:Xn.x.j.l.j.k.x.:X:X:X:X",
"n.,X:Xm.:Xm.m.:Xm.m.:X:X:X:X:X:X:Xm.:X:X>X:X&XtXeX(.E H Q Q Q ! I.Y.Y.oX;X:X:Xn.:X:X:X:X:X:X:X>X:X:X:X:X:Xc.n.x.k.x.x.:X:X:X:X:X",
":X:X:XM.:X:Xn.:X:X:X,X:X:X:X:X,Xm.:Xm.M.;X7XyXtXW.S 0 t Y ~ ~ { Z.D.D.F. X;X:Xn.c.c.n.:X:X:X:Xn.:X:X:X:X:Xn.n.:X:X;X;X:X:X:X:X:X",
":X:X:Xn.:X:X:Xm.:X:X:X:Xn.,X,X:Xm.m.m.v.oXyXwXJ.j q 6 ; # $ H n Z.C.C N A.XXn.x.x.x.c.m.n.>X:X:X:X:X:X:X:X:X:X:X:X:X:Xn.:X:X:X:X",
":X:X:Xn.:X,Xm.:Xm.:X:Xn.:X:X:X:X:Xm.1X&XOXOXA.N h q % % 6 < t r a x k k ) } a.n.x.b.n.n.n.:Xm.:X:X:X:X:X,X:X:X:X:X,X,X:Xm.,Xm.n.",
":X:X:X:X:X:X:X:X:X:X:X:X:X:X:Xm.:X>X@XW.+XF N c h q q q ; < < 8 e p k w m _ 3.b.n.n.n.n.m.n.:X:X:X:X:X:X:X:X:X:X:X,X:Xm.n.n.:X:X",
":X:X:X:X,Xn.:X:X:X:X:X:X:X:X:X:X:X;X!.U./.7 h q q q q 5 6 < 8 0 w p e w v v F u.:X:Xm.b.b.n.n.:X:Xn.:X:Xn.:X:Xm.:Xm.:X:X:X:X:X:X",
"m.:X:Xn.:X:X:X:Xm.:X:X:X:Xm.m.:X:Xa.K.W.K.q q q q q q 5 6 8 8 0 w p p 7 l a 0 6.<X:Xb.k.j.j.n.:X:X:X:X:X:X:X:X:X:X:X:X:X:X:Xn.:X",
":X:X:X:X,X:X:X:Xn.:X:X:X:Xm.:X>Xv.K.H.+XF 5 q q q 8 f i i r 8 e e w w q l e 0 6.<X:Xk.h.h.j.b.:X:X:X:X:X:Xm.:X:X:Xm.:X:X,X:X:X:X",
":XM.:X:X:X:X:X:X:X:X:X:X:Xm.:X:XXXA J.W.e 6 7 7 q f K.T.{ i 3 9 8 w w h l 0 k 1.:X;Xx.j.j.j.x.:X:X:Xn.:X:X:X:XM.:X,X:X:X:Xm.:X:X",
":Xn.:Xm.:X:X:X:X:X:X:Xm.:X:X:X$XX.c b D q : 5 > 6 i E W L r > 1 q w v v w 5 p +.f.:X;Xx.x.b.n.:X:X:X:Xm.:X:X:X:Xm.:X:XM.:X:Xm.n.",
"n.m.:X:X:X:X:X:X:X:X:X:Xn.c.*X3.b h k k 7 > > > 6 6 r 3 5 < 2 1 w v C v 8 & p ` q.:X:X:X;X:X:X:X:X:X:X,Xn.,X:X:X:X:X:X:X:X:X:X:X",
":X:X:X:X:X:X:X:X:X:X:X:Xx.j.i.P.N.j v v 7 ; * > 8 8 1 1 2 > 2 w m ( ) z > 7 v ( XXn.n.,X:X:X:X:X:X:X:X:X:X:X:X:X:Xn.:X:X:X:Xn.,X",
":X:X,X:X:Xn.:X:Xb.:X:X:Xx.j.a.L.S.h k k 2 < % > 7 8 1 1 2 1 w m N ( V 7 > k m V #.-X:Xn.:X:Xn.,X:X:X:X:X:X:Xn.m.n.:X:X:XM.:Xn.:X",
"m.:X:X:X:X:X:X:Xn.x.k.x.x.x.!.C.Z.B q G  .f ; > 7 8 7 7 q z Z Z.N k n f 0 m m m K.f.m.m.:X,X,X:X:Xn.:X:Xm.n.:Xm.,Xm.n.,X:X:X:X:X",
":X:X,X:X:X:X:X:Xb.h.h.h.c.#XL.N.C.B B { 9.f > > 5 7 q q k A A N k q n ' d 1 p V.| d.m.m.:X:XM.:X,Xn.:X:X:XM.m.:X,Xm.:X:Xm.M.:X:X",
"n.:X:X:X:X:X:X:Xn.j.h.j.:XoXG.v v b l X.u.f : 1 7 7 q q m A A N w e M #.U 7 l B ` XXM.M.m.:X:X:X,Xm.:X:X:X:X:X>X:X:X:X:X:X:Xm.:X",
":X,X:X:Xm.:X:X:Xn.n.b.b.-X1.m c v l g 9.u.g & 1 7 7 9 k m B _ V w l B 3.=.4 : : f 0.M.M.n.,X:X,Xm.:X:X:Xn.:X:X:X:X:X:X:X:X:X:X:X",
":X:X:X:X:X:Xm.n.m.:X:X:X,X8.7 > 8 l I x.9.i - 1 7 7 q m V m B B z z V #.z.4.g M X.p.M.:X:X:X:X:X:X:Xn.:X:X:X:X:X:Xm.:X:X:X:X:X:X",
":Xm.:X:X:X:X:X:X:X:Xn.:X,Xa.g < O./.!.*Xo.2 2 7 q 9 z ( ( m v B z p N @.*Xn.u.'.[.$X,X:X:X:X:X:X:X:X:X:X:X:X:X:X:Xm.:X:X:X:X:X:X",
":X:X:X:X:Xm.:X:X:X:X:X:X>Xz.:.L {.9X9X3X9.s 1 : w m V N m z e b ( z ) 3.,X,Xs.u.{.4X;X,X,X,X:X:X:X:X:X:Xm.:X:X:X:X:X:X:X:Xm.:Xn.",
"n.:Xm.:X:X,X:X:X:X:X:X:X>X:Xc.i.e.}.}.:Xz...: : 1 1 1 7 7 7 - - 1 9  .f.,Xn.b.e.! r.=X<Xm.m.:X:X:Xm.n.:X:X:Xn.:Xn.:Xn.:X:X,X:X:X",
":X:Xm.:Xm.:X:X:X:X:X:X:X>X:X:Xl.,.e.y.2Xv.] X X o + & - 1 - * * & : } #X:X:X,Xi.! t.:X:X:X:X:Xn.,Xn.:X:X:X:Xn.:Xn.m.m.:X:X,X:X:X",
":X:X:Xm.,X:X:X:X:X:X:X:X:X,X:X:Xj.t.i.m.f. .; % % + X X % @ % > w N S. XM.m.m.m.l.x.:X:X:X:X:X:Xm.:X:X:X:XM.:X:X,X,Xn.:Xm.:X:X:X",
":Xn.:X:X:Xm.:X:X:X:X:X:X:X:X:Xm.m.m.m.m.u.f q q : ; 5 5 1 5 w v B.V.S.U.-X>X:X:X:X:X:X:X:X:X:Xn.:X:X:Xn.:X:X:X:X:Xn.n.:Xn.m.:X:X",
":X:X:X:X:X:X:X:X:X:X:X:X:X:X:X:Xm.m.:X>X6.q h m v v C ) m a m B v v V S. X:X:X:X:X:X:X:X:X:Xn.n.n.b.:Xm.:X:X:X:X:Xm.,X,X:X,X:X:X",
":X:X:X:Xm.:Xm.:X:X:X:X:Xm.:X:X:X:X:X:X:X2.q m ( ) ) B a 9 : 1 9 k N V.S.P.%X>X>X:X,Xn.:X:X:Xn.k.j.n.n.m.:X:Xm.n.:X:X:Xn.m.:X:X:X",
":X:X:XM.:X:X:X:X:X:X:X:X>X:X:X:X:X:X:Xb.:.k V a 9 = + d ' u @ 1 9 k Z S.G..X>X:Xx.:X:Xn.:X:Xb.x.x.b.b.n.n.:Xn.m.:X:X:X:X:X,Xn.,X",
":X:X:X:X:Xn.,XM.:X:X:X:X:X:X:Xn.:X:X<Xa.[ m ( V m p 2 =.v.$.# = ; ; 5 v S.I.%XM.n.:X:Xb.x.x.x.b.:Xb.n.n.:X:Xn.:X:X:X:X:X:X:X:X,X",
":X:X:Xn.:X,X:Xn.:X:Xn.:Xm.:X:X:X:X:XM.8.x B B.Z.V.) [ g.M.f.] @ & > 5 q m F.XX<X:X,Xn.b.j.j.x.:X:X:Xn.m.n.n.:X:X:X:X:Xm.n.:X:Xn.",
":XM.:X:Xm.,X:X:X:X:X:X:X:X:X:X:Xm.:X;XT.c ( B.B.N n :.<XM.M.s.U + > : w m Z.I.@X,X:Xn.n.x.x.;X,X,X;Xj.j.h.x.n.:X:X:X:X:Xn.:X,Xn.",
":X:X:X:X:X,Xn.:X:X:X:X:X:Xm.:X:Xm.b.8.G C V.( V m f -.M.n.M.M.6.y + = 1 e ) S.XX,X:X:Xn.n.n.:X,X:Xx.h.g.h.j.c.n.:X:X:X:Xm.:Xm.,X",
":X:X,X:X:X:X:X:X:X:Xx.:X;X:X:X:X:Xh.] 0 v V ) ) _ X.u.M.:X:X,Xb.] - = : : p ( L.@XM.n.:Xn.:Xn.n.n.x.h.h.h.x.x.1X:X:X:X:X:X:X:X:X",
":X:X:X:X:X:X:X:X:X:Xk.j.x.:X:X:X:Xn.0.F 9 k m Z } f.n.n.:X:X:X,Xs.I + : ; : q N 8.M.:X:X,Xn.M.n.n.b.x.x.k.x.:X:X:X:X:X:X:Xm.:X:X",
":X:X:X:X:X:Xn.:X:Xx.k.k.b.:X1X,X:X>X9.1 1 1 1 a o.,X:X:X:X>X:X:XM.6.u + ; & = p 3.<XM.:X:Xn.,Xm.:Xc.:X:X:Xb.:X:X:X:X,Xn.:X:X:X:X",
":X:X:X:X,X:Xx.k.x.x.:Xb.:X:X:X:X:X:X6.: : 1 1 s 2.<X:X:Xm.:X:X:XM.:X=., + & & 7 1.;XM.:X:X:X,X,X:X:X:X:X:X:Xn.:X:Xm.:Xn.:X:Xm.:X",
":X>X:X:X:X:Xx.j.j.x.;X,X:X:X:Xn.n.b.:.; = = = ' v.,XM.,X:X:X:X:XM.,Xp.I + + + 1 1.:Xm.:X:X:Xm.,X:X:X:X:X:X,XM.n.,Xm.:Xm.:XM.:Xn.",
":X:X:X>X:X:Xc.x.j.n.,X,Xx.x.x.j.n.z...& = 1 + ' ,Xn.,Xn.m.:Xn.:XM.M.<X-.4 + + : o.;X:X:X:X:X:X,X:X:X:X:X,X:Xn.,Xn.:X:X:X:X:X:X:X",
":X:X:X:X:X:Xc.:Xm.:X:X:Xk.h.d.g.x.u.I & = 1 @  .<Xn.n.,X:X:X,X,X:X:X<X4.y + + + :.,X:X:X:X:X:X:X:X:X:X:X:X:X:X:X:X:X:X:X:X:X:X:X",
":X:X>X:X:X:X>X:X:Xn.n.n.x.h.h.h.x.0.4 = 1 : 3 o.<X,XM.,X:Xm.m.n.n.:XM.q.d X + + o.-X:X:Xn.:X:X:X:Xm.:X:Xm.:X:X:Xn.M.:X:X,XM.:X:X",
":X:X:X:X:X>X:X:X:Xm.n.b.x.x.l.k.c.5., : 1 & y 2.<X,X:Xn.m.n.M.:X:X:X,X0.d   + + ..*X>X:X:Xn.:X,X:X>X:Xm.:Xm.:X:X,X:X:X:Xm.,X:X:X",
":X>X:X:X:X:X:X:X:X:Xm.:X:X:X:X:Xm.9.- 1 1 : u 9.,XM.m.M.n.n.n.,X:X:X,Xd.K . + + ' z.>X:X:X:X,Xn.:Xm.:X:X:Xn.:X:Xn.n.m.:Xn.:X:X:X",
":X:X>X:X>X:X:X:X:X:X:X:X1X:X:X:XM.0.1 + 1 1 L #X,X:X:Xn.n.n.n.M.:X:X>X:XY   + + T d.>X:X:X:X:X:X:X:X:Xm.:X:X:X:X:X:X:X:X,X:Xn.,X",
":X:X:X>X:X:X:X:X:X:X:X:Xn.:X:X:XM.9.& : 1 : L ;XM.M.:X,Xn.M.n.b.:X1X:X;XU   . . U p.,X:X:X:X:X:X:X:X:X:X:X:Xn.:X:Xm.:X:Xm.:X:X:X",
":X>X>X:X:X:X:X:X:X:XM.:X:Xn.,XM.:X-.% & = 2 ] ,X:X:X:X:X>X>X;Xx.z.:X>X;XP   o . U i.M.m.n.n.n.:X:Xm.:X:X:X:X:X:X:X:X:Xm.:X,X:X:X",
"n.n.:X:X>X>X:X:X:X:X,Xn.:Xn.:X,Xd.T % : - i 6.M.:X:X:X:X:X;Xx.l.l.x.>X;X] o . @ =.c.M.n.M.,X:X:X:X:X:X:X:X:X:X:Xm.:X:X:X:X:X:X:X",
"m.:X:X:X:X:X:X:X:X:Xn.n.:X:Xn.,Xl...o > 9 F u.M.:X:X:X:X:X:X;Xx.x.c.>X>X$.#   T l.>X:X:X:X,X:XM.:X:X:X:X:X>X:X:X:X:X:Xn.:Xm.:X:X",
":X:X:X>X:X:X:X:X:X:X:X:Xm.M.:XM.:X5.,   t :.z.M.:X:X:X:X:X:X:X:X;X>X>X>X4.$ O -.;X:X:X:Xn.n.:X:X:X:Xn.:X:X:X:X:Xm.:Xm.n.:X,X:X:X",
":X:X:X:X:X:X:X:X:X:X:X:X:X:X:X:X,Xu.U P R =X:X:X:X:X:X:X:X:X:X>X>X>X>X=X$.J ^ ^.#X:X>X:X:Xm.1X:X:X:X:X:X:X:X:X:X:X:X:X:X:X:X:X:X",
":X:X:X:X:X:X:X:X:X:X:X:X:Xn.:X:X$XQ.~.E.7.>X:X:X:X:X:X:X:X:X:X:X:X>X>Xu.&.^ R.(.(.Q.*X:X:X:Xm.:X:X:X:X:X:X:X:X:X:X:X:X:Xm.:X:X:X",
":X:X:Xm.:X:X:X:X:X:X:X:X:Xm.b.i.R.~.~.E.7.].>X:X:X:X:X:X:X:X:X:X:X:X:Xu.&.^ *.;.E.~.].1X:X:X:X:X:X:X:Xm.:X:X:X:X:X:X:X:X:X:X:X:X",
",X:X:X:X,X,X,X:X,X:X:X,X:X:Xf.*.*.;.T.;.&.y.>X:X:X>X:X>X:X:X:X:X:X:X:X:X;Xx.;Xd.u.>.i.:X:X:X,X,X,X:X:X:X,X:X:X:X,X:X,X,X,X:X:X:X"
};
