/* XPM */
static char *result[] = {
/* columns rows colors chars-per-pixel */
"64 64 231 2 ",
"   c #1B352E",
".  c #042F36",
"X  c #05343C",
"o  c #093638",
"O  c #053A3E",
"+  c #0B3C3C",
"@  c #173B36",
"#  c #06403E",
"$  c #0C413E",
"%  c #13433D",
"&  c #1B453F",
"*  c #2B4539",
"=  c #4C553B",
"-  c #053C43",
";  c #093D42",
":  c #023E49",
">  c #103D41",
",  c #064245",
"<  c #0B4243",
"1  c #0C4946",
"2  c #05454B",
"3  c #0A454A",
"4  c #054A4D",
"5  c #0A4A4D",
"6  c #124341",
"7  c #1C4445",
"8  c #124B4C",
"9  c #18494B",
"0  c #19514F",
"q  c #024752",
"w  c #044C53",
"e  c #0A4D52",
"r  c #074A58",
"t  c #014C5A",
"y  c #164F51",
"u  c #0B5156",
"i  c #07545A",
"p  c #0B555A",
"a  c #135154",
"s  c #195759",
"d  c #254B44",
"f  c #27524A",
"g  c #35594D",
"h  c #295856",
"j  c #355B55",
"k  c #15635F",
"l  c #2C645A",
"z  c #3B6258",
"x  c #025361",
"c  c #0C5D62",
"v  c #075B68",
"b  c #145A62",
"n  c #09646A",
"m  c #186669",
"M  c #1F6B76",
"N  c #1A7475",
"B  c #2B6869",
"V  c #386766",
"C  c #2E6F71",
"Z  c #26797A",
"A  c #357878",
"S  c #455349",
"D  c #4B5849",
"F  c #56664C",
"G  c #48695A",
"H  c #576A54",
"J  c #536E55",
"K  c #656C54",
"L  c #786E53",
"P  c #697A5B",
"I  c #777B57",
"U  c #466B67",
"Y  c #456C64",
"T  c #566C60",
"R  c #47776A",
"E  c #567766",
"W  c #466D72",
"Q  c #417A74",
"!  c #5A7776",
"~  c #657D67",
"^  c #6B766C",
"/  c #777A63",
"(  c #A6723C",
")  c #8B6B43",
"_  c #896E5A",
"`  c #8E7252",
"'  c #9C7253",
"]  c #9B745E",
"[  c #A37548",
"{  c #B07D46",
"}  c #A87B58",
"|  c #856D63",
" . c #877168",
".. c #997565",
"X. c #907E76",
"o. c #A37D67",
"O. c #77835E",
"+. c #548876",
"@. c #698469",
"#. c #7A8A65",
"$. c #6A8379",
"%. c #7A8A79",
"&. c #6A9075",
"*. c #86875E",
"=. c #9E8B57",
"-. c #96835B",
";. c #B1824F",
":. c #B7895B",
">. c #A1955E",
",. c #868968",
"<. c #8A946A",
"1. c #9C9563",
"2. c #9C986A",
"3. c #858D79",
"4. c #92897B",
"5. c #8C9272",
"6. c #979676",
"7. c #A88667",
"8. c #B38B65",
"9. c #A59F6B",
"0. c #B99768",
"q. c #A49877",
"w. c #BB9071",
"e. c #9FA06F",
"r. c #89A279",
"t. c #97A377",
"y. c #ADA46B",
"u. c #AAA66D",
"i. c #B5A76B",
"p. c #B9AD6F",
"a. c #ABA777",
"s. c #B6A875",
"d. c #B8B377",
"f. c #C3A86B",
"g. c #CCB26B",
"h. c #C3B373",
"j. c #CDBA74",
"k. c #C8B87B",
"l. c #D7BA77",
"z. c #E0BF77",
"x. c #DDC276",
"c. c #D5C27E",
"v. c #DDC37A",
"b. c #E3C36F",
"n. c #E4C473",
"m. c #E8C775",
"M. c #E7C874",
"N. c #EACA76",
"B. c #E3C57A",
"V. c #E5CA7C",
"C. c #EDCD7B",
"Z. c #F0CF7C",
"A. c #EED07D",
"S. c #F4D47E",
"D. c #F9D77F",
"F. c #F9D87E",
"G. c #1A7581",
"H. c #217E81",
"J. c #507D81",
"K. c #2B8083",
"L. c #33898C",
"P. c #3697A1",
"I. c #588885",
"U. c #589588",
"Y. c #4E979B",
"T. c #658784",
"R. c #778B84",
"E. c #76978B",
"W. c #73978F",
"Q. c #70A796",
"!. c #5AAEB0",
"~. c #76B2AD",
"^. c #8E8A85",
"/. c #948E8C",
"(. c #899686",
"). c #9A9C86",
"_. c #899890",
"`. c #A29D89",
"'. c #B59F80",
"]. c #9CA983",
"[. c #91AE8E",
"{. c #ABA484",
"}. c #A5A28B",
"|. c #B5AC89",
" X c #A8B989",
".X c #B5B982",
"XX c #AAA994",
"oX c #B8AC97",
"OX c #A6BE9C",
"+X c #BBB498",
"@X c #8F9DA7",
"#X c #9EA8A9",
"$X c #98A9B3",
"%X c #9DB3B2",
"&X c #A6AAA8",
"*X c #AEB0A4",
"=X c #B2B6AB",
"-X c #B7BAB5",
";X c #C8AC8D",
":X c #CDBB82",
">X c #D5BE83",
",X c #CAB995",
"<X c #A9C399",
"1X c #BEC997",
"2X c #94CAB4",
"3X c #BEC5BE",
"4X c #CCC283",
"5X c #D8C586",
"6X c #DBCA86",
"7X c #DBCC8B",
"8X c #C7C99B",
"9X c #D9C692",
"0X c #C7D09A",
"qX c #DBD291",
"wX c #E3CB83",
"eX c #E7CB88",
"rX c #EDD285",
"tX c #E9D28A",
"yX c #F6D680",
"uX c #F8D780",
"iX c #F6D882",
"pX c #FAD981",
"aX c #F1D188",
"sX c #E9CB91",
"dX c #E6D193",
"fX c #D0D4AC",
"gX c #CBCAB5",
"hX c #B4CCD0",
"jX c #D9DBCE",
"kX c #E9E4CD",
"lX c #DEE4E3",
/* pixels */
"F.uXD.D.uXuXuXuXuXF.yXD.S.uXS.uXD.uXaXaXeXaXaXiXuXuXuXuXuXuXF.iXuXD.uXuXuXF.uXD.uXuXpXD.D.D.uXuXuXiXD.F.D.D.F.D.D.D.F.yXuXF.iXD.",
"yXyXyXyXyXyXiXyXyXyXyXyXyXyXS.Z.aX9XgX3X=XjXgXsXyXyXyXyXyXyXyXyXiXyXyXyXiXyXyXyXS.iXD.yXyXuXyXiXyXyXiXyXyXyXyXyXyXyXyXyXuXyXyXyX",
"yXuXyXyXuXS.yXyXyXyXS.yXyXS.C.m.wX&X/.X.^.-XlXkXdXuXyXyXuXyXS.uXyXyXyXS.S.yXyXyXyXyXyXyXyXyXyXyXuXS.yXS.yXyXyXyXyXyXyXyXiXS.yXyX",
"S.yXyXyXyXyXyXyXyXyXS.S.Z.Z.Z.Z.>X'. .| ^ ^.-XlXkXrXyXuXuXS.iXyXyXyXyXyXuXyXyXyXS.yXyXyXyXyXyXyXiXyXS.iXyXyXyXyXyXyXuXyXS.yXyXyX",
"yXuXyXyXS.uXuXyXS.yXS.C.N.C.Z.S.>Xo...| | | X.-XjXsXiXiXyXyXyXyXuXyXuXS.yXyXyXS.yXyXyXyXyXyXyXyXD.S.yXyXyXyXyXS.S.yXS.yXuXuXuXS.",
"yXuXyXyXyXyXS.iXyXyXA.N.m.C.S.yX>X..] .._ ' ] 4.-XdXiXiXuXyXuXS.yXyXyXiXyXyXS.iXyXyXyXS.yXyXyXyXS.iXyXyXS.Z.S.S.iXyXyXyXyXS.uXuX",
"uXyXS.yXyXiXS.S.yXyXS.C.C.C.yXiXB.o.} } } } ' | (.qXpXpXuXuXyXiXyXyXS.F.S.uXuXiXS.yXyXyXyXyXyXyXyXyXyXyXC.N.C.S.S.iXyXyXS.iXyXyX",
"yXyXuXyXyXS.uXiXyXS.yXyXyXyXyXyXl.o.:.:.} } ' K I.fXfX1X7XF.D.S.yXyXiXiXuXS.iXS.yXyXyXyXS.yXyXyXS.yXyXA.C.C.C.S.S.S.uXS.uXS.yXyX",
"D.iXyXyXyXyXS.iXyXyXyXyXyXyXS.S.V.f.} { } [ ) D J.hXhX~.Q.<XdXpXS.uXuXiXyXyXyXyXyXyXyXS.yXyXyXyXZ.Z.N.Z.C.yXS.rXS.yXS.S.S.uXiXS.",
"S.S.iXyXiXF.uXS.yXyXiXS.yXyXS.S.S.V.f.[ { ( ) S h W.$X%XY.L.Q.9XiXuXF.S.yXyXyXyXyXyXyXuXS.yXyXyXZ.C.m.N.rXiXyXyXS.S.S.S.S.S.S.iX",
"iXS.yXyXS.uXyXyXS.yXyXyXS.iXiXS.S.uXwX8.[ [ ) * 3 s W _.=XT.C H.W.OXqXD.yXyXyXiXyXuXyXyXyXyXyXyXS.C.C.rXiXiXyXN.n.M.C.S.iXS.uXS.",
"S.iXyXuXS.yXyXD.uXyXyXyXiXiXS.yXS.S.rXV.l.0.K @ 3 r q h ^.*XJ.b v M U.OXtXyXyXiXyXyXuXyXyXyXyXyXyXS.yXyXuXyXA.m.b.n.M.S.yXiXiXuX",
"D.uXyXyXyXyXyXiXuXuXyXS.S.S.iXuXyXyXyXuXpXq.f > y r 2 2 h (.*XR.b q v H.~.8XaXpXyXyXyXyXuXyXyXyXS.uXuXS.S.S.C.m.z.n.N.C.yXyXyXyX",
"S.uXyXD.uXD.yXS.yXS.yXyXiXyXS.iXyXyXyXuXV.#.r 3 u p 4 2 2 0 R.J.r q q x G.!.0XpXyXyXyXyXyXuXuXyXyXS.yXyXyXS.S.C.C.C.rXyXyXyXS.yX",
"uXyXyXS.yXyXS.yXuXiXuXyXuXS.uXuXyXyXyXF.h.j r a p u e 2 2 2 y a q q q q x H.~.qXZ.S.yXuXS.S.uXS.yXyXyXuXyXS.S.S.S.S.yXyXuXyXyXyX",
"yXyXyXuXuXS.iXyXS.D.yXyXiXyXyXyXyXyXyXiXs.6 5 u p u e 4 2 2 3 2 q q q q r x P.2X7XN.Z.S.yXyXuXyXyXyXyXyXyXS.yXyXyXyXyXS.yXyXyXyX",
"yXyXyXS.iXyXuXyXuXyXyXS.yXuXuXuXuXyXuXC.,.- 3 e B V r r 3 3 3 2 4 2 q q q t n P.OXv.S.S.S.yXD.yXyXyXyXyXuXiXyXyXiXiXiXS.F.iXS.S.",
"yXS.yXyXS.yXiXyXuXS.yXyXyXyXuXS.yXS.V.-.> ; - y W ! s 3 2 3 2 , : 2 4 q q q t v P.1XS.S.S.S.yXyXyXyXyXyXyXyXyXyXuXS.uXuXS.yXiXuX",
"iXyXyXyXiXuXS.iXyXyXS.uXyXuXuXuXyXwX,.> - - - < V W e e 5 2 - - - 5 r q q q r t n W.6XS.S.S.S.uXuXS.yXyXS.uXyXyXiXyXuXS.D.S.S.uX",
"S.uXyXD.S.S.uXS.uXuXuXuXuXS.S.pXV.#.s - X ; ; ; 5 e e e 5 : - - - s b q 2 2 4 q i +.4XN.N.N.Z.yXuXS.yXiXiXS.yXyXD.S.yXyXyXiXS.iX",
"D.uXyXyXuXyXuXyXuXuXuXS.S.F.rX4X6.r - - X X o ; 5 u u e , - O - - b m e e 2 2 q t A k.M.n.m.Z.yXyXyXiXD.S.S.D.yXyXD.S.iXuXyXyXyX",
"yXS.iXuXiXyXyXyXuXaXsXwXV.p.[.U.H.: - - . X ; ; ; e r 2 - - , - O m m c b e q 4 i &.c.M.n.m.Z.yXyXyXuXS.iXuXS.iXyXiXuXuXyXyXyXuX",
"yXyXyXS.yXyXyXyXZ.l.,X;X,X+.m N B : - . . . X > ; r e 2 - - , - - c c x Z W j h G d.A.A.Z.Z.aXyXyXyXyXiXS.yXS.yXyXS.yXS.yXyXS.D.",
"F.S.yXyXyXyXyXyXZ.w.w.8.s.G - 5 : ; ; > @     7 6 3 5 - - - 3 2 2 m Z H.L.t.-.L 7.B.S.S.rXyXyXyXyXyXiXS.uXiXuXuXyXyXyXuXyXuXyXyX",
"yXS.yXyXyXyXyXyXC.0.} ;.=.  + # > > F -.1.>.>.1.H 3 5 , ; ; 3 - 2 m K.N +.1.} ] 7.l.uXuXyXyXyXyXS.yXiXyXyXD.F.iXyXiXS.uXuXuXS.iX",
"iXyXyXyXyXS.yXyXS.l.l.l.g.I * * K 1.j.yXpXpXpXuXy.f u 3 ; 3 ; , , w u y #.i.} } 8.l.uXuXyXyXyXyXiXyXS.yXS.iXS.uXD.S.iXS.S.iXuXS.",
"S.yXyXuXyXS.uXiXS.Z.N.Z.C.v.i.i.l.rXiXyXyXyXyXpXh.g a 8 < ; < # 1 1 4 G h.m.0.} :.m.yXiXyXiXyXuXS.uXyXyXiXS.yXS.iXyXS.iXuXS.iXyX",
"yXyXyXuXyXyXyXyXS.m.b.m.C.yXuXyXD.yXyXyXyXyXyXuXj.J a y 6 < 6 + # , 4 A d.D.m.f.l.S.uXF.yXyXuXyXuXS.yXyXuXF.S.yXS.D.uXuXS.F.iXS.",
"yXuXyXyXyXyXyXyXZ.M.n.M.S.yXyXA.C.C.Z.S.S.D.uXuXn.I 0 y < ; + & g l 4 Z  XZ.uXZ.S.yXyXS.yXyXyXyXiXuXyXS.uXyXyXuXuXS.yXyXuXyXyXyX",
"yXiXyXyXS.yXyXyXS.S.S.S.yXyXS.N.n.b.n.C.yXyXyXyXA.1.d 8 # O 9 / 5.l 4 N r.v.uXyXuXS.yXiXiXyXyXyXS.uXS.iXS.yXyXyXyXyXiXyXuXyXuXS.",
"yXuXyXyXyXyXyXD.D.D.S.S.yXS.A.M.n.z.b.C.rXyXyXyXF.v.O.8 < # G {.~ 3 4 n r.S.uXyXyXyXuXS.S.uXyXyXyXyXuXuXuXyXyXyXuXS.yXyXyXyXuXyX",
"yXD.yXyXyXyXyXS.S.S.D.S.yXA.A.C.m.m.N.Z.Z.uXyXyXS.pXu.9 2 9 3.).z 4 u k 6.S.yXyXyXyXuXyXyXuXyXyXyXD.yXuXyXyXyXyXuXuXyXyXyXyXuXyX",
"uXS.yXyXS.S.yXuXyXyXyXyXyXS.S.yXZ.rXC.yXyXyXyXyXuXB.*.3 : T OX@.8 u i B d.F.S.F.uXS.uXyXyXyXuXyXS.uXyXyXyXuXyXyXyXyXyXyXyXiXS.uX",
"S.iXS.yXuXiXyXS.yXyXyXyXyXyXS.yXuXyXyXyXyXuXyXS.n.*.> 2 j ).r.l w u i C .XS.S.S.iXF.yXuXuXyXyXyXuXyXyXS.yXF.S.yXyXD.yXyXyXS.yXiX",
"iXiXyXyXiXD.yXiXiXS.yXyXyXyXyXS.S.uXyXyXyXyXuXx.L 7 2 f 3.}.G 4 w c c H.[.A.F.S.iXS.yXyXyXyXyXyXS.S.yXyXiXS.D.iXS.S.F.uXiXuXyXyX",
"F.S.uXF.S.iXuXyXiXS.yXyXiXyXyXyXS.uXyXyXyXyXZ.1.d q 5 $.].G # 4 p i i n +.4XF.iXS.yXyXyXyXyXS.yXuXiXyXyXuXS.yXyXiXS.yXyXD.S.iXS.",
"yXyXyXyXyXuXuXyXS.uXyXyXuXiXiXyXuXyXyXyXuXiXp.g : q U (.E 1 4 w i w i i K..XF.F.yXyXyXS.S.F.F.F.yXiXS.yXyXyXyXyXyXyXD.S.S.yXF.iX",
"iXS.yXyXyXyXyXuXiXS.yXyXS.yXS.D.yXyXyXyXuXj.J : 3 j $.! a 4 l l 1 , w i n r.A.F.yXyXyXyXiXF.A.A.S.S.yXyXyXyXyXyXyXyXyXiXyXuXyXyX",
"yXyXyXyXuXS.yXyXiXuXyXyXuXyXS.yXyXyXyXuXN.,.: 6 U %.E 8 2 G d.u.g # 1 k n +.c.F.yXyXS.iXiXiXA.A.N.S.S.S.S.yXS.S.S.uXS.yXD.iXyXyX",
"yXyXyXD.yXuXyXS.D.S.iXS.yXuXuXuXyXyXyXuXh.g : h ).%.6 y @.j.F.S.O.$ $ u n L.<XS.iXiXS.S.S.A.A.A.N.Z.S.S.S.yXyXS.yXiXyXyXyXS.yXyX",
"yXyXyXyXS.yXyXyXyXyXuXuXyXyXyXyXyXyXyXpXi.# , E _.U 5 @.v.uXS.pX9.f % $ 1 N Q.6XF.iXF.A.C.C.C.A.S.S.S.S.yXS.yXyXyXyXyXS.uXyXyXyX",
"yXyXyXyXiXF.S.yXyXyXyXS.S.yXuXyXyXyXiXuXp.9 y ^ E.s a 5.pXS.iXuXx.J 6 6 $ u C t.S.F.F.A.M.M.C.S.yXS.S.S.S.S.yXyXyXyXyXuXyXuXiXS.",
"S.yXyXyXuXS.yXyXS.uXuXyXyXyXS.yXuXD.yXuXj.j h E.$.e s e.pXuXiXuXpX*.% 6 % 1 k V e.V.F.A.A.C.A.iXiXC.N.N.m.C.S.uXS.yXS.yXF.S.S.iX",
"iXD.yXD.yXiXS.iXyXyXyXyXyXyXuXyXS.iXyXD.v./ h /.&.4 G c.pXF.S.uXpXp.g % % $ % k Y e.V.F.F.rXiXiXiXC.n.b.n.m.Z.S.iXyXyXyXD.iXuXS.",
"yXyXyXyXuXyXS.yXyXS.S.Z.S.yXyXyXyXyXyXuXv.O.j (.$.4 @.F.S.yXiXyXF.S.O.$ % $ 1 4 m E c.S.S.S.iXS.yXC.B.n.m.N.Z.rXyXyXyXD.yXS.yXyX",
"yXyXyXuXuXyXyXyXyXZ.N.N.A.yXyXyXS.S.S.D.V.O.G }.E 5 #.F.uXyXS.yXF.pXy.f @ % $ # k N a.S.S.F.F.S.yXC.C.N.V.N.yXyXyXyXuXyXuXyXyXuX",
"yXyXyXyXyXyXyXyXyXZ.C.N.S.S.S.yXyXyXuXuXZ.<.J ).R h e.pXuXyXiXyXiXF.v.P $ % % $ 1 N &.c.F.F.S.S.S.rXyXyXS.yXyXuXyXyXuXyXS.yXyXyX",
"yXyXyXyXyXyXZ.N.C.V.yXC.yXS.yXS.yXS.S.uXS.9.^ ).Y E rXuXS.yXuXuXF.iXiXd.F % % % # w H.[.V.F.iXiXS.yXyXyXyXyXyXyXyXS.S.iXyXyXyXyX",
"yXuXyXuXyXyXC.m.M.C.yXaXS.S.S.S.S.uXyXyXyXi./ 6.z E eXF.uXyXuXS.iXS.iXS.p.D % % $ , 5 Q 4XiXF.iXuXyXyXS.iXF.iXS.iXF.S.F.yXS.uXyX",
"yXyXyXyXyXyXZ.C.N.S.iXiXS.N.N.C.Z.yXyXyXuX:X2.6.j @.iXD.S.yXS.iXS.iXS.iXiX2.g % $ $ $ a ].iXS.iXuXyXyXuXiXuXS.uXS.iXyXD.yXuXyXyX",
"yXuXyXuXyXyXZ.yXS.yXyXyXC.n.x.b.N.Z.yXyXyX5Xq.,.g #.iXyXD.yXS.iXF.iXS.F.F.6X@.* % $ # # Q 4XiXS.yXyXyXuXiXS.uXuXS.iXS.yXS.iXuXyX",
"yXyXyXyXyXyXuXyXyXS.S.S.C.n.n.n.m.rXyXyXuXB.s.,.g #.iXyXiXuXuXS.iXS.iXS.iXF.h.J % $ # # l .XrXiXuXS.D.yXS.yXyXS.S.uXuXiXuXuXS.yX",
"yXyXyXyXuXyXyXyXyXS.S.S.A.N.N.V.C.yXyXyXS.h.7. .z 6.pXF.F.S.iXS.iXyXyXiXS.S.pXk.F $ o o 8 r.rXF.yXuXyXS.yXyXyXyXS.iXD.iXF.iXyXyX",
"yXyXuXS.yXuXyXyXyXyXyXyXS.yXyXyXyXuXyXyXC.>.F K G d.F.S.F.S.S.yXiXS.iXS.iXS.uXpXp.D $ o o G c.F.S.uXuXyXyXyXyXyXiXD.S.S.yXyXS.yX",
"uXyXyXyXuXyXyXyXyXyXyXyXyXyXuXyXiXS.yXF.rX2.    F 6XiXS.S.F.S.yXiXiXyXS.iXiXS.F.iXu.= % . & a.aXuXyXyXyXyXyXyXyXD.yXyXyXiXuXiXS.",
"yXyXuXyXyXyXyXyXyXyXyXyXyXyXyXyXS.F.F.rX,X3.S S O.rXS.iXS.S.S.S.aXyXyXuXF.S.iXS.S.S.p.= = D 6.7XyXyXyXyXS.uXyXyXuXS.yXyXuXS.yXiX",
"yXyXuXyXyXyXyXyXyXyXiXyXS.S.F.yX,X9XgX-X$X@X^. .6.sXuXuXyXyXrXC.C.rXyXyXyXyXyXyXyXiXyX] L ` `.+X7XyXyXuXyXuXyXyXuXyXyXS.yXuXuXiX",
"yXyXyXyXuXuXyXyXyXyXF.S.iXS.iXsXoX#X$X$X$X&X#X`.XX>XS.yXaXyXN.B.m.Z.yXyXyXyXyXyXyXuXyXs.-.q.{.|.5XyXyXyXyXuXyXS.yXyXyXuXiXS.yXyX",
"S.yXyXyXyXyXyXyXyXyXS.S.yXyXiXaXeX:XoX`.).`.}.}.oX>XuXyXuXyXZ.C.C.Z.uXuXyXyXyXyXuXS.eXs.{.{.|.:XaXuXS.yXyXuXyXyXuXuXS.S.yXD.yXiX",
"yXyXyXuXyXyXyXuXyXyXiXS.S.yXyXyXD.uXZ.>X:X:X:X:X>XeXyXyXyXuXyXyXZ.yXuXyXyXyXyXyXD.D.9X'.6.s.c.yXuXS.yXyXyXyXyXyXS.yXuXD.S.iXyXS.",
"yXyXyXuXuXyXuXyXyXyXyXyXyXyXyXyXyXyXuXyXrXyXyXaXS.yXyXyXyXyXuXyXuXyXyXyXyXyXyXyXaX>X`.6.6.l.yXyXuXyXyXyXyXyXyXyXyXyXyXyXuXyXyXyX",
"yXyXyXyXyXyXyXyXyXyXyXyXyXyXyXyXyXyXyXyXS.yXyXyXyXyXS.yXyXyXyXyXyXuXyXyXyXyXyXuXk.q.4.q.6XyXyXyXyXyXyXyXyXyXyXyXyXyXyXyXyXuXyXyX",
"yXyXyXS.yXyXyXyXyXyXyXyXyXyXuXyXyXuXyXyXyXyXyXyXyXyXuXyXuXuXyXyXyXyXyXyXyXyXyXyXrXV.V.rXyXuXyXyXyXyXyXS.yXuXyXyXyXyXyXyXyXyXyXS.",
"yXiXuXuXyXyXyXiXyXyXyXiXiXyXuXuXyXyXyXiXyXyXiXuXyXyXyXuXiXaXuXuXyXyXyXyXyXiXyXyXuXuXuXyXuXiXiXiXiXiXyXuXiXyXuXyXuXyXiXiXiXyXyXiX"
};
