/* XPM */
static char *result[] = {
/* columns rows colors chars-per-pixel */
"64 64 217 2 ",
"   c #786033",
".  c #093C46",
"X  c #123D43",
"o  c #04434D",
"O  c #094A4B",
"+  c #164D4F",
"@  c #04544B",
"#  c #0A534B",
"$  c #04584F",
"%  c #1C584B",
"&  c #014452",
"*  c #014D54",
"=  c #014D5C",
"-  c #015355",
";  c #0D5653",
":  c #045955",
">  c #01535B",
",  c #01595C",
"<  c #0B5858",
"1  c #0B5859",
"2  c #165B57",
"3  c #315745",
"4  c #255955",
"5  c #05605F",
"6  c #1A635C",
"7  c #27675C",
"8  c #386556",
"9  c #336A5C",
"0  c #015562",
"q  c #015A64",
"w  c #0A5E64",
"e  c #015D6A",
"r  c #165E62",
"t  c #02616D",
"y  c #026A6D",
"u  c #1A6767",
"i  c #19716B",
"p  c #016571",
"a  c #026B75",
"s  c #016D79",
"d  c #087577",
"f  c #01737C",
"g  c #157779",
"h  c #276867",
"j  c #2A7265",
"k  c #3C7162",
"l  c #377568",
"z  c #287A77",
"x  c #347C75",
"c  c #35797B",
"v  c #415A56",
"b  c #40654F",
"n  c #4C6C59",
"m  c #59795B",
"M  c #757B5B",
"N  c #4E7067",
"B  c #467D6A",
"V  c #577B6A",
"C  c #647B6B",
"Z  c #767965",
"A  c #797871",
"S  c #8C7653",
"D  c #AA6F43",
"F  c #AD784B",
"G  c #B27F4F",
"H  c #847B6E",
"J  c #807B72",
"K  c #25807F",
"L  c #3A8275",
"P  c #33847C",
"I  c #74825A",
"U  c #458278",
"Y  c #568673",
"T  c #538970",
"R  c #678766",
"E  c #758C69",
"W  c #76966E",
"Q  c #678677",
"!  c #778A70",
"~  c #6B967D",
"^  c #799676",
"/  c #7EA177",
"(  c #AC8654",
")  c #B38F57",
"_  c #9C986F",
"`  c #898B77",
"'  c #879773",
"]  c #899C74",
"[  c #949B77",
"{  c #A69969",
"}  c #BF9B65",
"|  c #A69A72",
" . c #A89B78",
".. c #9BA36F",
"X. c #9BA678",
"o. c #A8A66F",
"O. c #ACAB6F",
"+. c #B7A56B",
"@. c #ABA877",
"#. c #ABAD75",
"$. c #AEA27B",
"%. c #B6A578",
"&. c #A5B17D",
"*. c #B6B679",
"=. c #C19F65",
"-. c #C5A86A",
";. c #D5B26F",
":. c #D9B86F",
">. c #C2AC72",
",. c #C4B576",
"<. c #C9B777",
"1. c #C5B976",
"2. c #CCBD7B",
"3. c #D6B974",
"4. c #D5BD7D",
"5. c #E0BE73",
"6. c #D5C37D",
"7. c #DCC47C",
"8. c #E3C36F",
"9. c #E4C473",
"0. c #E8C776",
"q. c #E7C875",
"w. c #E9CA76",
"e. c #E3C57A",
"r. c #E5CA7D",
"t. c #EDCD7A",
"y. c #F0CF7D",
"u. c #EFD07D",
"i. c #F4D47E",
"p. c #F8D77F",
"a. c #FAD87F",
"s. c #017680",
"d. c #017B85",
"f. c #0B7F83",
"g. c #027E89",
"h. c #0A7D89",
"j. c #107F85",
"k. c #02848C",
"l. c #08868C",
"z. c #178282",
"x. c #028791",
"c. c #018B93",
"v. c #01949C",
"b. c #08959A",
"n. c #1A9899",
"m. c #2D8C88",
"M. c #3D9C8F",
"N. c #389999",
"B. c #29A09C",
"V. c #109CA1",
"C. c #3399A0",
"Z. c #3CA8A8",
"A. c #569385",
"S. c #409E90",
"D. c #798C81",
"F. c #649985",
"G. c #51A38D",
"H. c #6FAE8F",
"J. c #5C9FA6",
"K. c #619FA1",
"L. c #67A6A1",
"P. c #72B9B5",
"I. c #8A968A",
"U. c #879B89",
"Y. c #9E9D93",
"T. c #A89E82",
"R. c #88A481",
"E. c #9EA986",
"W. c #97B68E",
"Q. c #85AF92",
"!. c #AAAD80",
"~. c #B4AB85",
"^. c #B6AA88",
"/. c #A6BA86",
"(. c #B7B589",
"). c #A7A696",
"_. c #ABAC9C",
"`. c #B6AE96",
"'. c #BBB495",
"]. c #80BDB6",
"[. c #B8B6A7",
"{. c #C1BE80",
"}. c #C8B889",
"|. c #D1BF80",
" X c #C4B998",
".X c #C1BAA5",
"XX c #C1BBA8",
"oX c #99C098",
"OX c #B8C48A",
"+X c #BFC59E",
"@X c #C2C58B",
"#X c #C5C888",
"$X c #DCC582",
"%X c #D3CA84",
"&X c #DACA83",
"*X c #DAC688",
"=X c #CAC697",
"-X c #DAC996",
";X c #DAD091",
":X c #E5CD83",
">X c #EACE83",
",X c #E3CD8D",
"<X c #EACF8A",
"1X c #E6D285",
"2X c #EDD383",
"3X c #EDD389",
"4X c #F6D680",
"5X c #F8D780",
"6X c #F7D882",
"7X c #FAD881",
"8X c #F4D78B",
"9X c #E1CF9C",
"0X c #F2D691",
"qX c #CDC3A7",
"wX c #D3C9A7",
"eX c #DACFB3",
"rX c #DDD2B1",
/* pixels */
"5X4X4X8X4X5X5X5X5X5X4X4Xp.4Xi.5X4X4X8Xi.i.5X5X4X4Xp.p.5X5Xi.p.5X4X>X7X7X7X5X5Xp.5Xp.5Xp.p.p.p.p.4X5X6Xp.p.p.4X4X4X5Xp.4X5Xp.5X5X",
"4X4Xi.4X4X4X5X4X4X5X4X4X4X4Xy.i.u.4X4X4X4X4X4X5X4X4X4X4X5X5X2X9X.X X X<X8X5X5X5Xp.6X5X4X4X5X6X6X4X4X6Xi.i.8X4X4X4X4X4X4X4X4X4X4X",
"4X5X5X5X5X4Xi.4X5X4Xi.4X4Xi.t.0.t.4X4X4X4Xi.4X4X4X5X4Xi.7X5X,XXX.X.X.XXX9X4X5X4X5X4X6Xi.4X4X4X4X4X4X4X4X4X4X5Xi.4X4X4X5X4Xi.4X4X",
"i.i.4X4X4X4X4X4X4X4Xi.u.i.i.t.t.t.u.i.i.4X4X4Xi.i.4X5X5X7X7X X_.`.[.[.[.wX3Xy.4Xi.6Xi.6X4X4X4X4X4X4X4X2X4X4X4X4X4X4X5X4Xp.6Xi.4X",
"4X5X4X4Xi.4X4X4X4Xi.i.w.0.t.i.i.i.4Xi.4X4X4X4X4X4X4X4X4X4X4X}.Y.Y.Y.Y.Y.}.>X5X4X6Xi.5Xi.4X4X4X4Xi.4X4X4X4X4X5X4Xi.6Xi.4X4X5X5X4X",
"4X5X5Xi.4X4X4X4X4Xi.i.t.q.0.u.4X8Xi.u.i.i.4X5X4X4X4X4X4X5X:X!.A A A J H $.>X4X4Xi.6X4X4X4X4X4X4X4X4X4X4Xi.u.u.i.6Xi.6Xi.4Xi.5Xi.",
"4X5X5X4X4X4Xp.4X4Xi.i.t.t.t.4X8X4Xr.q.q.t.y.4X4Xi.4X4X4Xa.2X_ v 4 v C S =.2X5X4X6Xi.4X4X4X4X4X4X4X4X4X4Xt.w.u.i.i.4X4X4X4X4X4X5X",
"4Xi.4X4X4X4X4X4X4Xi.i.4X4Xi.4X4Xt.9.8.9.0.t.4X4X4X5X5X5X&X@XR.z h.h.j.V !.<X5X5Xi.4X4X5Xi.4X4Xi.2X4X4Xu.t.t.t.i.i.4X5Xi.4Xi.4X4X",
"6Xi.4X4X6Xi.i.6X4X4X5X4X4X4X2Xu.u.q.9.9.q.t.8Xi.8X:X+XH.L.P.].P.P.Z.b.V.Z.L.W.;X8X6X5X5X4X4X4X4X4Xt.t.t.u.u.4Xu.i.4Xi.i.p.i.p.i.",
"i.p.6X4Xp.6X4Xp.4X4X4Xi.4X4X4X4Xi.t.t.t.t.4X4X5X%XH.B.V.b.S.L.K.J.C.v.v.v.v.V.L.=X8X5X5X4Xi.4X4Xu.t.0.t.i.8X4Xi.u.u.i.i.p.p.i.6X",
"6Xi.4Xi.p.4X4Xi.i.5X4X4X4X4X4X4Xi.4X4X4X8X4X8X#XH.k.c.v.h.h.h.h.h.h.g.c.g.v.c.g.L.;X6X4X4X4X4X4X2Xt.t.t.8X4X4Xt.w.w.t.i.i.p.6Xp.",
"4X4X4X4X4X4X4X5X5X5X4X4X4X4X4X4X4X2X4X4Xi.4X#XG.f.s g.d.g.g.d.d.g.g.g.g.g.g.g.g.z.W.3X5X4X4X4X4X4Xi.i.4X5Xi.u.q.8.9.w.u.4X6Xp.2X",
"i.4X4X4X5X4Xi.i.5X4X4X4X4X2X8X6X4X4X4X4X6X@XG.c.f p s s s.s.s.s.d.s.s.s.s p s.s.d.P (.a.p.p.4Xi.4X4X5Xi.4Xi.u.q.9.9.t.u.4X4X4X4X",
"p.5X4Xp.5X5X5X6X4Xi.4X4X4X4X4Xi.4X5X4X4XOXS.x.g.a 0 e p a s s.s.s.s.p s.p t e s.f d ~ %Xp.p.5X4X4Xi.4X5Xi.i.i.t.t.t.u.i.4X4X4X4X",
"4X5X4Xp.6Xi.i.i.5X4X4X5X4X4X8Xp.i.5X8XOXN.x.s t 0 = 0 e e p s t e p p p p t 0 e f s g E.2Xp.i.i.4X4X4X4X4Xi.i.2Xu.4X2X5X4X4X4X4X",
"4Xi.6Xi.i.4X6X4X4X5X4X4X4X4X5Xi.p.2XOXM.l.d.e = & & 0 e e t e e e p p p t e = 0 a f t x {.p.5X4X4X5X5X5X4Xi.i.4X4X4X4X4Xi.4X4X4X",
"4X4X4Xi.6Xi.5X4X4X4X4X4X4X2X5X5X2XoXB.k.f a t > & & 0 0 e q 0 e e e e p e e = = t p t t ~ &Xp.4X4X4X4X4X6Xp.4X4X4X6X6Xp.i.i.6Xi.",
"4X5X4X4Xi.6X6X4X4X4X4X4Xi.8X5X2XW.n.c.k.K y t q . & > 0 q 0 0 q e e e e e e = = > q t t i *.6X4X4Xi.4X4X6Xi.4X4Xi.6X4X5Xp.4X6Xi.",
"i.4X4X4X4Xp.i.5X4X4X4X4Xi.4X4X*.K k.k.k.d.f t e & o > > 0 0 0 q e 0 0 e e e > o * > q e t #.5X5X5Xi.4X4Xi.6X4Xi.5X4Xi.5Xp.6Xi.6X",
"4X4X4Xp.4X6Xi.4X4X4X4X4X5X5X2XQ.K k.k.k.d.f t 1 4 + > 0 > 0 q q 0 0 0 e e 0 > & o = > q t &.u.i.5X5X4X4X4X5X4X6X4X5X6Xi.4Xi.6Xi.",
"p.4X4Xp.4X4X4X5X4X5X4X4X8Xa.7.G.k.f k.f d z T E ..V > > 0 0 0 0 0 0 0 e e 0 0 o . * - > t X.u.p.4X4X4X5X4Xi.5Xi.5Xi.i.6X5Xi.4X5X",
"4X4X4X4X4X4X4X4Xp.5X4X4Xi.u./.g y y u k R #.r.i.:XE - 0 0 0 0 0 0 0 0 0 q > > o . o * > y D.7.p.8X4X4X4Xi.6Xi.6X6X6X5X5X4X4X4X4X",
"4X4X6Xi.i.6X4X4X4X2X4X4Xp.6.B q : 6 E 6.5X5Xi.5X:X! > 0 0 = > > = 0 = > q 0 > o X O O - > l 6.5Xi.i.5Xi.6X4X4X4Xi.4X4Xi.4X4Xp.i.",
"p.i.4X4X4X4X4X4X4X4X4Xp.i.1.6 : $ m 6.5X4X4X4Xp.:X^ > 0 > > > = = > = > q 0 > & v n % @ : 1 ^ r.p.i.5X4Xp.i.5X5X4X4X5X4X4X5X5X4X",
"4X4X4X4X4X4X4X4X4X2X6X5Xy.;.n 4 R 1.4X4Xi.5X5X7X#XL - > > - > - - = > > > > 0 * E 1.I % $ < k 6.6X5Xi.6X6Xi.6Xi.i.6X4X4X5Xi.4Xi.",
"p.4X4X4X4Xi.6X4X2X4X4X4Xw.;.S S ,.p.4Xi.4X4X4X5X&.d - - - - * * * > = > > 0 > = ] 8X1.8 # ; 8 1.5Xi.6X4Xi.p.p.6Xp.i.i.6Xp.6Xi.6X",
"i.4X4X4X4Xi.6X4Xi.t.r.t.0.=.D G ;.4X4X4Xi.i.4X5X{.P , - - - - - > * > > > > > > X.6Xr.I 3 m O.r.p.4X4X4X6Xp.5Xi.6X4X5X6Xi.6X6X4X",
"4X4X6X5Xp.4X4X4Xu.q.8.q.5.( D F } 4X4X4X4X5Xi.5X6.T q - - > - > - = = > > > > 2 #.5Xu.(   ) t.5X6Xi.6Xi.5Xi.i.4Xi.p.5Xi.p.i.p.4X",
"i.6X5X4X4X4Xi.4Xi.q.q.w.9.( G ;.-.u.i.i.i.i.4X4Xi./ t - - - > - > > > = * - - B 6.p.i.9.} :.4X4Xi.4X6X4X4X4X4X4X4X5X4X4X4X4Xi.5X",
"4Xp.4Xi.4X4X5X6Xi.i.u.u.y.;.-.r.3.9.q.t.4X4X4X4X6XX.5 , - > > > > > = - * * 8 #.2Xi.4X4Xu.2X4X4X4X4X4X4Xp.i.4X4Xi.i.6X4X5X4X4X4X",
"4X5X4X4X4X4X4Xi.i.5X4X4X4Xt.r.q.7.9.9.t.4X4X4X4Xa.*.j 5 : > , > > > > * - 2 ..u.5X4Xi.i.p.p.4Xi.4X4X4X4X5X4X4X4X5Xp.4X4X4X4X5X4X",
"4X5X4X4Xi.5X4X4Xp.i.4X4X4X4Xi.t.0.0.0.t.2X4X4X4Xa.6.T 5 : , > , > > > > < V 2.p.i.p.p.p.p.i.4X4X4Xp.4X5X4X4X4X5X4X4X4X4X4X4X5X4X",
"6Xi.4X5X4Xi.4X5Xi.4Xi.i.4X4X4X2Xi.u.u.2X2X4X4Xp.i.a.*.j : $ : : - > > > < ' r.5X4X4Xi.4X4X4X4X4X4X5X4X4X4X4Xi.4X4X4X4X4Xi.4X4Xi.",
"i.4X4Xi.6X6X4Xi.6Xp.p.8X8X4Xp.4X4X5Xp.p.6X4X4Xi.i.a.u.W : $ $ : : - - - 7 @.4X4X4Xi.5X5X5X4X4X4X4X4X4X4X4X5Xp.5Xi.4X4X4X4X5X4X4X",
"6X5Xi.6Xp.i.4X6Xp.i.4X4Xi.5X4Xi.4X4X4Xi.i.p.p.6Xa.a.a.O.7 @ @ $ - - - * V 6.5X4X4X4X4X4X4X4Xi.4X4X4X4X4X5Xi.4Xp.i.i.p.5Xi.6X4X4X",
"4Xp.4X5Xp.6X4X4X4X4X4X4X4X4X4X4Xp.4X6X6Xp.i.i.6Xa.i.a.7.R # @ - - - - ; Q &X5X4X4X4X4X4X4X4X4X4X4X4X4X4X4Xp.4X4X5X4X4X5Xp.4X4X4X",
"i.6X4X4X4Xi.5X4X4X4X6Xi.4X4X4X4X4X4X4X5Xi.i.6Xi.i.6Xa.6XO.9 ; : q > > h ' $X5Xi.4X4X4X4X4X5Xi.4X4X4Xi.p.4X4X4X4Xi.4Xp.i.4X5Xi.6X",
"6Xi.4X4X4X4X5X5X4X4X4X4X4X4X5Xi.i.4X4X4X6X6Xi.6Xi.i.i.p.u.o.k , q q > V [ e.5X5X4X4X4X4X4X4Xi.u.u.i.i.i.4Xi.4X4X6X4X4X6X4X4X5X4X",
"i.4X4Xi.4Xp.5Xi.6Xi.4Xi.p.4Xp.4X4X4X4X4X6Xi.6Xi.6Xp.6Xp.p.4X] 1 q , < Y ~.e.5X5X4X4Xi.i.4X4Xi.t.r.i.i.i.4X4Xi.i.i.6Xi.4X6Xi.4X4X",
"5X4X6Xp.4X5X4X4Xp.6Xi.6X4X5X4X4X4X4X4X4Xi.6Xi.6Xi.6Xi.6Xp.a.] t q , u ! <.t.5X5X4X4X4X4Xi.4Xu.u.t.y.i.i.i.4Xp.p.4X4X5X4Xp.4Xi.6X",
"4X4X4X4Xi.6Xi.4X4Xi.5X5X4Xi.5X4X4X4X4X4Xp.4X4X4Xp.4X4X4X4X5X] q q , l ] 6.4X4X4X4Xi.i.i.w.u.u.u.u.i.i.i.4X4X4X4X4X4X4X5X4Xi.5X4X",
"4X4X4X4X6Xp.i.5X4X4X4X4Xi.5X5Xi.4X4X4X4X4X4Xi.4X4X4X5Xi.p.2XW > , - k [ r.5X4X4X4X8Xi.t.w.q.w.i.5Xi.i.i.u.i.4X4Xi.4Xi.5X4X4X4X4X",
"i.6Xp.i.4Xp.6Xi.i.5Xi.5X4X4X4X4Xp.5X4X5Xp.6X4X4X4X5Xp.4X5X5X] 1 > * k [ 7.5X5Xi.5X4Xi.i.u.u.u.8X6X2Xw.w.0.t.i.4X6Xi.6X4Xi.6Xp.4X",
"6Xi.4X5X4X6Xi.6X4X5X5Xi.4X4X4X4Xi.4X4Xi.5Xi.4X4X4X4X4X5Xp.6X#.u > > V _ 6.5X5X4X5X4Xi.i.i.i.i.4X5Xt.9.8.9.0.t.i.4X4Xp.4Xi.i.4X4X",
"4X4X4X4X5X4Xi.4Xi.i.i.i.i.4X6Xi.6X4X4Xp.i.4X4X4X4X4X4X4X4X4X] w 0 r Q ` ,.a.4X4X4X4X4Xi.i.4X4Xi.i.t.q.9.9.t.u.4X4X4X5X5X6Xi.4X4X",
"4X4X4X5X4X4X4X4X4Xu.w.0.u.i.6X4Xi.i.i.6X5X4X4X4X4X5Xi.4X5X6.Y t e u D.A X.4X4X4X5X4X4X4X4Xi.p.i.i.u.t.t.w.u.i.4X4X4X5Xi.p.5X4X5X",
"4X4X4X4X4X4Xi.4X4Xu.t.t.u.i.i.4Xi.6X6Xi.4X5Xp.4X4X4X5X5X5X&.K f s c I.V ^ :X5X5X5X4X4X4X4X4X5Xi.i.4X4X4X2Xi.4X5X4Xi.i.6Xi.6X4X4X",
"4X4X4X4X4Xi.u.t.t.u.u.u.4Xi.4Xi.4Xi.i.4X4Xi.4X4X4X4X5X5X%XF.d.d.d A.I.8 Y %Xa.5X4X5X4X4X4X4X4X6X4Xu.4X4X4X4Xi.4X4X4X4Xp.6Xi.4X4X",
"4X4X4X4X4X4Xt.q.q.t.i.4Xi.i.4Xi.i.i.p.4Xi.4X5X4X4Xp.5X5X/.m.f f m.U.C ; L OX5X4X4X5X4Xi.4X4X4X6X4X4X4X4X6Xp.6Xp.i.6X5Xi.4Xi.p.4X",
"4X4X4X5X4Xi.i.t.w.i.8X6Xu.w.u.w.y.p.i.5X4X4Xi.5X4X4X5X%XH.g f g D.] b O B qX8Xi.4X4X5X4X4X4X4X4X4X4X4X4X4X5Xi.6Xp.i.4X4X6Xp.4X4X",
"4X5X4Xi.4X4Xi.4Xi.4X5X4Xt.9.8.9.r.y.4X4Xi.4X4X4X4X4X1XR.g f a U [ @.M 3 n '.0Xp.5X4X4X5X4X4X5X4X4X5X4X5X4X4X4X5X4X6Xi.4Xp.i.p.4X",
"4X4X4X5Xi.4X4X4Xp.i.i.u.t.9.8.7.0.>X4X4Xp.4X4Xi.4X2X(.L y y x I. .<.>.M ` =X8Xi.i.5Xp.4Xi.4X4X4X4Xi.4Xi.i.4X4X4Xi.p.4X4X6X6X4X4X",
"4X4X4X4X4X5X4X4X4Xi.i.i.u.t.0.t.t.4X4X4X4X4X4X4X4X,XR.i p z Q._.~.>X4.$.^.,X4X4X4Xi.5X4X6Xi.p.4X4X5X4Xi.5Xp.4X4Xp.6X4X4Xi.p.4X5X",
"4Xp.4X5X4X4X4X4X4X4X4X4Xi.i.i.i.4X4X4X4X4X4X4X4X<X=X' 1 u Q ).`.%X8X3.{ $.7.5X4X4X4Xi.4X4X4X5X4Xp.4X4X5X4X5X4X4Xi.i.p.4Xi.6X6X4X",
"4X4X5X4X5X5X4X4X4X4X4X4X4X4X4X4X4Xi.4X5X4X4X5X3X9XwX!.N 8 Z | 6.4X4Xe.-.,.r.p.6X4X4X6Xi.i.4X6Xi.4X4X4X5Xi.4X4X5X6Xp.5X4X6X4Xi.4X",
"4X4Xi.5X4X4X4X4X4X4X4X4X4X4Xi.4X5Xp.i.4X4X5X2X-XrXeX'.` Z { 4.4X4X8X4X4X2X6X4Xi.4X5Xi.6X6Xi.4X6X4X4X4Xi.4X5X4Xi.4X4X4X4Xi.4X4X4X",
"i.5X5X4X5Xi.4X4X5X5X6X4Xi.i.p.6X5Xi.p.i.p.4X,XqXeXqX X .+.2X4Xt.r.2X4X4X4X4X4Xy.i.6Xi.4Xi.4Xi.4X4Xi.i.4Xi.5X4X4Xi.5X4Xp.4X6X4X4X",
"i.i.4X5X5X4X5X4X4X4Xi.p.5X4X6Xi.4X5X4X4X4X2X*X}. X`.`.T.%.:Xt.e.0.y.4X4X4X4X5X5X4X4X6Xp.4X4X5X4X4X6X5X4X5X6X4X4Xi.6X4X5Xp.4Xi.4X",
"6Xi.i.5X4X6X4X4X5X4Xi.i.i.4Xi.6X5X4X4X4X4X4X4.$.$.^. X^.}.>Xy.t.t.4X4X5X4X4X4X4X5X4Xp.6X4X6Xp.4X5X4X4X4X4X5X4Xi.5X5X4Xi.5Xi.6X6X",
"5X6X6Xi.5Xi.4X5X4Xi.4X4Xp.5Xp.i.i.4X4X4Xi.5Xr.%. . .`.`.|.p.4X4X4Xy.5X4X4X4X5X4Xp.4X4Xi.4Xi.i.4X4X4X4Xi.4X4X6X4Xi.4X5Xi.4X6X4Xi.",
"i.6Xp.4X5X5X4X4X4X4Xi.4X4X4X4Xi.4X4X4Xi.4X4X4Xe.%.| ~.`.^.e.5X5X4X4X4X4X4X4Xi.5X4X4Xi.4Xi.4X4X5X5X4X4X4X4X4X4X5X4X4Xi.4X4X4X4Xi.",
"6Xi.6Xi.4X4Xi.5X4X4X4X4X4X4Xi.6X4X4X4Xp.4X4X4X4Xe.+.{ ~.^.4.5X5X5X5X5X4X4X4X4X4X4X5X6X4X6Xi.6Xi.4X4X4X4X4X5X4Xi.4X4Xp.6Xp.4X6X4X",
"p.i.i.p.4Xi.4X4X4X4Xi.5X4X4X6Xp.4X5X4Xi.4X4X4X4X4Xe.>.| ^.$X5X4X4X4X4X4X4X4X4X4Xp.i.4X4X5X6Xi.p.6X4X4Xi.4X4X4X4X4X4X4X4Xi.p.5Xi.",
"4X8X5X5X5Xp.8X4X4X4X4X5X8X4X5X5X5X4X4X4X8X4X4X4X5X5X>X-.+.>X5X4X4X4X4X4X4X4X5X4X8X4X5X4X5X4X8X4X4X4X6X6X5X4X6X4X5X4X4X4X5X8X4X4X"
};
