/* XPM */
static char *result[] = {
/* columns rows colors chars-per-pixel */
"64 64 210 2 ",
"   c #776032",
".  c #093B46",
"X  c #103C42",
"o  c #04434D",
"O  c #09494A",
"+  c #04544C",
"@  c #0B534A",
"#  c #1B544E",
"$  c #024452",
"%  c #014E54",
"&  c #014E5B",
"*  c #015356",
"=  c #025955",
"-  c #0B5856",
";  c #01535B",
":  c #0A575B",
">  c #015A5D",
",  c #125B53",
"<  c #185854",
"1  c #275648",
"2  c #365C4B",
"3  c #275A54",
"4  c #18625D",
"5  c #29675B",
"6  c #386859",
"7  c #015562",
"8  c #015A64",
"9  c #015D6A",
"0  c #115C61",
"q  c #0B6162",
"w  c #01616E",
"e  c #026A6E",
"r  c #126265",
"t  c #176769",
"y  c #1F736B",
"u  c #016471",
"i  c #026B75",
"p  c #0E6F75",
"a  c #016D79",
"s  c #07777B",
"d  c #01737C",
"f  c #1A7876",
"g  c #2A6C67",
"h  c #366862",
"j  c #387767",
"k  c #2B7876",
"l  c #337C76",
"z  c #455B56",
"x  c #496954",
"c  c #4A7357",
"v  c #56765C",
"b  c #7B7259",
"n  c #487567",
"m  c #4E7369",
"M  c #6D7C68",
"N  c #787866",
"B  c #797971",
"V  c #8E7654",
"C  c #AE7648",
"Z  c #847B6E",
"A  c #807B72",
"S  c #1B847F",
"D  c #29827D",
"F  c #7C825D",
"G  c #51846F",
"H  c #458678",
"J  c #598375",
"K  c #5F907C",
"L  c #678462",
"P  c #64826B",
"I  c #758C66",
"U  c #7E986F",
"Y  c #658775",
"T  c #758971",
"R  c #679575",
"E  c #7E9473",
"W  c #789877",
"Q  c #A88756",
"!  c #B48C56",
"~  c #819A6F",
"^  c #989E6F",
"/  c #8C8A74",
"(  c #8B9472",
")  c #8A9B7D",
"_  c #939C75",
"`  c #959A7A",
"'  c #A5996F",
"]  c #BA9B68",
"[  c #A59A72",
"{  c #A99B79",
"}  c #B69F71",
"|  c #8BA275",
" . c #98A678",
".. c #A1A26E",
"X. c #B6A46B",
"o. c #A1AA75",
"O. c #A7A779",
"+. c #AFA27A",
"@. c #B0AB71",
"#. c #BDAA73",
"$. c #AAB67F",
"%. c #B7B477",
"&. c #C39E65",
"*. c #C9A86B",
"=. c #CDB16B",
"-. c #C4AF71",
";. c #C2B474",
":. c #C7B57A",
">. c #C4BA7B",
",. c #CDBD7A",
"<. c #D8B974",
"1. c #D2BD7D",
"2. c #D9BF7D",
"3. c #CEC17A",
"4. c #DBC37D",
"5. c #DAC87E",
"6. c #E3C36F",
"7. c #E4C473",
"8. c #E8C776",
"9. c #E7C874",
"0. c #EACA76",
"q. c #E5C579",
"w. c #E5CA7D",
"e. c #EDCD7A",
"r. c #F0CF7D",
"t. c #EED07D",
"y. c #F4D47E",
"u. c #F9D77F",
"i. c #F9D87F",
"p. c #017681",
"a. c #017C85",
"s. c #087D84",
"d. c #007E88",
"f. c #0A7E89",
"g. c #127F84",
"h. c #03848D",
"j. c #0B8589",
"k. c #028791",
"l. c #028B94",
"z. c #02939C",
"x. c #169A9F",
"c. c #328A85",
"v. c #299993",
"b. c #34969D",
"n. c #2CA09B",
"m. c #0B9BA1",
"M. c #129DA0",
"N. c #3BA7A7",
"B. c #489F8F",
"V. c #579180",
"C. c #738980",
"Z. c #51A58E",
"A. c #44A195",
"S. c #56AA98",
"D. c #68A387",
"F. c #6FA995",
"G. c #5C9FA5",
"H. c #629FA1",
"J. c #62A0A2",
"K. c #70B8B4",
"L. c #838F81",
"P. c #84988A",
"I. c #9E9E93",
"U. c #A09F94",
"Y. c #8DA782",
"T. c #94A982",
"R. c #9BB98A",
"E. c #8DAF90",
"W. c #8DBD96",
"Q. c #A7A487",
"!. c #B1A583",
"~. c #B2AC86",
"^. c #B4AB8D",
"/. c #B9AD8B",
"(. c #B1BB83",
"). c #BABC83",
"_. c #B2B08F",
"`. c #A8A899",
"'. c #B4AF93",
"]. c #B4AF99",
"[. c #ABB09D",
"{. c #82BDB6",
"}. c #B8B6A7",
"|. c #C8B889",
" X c #D1BD80",
".X c #C6B998",
"XX c #C2BAA5",
"oX c #C1BAA8",
"OX c #ABC28D",
"+X c #BCC589",
"@X c #BAC69C",
"#X c #C6C789",
"$X c #DAC483",
"%X c #DCCC82",
"&X c #D7C98A",
"*X c #DACB97",
"=X c #E5CD82",
"-X c #EDCF80",
";X c #E3CC8C",
":X c #EDD283",
">X c #EBD28A",
",X c #F6D680",
"<X c #F8D780",
"1X c #F7D882",
"2X c #FAD881",
"3X c #F2D78C",
"4X c #E1CD97",
"5X c #F3D892",
"6X c #D3C8A7",
"7X c #DCD1B3",
/* pixels */
"i.<Xu.u.<X<Xi.<X<X1X:X,X,X,X,X,Xy.y.u.1Xu.u.,X,Xy.u.,X<X<X<X<X<X3X<X2X2X2X,Xu.u.1Xu.i.i.u.i.1X,Xu.,X1Xu.u.u.u.u.u.u.<X<X1X1X,X1X",
",X,X,X,X,X,X,X,X,X,X,X,X,X,Xr.r.y.y.,X,X,X,X,X,X,X,Xy.1X3X4X.X.X.X4X3X3X<X<X<X<Xu.1X,X,X,X,X3X,X,X,X1Xy.,X,X,X,X,X,X,X,X1Xy.,X,X",
",X<X,X<X<X,Xy.,X,X,Xy.,X,X,Xe.0.e.y.,X,X,Xy.,X,X,Xi.u.3X4X6XoXoXoXoX;X2Xr.<X<X,X1Xy.,Xy.,X,X,X,Xu.1X,Xu.,X,X,X,X,X,X,X<X,X,X,X,X",
"y.y.,X,X,X,X,X,X,X,Xy.y.-X-Xe.e.e.t.y.y.,X,X,X,X,Xy.y.>XXX}.}.].].`. X2X,X,X,X,X,X,X,X,X,X,X,X,X,Xy.,X,Xy.,X,X,X,X,X<Xy.,X,X,X,X",
"1X<X,X,Xy.1X<X1X,X,Xy.e.e.e.r.,X,X,Xy.,X,X,X,X,X,Xy.<X=X/.I.U.U.U.U.|.1X,X,X,X,X,Xy.,X,X,X,X,X,X,X,Xy.,X,X,Xy.y.,X,Xy.,X,X<X<X,X",
",X<X<X,X<Xy.y.,X,Xy.y.e.8.e.-X,X,Xy.t.y.,X,X,X,X1X<Xu.=X{ Z Z A B A !.-X,X,X<X,X,X,X,X,X,X,X,X,X,X,X,Xy.y.y.y.y.,X,X,Xy.,Xy.,X,X",
",X<X,Xy.,Xy.,X,X,Xy.e.e.e.-X,X,Xy.e.9.q.8.,X,X,Xy.,X1X:X] b x h 3 z [ -X<X<X,Xu.,X,X,X,X,X,X,X,X:X,X,Xy.e.0.e.y.y.,X,X,X,X,X,X<X",
"y.<X,X,X,X1X,X,X,Xy.,X,X,X,X,X,Xr.7.6.7.q.e.,X,X1Xu.<X>XQ.J g.g.f.l Y.#X%X,Xu.,Xy.,X,X,X,X,X,Xy.3Xy.:Xy.e.0.y.y.y.,X<Xy.,X,Xy.,X",
",X,X<Xy.,X,X,X,X,X,X,X,X,X,Xy.y.e.w.7.7.q.r.1X1X3X&XW.K.N.M.M.N.K.{.{.K.J.W.OX:X2Xi.1Xu.,X,X,X,X,Xe.e.e.e.y.,Xt.y.,Xy.y.y.1Xy.1X",
"y.u.1X1X1Xu.,Xu.,X,X,Xy.,X,Xy.y.:Xe.e.e.e.y.,X3X@XS.x.z.z.z.m.b.G.H.H.b.z.m.n.F.%X2X,X,X,X,X,X,Xe.e.8.e.y.3X,Xy.y.y.y.y.u.y.1Xy.",
"1Xy.,Xy.y.1Xy.<Xy.,X,X,X,X,X1Xy.,X,X,X,X,X,X1X*XJ.k.k.k.k.k.d.f.f.f.g.f.k.z.l.j.D.&X1X,X,Xy.,X,Xy.e.e.-X,X1Xy.e.7.9.e.y.,X,Xu.y.",
",X1X,X,X<Xy.1X<X<X,X,X,X,X,X1X,X,X,X,X,X,X,X>XE.S h.d.d.d.d.a.a.d.d.d.d.p.d.f.p.j.Z.#X,X,X,X,X,X,X,X,X,X1X,Xy.q.6.7.9.y.,X,X,X1X",
"y.<X1Xy.<X,X,Xy.<X<Xy.,X,X1Xy.1X,X,X,X,Xu.u.).D d h.d i p.a p.p.p.p.p.p.a i a u s l.S.#X1X,X,X,X,X,X:X,X,Xy.e.9.7.q.8.e.,X,X,X,X",
"y.<X,Xi.<X<Xy.1X1Xy.,X,Xy.1X1X,X,X,X,X1X1X&XV.i d i w w i i i a p.p.p.a i w 9 7 a h.j.A.#X,X,X,X,X,X3X,Xy.y.y.e.e.e.-X,X,X,X,X,X",
",X,X,Xi.,Xy.u.y.u.,X<X,X,X,X,X,X,X,X1X1X:XT.p d a 9 7 w u u u i u u a u 9 9 7 & 7 w d k.N.+X,Xy.,X,X3Xy.<Xy.y.-Xy.y.,X,X,Xy.,X,X",
",X<Xy.,X,X,X,X1Xy.,X,X,X,X<X,Xy.1X,X1X1X%.k u a u 7 & 9 w u u w 9 7 9 u 9 9 7 $ $ & 9 p.h.B.#X,X,Xu.y.y.,X,X,X,X,X,X,Xy.,X,X,X,X",
",X,X,Xy.1X,X,X,Xu.,X,Xy.,X,X,Xy.,X,X1X%XK w u u 9 & & 9 9 w w 9 w 7 7 8 8 8 ; $ $ & w a s h.v.OX:X1Xu.3X,X1X,X,X1X1X<X<Xu.,X,Xy.",
",X<X,X,Xy.,X1X,X,Xu.,X,X,X,X<X<X,X,X1X%.t u 9 8 7 $ ; 9 9 9 8 9 9 7 8 7 8 ; & $ $ 8 w u a.k.l.v.R.:X,X,X,X,X,X,X,X,Xy.<Xu.,Xy.1X",
"y.,X,X,X,Xu.y.<Xy.1X,X,Xu.<X,X<X,X<X,X .9 9 8 ; $ $ ; 9 9 9 7 8 7 7 8 7 ; 7 % o & 9 u d h.h.h.h.S ).,X,X,X,Xy.1X,Xy.<X,X1Xy.1Xy.",
",X,X,Xu.,X<Xy.1X1X<Xy.,X,X,Xu.y.y.<X,XT.9 8 ; & $ o > 8 9 9 7 7 7 9 8 7 7 ; & # 3 0 e s s h.h.h.S R.:X,X1Xy.1Xy.,X,X,X,Xy.1Xy.1X",
",X,X,X<X,X,X,X,X,Xi.,X,X,Xu.,X,X,X,X,X .9 ; ; $ . $ 7 7 9 9 ; 7 7 7 7 7 7 ; ; P ^ M n k i d p.a.a.D.%Xi.,X,Xy.1X,Xy.,Xy.<X,X,X,X",
",Xu.,X,X,X,X<X,X,X,X,X,X,Xy.,Xy.,X,X=XD.8 * % O X $ 7 7 7 8 & 7 7 7 7 7 7 7 & U -X,X%X .L j t e i f (.:X,X,X1Xy.1X1X<Xu.,X,Xy.<X",
"y.1Xy.,X,X1X,X,X,X,Xy.y.,X,Xy.y.,X1X).g * * % O . $ ; 7 7 ; ; & ; 7 7 7 7 7 ; ~ w.y.y.y.=X,.I , > 8 G 5.1X,X,Xu.y.<X,X1X,X,Xi.y.",
"i.y.1Xy.,X,X,X,X,X,X<Xy.y.y.y.y.<X=X~ - * @ 1 x 2 $ 7 7 8 ; ; ; & & & & ; ; ; W :Xy.y.y.,X1X,.c = = 5 3.1X,X3Xy.,X,X,X<X,X<X<X,X",
",X,X,X,X,X,X,X,X,X,X,X,Xe.7.0.y.1X:.6 : + # F %.L * ; 7 7 ; & & & * ; * ; ; * H #Xi.u.u.,X,X1X;.v 3 v 2.,X,X1X1X,Xy.,X<X,X,X,Xy.",
"u.,X,X,X,Xu.1X,Xy.y.,X,Xe.w.0.y.,X%.3 - @ c 3.y.E ; ; ; ; ; ; & % % * * * * * f (.u.u.y.,X,X1X1X;.V V q.,X,X,X,X,X1Xy.1Xi.,Xy.1X",
"y.,X,X,X,Xy.<X,Xy.e.w.e.e.e.e.,Xy.w...v 2 F =X,X| ; 7 ; ; ; ; & ; % % * * ; > D #Xu.,X<X,X1X,X1X*.C C &.e.<X,Xy.1X,X,X,X<Xy.1X,X",
",X,X,X<X,X,X,X,Xy.7.6.7.e.,X,X,Xy.y.9.Q   ! r.<Xo.: ; ; % ; % ; ; * ; ; * = > W =X<X,X,X,X,X,X,X*.C C Q e.<X,X,Xy.i.<X,Xi.y.1X,X",
",X<X<X<X,X,X,X,Xy.7.7.0.y.,X,Xe.t.e.e.=.! e.,X<X:.j + % % & & ; ; * ; ; * ; q | ,X<X<X,X,X,X<X,X*.<.C ! 0.<X,X<X,Xu.,X,X,X<X,X,X",
",X1Xy.,X,X,X,X<Xy.y.t.y.,X,Xy.e.q.6.7.e.r.<X,X,Xy.o.5 * % % & ; ; ; ; * ; ; q o.2Xu.,Xr.,X,X,X3Xe.-X&.<.y.,X,X,X,X,X1X,X<Xy.,X,X",
"y.<X,X,X,X,X,Xy.y.,Xy.1X,Xt.t.9.6.6.7.e.y.,X,X,Xy.,X^ < % * ; ; ; ; ; > = > y >.2X,X,X,X,X,X,X,X<X,X<X<X,Xy.,X,X,Xy.,X<X,X,X<X,X",
"1Xu.,X,X,Xy.,X,Xy.u.1Xy.,Xt.y.e.q.9.q.r.,X,X,X,Xy.u.>.m : ; ; ; ; > > = = q R 5.2X,X,X,X,X,X,X,X<X,X,X,X<X,X,X,X<X<Xy.,X,X,X,X<X",
"y.1Xy.,X,X,X,X,Xy.,X,X,X,Xy.y.y.y.t.t.,X,X,X,X,X,Xu.=XT - ; ; * = = = = = j >.i.<X,X,X,X,Xy.,X,Xy.,X,X1X1X,X,X,X,X,Xy.<X,X,Xy.<X",
"y.<X<X,X1Xu.,X,X1X,X,X,X,X,Xy.,X,X,X,Xy.,X1Xy.,X,Xu.1XO.< * * = = = + + = ~ t.i.,Xu.<X,X<X<X,X<X<X,X,X,X1X,X,X,X,X,X,X,X,X,X,X1X",
"<X1X1Xy.y.,X,X,Xu.y.,X,X,X1X1Xy.,X3X1Xy.,X,X,X,Xy.1X<X,.m ; % * * + + + 5 %.1X1X,X,X,X,X,X,X,X,X,X,X,X,X1X,Xy.1X,Xy.y.,Xy.1X,X,X",
"y.1X<Xy.1Xi.,X,X,X,X,X,X1X,X<Xy.y.,X1X1Xy.y.u.y.,Xu.<X$XP * ; * * * + @ I 5.1Xy.y.,X,X,X,X,X,Xy.,X,X,X,X,Xi.<Xy.,X,X,X<Xi.y.,X,X",
"1X1X,X,X1Xu.<X<X,X,X,X,X,X1Xy.,X,X1X,X,X,X,X,X1X,X,X1X4.W g ; 7 > > , 6 %.i.i.y.,X,X,X,X,X,X,Xy.,X,Xy.,X,X,X,X,Xy.1Xy.u.,X<X1X,X",
"u.y.,X,Xy.,X,X,X,X,X,X,X,X,X<X,Xy.,X,X,X,X,X,Xy.,Xy.y.4.` n ; 7 q > c @.t.i.i.y.<X,X,X,X,X,Xy.e.e.y.,X,X,X,X,X,X1Xy.1X1X,X,Xy.,X",
",Xy.,X,X,X<Xy.1X<Xy.1Xy.<X<X,X,X,X,X,X,X,Xu.1Xy.1Xy.u.4.!.J = 8 8 q | 1X1Xy.y.1X,X,Xy.,X,X,Xy.e.0.y.y.y.y.,Xy.<Xy.<X,Xy.y.,X<X1X",
"<X<X1Xy.,Xu.,X,X<X1Xy.,Xy.<X,Xu.,X,X,X,X,X,Xu.1Xy.1X1Xe.;.T 4 > 8 q  .2Xi.,Xu.u.,X,X,Xy.y.,Xt.e.e.r.y.y.y.,Xu.y.1X,X<X,X,X,X,Xu.",
",X,X1Xy.<Xy.1Xy.,X,X,X<X<X,Xy.<X,X,X,Xy.<X,X1Xy.,X,X,X,X1.( g > 8 8 | i.1X<X,X1Xu.,X,Xy.e.e.e.y.t.y.y.y.,X,X,X,X,X,X<X,X<Xy.<X1X",
",Xy.y.1X<X1Xy.<X,X,Xy.,Xy.,X1X,X,X,X,X,X<X,Xy.1X<X,X<X<X$X_ h * > ; ~ <X,X,X,Xy.,X,X,Xe.0.9.e.y.,Xy.y.y.e.,X,X,X,X,Xy.,X,X,X,Xy.",
"1X<X,X<X<X<X<X1Xy.<X,X,X,X<X,X,X,X,X,X<Xu.,X1Xy.,X<X<X<X4.( 5 % ; 0 | i.<X<X,X,X,X,X,Xy.e.e.:X1X1X:X0.9.0.e.,X,Xy.,X,X,Xu.,X1Xy.",
"y.<X,Xy.,Xy.y.1X,Xy.,X,X,Xy.,X,X,X,Xy.<X,X,X,X<X,X,X,X<X3.` m - ; h %.i.y.<X,X<X,X,X,Xy.,Xy.,X,X,Xe.7.7.7.0.e.,X<X,X,X,Xy.<Xy.1X",
",X,X,X,X,X,Xy.1X,Xy.y.y.y.y.,Xy.,X1Xy.,Xy.y.,X,X,X,X,X<X%./ Y 0 8 0  .,Xy.,X,Xy.,X,X,X,Xy.1X,Xy.y.e.0.q.7.8.e.,X<Xy.<Xy.<X1Xy.<X",
",X,X,X<X<X,X,X,X,Xe.0.0.y.,X1X1Xy.y.u.<X<X1X,X<X,X<X<X:X ./ C.0 9 w Y %X,X,X,X<X,X,Xy.1X1Xy.u.y.y.e.e.e.e.e.,X,X,X,X<X1X<Xy.,X<X",
",X,X,X,X,X,Xy.,X,Xy.e.e.e.y.y.,X,X,X,X,X,X,X,X<X,X,X<X$XT Y P.l a d D $.<X,Xy.,X,X,X,Xy.y.,X,Xy.,Xy.y.,X,Xy.,X,X,X,Xy.<X1Xy.,X,X",
",X,X,X<X,X,Xe.e.e.e.e.t.,X,Xy.y.1Xy.y.,X,Xu.1Xy.,X<X2X#XG h L.H s a.s.D.=X1Xy.1X,X,X,X,X,Xu.1X<X,Xy.y.,X,X,Xy.,X,X,X1X<Xy.,X,X,X",
",X,X,X,X,X,Xe.9.9.e.,X,X,X,X,Xt.y.,X,X,Xu.y.,X,Xy.<X<X).l < P P.c.s s.c.(.1X,X,X<X<X,X,X,X,X,X,X,X,X,Xy.1Xu.,Xy.,X,Xy.u.,Xi.y.1X",
",X,X,X<X,Xu.r.r.e.r.1X1Xe.e.0.e.r.<X,X,X,X,X,Xu.<Xy.5X@Xj @ x ` V.s d s D.$X,X,X,Xy.<X,X,X,X,X,X,X,X,X,X1Xu.1Xu.1Xy.1Xy.,X,X<Xy.",
",X,Xu.,X,X,Xr.,Xy.y.,X,Xe.7.7.7.0.-X,X,X,X,X,X<X1Xy.5X'.x 1 F +.) H i s f T.>X,X<X,Xy.<X,X,X,X,Xy.<X,X,X,X,X,X<Xu.1X1X,X,X,X<X,X",
"u.,X,X,X,X,X,X,Xu.y.y.y.e.7.6.4.8.-X,X,Xy.,X,Xy.,X,X3X.X/ b :.:.{ P.k e i H ).,X,X<X,X,X,X,X,X,X<Xy.,X<Xu.,X,X,Xy.y.y.1X1Xu.<X,X",
",X,X,X,X,X,X,Xu.,Xy.y.y.r.e.0.e.e.,X,X,Xy.,X,X,X,X<X1X*X/.} 2.=X~.[.F.y e y  .>X,Xy.,X,X,X,X,X,X<X<X,Xy.,Xy.y.<X<X<Xu.1Xy.1X,X,X",
"u.,X,X,X,X,X,X,X,X,X,Xy.y.y.y.y.,X,X,X,X<X,X,X,X,Xy.<X4.{ ' <.,X&X_.`.J 0 r ) *X>X,X<Xy.,X,Xy.,X,X,Xu.,Xy.1X,X1X1Xy.y.y.y.<Xu.,X",
",X,X,X,X,X2X,X,X,X,X,X,X,X,X,X,X1Xy.,X,X,X,X<X,X,X,Xi.w.*.-.q.,X,X X{ N 6 c Q.6X4X>X,X,X,X,X,X,Xy.<X,X,X,X,X,X,Xy.<X,X,X1X,X,X,X",
",X,X,Xu.,X,X,X,X,X,X,X,X,X,X,X,X<Xi.y.y.,X,Xy.,X,X,X,X,X,X,X,X,X,X-X<.^ Z / XX7X7X4X:X,X,X,X,X,X<X,X,X,X<X<Xy.,X<X,X,X1Xy.,Xy.1X",
",Xu.2X,X,X,X,X,X,X,X1Xy.1Xy.u.u.,X,Xu.y.,X,X,X,X,X,X,X,X,X,X-Xe.-X-X<Xr.} Q..XoX6X*X;X,X,X,X,X,X,X,X<Xy.,X,X,X,X,X<X,Xy.<X1X<X,X",
"r.u.,X,X,X2X,X,X,X1Xu.y.y.1Xy.,X,Xu.u.,X,X,X,X<X,X,X,X,X,X,Xe.q.q.r.<X=X} Q..X.X.X.X$X,X,X,X,X,X,X,X,X,X<X<X,X<X,Xu.<X<X1Xy.y.1X",
",X,X,X,X,X,X,X,Xy.1Xy.y.,X,X1Xy.,X,X,X,Xy.,X,Xy.r.,X<X,X,X,Xr.e.e.r.<Xe.|.^.].!.{ {  X-X,X,X,X,X,X,X,X,X,X<X,Xy.,Xy.1Xy.,X<X,X1X",
",X<X,X,X2X,X,X,X,X,Xu.1Xy.y.1Xu.,X,Xy.,Xu.,X,X,X,X,X,X,X3X,X,X,X,X,X<X,X|.].].} [ -.-X,X,X,X,X,X<X,X,X,Xy.,X,X,Xy.1Xu.y.,X<Xy.,X",
",X,X<Xu.,X1X,X,X,X,X,X,X1X1Xy.,X,X,X,X,X,X,X,X,X,X,X,X,X,X,X,X<X<X<X<X2.|.].!.' #.q.,X,X,X,X,X,X,X,X,X,X,X,X,X,X,X,X,X,X,X,X,Xy.",
",X,X,X,X,X,X,X,X,X,X,X,Xy.<X1X,X,X,Xu.u.,X,X,X,X,X,X,X,X,X,X,X<Xy.<X<X,.!.!.' X.=X,X,X,X,X,X,X,Xy.<X,X,X,X,X,X,X,X,X,X,Xu.,X<X,X",
",X,X,Xy.,X,X,X,X,X,X,X,X,X,Xu.y.u.,X,X,X,X,X,X,X,X,Xu.,X,X,X,X,X<X,Xu.$X!.{ -.w.,X,X,X,X,X,X1X,X1X,X,Xy.,X<X,X,X,X,X,X,X,X,X1X,X",
"1X,X<X<X,X,X,X1X,X,X,X1X1X1X<X<X2X2X3X,X,X,X,X,X,X2X,X,X,X,X1X1X,X,Xu.w.X.*.,X,X,X,X,X1X1X1X1X1X,X,X1X<X1X,X<X,X,X,X1X1X1X,X,X,X"
};
