/* XPM */
static char *result[] = {
/* columns rows colors chars-per-pixel */
"64 64 219 2 ",
"   c #043A35",
".  c #083A35",
"X  c #043E3C",
"o  c #04423B",
"O  c #0C443D",
"+  c #2C483D",
"@  c #344335",
"#  c #52503E",
"$  c #083F41",
"%  c #044543",
"&  c #0B4543",
"*  c #044A45",
"=  c #094944",
"-  c #06464A",
";  c #054D4B",
":  c #0A4C4B",
">  c #194A44",
",  c #134E4B",
"<  c #05524D",
"1  c #0E564B",
"2  c #0B524D",
"3  c #1C5244",
"4  c #14524C",
"5  c #195549",
"6  c #1A524E",
"7  c #054E53",
"8  c #0B4F52",
"9  c #045353",
"0  c #0B5352",
"q  c #055954",
"w  c #0D5E50",
"e  c #03555B",
"r  c #045C5C",
"t  c #095C5A",
"y  c #175855",
"u  c #295E4C",
"i  c #335647",
"p  c #225F53",
"a  c #05625E",
"s  c #0B615E",
"d  c #1D655B",
"f  c #36634D",
"g  c #2B6459",
"h  c #376859",
"j  c #075A62",
"k  c #035C63",
"l  c #046363",
"z  c #076666",
"x  c #066965",
"c  c #046C6B",
"v  c #0A6E6D",
"b  c #176B65",
"n  c #03736D",
"m  c #08726A",
"M  c #167369",
"N  c #047572",
"B  c #037C75",
"V  c #0B7975",
"C  c #047D7B",
"Z  c #187B7A",
"A  c #246864",
"S  c #277768",
"D  c #3B7967",
"F  c #35716A",
"G  c #525F52",
"H  c #675B48",
"J  c #446448",
"K  c #466955",
"L  c #536751",
"P  c #4A7458",
"I  c #587655",
"U  c #686F4E",
"Y  c #687E58",
"T  c #476E64",
"R  c #487B65",
"E  c #587763",
"W  c #967550",
"Q  c #AF754B",
"!  c #A77A58",
"~  c #B87E54",
"^  c #B67D5C",
"/  c #827D68",
"(  c #B57F64",
")  c #05837C",
"_  c #08857A",
"`  c #0B827C",
"'  c #19827A",
"]  c #348878",
"[  c #6F845C",
"{  c #798A5E",
"}  c #568266",
"|  c #498C7B",
" . c #4D957A",
".. c #529779",
"X. c #6B8A65",
"o. c #7A956A",
"O. c #6A9A7B",
"+. c #76997D",
"@. c #87885A",
"#. c #B88159",
"$. c #888267",
"%. c #889565",
"&. c #969B67",
"*. c #91946D",
"=. c #9B9E69",
"-. c #8A8876",
";. c #849E73",
":. c #B68565",
">. c #A98C71",
",. c #95A36C",
"<. c #9CA46C",
"1. c #8DAA75",
"2. c #8BA778",
"3. c #94A673",
"4. c #97B37C",
"5. c #ABAA6C",
"6. c #B2AB6E",
"7. c #A5AD76",
"8. c #AAAD72",
"9. c #BAA976",
"0. c #A6B47A",
"q. c #BCB574",
"w. c #B9B878",
"e. c #C78C5C",
"r. c #C89775",
"t. c #D49F76",
"y. c #CEA871",
"u. c #C7AA7A",
"i. c #CCB376",
"p. c #CABB75",
"a. c #C5B978",
"s. c #D7B978",
"d. c #E3BD76",
"f. c #C4C17C",
"g. c #D3C47D",
"h. c #DBC37B",
"j. c #DBC77A",
"k. c #E3C36F",
"l. c #E4C473",
"z. c #E8C875",
"x. c #EACA76",
"c. c #E5C57A",
"v. c #E4CC7D",
"b. c #EDCD7A",
"n. c #F0CF7D",
"m. c #EFD17D",
"M. c #F4D47E",
"N. c #F9D77F",
"B. c #FBD87F",
"V. c #037F80",
"C. c #048581",
"Z. c #058A84",
"A. c #098D89",
"S. c #06928B",
"D. c #049A95",
"F. c #2C978D",
"G. c #03A29C",
"H. c #16A499",
"J. c #24AA98",
"K. c #36AE97",
"L. c #27B1A0",
"P. c #599887",
"I. c #75988D",
"U. c #7CA787",
"Y. c #6FAF91",
"T. c #46B5A2",
"R. c #7CBBA2",
"E. c #32C2B2",
"W. c #7FC497",
"Q. c #4DC4AD",
"!. c #899283",
"~. c #9B998A",
"^. c #A4988C",
"/. c #8BB38B",
"(. c #8DB093",
"). c #B9AB8A",
"_. c #A8BE82",
"`. c #A3A39A",
"'. c #B4B69A",
"]. c #81B6A1",
"[. c #AFADA4",
"{. c #AABDA4",
"}. c #C59F8D",
"|. c #D7AA89",
" X c #D3AF8C",
".X c #C6B585",
"XX c #C7B795",
"oX c #E5B88F",
"OX c #DABEA0",
"+X c #D3BFB1",
"@X c #A8C88B",
"#X c #BBC785",
"$X c #B9CD96",
"%X c #8ECDA1",
"&X c #ADCEB0",
"*X c #C7C988",
"=X c #DAC583",
"-X c #DECC85",
";X c #D7C396",
":X c #E2CD84",
">X c #EBCE88",
",X c #E6D484",
"<X c #ECD484",
"1X c #EED38A",
"2X c #F6D680",
"3X c #F8D780",
"4X c #F7D882",
"5X c #FBD981",
"6X c #F3D48B",
"7X c #E5C698",
"8X c #ECD49C",
"9X c #D4D1AE",
"0X c #D7D8B7",
"qX c #E6CCA9",
"wX c #EED7B2",
"eX c #CCDBC4",
"rX c #E4D4C5",
"tX c #C5E5C7",
"yX c #EFF6D8",
/* pixels */
"N.3XN.N.2X2XN.4X3X3X2X2XM.3XM.3XM.N.N.2X2XN.2X2X2XN.2XN.3X3X3X3X3X3X2X3X3X3X3X3X2X3X3XN.N.N.4XN.N.2X2XN.3XN.N.N.N.N.N.2X3XN.2X3X",
"2X2X2X2X2X2X2X2X2X2X2X2X2X2Xn.n.M.M.2X2X2X2X2X2X2X2X2X2X3X3X2X2X2X2X2X2X2X2X2X2X2X4XN.2X4X2X2X4X2X2X4X4X2X2X2X2X2X2X2X2X3X2X2X2X",
"2X2X4X2X2X2X2X2X2X2XN.M.2XM.b.x.b.M.2X2X2XM.2X2X2X2X2X2X2Xn.3X3X2X2X2X3X2X3X2X2X2XM.2X2X2X2X2X2X2X2XN.N.2X2X2X2X2X2X2X2X2XN.4XN.",
"N.N.2X2X2XM.2X2X3X2XM.M.M.n.n.b.m.m.M.M.2X2X2X2X2X2X2XM.3X3X3Xn.2X2X2X2X2X2X2X2X2X2X2XM.2X2X2X2X2X2XM.2X2X2X2X2X2X2X2X2X2X2X2XM.",
"2X2X2X2XN.2X2X2X2X2X2Xx.x.b.n.2XM.2XM.M.2X2X2X2X2XM.M.2XN.<X7X6X4X2XN.2X2X2X2X2X2X2X2X2X2X2X2X2XN.2X2X2X2XM.2X2X2X2XM.2X2X2XN.2X",
"2X2X2X2X2X2X2X2X2X2XM.x.z.x.m.2XN.M.m.M.2X2X2X2X4X2XM.6X1XqXrXqX7X<X2X2X2XN.N.2X2XM.2X2X2X2X2X2X2X2X2X2XM.M.m.2X2X2X2X2X2XN.2X2X",
"N.2X2X2XM.2X2X2X2X2X2Xb.b.b.2X4XM.z.z.z.c.n.2X2XN.2XM.,X0XrXrX+X'.XX:XN.2X2X2X2X2X2X2X2X2X2X2X2XM.2X4XM.x.x.b.M.2XM.2X2XM.2X2XN.",
"2X2XN.2X2X2X2X2X2X2X2X2X2X2X2X2XM.z.d.l.z.n.2X2X2X2X2X8XwXwXqXXX}.^..X4X2XM.2X2X2X2X2X2XM.2X2X2XM.<XM.M.b.x.M.M.M.2X2XM.2X2X2X2X",
"4XM.2X2X2X2XM.2X2X2X2X2X2X2XM.m.m.z.l.l.x.<X6X2X2X2X2XXXOXwXoX|.}.>.}.1X4XM.4XM.4XN.2X4X2X2X2X2Xn.n.b.n.n.<X<X2X2X2XM.M.M.N.2X2X",
"N.2X2X2X4XN.4XN.2X2X2XM.2X2XM.2XM.b.b.x.b.2X2X2X2X2X2X.X}.oXt.r.r.( u.<XM.2XM.4XM.4XM.2X2XM.2X2Xn.x.z.x.2X2X2X2Xm.m.M.M.N.M.2X2X",
"2X2X2X2XN.M.2X2XM.2X2X2X2X2X2X2XM.2X2X2X2X2X2X2X2X2X2XoXr.^ ^ ^ ! ( s.M.2X2X2X2X2XN.4X4X2X2X2X2XM.n.n.n.2X2X2Xx.z.z.b.M.2X2XM.2X",
"2X2X2X2X2X2X2X2X2X2X2X2X2X2X2X2X<X2X2X2X2X2X2X2X2X2X3X2Xd.^ ^ :.^ :.i.M.4X2X2X2XM.4X4X2X2X2X2X2X2XM.<X2X2X2Xm.z.k.l.z.M.2X2X2X2X",
"M.4XN.N.2X2X2X2X2X2X2X2X2X2X2X2X2X2X2X2X2X2X2XN.2X2X>X8X;Xe.#.~ ~ ! E I.;XM.2X2X2X2XN.M.N.N.2X2X2X2X3XN.M.M.b.z.l.l.x.M.2XN.M.2X",
"M.4X2XN.2XN.2XM.2XN.2X2X2X2X2X2X2X2X2X2X4X2X2XM.2X$XQ.E.T.*.Q Q ~ H h (.0XtX9X,XM.N.M.N.M.2X2X2X2XM.2X2X2XM.M.b.b.b.b.<X6XM.N.M.",
"2X2X2XM.2X2XM.2X2X4X2X2X2X2X2X2X2X2X2X2XN.2XN.M.@XL.G.G.D.| ! ~ W i 8 A I.eXyX0X-XM.M.N.2XN.2XM.2X2X2X2X2XM.M.M.2X<X2X2X4XN.4XM.",
"2X2X2X2X2X2X2XN.2XN.2X2XM.4X4X2X2X2X2X2X2XM.N.*XF.N C C.A.Z i # + - 7 e k ] &XyX&Xg.M.M.2X2X2X2X2X2X2X2X2X2X2XM.2X2X2XM.M.4XM.4X",
"2X2X2XM.2X4XN.2X2X2X2X2X2X2X2X2X2XN.2X2X3XN.v.U.C l z z s y > > & - 7 e j c A.R.&X$Xv.M.M.2XM.2X2X2X2X2X2X4X2X2X2X2X4XN.M.2X2XM.",
"N.2X2X2X2X2X2X2XN.2X2XM.2X2X2XN.2X2X2X2X2X3Xf.] n l l s a 0 , , : 7 7 e j k c b {.].#X4XM.N.2X2X2X2X2X2X2XN.2X2X2X4X4X2XN.M.2X2X",
"2X2XM.2X2X2X2X2X2X2X2X2X2X2X2X2X2X2X2XM.M.j.o.x x r t t a t 2 , 0 9 e e j j r 9 (.]./.v.M.m.N.N.2XN.2X2X2X2X2X2X2X2X2XN.2X2X2XM.",
"2X2X2X2X2X2XM.2X2X2XN.2XN.2XN.2X2XN.2X2XB.w.g a k t r l t t y : 7 9 7 e j e e 9 | {.P.7.z.b.n.2X2X2X2X2X2X2X2XM.2X2X2X2X2X2XN.4X",
"2XN.2XN.4X2X4X2X2X2X2X2X2XM.M.2X2X2X2XN.B.w.d q r j r r t t y , y A A y e e 9 7 d {.I.P.a.x.b.2X2X2X2X2X2XM.2X2X2X2XN.2X2X2X2X2X",
"2X4XM.4X2X2X2X2X2XM.2X2X2XN.2X2X2X2X2XM.B.0.x 2 t k r r q q 0 6 R !.I.g 7 9 9 7 r U.Y.) 2.c.m.2X2X2XN.2X2X2XN.4X2X2X2XN.2X2X2X2X",
"2X2X2X2X2X2X2X2X2X2X2X2X2X2X2XN.2X2XM.N.M.4.c < t c c k 9 9 4 , F E T 6 8 9 ; 7 t b v c D *Xn.2X2X2X2X2X4X2X2X2X2X2X2X4X2X2XN.N.",
"M.N.2XM.2X2X2X2X2X2X2XN.M.m.M.M.2XM.N.N.g. .n = ; c N n l 9 2 : : 4 8 , 9 7 : ; 0 k z k l +.:X2X2X2X2X2XN.M.2X2XM.2X2X2X2X2XM.2X",
"2X2X2X2X2X2X2X2X2X2X4X2Xb.l.x.M.2X2X2X2X@X` c < : r C C.N l < 2 : 2 < q q 8 - = ; l z z N F.*XM.2X2X2X2X2XN.2X2X4XM.2X2X2X2X2X2X",
"2X2X2X2X2XM.2X2Xm.2X2X2Xb.c.x.M.2XM.M.2X4.B n x ; 2 n ) N N a ; : < 2 0 2 ; $ & , w l e A.H.*X3XM.2X2X2X2X2XN.2XN.4X2X2XN.2X2XM.",
"N.2X2X2X2X2X2X2XM.b.c.b.b.b.b.2XM.M.2Xm.4.n x m a h D l N Z.) v t 9 7 9 0 0 : 0 X.] j v A.A.(.:X4XN.2X2X2XM.2XM.M.2X4X2X4X2X2X2X",
"M.2X4X2X2X2X2X2XM.l.k.z.b.2X2X2XM.M.N.<X/.Z.z 9 5 P R q l N ` ` c e e 9 9 : : 0 7.+.v v C.V.F.*X4XM.2X2X2XN.N.2X2XN.N.2XN.M.2X2X",
"2X2XN.2X2X2X2X2Xm.x.z.z.M.4X2Xn.b.m.n.g...V x 9 f o.S q q c Z ' n k e 9 9 ; : 2 8.3.b z v v D.%X<XM.N.2XN.2X2X2X2X2X2X2XM.2X4XM.",
"2X4X2X2X2X2X2X2XM.M.m.m.2X2XM.x.l.l.z.p.E < - , { 0.' x q n Z Z n x r 9 9 7 - 4 8.v.P z c l c  .-XM.2X2XN.2X2X2X2XM.4X2X4XN.2X2X",
"2X2X2X2X2X2XN.M.M.M.2X2X2X<Xm.z.k.h.k.l.1.V g %.<X/._ m l B V v N N l 9 9 < = : <.5XX.b t = 9 ;.v.4XM.4X2X2X2X2X2XN.2X2X2X2X2X2X",
"N.2X2X2X2X2X2X2XN.2X2X2X2Xm.M.x.z.l.x.h..XXX6.M.4X1.B x l n m n C ) c r 9 9 2 1 R g.*X'.+.6 4 w.4XN.4XN.2X2X2X2X2X2X2XN.2X4X2X2X",
"N.4XM.4XN.2X2X2X2X2X2X2X2XM.M.M.2Xb.n.>XOXu.i.4XN._._ m B m s l n N N n a < 1 w <.1X8XqXoXE E j.N.N.2X2X2X2X2X2X2X2X4XM.4X2X2X2X",
"M.2X2XM.2X2X2X2X2X2X2X2X2X2X2X2X6X2X2Xi.:.:.h.4XN.M.;.w q 2 : < q < 9 < < ; * P p.5X>X|.r.s.>X3XN.N.M.2X2X2XN.M.2X2XM.2XN.2X2X2X",
"2X2X2X2X2X2X2X2X2XM.2X2X2X2X2XM.n.M.N.s.! y.4XN.N.,XO.q & % & = * ; * O X X   K p.6Xi.r.( d.3X3X2XM.2X2X2X2X2X2XM.N.N.2X2X2X2X2X",
"2X2X2XN.N.4XN.2X2X2X2X2X2X2X2X2XN.3XN.n.s.b.M.4XN.@XH.C k ; $ $ % X X X $ $ - g w.3Xd.y.d.n.3X3X2X2X2X2XM.N.2X2X4XM.2X2XM.2X2X2X",
"2X2X2X2X2X2X2X4X2X2X2X2X2X2X2X2X3X2X2X3X4XN.M.N.,XW.S.Z.Z.N t 8 : ; ; % - 7 e 0 7.3XM.2X2X2X2X2X2X2X2X2X2X2X2X2X4XM.M.M.2X2X4X2X",
"2X2X2X2XN.2X2X2X2X2X2X2X2XN.2X2XM.3X2X2X4XM.2X4X@XJ.) n c n N c c ` ) n c n k e 3.2X3X3X2X2X2XM.m.M.2X2X2X2X2X2XN.4X4X2X2XN.4X2X",
"2X2X2X2X2X2X2XM.2X2X2X2X2X2X2X2X2X2X2X2X4X4X4X,XY.D.S.B l q < * q s m _ C.C.N j X.-XM.M.2X2Xn.x.x.M.M.N.2X2XN.M.M.2X2X2X4X2XM.4X",
"2X2X2XN.2XN.2X4X2X2XM.4X2X2XN.2X2X2X2X2Xm.N.4X#XL.D.C c a * = 3 [ J O - < l N c } h.M.<X2X2XM.x.b.b.m.M.M.2XM.N.2X2XN.4XM.M.2XN.",
"2X2X2X2X2XM.4XM.2X2X2X2X2XN.N.2X2X2X2XM.M.2X<XW.G.N 7 - - = O [ j.5.u q c B ) N M w.3XM.b.b.b.M.m.M.M.M.<X2X2X2X2X2X2X2X2X2X2X2X",
"2XM.2X2XM.4XN.4XM.2X2X2XM.2X2X2X2X2X2X2X2XN.*XK.) r e - - & I g.B.m.X.n Z.S._ B z 3.M.n.z.z.b.M.2XN.M.M.n.2X2X2X2X4X2X2X2XN.M.2X",
"2XN.2XN.N.2X2X2XN.2X2X2X2X2X2X2XN.2XM.2X5X,XW.D.B a < : % f q.5XN.B.7.S n _ Z.) x I.:XM.b.b.<X4X4X<Xx.z.z.b.2X2X2X2X2X2XM.2X4XN.",
"2X4XM.4X2X4XM.2X2X2XN.2X2X2X2X2XN.2X2X2XN.#XJ.) l < * * 3 %.M.N.N.B.6.D c ) ) _ B Z ;.c.2XM.2X4X2Xb.l.k.l.x.b.2X2X2X2XM.N.2X2X2X",
"2X2X2X2X2X2XM.2X2XM.m.M.M.2X4XM.2X4X2XN.-XY.) a ; * * o I v.4X2XN.3Xh.;.' _ _ ) n a K i.N.N.2Xm.M.b.z.l.l.b.b.2X2X2X2XN.2XN.2X2X",
"2X2X2X3X4X2X2X2X2XM.x.x.m.M.4X4XM.M.M.B.#X' r < * ; % u 6.3X2X2XN.4XM.m.O.) n x t y =.m.2XN.N.2XM.b.b.b.x.b.2X2X2X2X2X2X2X2X2X2X",
"2X2XM.3X2X2X2X<X2Xb.b.b.m.M.M.2X2X2XM.5X0.x ; % ; o 5 %.2X4X2X2X4XM.2X3X1.M < < < ; 3.2X2X2X1X4X>X2X2X2Xm.2X2X2X2X2X2X2XM.4X2X2X",
"2X2X2X2X2XM.M.x.b.m.m.m.2XM.M.M.4XM.M.N.0.a % % * O [ M.4X2X2X2XN.2X2X4Xf.} * < ; * o.v.N.2X4X2XM.2X2X2X2X2X2X2X2XM.2XN.4XM.2X2X",
"2X3X2X2X2X2Xb.l.z.b.2X2X2XM.M.M.M.N.2X4X4.q o % o u 5.5X4XM.4X2XM.4XN.4XB.X.= * ; * } g.2X2X2X4XM.3XM.3X2X2X2XM.N.2X2XN.N.N.2X2X",
"2X3X2X2X2X2XM.b.x.M.4X4X>Xx.b.b.m.M.2X2X4.< % o = { 3XN.N.M.N.2X4XM.2XN.B.o.1 2 * % K g.3X2X2X2X3X3X2X2X2XN.4X4XM.2X2X2X2X2X2XM.",
"2X3X3X2X2X2Xn.2XN.2X2X2Xb.l.k.k.x.m.4X4X7.< o o > o.5X3XN.2XM.4XN.2X4XN.B.,.w < < % 6 q.3X4X2X2X2X2X3X2X2X2X2X2X4X2X2X4XN.N.2X2X",
"2X2X2X2X2X2X2X2XN.M.M.m.x.l.k.h.c.m.4X4X<.o o   > &.5X4X4XN.4XM.2X2X3XN.B.0.u * < * : 5.3X4X2X2X2XN.2XN.N.2X2X2XN.M.M.2X2X4X2X2X",
"2X2X2X2X3X2X2X2X3XM.n.<XM.x.x.b.m.m.4X4X&.o o   + &.5XN.N.M.N.4X2X2X2X4X3Xg.h % < ; % 5.4X4XN.2X2X2X2XN.2XM.2X2XM.4X2X2XM.4X2X2X",
"3XM.2X2X3X2X2X2X2XM.3X2XM.2X2X2XM.M.4Xm.&.o .   i 5.3XN.M.M.M.2X2X<XN.N.4Xv.I % < ; % <.2X2X2X2X<X2XM.2X2X2X2X2X4XM.N.2X2X2X4X2X",
"2X2X2X2X2X2X2X2X2X2X2X2X2X2X2X2XM.N.N.m.&.o o   J p.N.N.M.M.M.2XM.6X2X2X2X1XI ; < % % <.2X2X2X2X2X2X3X2X2X2X2X2XN.M.2X2X4X2XM.2X",
"2X3X3X2X3X2X2X2X2X2X2X2X2X2X2X2XN.M.N.x.@.o o   J g.3X3XN.M.M.M.2X2X2X2X4X4XY < < ; % =.2X2X2X2X2XM.2X2X2X2XN.2X2X2X2X2XN.2X2X2X",
"N.2X3X2X2X2X2X2X2X2X2X2X2XM.N.2X2X3X3Xv.{ o .   f i.3X2X3X3X>Xb.b.<X2X2X2X3X=.p ; % X [ j.N.N.2X2X2X2X2X2X2X2X2X2X2X2XN.2X4X2X2X",
"N.N.2X2X3X2X3X2X2X2X2XM.M.4X2X2XN.2X2XN.5.+     L h.3X2X2Xn.b.c.c.b.2X2X2X3X.XK ; ; % i p.3X2XM.2X2X2XM.2X2X2X2XN.4X2X2X2XM.2X2X",
"M.2X2X2X2X2X2X2X2X2XN.N.4X2XM.2X2X2X2X2Xv.%.    U B.2X2X2X2X2Xc.b.n.3X3XN.2X:X} 9 9 % L p.4XN.4X2X2X2X2X2X2XN.N.N.2X2XM.2X2X2X4X",
"2X2X2XN.2X2X2X2X3X2X2X2XN.2X2XN.2X2X2X2X4X5.+ @ @.B.2X2X2X2X2X2Xn.2X3X2X2X2X2X7.i     =.N.N.M.2X2X2X2X2XN.2X4X2XM.2X2XN.N.2X2X2X",
"2X2X2X2X2X2X2X2X2X2X2X2XM.2XM.4X2X2X2Xb.=X'.-.H @.-X3X2X2X2X2X3X2X2X2X2X2XM.2X2X/ G G a.3XN.2X2X2X2X2X2X2X2X2X2X2X2X2X2X2X2XN.2X",
"2X2X2X2X2X2X2X3X2X2X2X2X2X2X4XM.4X3X>X.X'.[.~./ $.9.3X2X2X2X2X2X3X3X2X2X2X2X2X4X9.~.`.).=X<X2XN.2X2X2X2X2X2X2X2X2X2XM.2X2X2X2X2X",
"2X2XM.N.2X2XM.N.2X2X2X2X2X2XN.2X3X3X:X`.^.~.-./ / 9.3X2X2X2X2X2X2X2X2X2X2X2X2X2X9.^.`.`.^.a.<X2X2X2X2XN.2X2X4X2X2X2XN.2XM.N.2X2X",
"4X4X2X2X2X2X2X6X2X4X2X4X4X4X2X2X3X3Xs.=.9. Xc.b.<X2X4X3X2X4X3X4X2X2X2X2X2X2X3Xa.*.-.!.-.-.$.s.4X4X2X4X2X2X2X2X2X2X4X2X2X4X6X2X2X"
};
