/* XPM */
static char *result[] = {
/* columns rows colors chars-per-pixel */
"64 64 221 2 ",
"   c #063635",
".  c #083535",
"X  c #063836",
"o  c #093738",
"O  c #063A3D",
"+  c #0A3B3B",
"@  c #103530",
"#  c #01403F",
"$  c #0D413E",
"%  c #19473E",
"&  c #244C3C",
"*  c #29523E",
"=  c #36563B",
"-  c #43523C",
";  c #053C42",
":  c #083F42",
">  c #003F49",
",  c #054344",
"<  c #0B4444",
"1  c #064A44",
"2  c #0A4A45",
"3  c #04454B",
"4  c #0B4648",
"5  c #054B4C",
"6  c #0C4C4B",
"7  c #134846",
"8  c #124C4A",
"9  c #0E514D",
"0  c #13514D",
"q  c #054A55",
"w  c #034C54",
"e  c #024C59",
"r  c #035054",
"t  c #0C5053",
"y  c #03545C",
"u  c #08575C",
"i  c #145656",
"p  c #224E48",
"a  c #28574D",
"s  c #365748",
"d  c #2C5753",
"f  c #365C54",
"g  c #13625F",
"h  c #2A655A",
"j  c #3C645C",
"k  c #055B65",
"l  c #035C64",
"z  c #05656D",
"x  c #0B636A",
"c  c #186869",
"v  c #056A75",
"b  c #166B73",
"n  c #09757B",
"m  c #177679",
"M  c #286F6A",
"N  c #316C65",
"B  c #2B776F",
"V  c #3B756B",
"C  c #297576",
"Z  c #585A42",
"A  c #655A45",
"S  c #496348",
"D  c #576F4E",
"F  c #486956",
"G  c #556C55",
"H  c #587158",
"J  c #66685D",
"K  c #736854",
"L  c #677A5B",
"P  c #797852",
"I  c #476C62",
"U  c #546D6D",
"Y  c #457869",
"T  c #557A69",
"R  c #487778",
"E  c #577A76",
"W  c #7C6C62",
"Q  c #7A7768",
"!  c #657D77",
"~  c #7B7E78",
"^  c #8B6038",
"/  c #976C45",
"(  c #9A734D",
")  c #856A57",
"_  c #936E56",
"`  c #83745B",
"'  c #9A7359",
"]  c #A67B52",
"[  c #A77B57",
"{  c #87776C",
"}  c #997765",
"|  c #A37D63",
" . c #2C827E",
".. c #6B825D",
"X. c #79865C",
"o. c #4F8878",
"O. c #6D8362",
"+. c #798863",
"@. c #66857A",
"#. c #718F74",
"$. c #769771",
"%. c #83895A",
"&. c #928F5F",
"*. c #A2815B",
"=. c #848966",
"-. c #93866F",
";. c #899367",
":. c #969A69",
">. c #878379",
",. c #8B967A",
"<. c #979678",
"1. c #A8976A",
"2. c #B1946A",
"3. c #8BA176",
"4. c #98A578",
"5. c #A9A56B",
"6. c #AFA96D",
"7. c #B2A76C",
"8. c #A7A877",
"9. c #B5AB72",
"0. c #ADB277",
"q. c #BAB477",
"w. c #C5A669",
"e. c #CFB16C",
"r. c #C9AB74",
"t. c #CAB676",
"y. c #D4BD76",
"u. c #DBBC73",
"i. c #D8BC77",
"p. c #D9C57B",
"a. c #DBC47B",
"s. c #E3C36F",
"d. c #E4C473",
"f. c #E7C876",
"g. c #E9C976",
"h. c #E3C57A",
"j. c #E4CA7C",
"k. c #EDCD7A",
"l. c #F0CF7D",
"z. c #EED17E",
"x. c #F4D47E",
"c. c #F9D77F",
"v. c #F9D87F",
"b. c #0B7B83",
"n. c #1A7C84",
"m. c #0E8082",
"M. c #158288",
"N. c #128B93",
"B. c #268588",
"V. c #338E8D",
"C. c #2B8A92",
"Z. c #389796",
"A. c #31A69D",
"S. c #39A9AB",
"D. c #36AEB3",
"F. c #32AEB5",
"G. c #51938C",
"H. c #69988B",
"J. c #7F9482",
"K. c #728F90",
"L. c #4DA399",
"P. c #58A59B",
"I. c #74A796",
"U. c #4BB1B5",
"Y. c #6BBDB3",
"T. c #4EBFC4",
"R. c #53C3CB",
"E. c #918E8A",
"W. c #879889",
"Q. c #949A8A",
"!. c #939990",
"~. c #A19F89",
"^. c #89A68C",
"/. c #93BA96",
"(. c #A9A886",
"). c #B5AB8A",
"_. c #A7A999",
"`. c #B0B690",
"'. c #BBB394",
"]. c #87B9A8",
"[. c #86B3B8",
"{. c #A6ABA8",
"}. c #AAB9A6",
"|. c #B4B8AA",
" X c #B7BCB7",
".X c #C9B886",
"XX c #ACC38E",
"oX c #B8C690",
"OX c #BCCCB7",
"+X c #C7C586",
"@X c #D9C687",
"#X c #CBC696",
"$X c #DACC94",
"%X c #CFD19B",
"&X c #D2D197",
"*X c #E3CB86",
"=X c #EACE82",
"-X c #EDD283",
";X c #EDD48B",
":X c #F6D680",
">X c #F8D780",
",X c #F7D882",
"<X c #FBD981",
"1X c #F2D78A",
"2X c #F3D98C",
"3X c #E7CF90",
"4X c #EAD493",
"5X c #D9CEA3",
"6X c #C3C7BC",
"7X c #D9D6BB",
"8X c #E5D5A4",
"9X c #B6BFC0",
"0X c #85CCC6",
"qX c #97CEC6",
"wX c #A2D9C4",
"eX c #C5CCC8",
"rX c #D0D7CC",
"tX c #DADED3",
"yX c #E4E6D5",
"uX c #DEE7E9",
"iX c #E8EFED",
/* pixels */
"v.>Xc.c.>X>Xv.>X>X>X>X>Xc.:Xx.>X:Xx.x.:X>Xc.:X:X:Xx.>X>X>X>Xc.:X>X>X>X>X>X,Xv.c.>X>X>X>X>X>X>X>X>X>X>X>Xc.c.c.c.c.c.c.>X>Xc.>X>X",
":X:X:X:X:X:X:X:X:X:X:Xx.:X:Xl.l.x.x.>X:X:X:X:X:X:X:X>Xx.:X:X:X,X,X:X:X:X:X:X:X:X3X3X3X;X;X>X1X>X>X>X>X>X:X:X:X:X:X:X:X:X>X:X:X:X",
":X>X:X:Xx.,X:X:X:X:Xx.:X:Xx.k.g.k.x.:X:X:Xx.:X:X,X>X:X:X:X:X:Xv.x.:X:X:X:X:X:X2X7XeX9X9X6X5X1X>X:X:X:X:X:X:X:Xc.:X:X:X:X:Xx.:X:X",
"x.:X:X:X:X:X:X:X:X:Xx.x.x.l.l.k.k.l.x.x.:X:X:X:Xx.x.:X:X:Xx.:X,X:X:X:X>X:X:X4XyXiXeXE.~ E.{..X;X:X:X:X:X:X:X:Xx.:X:X:X:X>X:X:X:X",
":X>X:X:Xx.,X:X:X:Xx.x.k.g.k.l.x.:X:Xx.:X:X:X:X:X,Xx.:X:X:X:X,Xx.,X,Xv.x.:X;XtXuX XE.>.W W { .X-X:X:X:X:X:X:Xc.c.:X:Xx.:Xc.>X:X:X",
":X>X>Xx.:X:X:X:X:Xx.x.k.f.g.x.:X:Xx.l.x.-X:X:X:X,X>X:Xx.>X:X>Xx.x.x.,Xv.:X5XrX|.>.) ) { ) } .X-X:X:X:X:Xl.l.c.c.:X:X:X:X:Xx.>X:X",
">X>X:X:X:Xx.>X:X:Xx.z.k.k.k.:X:Xl.k.f.g.k.l.:X:Xx.:Xx.,Xx.>X:X:X,Xx.x.x.x.5X{.{ ' _ ) _ } } r.=X:X:X:X:Xl.k.k.l.x.:X:X:X:X:Xx.>X",
"x.:X:X:Xx.,X:X:X:Xx.:X:X:X:X:X:Xl.f.s.s.f.l.:X:X:X:X>X>X,Xx.:X:Xx.v.v.;X$X}.K.W / [ ' ' ' ' r.:X:X:X=Xl.k.k.k.l.x.:X>Xx.x.:X:X:X",
">Xx.:X:Xc.,X,X>X:X:X:X:X:X:Xx.x.k.f.d.d.f.=X:X1X:X:X,Xx.x.v.v.v.:X%XOXwXqX[.U K / [ [ [ [ } i.x.l.l.k.k.l.-X-X:Xx.:Xx.x.x.x.>X,X",
",X,Xx.:Xx.>Xx.x.:X:X:X:X:X:Xx.x.x.k.k.k.k.:X:X:X,X:Xx.,X,Xx.v.v.%X0XR.F.U.[.U A / / ] ] [ 1.*X>Xx.g.f.k.:X:X:X:Xk.x.x.x.x.x.,Xx.",
"x.,X:X:X>X:Xx.>Xx.:X:X:X:X:X,Xx.x.:X:Xx.:X:X:X:Xx.,X:X:Xx.,X,X&X0XT.F.A.n.[.E A ^ ^ ] ^ ( r.:X:Xx.k.k.=X:X:X:Xg.g.f.k.x.x.,Xx.>X",
"x.,Xx.,X:X:X,Xx.>X:X:X:X:X:X:X:X:X:X:X:X:X:X:X:X,Xx.:Xx.:Xv.*X].T.F.N.b.n.K.E K / ^ ] ] w.k.:X>Xx.x.:X:X:X:Xl.f.d.s.f.x.:X,Xx.,X",
"x.:X:X>X>X:X:X,Xc.,X:X:X:X:X:X:X:X:X:X,X>Xx.>Xx.x.,Xx.,Xv.a./.D.A.U.C.b.k K.! -.e.2.*.w.k.:X:Xx.:X>X>Xx.x.x.k.f.d.d.f.k.:X:X:X:X",
"c.>X:Xc.>Xx.x.>X:Xx.:X:X:X:X:X:X:X>X:X,X,X,X,Xx.,Xx.,Xx.x.#XU.N.b.m.n.n.z R K.{ e.c.f.l.:X:X:X>X:Xx.x.:X:Xx.x.k.k.k.-X:X:X:X:X:X",
">X>Xx.x.>X,Xx.:Xc.:X:X:Xx.,X,X,X,Xx.,X>Xx.x.x.,X>Xv.x.<X#XP.N.v z z z z z n.G.).g.c.x.x.:X:X:Xx.:X:X>X>X:Xx.x.:X-Xl.:X:X:X:X:X:X",
":Xx.,X>Xx.:X:X:X:X:X:X:X,Xx.,Xx.x.:X,Xx.,X>X,Xx.,Xx.x.-X/.M.v l e k k k e e q j 7.g.l.c.x.>X:X:X:X:X:X:X:X:X:X:X:X>X:Xx.:X:X:X:X",
":X:X:Xx.,Xx.>X:X:X:X:Xx.:X:X:X:X:X:X:Xx.>X:X:Xx.x.,Xv.oXV.u z l q q y z y q q q a +.t.x.x.>Xv.x.:X:X:X:X,X,X:X:Xx.,X,Xx.v.x.,Xx.",
":X:X:X:Xx.,X,X:Xc.:X:X:X>X:X:Xc.:Xx.:X:X>X:X:X:Xx.z.@XH.b y z k 3 , 5 u l e q e e q F t.x.x.,X,X:X:X:X:X:X:X:X:X:X,X>X>Xx.,X>Xx.",
":Xx.,X:Xx.,X:Xx.:X:Xx.:X:X:X>X:X:X>Xx.:X:X>X:X:Xx.@XI. .r l z l 3 > > r y e e e e e u I 6.z.x.x.:X:X:X:X:X:X:X:Xx.:X:X:Xx.,X,Xx.",
":X:Xx.>X,X:X:X>X:X>X:X:Xc.:Xc.:X:X>X>X:Xx.:X:X>Xz.4.M l y z z r 5 > ; , w y r r e e e e 0 ;.t.-X>X:X:X:X:X>Xx.:X>X>X:Xx.:X>Xx.,X",
"x.:X:X:X>X:X:X>X:X:X:X,X>Xx.:X:X:X:X:X>X>X:X>Xz.).o.z y l z y 3 3 > + , t t 9 t q e e q w 5 d :.j.>X>X,Xx.x.>X:X:Xx.x.,X>X:X:X:X",
",X>X:X:X:X:X:X:X:X:Xx.>X:Xx.:X:X:X:X:X>X:X:X-XXXP.n.z y z l 3 3 : ; O : 8 F X...f t t 0 t t w r :.:X>X>X>X>Xx.,X,X,X>X:X>X:X:X:X",
"x.>X:Xx.:X:X:X:X:X:X:Xx.:X>X:X:X:X:X:Xx.>X-XoXY.S.C.z z z q 3 , ; O ; 4 3 :.v.z.6...d 9 9 9 9 5 F 1.t.a.x.:X:X:Xx.>X>X>X:X:Xx.c.",
"x.v.:X:X:X:X:X:X:X:X:Xx.x.x.l.x.,Xx.:X:Xx.+XY.S.v b.m m b q 5 , > : < 5 3 %.v.v.v.z.5.F 9 1 2 a G { } 2.k.,X:X:X:X:Xx.:X>X:X>X:X",
":X:X:X:X:X:X:X:X:X:X:X:Xk.d.g.x.x.:X:X:Xp.I.D. .n C.B.b x t 5 , < < 4 8 > +.k.>X:X:X<Xt.:...+.9.7.*.| } i.x.>X:Xx.,X:X:X>X>Xx.,X",
",X:X:X:X:Xx.,X:Xx.x.:X:Xk.f.g.:X:Xx.x.>XXXM. .l m C.b r 5 r 5 , : < 8 t > =.:X>X:X:X:X<X<Xg.x.<Xl.w.[ ' u.x.x.>Xv.x.x.,Xx.,X,Xx.",
"x.:X:X:X:Xx.,X:Xx.k.g.k.k.k.k.x.x.x.,Xx.4. .z r u x r r 5 5 1 1 < 7 8 6 > :.<X:X:X:X:X:X:X>X>X>X:Xl.e.r.k.:X:Xx.,X:X:X:X:Xc.x.,X",
":X>X:X>X:X:X:X:Xx.d.d.d.k.:X:X:Xx.x.x.t.m  .l i B x 5 1 6 5 1 2 6 8 0 6 7 5.<X:X:X:X:X:X:X:X>X:X:X:Xx.x.>Xx.x.:Xx.c.>X:Xc.x.,X:X",
":X>X>X>X:X:X:X:Xz.g.d.g.x.:X:Xl.z.z.d.-.B.m.g E L.c 5 5 5 5 1 2 2 0 9 , H y.<X:X:X:X:Xc.:X:X:X:X:X:X:X:X:X:X:X:X:X:X:X:X:Xx.>X:X",
":X,Xx.:X:X:X>X:Xx.x.z.x.:X:Xx.g.d.s.w.Q C x O.XXV.x 6 , < 2 2 2 2 9 6 , ;.>X:X>X:X:Xc.:X:X:X:X:X:X>X:X:Xc.:X:X:X:X:X:X:X:X>X:X:X",
"x.>X:X:X:Xx.:Xx.x.:X:Xx.:Xx.z.f.s.u.2.J M T z.XXB.E @.< # $ 1 2 8 0 6 a 6.<X:X:X:X:X:X:X:X:X:X:X:Xc.:X>X:X:X:X:Xx.c.:X:X:X:X:X>X",
":X>X:X:X:X:X:X:Xx.:X:X:X:Xz.z.k.d.d.a.;.$.a.p.$.M K.! O , # $ 1 $ 8 8 H p.<X:X:X:X:Xc.>X:X:X:X:X:X:X>X:X:X:X:X>X:X>X:X:X:X:X>X:X",
":X:X,Xx.:Xx.:X>X:X:X:X:X:Xx.x.:X:Xz.z.z.-X,Xq.h V !.I # , , , $ $ 7 O D p.c.x.:X>X:X:X:X:X:X>X:Xx.>X:X:X>X:X:Xx.>X:Xx.,Xx.,Xx.:X",
"x.:Xc.,X,X,X:X:X:X:X:X:X:X:Xx.:X:X:X:Xv.v.<X0.g @.Q.d , # < 4 7 $ $ O $ :.c.:X:X>Xx.:X>X:X>X:X:X>X:X:Xx.x.:Xx.,Xx.>X:X:X:X>X:X,X",
",X:Xx.>Xx.>X:Xx.:Xx.:X,X:X:X:Xx.:X:X:Xx.x.<X0.N W.J.7 , , 4 2 + + X + O H p.>X,X:X:X:X:X:X:X:X:X:Xx.:X:X:X:Xx.,Xx.x.c.>X,Xx.:X:X",
",Xx.>Xx.,X>X>X:X:X:X:X:X:X,X>Xx.x.:X,Xx.v.v.0.G.{.@., 4 , 4 < $ $ X + O ; L j.>X:X:X:X:X:X:Xx.:X:X:X:X:X:Xv.>X:X,X,Xx.>Xc.,Xx.:X",
"x.,X,Xx.:X>Xc.,X:X:X:X:X>X,X,X:X:X,X:X:X>Xj.$.H._.Y 3 4 5 4 < $ o . o ; ; : =.:X>X:X:X:X:X:X:Xx.:X:X:X:Xx.:X:X:X,X>Xx.>X:X:X>X,X",
",Xx.x.,X:X:X:X:Xx.,X:X:Xx.:Xx.:Xx.,X:X:Xx.0.M H.~.d 3 4 4 7 $ + . . . ; ; ; d 9.>X:X:X:X:X:Xx.z.x.x.:Xx.:X:X:X:Xx.x.,Xx.x.>X:X:X",
"x.:X>X>Xx.>X:X:X,Xx.:X:X>X:Xx.v.:X:X:X,Xf.,.V.].W.7 < < 5 F S X . o o + O ; ; L j.:X:Xx.:X:Xx.g.g.x.x.x.:X:Xx.x.,Xv.x.,X>X>X:X:X",
">X>X,Xx.>X:X:X>Xx.,Xx.:X:Xc.>Xx.:Xx.,X>Xy.! H.OX! < < < d 6.t.s   o + + + : : 0 9.>X:Xx.:X:Xx.k.k.k.x.x.x.:Xx.c.:X:X:X:X:Xx.,Xx.",
":X:X,Xx.>Xx.,Xx.:X:X:Xc.:X:Xx.v.:X:Xv.v.0.h H.(.F : : 4 Q z.<X7.s o o : + ; ; ; G y.>Xx.k.k.k.z.z.x.x.x.:X:X:X:X:X:X:X:X:X:Xx.,X",
":X:Xx.,X>X,X:X>X:Xv.x.,Xx.:Xx.x.,X:X+X^.o.M I.,.p < 4 d 5.v.x.,X=.+ o + O ; ; ; ; =.k.l.f.d.k.:X:Xx.x.x.l.x.:X:X:X:Xx.:X:X>X:Xx.",
":X:X:Xx.>Xx.x.>Xv.x.x.v.,X:X>Xx.p.$.L.n y  .K.! < < 3 L j.,X,X>Xa.G   O o O + ; O d q.x.k.k.:X,X:X-Xg.g.g.k.x.:X:X:X:X:Xc.:X,Xx.",
"x.>X:X>X,X,Xx.,Xx.x.v.x.x.>X:XoXG.n  .z y V ^.U O ; d 5.<X,X,Xx.<Xt.S O O O ; : : > 5.c.x.:X:X,X:Xk.d.s.d.g.l.:X:X:X:X:Xx.>Xx.,X",
":X:X:X:X:X:Xx.:Xx.x.k.x.x.x.XXB.n n l u V ^.Q.f : < ..z.,X:X,X:Xv.<X=.$ + + ; ; ; ; 5.<X,X,Xx.x.:Xk.d.d.d.f.-X:X:X:X>X:X>X:Xx.,X",
":X:X:X:X>X:X:X:Xv.x.g.k.p./.A.n y g o.W._.Q.F % O H a.v.x.:Xx.:X>Xv.j.L O O ; ; ; ; 5.<X,Xx.,Xx.x.k.k.k.g.k.l.>X:Xc.:X:X>X:X:Xc.",
":X:X:X:X:X:Xx.:Xv.k.p.p.P.B.x i F 3.(.(.$.s % $ s :.>X:X>X>X:X:X:X:X<X%.$ O ; ; : ; 5.,Xx.,Xx.x.-X:X:X:X:Xx.:X:X:X:Xx.>X:X:X:X:X",
":X:X:X:X:X:Xx.g.k.k.oXA. .g V W.`.4.L = % % & S 5.:X>X>Xx.:X>X,X:X:X<X4.a O O O ; O 1.:X,Xx.,X>X:X:X:X:X:X:Xx.:X:X:X,Xx.:X:X:X:X",
":X:X:X:X>X:Xk.g.j.+XZ.b V ,.(.4.L = % * D 7.p.j.z.x.v.x.>X:X>Xx.v.x.v.4.0 O O O O 7 6.<X:X:X:X:X:X:X:Xx.,Xv.,Xx.x.>X>Xx.:Xv.x.:X",
":X:X:X:X>X:X4X8X|.H.M @.(.:...= = S X.a.k.c.x.x.x.x.v.>Xx.:X:X:Xx.v.v.;.7 O O X O p 9.<X:X:X>X:X:X:X:X>X,X>Xx.,Xx.,X:X>X>X:X:X:X",
":X:X:X:X:X1XyXyXW.o.,.(...= S X.w.k.-X>Xv.v.x.x.x.,X,X,X>X:X,Xx.>Xx.v.;.2 O X + X H y.:X:X:X:X:X:X>X>X:X,Xx.:X>X,Xx.,X:X:Xx.>X:X",
":X:X:X:X:X1XtX6X{ Z S G = %.s.s.h.:X>X:Xv.x.x.x.,Xx.x.,X:Xv.x.,Xx.,Xv.;.< X . . O :.:X:X:X:X>X:X:Xx.:Xc.x.:X:X:Xx.v.x.>X,X,Xc.:X",
":X:X:X:X:X1XrX|.-.` Z P &.i.g.k.k.l.:X:X:Xc.:Xc.x.,X:Xx.v.x.x.>X,X:X<X+.O X . . a 9.>X>X:X:X:X:X>X>X:Xx.:Xc.:X:X,X>X:X:Xx.,X:X:X",
":X:X:Xc.>X1XrX|._.(.t.:X<X>X:Xx.c.-X>X:X:X:X:X-X>Xx.v.x.v.x.x.,X:X:X2XO.X . o $ =.j.>X,X:X:X:Xx.>Xx.>Xx.:X:X:X:Xx.x.c.:Xc.:X,X:X",
":X:X:X:Xc.1XeX|._..X:X:X:X:X:X:X:X:X:X:X:X:X:Xc.,X:X:X,Xx.x.x.,X:X>X+XF   . + s t.>X,Xx.:X:X:X:X:X>X:X:X:X:Xx.:X>X:X>X:X,X:Xx.:X",
":X>X>X:X:X;X6X_._.'.:X:X:X:X:X:X:Xc.x.:Xc.:X:X:Xx.:Xx.>Xx.x.x.x.:X<X0.a . . % ;.j.>Xx.,X:X:X:X:X:X:X:X:X:X:X:X:X>Xx.:X:Xx.:X:X:X",
":X:X:X:X>X*X|.{._.).:X:X:Xx.c.:X>X:X>Xc.:X:Xc.c.:X:X:X:X:X:X=Xk.=X:X9.s @ @ K i.<X:X:X:X:X:Xx.:X:X:X:X:X>X:X:X:X>X:X:Xx.>X,X>X:X",
"c.:X:X:X:X*X'._._.).:X:X:X:X:X:X:X:X:X:Xc.:X-Xc.:X>X:X:X:X:Xl.h.h.;X2.K Z - >.@X<X<X:X:X:Xc.>X:X:X:X:X:X:X,X:X:Xx.,X:X>X,Xx.x.,X",
"c.:X:X:X>X:X@X'.~..X<X:X:X:X:X:X:X:X:X:X-Xc.:X:X:X:X>X:X-X:X:Xg.=X3X.X-.{ Q >.Q..X1X1X>X>X:X>X>X:X:X:X:X:X>X:X:X>Xc.:Xx.:Xx.:X,X",
"k.:X:X:X-X:X:X@X.X:X>X>Xc.c.,Xx.:X:X:X:Xc.c.:X:X:X:X:X:X:X:X:X-X:X$X(.E.{ { { #.<.~.~.9.h.:X:X=X:X:X:X:X:X:X:X:Xx.,Xx.c.:X,X:X:X",
"=X:X>X:X:X:X:X:X:X:X:X:X:X:X:X:X:X:X:X:X:X:X:X:X:X:X:X:X:X:X>X:X:X*X8.>.Q J J J Q <.t.@X-X:X:X1X:X:X:X:X:X:X:X:X:X:X:X:X>X:X:X:X",
":X:X:X:X:X:X>X:X1X:X:X:Xx.:X:X:X>X:X:X:X>X:X:X:X:X:X:X:X:X:X:X:X:X-X=Xa.y.y.y.y.a.=X:X:X:X:X:X:X:X:X:X:X:X:X:X:X:X:X:X:Xc.:X:X:X",
":X:X:Xc.:X:X:X:Xx.:X:X:X:X:Xx.>X:X:X:X:X>X>X:X:X:X:X:X:X:X:X:X:X:X:X>X>X:X,X,X:X>X>X:X>X:X:X:X:X:X:X:Xx.:X>X:X:X:X:X:X:X:X:X:X:X",
":X:X:X:X:X:X:X:X:X:X:X>X:X:X>X>X:X:X:X>X1X:X:X:X:X:X>X:X:X:X>X>X>X:X1X:X:X:X,X:X:X:X:X:X:X:X:X:X,X:X:X:X:X:X,X>X:X:X:X:X:X:X:X:X"
};
