/* XPM */
static char *result[] = {
/* columns rows colors chars-per-pixel */
"64 64 89 1 ",
"  c #859EC2",
". c #85A2C3",
"X c #8BA4C4",
"o c #8EA9C6",
"O c #85A5CC",
"+ c #8AA7CA",
"@ c #8FADCD",
"# c #93A4C3",
"$ c #95AAC6",
"% c #9CABC6",
"& c #94A7C9",
"* c #94ACCB",
"= c #9BAECA",
"- c #92B1C6",
"; c #96B0CE",
": c #9CB4CB",
"> c #9DB8CE",
", c #96B3D2",
"< c #9BB6D2",
"1 c #9DB9D2",
"2 c #A3B4CB",
"3 c #AAB5CB",
"4 c #A6B9CC",
"5 c #ABBACD",
"6 c #B5B6C3",
"7 c #B7B8C5",
"8 c #BABAC7",
"9 c #B2BBCD",
"0 c #BCBDCA",
"q c #A3B4D1",
"w c #A8B7D5",
"e c #A5BCD4",
"r c #ABBDD3",
"t c #A5BED8",
"y c #A9BFD8",
"u c #B3BED2",
"i c #B8BED1",
"p c #C1BDC7",
"a c #C1BFCA",
"s c #AEC3CF",
"d c #B4C3CE",
"f c #BDC2CD",
"g c #BECACE",
"h c #A7C0D6",
"j c #ADC2D5",
"k c #A7C2D8",
"l c #ACC3D8",
"z c #B4C4D4",
"x c #BBC5D4",
"c c #B5C8D5",
"v c #BCCAD5",
"b c #B3C4D9",
"n c #BAC6D8",
"m c #B5C9D9",
"M c #BCCCD9",
"N c #BFD0D7",
"B c #BED0D8",
"V c #CEC7C7",
"C c #CEC8C7",
"Z c #C3C2CC",
"A c #CAC6CC",
"S c #C3CBCE",
"D c #CEC9CD",
"F c #D3CDCD",
"G c #D6D1CE",
"H c #D9D3CF",
"J c #C3C5D2",
"K c #C3CCD4",
"L c #CBCCD4",
"P c #C2CED9",
"I c #CACFD9",
"U c #D1CDD2",
"Y c #D1CFD8",
"T c #C5D1D5",
"R c #CAD1D5",
"E c #C3D1D9",
"W c #CBD3D9",
"Q c #D6D2D2",
"! c #DBD5D2",
"~ c #DED9D4",
"^ c #D5D4DA",
"/ c #DAD6DA",
"( c #D6D8DA",
") c #DED9DB",
"_ c #E0D9CF",
"` c #E2DBD4",
"' c #E1DCDA",
"] c #E6E0D5",
"[ c #E8E0D5",
/* pixels */
"66666666666666778888888887778888887appp8pppppZpVVVVVCHCCHHFUGUAx",
"6666776676778780888088088888888a887aa7aaapZppVAAVFFCCCHHCHGHGGDS",
"776677778888p8880000p800008988008777aaaapAAZAAAAFFFFCHCH_HHH!HQR",
"78770780888p888Z0p008000008088808iaaaaaaAaAAAAFFFFFHHHHH_H_H!~QG",
"888890080008Z8Z0a000000000800000aaaaaaUaAAADDDDDFFHHHH_HH~~_~~!H",
"0908000000p0fppZJ0Z00ai0000000aaaaaUaUFGADFFFDFFFFFHHHHH~~_~~~!G",
"000d00f0pffZZ0ZZaaaia0a0ia000aaJUaaaaUUUUFGUFFFUFFHHHHHHH__~~~!Q",
"0000000ZpZZZZZZZZfZa0JxaaixaaaJAaYYa!!aFDFGGFFFUFHHFFH____~~~!!Q",
"000000aZZZZZZffff0f00Ziaai0089fA!UUUUUUUDFGGGHGGGGHGHHH!~~__~HHH",
"faxaZaJaZZZZ942224350000i3# X$#%a!GGUFDDDUFHGHGGGGQHHHHHHHH~HHH!",
"Z00aJZaJZZx52342=$oo=5x03#  &2927aQQQLUUFUGHGHQGGGHQHHHHHHHHHH!!",
"xJxJZJJaZf524dggd4$X.X22#&4udcvviaUQUUUFUUHH!G!GGQQHHHQHH~HHH~H~",
"ZaJJJJZJZd22dgggxds:X.XX&zdddgvKi3AQUUQ!HH!!QGG!GFQGHHHHHH!H!H~~",
"JJJJZJJaf7:dSSg75ddre+  rJKKKSggx2xQUQQ!H_!!H!!!QQQQHH!!~!~~!~~H",
"JJJJJJJJZ52gSgggrddjjr:4dvKSgvgKK4iUQ^Q!HQ!!!!!QQGHHH!~H~!~HHH~~",
"JJJJJJfZf9sgSSggrdj5zzzzzvdKvgKKx2zUUUQ~___!!!!!QQ!~~H~~~!HH~~H_",
"JJLLaaJnJuwzLDggddzrzzzzcdvvdcvvx2zKLQ~`_____/!!~~H~/___!!!Q!!Q~",
"LLaLIaJaxi42STTSKczzzdzzzccche4>++$29U__`_```__!H`~__!/!/!!!!QQ~",
"LLJJJJJJiir-:dgNgzhjczccccbh*@1>****$Z~`_````___``H`!`_!!!/!/Q/!",
"LLLLIaiw2:=$->-szjhdcccvvcj>;jvvvcur$9Q``````_`__H`H_!H!!_!/QQ^!",
"YYYLJiwq=2zccs4$*ucbcvvvczjljcvMvMvc59U``[[`````_~HH!HHHH!Y!QY!/",
"YYYYJi9w5vRLTgcj<zxxxxxvcbccjbcmvvKvx9U`[_[[`'__~H~QQHHGHHH!!YU/",
"YYYIJuiaKTRRTSvvxKKvnKvvMbclkjblbxxcxiH`[_[_'___HHHFGGHHHHHHG//U",
"YIYYJunPTSTSTTTTKKKJKvKxMjljkkkthjbbn0G_[[[[`_`!HHHQGGQHHHHHYG//",
"Y^YYIinPJIIKTTTTTKKvKKnnblyy<,,,1ybxn0U``[[```_!HHGHGGG!HHHH!H!/",
"^Y^YIiiPIIIKSTgNMzzJJKKnbblq,,OO+;rnix!'[[[```HHGHHHYGGQHHHH!!!!",
"^QYYLibiKKKRTSNBl:rxKxJnbbbbyytt1;;qix!'[[[[`_!!!UYHHHGGH!G!!!!!",
"/^/YYPuybxMKNgvj,<xKJJnnblbbbuyblywq=5L~[`[``_!HHH!!GGGGH!!!!!Q/",
"Q^^UYYnbkjjvccj1,exIJxxnwwbubbbbbnKKx29Z````_!!!!!!YGQ!!H!!!!!!!",
"/^^YUYIayyleh1>ekjIWKKnxwqbnbbbnKKKKIK54U'``_!!!!!!!Q!!H!_!~!!!!",
"/Q//YYDaxbxxcdvnblxW^Kxiq&unnnnnnKKILWv5a'``_!!!!!!HHH!!!~!!!!!!",
"Q/^YY/YYULLLRDLKljjIIIKx=&wunPnnnKKLWWIda'[`_~~__~!!~!_~~!!!!!!/",
"//!/!^/!~~)/(QUIxbbxIJ94qiuwbvKxnIKIWWRdL```~_~~~~H_~_~H`H!~!!/!",
"~!///(~)~)))`!QLKJKxxu423JJxiJJKKJIKKRRW~```~```___`_~_~_~!_!!Q/",
")~!//Q/))`']'~/QLKJKxr49JQQULafvnxxKKRW!````_``_`_`~~~~_~~!!!/^!",
"~)/~)(~~)]]]]```/!LLJvfL!~`/UIKJxvvJKR/```_~`__`_`_~`_~_~!H~!!Q^",
")~~/!~/))`]]`````/!QQQQ(/`)~Q!UIKLIQ/)]``_H`~`````_~~~~H!!!!!^QY",
"`))~)~)~)`))````~!!!!!~~`~~~~QQ!GQ!~`]]]~~__`~```~~`_~~H!~!!!!!^",
"'''`])~)~`~~`~H~!!!Q!QQ~~~!!!!!!H!````'`~H~``````~~~~~~~_~~^!!_!",
"]'`)~`)~~~~~H~HQHHHQQHHHQH~HHHQ_H~`````~Q~``'`~~Q((~~`~~~~!~!H!!",
"'')])~)~~_~HHH!GHGRGGQGGHHHHHQHHH~~~_]~H~_]`'`^MbvKW/~~~~~`~!!!U",
"]')])~~~``~HHHH!GGGGGQGGHQQ!HHQQ!HHH~_~~_``]`(vjcMMvT^QWU~``!!~/",
"))`)~)~~_~~!HHGHQHHGGHQHQHHQQHQGH!H!~~~``]]')TmBBTTMcvvdiJ'`~~!~",
"'))~!/~`~~HHGQGQQHHHQQG!!QGHHQHGHQ!!~H~_]])((cmNEWTTbycEKiL'/!Q/",
"`)/!//``~!HQGQUGHHHHQQH!QHQ!HQUGQH!!~~~`](NcjkcEEWWMscTWWMK)`~!Y",
"))///!``~!QGGGGQHHH!HH!!!!H~~HQQ!!H~~~~](TTTBmBTWTTccTTTWKv!'/!Y",
")/!//```~HQQGGGGHHHH!!!!~!~!H!Q~~~~~~```RvRNNNgTTTTvTRTTWvxU'/^Y",
"/////``~~QGGGQGGHHH~HH~!H_!!!!!~!~~~~_`]IcTNNNTTTTSTRTTTRvbL~~//",
")////``_!!!HGGQHHHQHH_H__~!!!____~~~)~``WmMMBBMERTWWEPTWKcM/~)))",
"////'``_!_H!GQG!!HH~H~!~~___~_~~~~!~~`'])mmmmMMETTWEBBEEWMv^)~))",
"//!^/``_`!!!QHGQQ!HHQH~~_!~~~___!!~!!/`''(MkkmMEWEBNBEPPWTcI(~()",
"/////``!_!!Q!G!GGH~QH~H_!~!_~~~!!!Q/!!(]'(mlBEEEBBBNEEMPWTbK())/",
"/^///'~~`_!!H!GGQH!H!!_!!!_~!!_!!Q!!!//]'EmmEEEMEBBEBEEEWKyP)///",
"^////'`_!!!Q!QGGHQ!H!!!!!!_H!!!H!!!~//~))EmmMEEMMBMBMmmmMbyI''//",
"/////~~~!`!!!!!Q!H~Q!!!!~~QQQQ!!!!~~~)())EkmMMMlmBBMmktttlP/')'/",
"//////~Q!/~!!Q!QH!!~!~!Q!!~H!!!!!`!~)))))WmklllklmMmktlbMI)')))/",
"//////!~`__!!!!!!!!!!!!!_/!!_/_!`~_`/''/))/MbbMEbllttbI/^/'')))/",
"//////!/~''!_!``!`_~QQQ//__/___//_/''`'~)'))(/))IbyybI))/)'''))/",
")/^//^)/'``_`~```~!~/Y~~___``````_``'''`)')'))))/^PPI)////''))//",
"///////)/`!'~``!_`/!~~~/``_'_/`_!'/''''''''))))))//)/)///'')))//",
"///////)/`~~```~`~~////`/````/`_''''')'''''')))))///)))))'))')))",
"((////))''/'/``////!~~''/'`'``//')''''''''''))))))))))))))))))))",
"^^///)))'''`''//^!~///'''''`/`~/'''''''')''')'))))))))))''))))))",
"(^///))'/'''/`/~/~///'`'`'''`'`'`''['''')''')'))))))')))')))))))"
};
