/* XPM */
static char *result[] = {
/* columns rows colors chars-per-pixel */
"64 64 18 1 ",
"  c #E2C26F",
". c #E4C473",
"X c #E8C776",
"o c #E7C873",
"O c #EACA76",
"+ c #E5C378",
"@ c #E8C77C",
"# c #EDCD7A",
"$ c #F0CF7D",
"% c #EFD07B",
"& c #F4D677",
"* c #F5D57E",
"= c #F8D67F",
"- c #F5D97D",
"; c #F6D680",
": c #F9D581",
"> c #F6D881",
", c #F9D986",
/* pixels */
";;;;;;;;>;;;;;;>;;;;;;;;;;;;>;>;;;;;;;;;;;;;;;;;;;;;;;;;;;;;;;;;",
";;;;>=;;;;;>;#O#;;;;%;;;;;;;==;;;;;;;;;;;;;;;;;;;;;;;;;;;;;;;;;;",
"*;;;>:*;;;;;;#O#%;*;;;;;;;;;;:>:;;;;;;;;;;;;;;;;;;;;;;;;;;;;;;;;",
";;;;*;;:;;$%#;#;***;;;;;;;;;>*:*;;;;;;;;;;;;;;;;;;;*;;*;;;;;;;;;",
";:;;;**;;;#.+#;;;;;*;;*;;;;;:;;;;;;;;;>;;;;;;;;;*;;;;;;;;>;;;;;;",
";;;;;;;>;;%@#;,;OOO%*;;;*;*;*;;;;;;*;;;;;;;;*;>;OX@;;;;;;*;*;>;;",
"*;;;;;;;;;;;#;;;X .@#>;;;;;;;;;*;;;;;;;;;;;;**>;OXO;*;;;;;;;;;;;",
":;;;;;;;;;;;;;;;+ .+;;;;;;;;;;;;;;;;;;;;;;;;;#O%;;;;;;;%;;*>;;;;",
"**=*;>;;;;;*;;%%O#@#;;;*;;;;*:=;*;;>;;;;;;;;;X.X;;>;**;;>*;;;;;;",
";>>>;;*;;;;;;;>>;;;;;;;;;;;*>;;;*;;;;;*;;;;;;%O%;>;OO@#;>;;;;;;;",
">;*:*;>;;;;;>*;;;;;*;;;;*;;;:*;;;*;;;;;;*;;;;;;;;;*. .@;;;;;*;;;",
"*;;;:>*;;*;;>;>>;;>>;;;;;;;>>:;;;;;;;;;;;;;;;;;>;;#+ .@;;;;;;;;;",
":;*==;*;:*;;;;;;;>*:;;;>;=>*=>**;*;;;;;;;;;;;;;;;#;@##*;;;>>;;;*",
">=;>>;=>;;>**;;;;;;;;*:>;:>::>:>;;;>*OO;;;;;;;;;;;;;;;;;:;**;;*;",
">;;;>*;>;;;;*;;;*;;;;>;*;;>*:*:;;;;>#+#;;;;;;;%>;;;;;;;*;;;;;;;;",
"*;;=;=;;*;>*;;;;;;;;:**;;:*>*>*:;*##;#;*;*;*;;;;;;;;>>>=*;>*;=;;",
";;;:=;>;;*;;;;*:;;=>;*;;;>=;;;>>>%o+#;>>;*;;*;;;;;;;;;;>**;*;;;>",
";;>*>**;;;;;*;:;;;;:;;>;;;*>;;*;>%O+;>>%##**;;;;;;;;;*;;*;;;;;;*",
"*;;:;;:;;;*;;*:;;*;;;**>*:>::;>>;%;;;;>X..O*;;;:;;;;;;>*>;;;;;;;",
";:;>;;>*;;;;;;;;;;:*;;;;;;;;;=;;>>;;;;%@.X+;;;;*;;;;>*>;;;;;;;;;",
"*;;;;>;;;;;;:;;;*:*>;*>;:*>;*;>=>;>;;;;@O@#;>;;;;;;;;;;>;>=*;;*;",
"*:;::*;;;;;;;;;;>*>:;:;;*>*;;>*:;;*;;;%;;;;;;;;;;;;;;;;*;=:;;;;;",
";;;;;;;;;;>#OO#>;;*;;**;>;*;*;:;;;;;;;;;;;;;;;;>;;;;;;;;;*;;:*;=",
">;;;;*>;;;>*XX@;*;;>*>;:*:>*;:*;*;;;;;;;;;;;;>*;;;;;*;;;=>*>:;>;",
":;>;:*:>;#*#@#;;;;;*;;;;;;;;:*;>;;;;;;;;;>*>*>*;>=*;;;*;>=;;;;;*",
"*;>:*;;;#..O;>;;*;;;;;;;;;;;;;:*>;;;;;;;;>;:;;;;;==:>:>;=*>;;;;;",
";:;;;*;;%..O>>%%%%*;;;;;;;;;;;;;;;;;;*;;;*;;*;:;*>*;*=;;>*;;>*;;",
";;;;;;;;;;*;>;O. .O;;;;;;;;;;;;;;>;;;;;;=>;;;>*;;;;;;;;:;;;;;;;:",
";:;;;;;*;;;;%%@  .@;;;;;;;;;;;;;;;;>;;;;;;*;;;;*;;;;:>*;;;;;>;>=",
"=*;>;;;;;;;;%;%@X+#;;;;;;;;;*;;:;;;;;>*;;:;:*;;;*;;;;*;;>;;;***>",
">;;*;*;;;;;;>;%;;;;;;;;;;;;;:;;**;;*;;;;;;;;>;=;*:**;;;;;;;;;;;*",
"=;;;;;;>;;;;>;>;;;;;;;;;;;;**;;;;;;*;;>;:;*;;;>==;:;;*;;;;;;;;;>",
";;;;>*>*;;;>>;;*>=>;;;;>;;;*;;;;;;;;>;;;;;*;;;;;;;;:;*:;;;;;;;*>",
";;;;>:;;;>;;;>;*>>=*:**;*;;;;;;;*;=;*;*>;;;;;;;**=;*;;>**;;>:;;;",
";;;;*;:>;;;;;;;*;*;;;;*;;;;;;;;;==;;;;;*;;;*;*;;;;;;;;;;:;>;;;*;",
"*;;;;;;*;;;;;;;;;;;;;;;;;;;;;;;;:>;;;>:*;>;*X#*;*;*;*;;*=;*;;;;;",
";;;*:;;>;;;;;;;;;*>;;>;;;*:*;$;**;;;;;;;**;%X@%;;;;:;;;;>**;;;;;",
";;>:;;*:;;;;*;;;*>;;;;;;;;;;;;;;;;;;*;;;**%#%#;;*;*;;;;;;:;>;;;;",
";*;;;;;;>;;;;;>>;;;;:**:;;;;;;;;;;;;;;;;%..#>>;;;*:;;*;;;:;;:*;;",
";;;*;;;*;;;*;;;>:*;;;;*;;;;*;;;;;;;;;;;;%@X;>;%##**;;*;:;*;;;*;;",
";:;;;>*;;;;;;;;%*;;;*;;;;;;;;;;;;;;;;;;;*;*;;;.  .;;>=;;>:;;=>*>",
";;;;;;:;;;;;;;;;>;;;;;;;;;;;;;;;;*;*;;;*:*;*;#+  +;;;;*;>*;;:=;;",
"**;;;;*;;%X@;;;;*;;=*;:*;;;;;;;#;;:;:;>*;;;;;;#O@#;;;**:;;;*:**;",
">:;;;;;;>%O+#;;;;;;;;>;;;;;;;;;;;*;;;;;;;;;;;;>;;;:>;;>*:*;;;;:>",
";;;;;;##%;;;;**>**;;>=;;;;;;;;;;;;;*>;>*;;;;;;;;;;;;::=>;;;;;;;;",
";;;;;;#O.#;;;**;;>>;;;;;;;;;;;;;;;;;;;:;;;;;>;;;;;;;*>>*;;;*;;*:",
";;;*;;*##;>>@oXO*>;=;;=*;;;;;;;;*;>;;;;*;;;;;;;;;;;;;>*:=;;>>*;>",
";;;;;;;;;;>%X .X%;;;;*>=;;;;;;;;;:=;:*;:;;;;;;;;;;;;*;>:>*=>:=;*",
";;*::;;;;**%@..+#>>;:;;;;*;;;;;;;;;;;;*;>*;;;;>*;%;;>;;;:=;;;;;*",
"***;;;*>;*;*%##%;;;;;;;;;;**;;;;;;;>;;;;:;;;=*>;;;;;*;>**>;;;;:>",
";>:;;*;;;;;;;;;;;;;;;;;;;**&;;;;;;;*>*;=;>;;;;:;;;;;;;;;>*>;;;;;",
":*;;;;;;>:;;;;;;*;;*;;;;;**;;;;;;;;=>:;;;*;=;;;*;;*;:;*;;;:**;;;",
"*:;*>;;;;;;;;;;;=*;;;;;*;*;;;;;;;:*;;;*:;>;;>*;;;;;;;;:>;=;;;;*;",
"=*;;*:;*;;;;;;;;;;;>;;;;:*;;+++;;;;>;;;;*=*=;;>;;;;*>:;*;>;;>;;;",
">*;;>>:>;;;;;;;;:;;;;;;;:;;;+ +;;;*>;;;;;;>;;;;;;*;***>;;*;;>==;",
"*;;;:**:;;;;;;;;;;*;;;;;;;;;;;;;>;>;;;*;;*;;*;;*;;;;;:;*;:;;**;;",
";>:*:;;;;;;;;;;;;;;;;;;;;;;;;:;;*;;*;:=>;*;;;;;>;*;;;;;;;;;;=*;>",
";*>>>;:;>%;;;;*>;>:;;;;;;;;;;;;:;;;>;;*;;;:;;;;;*;;;;;;;>*;;=>;;",
":*;*;;;;>*;;;;;*;;;>;;;;;;;;;;;;;>;*;;;;;;;:;;;;;::;;;;;:;*;;;*;",
">;;:;*;;>;;>;;;;;>;>;;;;:*;*:;;;;;;;;;;;;;;;>*>*;;*;;:;>;;;;>;;;",
";>>,>;,>,;>:;>>>,:;>>,>:;>>,>,>>>;,;>>>,>,>,>,>;>>>,>>>,>>>;>>>>",
"&&&*-&&&&-&&&&&*&&&&*&&&&&*&&&&&&&&&&&&*&&&&&&&&&&&&&&&&*&&&&&&*",
"::,:==:>::::::,:>=:>:::::=::=:==,:=::;::=>::::=:::::=::=::::::::",
"=*&*=-===*---=**-===**---=**-====*--===*-===**--==*;-=--==--===*"
};
